/* XPM */
static char *result[] = {
/* columns rows colors chars-per-pixel */
"75 75 245 2 ",
"   c #020202",
".  c #0A0303",
"X  c #020A04",
"o  c #0A0906",
"O  c #02030A",
"+  c #0B050A",
"@  c #040A0A",
"#  c #0B0A0B",
"$  c #120304",
"%  c #190807",
"&  c #12040C",
"*  c #120D0B",
"=  c #051209",
"-  c #19130D",
";  c #0A0A14",
":  c #170912",
">  c #1C0D15",
",  c #0B1518",
"<  c #161415",
"1  c #1B1611",
"2  c #270709",
"3  c #360709",
"4  c #230D16",
"5  c #260C19",
"6  c #251619",
"7  c #321011",
"8  c #381718",
"9  c #172218",
"0  c #28221C",
"q  c #35271D",
"w  c #3B381F",
"e  c #320E24",
"r  c #2A1223",
"t  c #321324",
"y  c #3B192B",
"u  c #3C1A32",
"i  c #192426",
"p  c #1C282D",
"a  c #1E2B32",
"s  c #183232",
"d  c #2B2824",
"f  c #332D24",
"g  c #393327",
"h  c #373335",
"j  c #460A0F",
"k  c #461718",
"l  c #56191A",
"z  c #591B1C",
"x  c #6B191D",
"c  c #6D201E",
"v  c #441829",
"b  c #521625",
"n  c #451A34",
"m  c #551C3A",
"M  c #741D24",
"N  c #44392C",
"B  c #49263A",
"V  c #552532",
"C  c #453B32",
"Z  c #6A2429",
"A  c #752529",
"S  c #7C2F37",
"D  c #494135",
"F  c #51483B",
"G  c #343E44",
"H  c #592A44",
"J  c #5B334B",
"K  c #632D4B",
"L  c #69324D",
"P  c #77324E",
"I  c #6A3556",
"U  c #773659",
"Y  c #7C3B5C",
"T  c #773963",
"R  c #7E3B63",
"E  c #324B52",
"W  c #3B555A",
"Q  c #3C5B63",
"!  c #3F6164",
"~  c #564B44",
"^  c #5C5344",
"/  c #44595C",
"(  c #675B49",
")  c #73495A",
"_  c #75644C",
"`  c #786B58",
"'  c #7D7259",
"]  c #435D62",
"[  c #4A5C65",
"{  c #7A4166",
"}  c #446164",
"|  c #496468",
" . c #4C6E74",
".. c #902C35",
"X. c #8B3237",
"o. c #953239",
"O. c #9C393D",
"+. c #AC333B",
"@. c #B73A3A",
"#. c #BC3B3E",
"$. c #C43C3E",
"%. c #BA423E",
"&. c #C4413D",
"*. c #89364B",
"=. c #963945",
"-. c #872F5B",
";. c #84345E",
":. c #8A345E",
">. c #833A5D",
",. c #8A3958",
"<. c #933A5A",
"1. c #993B58",
"2. c #A53B48",
"3. c #BD3D45",
"4. c #B43B4A",
"5. c #BD3E4A",
"6. c #A63B55",
"7. c #B63B54",
"8. c #8F2F65",
"9. c #853663",
"0. c #8B3663",
"q. c #863A63",
"w. c #8A3A64",
"e. c #8B3669",
"r. c #833A69",
"t. c #8C3C6A",
"y. c #933563",
"u. c #923B64",
"i. c #923C6C",
"p. c #A03960",
"a. c #C33D45",
"s. c #C83944",
"d. c #C43D4B",
"f. c #CA3D4A",
"g. c #D03E4C",
"h. c #914448",
"j. c #9D425D",
"k. c #A5454A",
"l. c #B54546",
"z. c #BD4146",
"x. c #B64349",
"c. c #BE4149",
"v. c #BA4A4A",
"b. c #AB4452",
"n. c #B64656",
"m. c #BD4452",
"M. c #B65154",
"N. c #866E53",
"B. c #85755A",
"V. c #834263",
"C. c #8B4266",
"Z. c #8C426B",
"A. c #89476A",
"S. c #95446A",
"D. c #934472",
"F. c #BD4561",
"G. c #897965",
"H. c #937C6A",
"J. c #C34144",
"K. c #C14149",
"L. c #C64648",
"P. c #CA434B",
"I. c #CC4A4E",
"U. c #D2434E",
"Y. c #D1494D",
"T. c #C3504E",
"R. c #CC4352",
"E. c #C84753",
"W. c #C44B53",
"Q. c #D54756",
"!. c #E34B5C",
"~. c #DF5065",
"^. c #988569",
"/. c #928674",
"(. c #9B8A73",
"). c #A38A70",
"_. c #A89478",
"`. c #B79C7C",
"'. c #B5A07D",
"]. c #C5A37E",
"[. c #587A81",
"{. c #6E8B94",
"}. c #71949D",
"|. c #7495A2",
" X c #7CA4AA",
".X c #9C9793",
"XX c #AA9A89",
"oX c #B59B85",
"OX c #BBA587",
"+X c #B9A98E",
"@X c #83AAB2",
"#X c #8EB2BA",
"$X c #AFAFB0",
"%X c #C7A986",
"&X c #D0AD8A",
"*X c #CDB58B",
"=X c #D4B386",
"-X c #D9B786",
";X c #D5B58C",
":X c #D9B68D",
">X c #D5BA8C",
",X c #DAB98E",
"<X c #CBB697",
"1X c #D4B692",
"2X c #D8B695",
"3X c #D5BA93",
"4X c #DABA91",
"5X c #D4BA9A",
"6X c #DCBB9A",
"7X c #E0BB8B",
"8X c #E1BD94",
"9X c #E1BE9B",
"0X c #D1BDA2",
"qX c #D8C38E",
"wX c #CEC09A",
"eX c #DCC196",
"rX c #DBC39B",
"tX c #E2C195",
"yX c #E2C39B",
"uX c #EACA9B",
"iX c #D9C3A4",
"pX c #EBCBA3",
"aX c #E6CBA9",
"sX c #EDD4AF",
"dX c #F9E6BB",
"fX c #8CB9C5",
"gX c #99BBC7",
"hX c #92BECD",
"jX c #90BFD2",
"kX c #A1BECE",
"lX c #98C2CD",
"zX c #8DC2D1",
"xX c #95C3D3",
"cX c #9AC4D4",
"vX c #96CDD5",
"bX c #98C8D8",
"nX c #AEC6CF",
"mX c #A3C9D5",
"MX c #B0D6E3",
"NX c #CBD4D5",
"BX c #C2D9E4",
"VX c #D5E7EF",
"CX c #F0EDF1",
"ZX c #ECF3F6",
"AX c #F7F7F9",
/* pixels */
"4X4X4X4X4X4X,X4X4X4X4X4X,X4X4X4X4X,X4X4X4X4X4X4X4X4X4X4X4X4X4X4X4X4X2X,X,X4X4X4X4X4X,X,X4X,X4X4X,X4X4X4X4X4X4X4X4X4X4X4X4X,X4X4X4X4X4X4X4X,X4X4X4X4X4X",
"4X4X4X4X4X4X4X4X4X4X4X4X4X4X4X4X4X4X4X4X,X4X4X,X4X4X4X:X4X4X>X4X4X2X>X,X8X8X8X8X8X4X4X4X,XeX,X,XeXyX6X=X,X4X4X4X4X4X4X,X4X2X4X4X4X4X4X4X4X4X,X4X4X4X1X",
"4X4X4X,X4X4X4X,X1X4X4X4X4X4X4X4X4X4X4X4X4X4X1X4X4X4X4X4X6X,X4X,X=X7X9XpX`.%XOXOX'.].].].].].OX].OX`.%XuXeX;X6X4X4X=X6X4X:X4X,X4X,X4X2X4X4X4X4X4X4X4X,X",
"4X4X4X4X4X4X4X4X,X4X4X4X4X4X,X4X4X4X4X,X4X4X4X4X4X,X6X5X*X4X,XtXuXyX/.G..   o .   o   . o o . . . .   XX).aX=X,X:X8X4X8X:X4X8X4X4X4X,X4X4X4X4X4X4X4X4X",
"4X4X4X4X4X4X4X4X,X4X4X4X4X4X4X4X4X4X4X4X4X4X4X4X4X4X4X4X,X4X:X%X_ (     # + ; & & . X X X   X       #     (.eXyX4X;X:X:X4X4X4X4X4X4X4X4X4X4X4X4X4X4X4X",
"4X4X4X,X1X4X4X4X4X4X4X4X4X4X4X,X4X,X4X4X4X4X4X4X4X4X,X-XuX3X( g @   . # O   O     . .     .   .   # O O O   ^ _.<XaX:X8X:X9X1X4X4X4X4X4X4X4X4X4X4X,X4X",
",X4X4X4X4X4X4X4X4X4X4X4X4X1X4X4X4X4X4X4X,X4X4X4X,X,XeX*XB.g   O       . . $ k Z M c c A Z Z A Z k   +           F <X5X4X:X2XtX4X4X4X4X4X4X4X4X,X4X4X4X",
"4X4X4X4X,X4X4X4X4X4X4X4X,X4X4X4X4X4X4X,X,X6X1XqX>XaXoXD   + O         $ z O.c.Q.g.P.L.L.P.J.L.L.#.2.7   X . O @   N OXrX8X=X4X,X4X4X4X4X4X>X4X,X4X4X4X",
"4X4X4X4X4X4X,X4X4X4X1X,X4X4X4X4X4X4X4X,X4X9X2X,X*X^.0     .   = . k x b.E.d.#.z.v.c.c.c.c.c.c.z.L.J.4.Z 4 . . X O X < (.6X4X,X2X4X4X,X4X3X,X4X4X4X4X4X",
"4X4X4X4X4X4X4X4X4X4X4X4X4X4X4X4X4X4X4X>X,X;X,X&XiXd . o   . X 2 A E.Q.d.$.P.d.z.x.z.d.a.J.c.a.d.3.l.%.!.P.Z   . # @ +   _ pX=X,X4X6X4X,X4X4X4X4X4X4X4X",
",X4X4X4X4X4X4X4X4X4X4X4X4X4X4X4X4X,X4X,X6X-X4X&XD o     .   P K.a.l.@.v.v.z.3.f.g.K.c.z.c.c.c.c.c.W.3.@.L.P.=.  . O O O * OX*X>X,X4X4X4X4X4X4X4X4X4X4X",
"4X4X,X4X4X4X4X4X,X4X4X4X4X4X4X,X4X4X4X2X;XrX'.w . X @   = X.g.U.3.v.I.J.z.z.W.c.%.z.z.x.z.z.z.z.5.3.P.P.x.5.P.2.-   O O   N sX,X,X,X6X4X4X4X4X4X4X4X4X",
"4X4X4X4X2X4X4X4X4X4X4X4X4X4X4X4X,X4X4X8X-XrX( . #   X   Z R.d.l.z.f.L.3.d.d.P.K.Y.Q.R.U.U.R.R.U.P.f.4.2.=.4.+.k.N   X O   * ' yX4X;X4X4X4X4X4X4X4X2X4X",
"4X4X,X4X4X8X4X4X4X4X4X4X4X>X4X4X>X4X,X&XsX(.1 O O   X M d.c.3.x.I.#.&.#.E.E.2.x Z Z Z Z Z Z Z Z V 6   $ % $ . $ $ & O     # ` dX;X4X;X4X;X4X4X,X>X4X4X",
"4X,X4X4X4X4X4X4X4X4X4X4X4X:X4X4X4X4X,XuX`.w @ O @   k %.R.d.x.d.@.P.3.K.h.3 $ o X   . . . . . . .   o . #       . +   @   o < f (.iX1X4X,X>X4X4X,X4X6X",
"4X2X4X4X4X4X4X4X4X4X4X4X4X2X>X4X4X:X=XpX_.9       2 X.M.J.s.M.L.3.v.*.2 . X @   O .     O #       o                     .         0 _.6X4X-X4X4X4X4X,X",
"4X4X4X4X4X4X4X4X,X4X4X4X1X4X:X:X4X,XyX%XS X     o z 3.a.#.$.z.@.Q.z   X *   O . . O O O O . O . .   .X.X$X$X.X$X$X.X$XH.i <   O @ # O B.5X1X>X4X4X:X2X",
"4X,X4X4X4X4X4X4X2X4X,X>X>X8X2X1X4X=XeX`.0 X   O $ X.Q.J.P.v.L.P.2.. . . . . + , s  X#X@X@X#XnXNXNXNXAXAXAXAXAXAXAXAXAXAX$Xp   O O O o   ` +X*X,X6X4X,X",
"4X4X,X4X,X,X4X4X3X4X:X:X;X2X;X4XpXyXsX%Xf   +   8 k.f.5.d.v.#.Q.k X   +   , E [ E fXbXxXmXBXAXAXZXAXZXZXAXCXCXCXAXZXAXZXNX@X[.6   O O   O h =X,X6X4X,X",
"2X4X4X4X:X&XuX;X>X*XyX9X9XaXaXH.        O   X % ..Q.x.c.L.%.Q.b     . X   G [ Q E fXcXcXjXgXMXZXAXAXZXZXAXAXCXCXAXAXVXmXjXvXMXlXs   # . #     ^.uX:X2X",
",X;X,X:X8XqX=XpX1X_.C             O         - S a.s.x.5.L.@.Q.z   +     9 / [ E @XcXkXxXjXjXkXkXlXkXlXnXBXVXVXVXVXBXmXzXzXxXxXbXlX[ .     o o ^.uX,X2X",
";X,XtX=X=X9XOX~ f X O O O O #     . .       b M.f.$.P.c.J.3.M.V     * , E | W {.zXlXxXjXxXbXbXjXcXbXxXxXjXjXhXfXgXxXcXxXxXxXhXzXbXmX{.  . X o ^.uX:X6X",
"tX-X:XyXiXoX+ o X     .         @   = =     z v.$.3.x.c.z.P.M . X O . i } ] E  XvXcXxXxXjXzXxXxXxXxXxXxXcXvXcXcXbXxXxXzXjXbXbXbXzXbXfXd X   = ^.uX;X4X",
",X,X6X*X` X   O O $ .   % A X.X.S H 5       Z I.J.W.d.K.%.Q.A .       , / ] Q @XlXjXcXcXbXbXxXbXbXxXxXxXcXxXxXvXbXzXjXxXbXjXjXkXzXxX@X; * X o ^.uX-X4X",
"-X,X6X<Xh     X X 2 7 ) k.T.#.R.6.;.r . @   l R.a.5.d.d.z.P.A     o * / / [ ] Q #XcXcXxXlXlXlXlXjXxXxXxXxXxXxXxXxXcXcXxXxXcXbXkXzXvX@X: X X * ^.uX;X2X",
">XtX1XN     %   7 2.L.$.f.z.l.4.y.K < . X @ ..d.3.K.x.z.P.X.  O X   < / ] ] [ W }.vXhXbXxXxXxXcXbXxXbXxXxXxXxXxXxXbXcXhXcXcXbXbXxXvX}.&   X o /.pX-X,X",
"4X1XN.<   O X X ..Q.3.3.3.m.6.1.R u   .   k m.P.#.d.3.3.E.X.  @   O @ W Q Q Q [ ]  .lXmXlXlXmXjXhXxXxXjXxXjXxXxXxXzXzXbXxXvXcXmX}. .,   . # * ^.sX:XyX",
"4X<X(   X   % Z #.g.#.m.m.b.<.9.m     . . 7 P.J.L.L.J.K.J.X.  O   * E / ! Q [ Q ! ! W  .#XfXfXcXcXxXcXcXcXcXxXbXbXbXfX#XfX#X}.E Q W ;       q _.uX].4X",
"4XXXh   X   k !.z.l.c.k.6.,.e.i.u     .   k d.5.l.z.z.3.E.o.  . X . # / | } Q } W ] | W E Q [.}.}.}.}.}.}.}.}.}.|.{.} E E W W ] / :       * B.aX-X8X6X",
"6XB.  ;     v F.2.*.S.0.:.Y 9.S.y   O O @ *.Q.d.l.c.I.K.P.o.% X X   O i E } [ ]  .] | ] E ] W [ | ] ] ] / } } } Q Q Q } [ ] } [ i     X X . B.yX7X8X;X",
"4X' O O   + B V.y.R 9.r.R Z.9.y.n   .   , b.d.s.l.L.K.x.s.W.V X     .   i / / | ] | W }  .W ] ] [ ] ] [ ] ] ] ] ] } ! Q | W E , O . O     ` 6X6X=X2X6X",
"<X_       4 S.;.r.0.9.q.9.w.9.e.n X     5 S.7.f.%.z.c.c.f.$.b.k     . .   o E / / W W / / E s a a p p p p p p p p p a a h *   X     #   f +X4X4X,X,X2X",
"G.        5 S.;.r.i.Y q.w.q.e.w.n       5 *.6.E.3.3.P.K.l.z.f.Q.l         o     =       . . . . .                 X X X X X     #     ( iX3X,X4X4X4X4X",
"H.  O O   4 u.w.R e.e.q.9.w.9.u.n       r ;.6.W.c.a.P.d.v.c.s.g.M.S X X . . . & . X               O                 . . . . . O   * H.iXqX,X,X4X4X4X4X",
"H.  O O # ) <.9.r.0.w.q.w.q.9.t.n       : I <.6.c.K.3.a.P.#.v.x.$.U.6.3   = X . X         O       O       O O   . * % 7 $ X O . - _.iX,X:X,X,X4X4X4X4X",
"G.  O O @ J y.0.r.0.q.9.w.C.9.w.n   X .   u Y 6.c.K.z.z.d.P.3.c.a.3.f.k.l l z z l l z z z z z l z z z z z z z l z +.g.~.=.2 X   d `.pX:X:XyX4X4X4X4X4X",
"B.  O   . > :.q.q.9.q.0.q.w.t.q.m . X .   r C.<.7.P.z.z.z.d.L.3.x.c.a.J.K.R.U.R.K.P.P.P.P.P.E.P.P.P.P.P.P.P.R.P.P.J.L.O.j . .   - `.uX=X9X1X4X,X,X4X,X",
"^.-       4 y.>.r.9.C.:.Y y.9.V.;.t     . 5 C.;.p.P.&.K.c.z.5.d.J.z.3.z.c.3.z.a.5.5.c.5.3.3.5.5.5.5.5.5.5.5.5.5.3.#.I.o.2       2 _.uXtX,X4X4X4X4X4X4X",
"iX`   O   4 y.9.w.q.:.>.Y 0.;.C.C.u       e Z.q.p.K.z.z.c.d.K.c.K.K.K.K.J.K.K.c.K.K.m.K.d.c.d.c.5.c.m.c.c.c.K.c.d.#.I.o.2     O ( <X2X;X4X,X4X4X4X4X4X",
"5X`   X X 4 u.>.w.q.w.w.q.y.0.9.-.t .   . e Z.r.<.5.J.z.J.c.K.J.c.K.K.c.c.K.K.K.K.c.d.K.K.c.c.c.c.d.K.d.c.K.K.m.K.z.Q.o.2     1 (.pX-X1X4X>X4X,X4X4X4X",
"5X`       4 u.q.q.w.q.w.>.:.;.9.>.v       e i.T >.7.z.J.c.d.K.c.z.J.c.K.J.c.K.J.c.K.5.c.c.5.c.c.3.c.c.5.5.c.c.c.c.3.I.o.2     1 ).pX:X8X4X4X4X4X4X4X4X",
"6X`   O   4 u.Y w.q.w.9.q.0.,.q.>.u   X   j i.T >.7.K.c.c.z.J.K.K.c.c.c.c.5.c.c.c.c.K.5.K.5.d.c.c.c.d.c.K.K.5.c.K.$.Y.o.2   X - ^.pX&X:X1X4X4X4X4X,X4X",
"3X`       > >.:.r.q.q.w.>.,.r.>.C.v       O I D.r.:.n.$.a.K.m.x.3.J.K.z.J.c.J.5.z.K.K.K.c.K.K.z.K.K.c.K.K.K.c.K.5.z.I.X.2   . - ^.uX-X4X3X,X4X4X4X4X4X",
"3X`       6 C.:.q.q.:.9.t.:.w.9.>.v         n 9.9.>.6.J.z.z.K.K.c.3.K.K.K.c.K.K.K.c.c.a.5.J.K.K.z.c.z.c.d.c.c.c.3.$.I.o.2   . 1 (.pX;X2X5X,X4X4X4X4X4X",
"1X`       1 C.-.9.r.0.C.w.;.q.;.>.m .       v r.t.;.<.6.c.&.$.J.K.x.c.5.K.K.c.c.K.J.c.c.K.J.c.K.K.5.K.K.K.K.K.c.x.#.U.o.2 X   - ^.pX-X6X4X,X4X4X4X,X4X",
"4X`       > V.u.w.r.0.9.9.w.r.9.t.U 6   .   y 9.r.9.<.<.n.L.$.$.K.c.J.K.c.J.J.K.c.c.J.K.K.5.J.c.K.J.z.K.3.K.J.c.K.#.Q.=.7 X . 1 (.uX=X6X5X,X,X4X4X4X4X",
"3X`       o m 0.:.q.w.q.9.r.r.;.0.V.r .     v t.r.9.0.:.u.n.x.a.J.J.c.z.K.d.z.K.5.K.c.K.K.K.K.K.J.K.K.K.c.K.c.K.z.K.W.X.%     - ^.pX=X6X4X4X,X4X4X4X4X",
"3X_       @ t S.r.r.w.9.w.9.9.i.<.U 5   X   7 P r.r.9.r.:.1.n.c.3.J.K.c.c.z.c.z.J.c.3.K.c.z.3.K.c.K.3.z.c.J.z.a.$.T.O.j     . 1 (.uX;X6X4X,X4X4X,X,X2X",
"5X_.g . O   O B C.0.u.R q.C.9.9.w.Y 5         n y.:.R e.r.:.,.6.x.P.J.J.J.J.c.c.n.c.3.J.$.f.J.J.c.5.5.5.5.5.m.x.x.I.+.3 X .   $ /.sX=XqXqXqX4X6X;X4X4X",
"6XeX(   O     $ V t.:.i.r.t.9.:.9.C.I r       B S.w.r.9.r.9.0.1.6.7.5.J.J.J.J.s.J.c.c.K.K.K.x.l.z.J.J.J.J.z.J.J.a.U.O.7 X   o B.aX,XqX].4X8X2X:X4X,X4X",
"qX*XB.6 + X X   B A.q.-.9.9.Y ;.:.Y U 5       5 P u.r.w.q.e.r.e.:.<.6.6.7.J.J.J.&.z.3.%.%.J.K.L.m.P.K.E.K.E.d.3.s.s.Z   O   o D _ _ 6XpX&X:XeX;X8X4X4X",
"7XqXsX_.6       6 H { Y w.q.>.t.0.,.;.e   .   . m u.r.w.9.r.r.r.r.r.Y :.<.6.6.x.n.L.f.L.a.J.s.$.5.x.x.x.x.x.x.z.Q.2.2     X .         ( wXwXtX>X>X4X4X",
"-X-XeX5X( * X   . . & .     X     X     . .   . m D.9.:.q.w.w.r.r.r.r.r.q.:.,.:.:.6.6.6.6.n.c.K.P.f.f.s.s.J.P.J.X.8   .     . O O O     X g `.eX=X4X4X",
"4X8X,XeX>Xw   X   O   X   .     . .   X . O X O H D.;.q.w.:.<.:.9.9.r.9.:.q.w.r.9.9.r.R :.,.<.1.6.1.1.<.<.b.j.j.c @ : . = X 2 7 .   O   < . N.aX;X;X2X",
"6X7XtX<Xd     X X         X         X     X . . H Z.;.q.w.q.q.0.9.q.0.9.w.q.9.w.w.w.9.9.r.r.r.r.q.q.{ T e.e.U u         # V 1.d.Z     . . X   H.rXeX,X",
"2X-X>X` - *         y J B m H K H v &         : H e.r.9.>.q.q.q.q.r.C.q.t.t.w.9.r.:.9.9.:.:.:.>.0.w.S.i.9.w.H   . . X X * D.<.I.d.o.      .     ( H.5X",
",XyX3XF         B U R r.Z.S.0.q.C.r.U I U L I { C.e.0.q.q.:.q.0.q.:.q.>.;.0.0.e.e.w.w.w.w.q.w.w.>.w.;.;.C.J O     .   5 T ;.1.s.$.d.2.7   O     O   ~ ",
"4X5X_.f     X > K q.e.t.e.9.0.9.w.w.r.>.u.0.q.Z.e.e.u.w.q.q.q.q.q.q.:.t.9.w.C.q.V.t.t.t.t.t.e.w.) H H H .         X v V.{ <.4.v.J.J.K.4.8   o O ; @ + ",
",X*X(         B A.q.u.q.>.r.9.Y ;.r.Z.u.w.w.:.;.;.9.q.q.0.w.q.q.q.w.:.C.K t r 5 6 e r e t t e t : . & .   X   .   . Y 0.1.n.P.5.z.@.a.z.g.8 O $   @   ",
"4X5X(       : H R 9.;.>.9.r.w.w.w.0.9.>.>.q.w.q.V.q.Y w.9.>.q.9.w.w.q.K :   @ X .               X     . X X o   t L U j.7.a.J.d.W.v.#.L.l.s.M.3   o   ",
"6X(.d       t w.D.r.{ w.q.w.q.w.:.w.q.9.0.q.>.w.9.q.9.9.q.q.t.:.C.B u O .       O             X     . .     > K U Z.q.,.d.f.x.K.z.z.a.3.3.z.f.h.% .   ",
"4X'         6 9.0.9.:.;.:.9.q.>.q.0.w.q.w.q.q.0.9.q.9.w.:.C.>.P n O X           @   O O     O   O .   =   e D.i.9.9.R ,.d.R.L.3.K.K.c.z.z.z.W.K.3   O ",
"1XXXC   O X 1 U t.:.9.w.w.w.q.q.q.q.>.w.:.q.q.q.w.q.w.9.0.-.A.n         O   f ` ' ' ' ' ' ' ' _ N       O . e Y w.e.r.,.4.f.#.z.c.3.d.z.z.K.#.Q.2 X + ",
"8X0X(         t ) V.C.w.q.w.:.q.q.q.q.q.q.w.q.>.q.9.w.w.t.q.V :   X O . o ( 0XiX>X>X-X-X,X,XqX-X_ . . & .     : P e.r.Y 6.n.n.J.K.z.z.z.3.3.P.M . X . ",
"7X1X' O       #   B Y :.9.9.q.q.0.w.>.q.9.q.q.q.q.q.w.w.t.K .   @     C 0XaX-X=X4X6X6X6X6X6X9X9X<X` f #   @   . B r.9.r.,.*.j.3.z.J.3.3.J.c.j.q   O @ ",
"-X4X0X(.%   @       n Y V.9.q.9.y.0.y.u.u.0.y.y.<.:.{ U H y   X X X   ^.5X,X,X8X1X>X,X4X>X>X:X,X8X9X<XH.# O .   . n r.r.i.e.>.j.b.c.$.J.W.O.3   O O   ",
"4XeX3XaXoX0   X     O - > u U R U I U T I T T L u > > < . O     # 6 XXaX3X-X-X4X4X4X4X4X4X4X4X4X=X,XyXOX0   O       > > I t.t.8.>.=.W.E.A +         X ",
";X6X>X*XrX<XN   + O O O X             X           X @   X O O     ^ *X3X>XeX,X4X4X2X4X4X4X4X4X4X6X,X:X9X*XF o . +   X X > P -.e.-.q.>.V &   O   X   B.",
"3X>X6X4XqX>XrXG.    @ @ . . . . . . .       . . .         O     ^.3XeXeX4X,X2XrX2X4X4X4X4X4X4X:XeX*X-X7X;XiX`   @ @ X   : > H Y ) B r O   X O X # _.rX",
"6X,X;X:X,X>X1X<XiXG.C C *     .     . .       .     * C F C G.iXqX-X>X&X,XeX4X4X2X4X,X4X4X4X4X4X4XyX,X,X8X3X<XG.D 1   + + O O * +   . o . .   g <XeX=X",
">X6X4X9X4X4X4X9X;X9XpX6X_.^.^.^.^.).).H.^.^.^.^.^.^.).4XpXyXuX&X>X2X8X4X3X>X>X;X8X4X4X4X4X4X,X4X,X>X6X3X;X6X,XtXuX(.0 ; ;         .   X X   ( <X6X;X,X",
",X4X4X4X4X4X4X4X4X>X,X4X,X,X,X2X4X4X7X:X,X,X,X,X,X4X4X,X2X:X4X4X4X4X4X4X4X4X4X4X,X4X4X4X4X4X4X4X,X2X4X4X4X4X,X4X>XrXXXq       O ; ;     o N.*X4X,X4X,X",
"4X4X4X4X4X4X4X4X,X4X4X4X4X,X,X4X,X4X,X,X,X4X,X,X,X,X4X4X4X4X4X4X4X4X4X4X,X4X4X,X4X4X,X4X4X4X4X4X4X4X4X4X4X,X4X:X:X-XsX%X( ` g     - ^ ^.aXrX4X4X4X4X4X",
"4X4X4X4X4X4X4X4X4X4X4X4X4X4X4X4X4X4X4X4X4X4X4X4X4X4X4X4X4X4X4X4X4X4X4X4X4X4X4X4X4X4X4X4X4X4X,X4X4X4X4X4X4X4X4X4X8X:X;X4X,XaX&XoXoX`.5XwX>X-X3X4X4X4X4X",
"2X4X4X4X4X4X,X,X,X4X4X4X2X,X>X4X4X4X2X,X4X4X2X,X4X,X2X4X4X4X4X,X,X4X1X4X4X4X4X4X4X4X4X4X4X4X4X4X4X4X,X4X4X4X4X4X4X1X6X4XyX;X>X4X>X6X3X4X4X4X4X2X4X4X4X"
};
