/* XPM */
static char *result[] = {
/* columns rows colors chars-per-pixel */
"75 75 251 2 ",
"   c #020202",
".  c #0B0303",
"X  c #030A03",
"o  c #0B0906",
"O  c #03040A",
"+  c #0A040B",
"@  c #040A0A",
"#  c #0B0A0B",
"$  c #130404",
"%  c #190300",
"&  c #130906",
"*  c #130E0B",
"=  c #061007",
"-  c #16130C",
";  c #060911",
":  c #1B0915",
">  c #0C1315",
",  c #141516",
"<  c #2A0406",
"1  c #2E160C",
"2  c #260A19",
"3  c #380D15",
"4  c #251916",
"5  c #381515",
"6  c #282518",
"7  c #342719",
"8  c #34321E",
"9  c #181D22",
"0  c #290F25",
"q  c #370B23",
"w  c #2B1624",
"e  c #341627",
"r  c #3B162A",
"t  c #3C192C",
"y  c #132A27",
"u  c #182528",
"i  c #2B2924",
"p  c #362C25",
"a  c #313631",
"s  c #520C11",
"d  c #4A1719",
"f  c #4F351F",
"g  c #4F1730",
"h  c #471833",
"j  c #4A1E35",
"k  c #651D22",
"l  c #552626",
"z  c #453929",
"x  c #45392A",
"c  c #482436",
"v  c #4E243B",
"b  c #54233C",
"n  c #672329",
"m  c #77282B",
"M  c #6C2D34",
"N  c #7B3336",
"B  c #31413E",
"V  c #51483A",
"C  c #554939",
"Z  c #64523A",
"A  c #572743",
"S  c #5C3448",
"D  c #652A4A",
"F  c #712142",
"G  c #65314A",
"H  c #782E56",
"J  c #6B3958",
"K  c #733758",
"L  c #7D355C",
"P  c #7D3B5E",
"I  c #7D3B63",
"U  c #7C3865",
"Y  c #7C3B73",
"T  c #1E4254",
"R  c #294549",
"E  c #394849",
"W  c #354C54",
"Q  c #375559",
"!  c #3D5A5D",
"~  c #355A61",
"^  c #3D5C63",
"/  c #3D6063",
"(  c #584640",
")  c #5A5146",
"_  c #43555B",
"`  c #46555A",
"'  c #425B5E",
"]  c #655847",
"[  c #724E50",
"{  c #74654F",
"}  c #766954",
"|  c #435D63",
" . c #445E66",
".. c #525F65",
"X. c #7E4364",
"o. c #436165",
"O. c #486369",
"+. c #536D75",
"@. c #78736C",
"#. c #8E1F2D",
"$. c #892632",
"%. c #8A2A35",
"&. c #8E2E39",
"*. c #8A3238",
"=. c #93333A",
"-. c #AE383D",
";. c #BD353B",
":. c #B53B3E",
">. c #C33B3F",
",. c #C4403F",
"<. c #953947",
"1. c #872D59",
"2. c #83355D",
"3. c #8A365E",
"4. c #823A5E",
"5. c #8B395B",
"6. c #983956",
"7. c #943C5D",
"8. c #A53945",
"9. c #AC3C45",
"0. c #AC3C4C",
"q. c #B93B47",
"w. c #BD3E44",
"e. c #B33B4A",
"r. c #A83C55",
"t. c #B33C53",
"y. c #853662",
"u. c #8A3662",
"i. c #863963",
"p. c #8A3A64",
"a. c #873768",
"s. c #843B68",
"d. c #8B3C69",
"f. c #923563",
"g. c #923B64",
"h. c #943C6B",
"j. c #98396D",
"k. c #873870",
"l. c #C33D44",
"z. c #C93C47",
"x. c #C43E4A",
"c. c #CD3A52",
"v. c #8E415A",
"b. c #AC4249",
"n. c #B64545",
"m. c #BD4246",
"M. c #BE4249",
"N. c #BD494B",
"B. c #A94454",
"V. c #B74652",
"C. c #8A755B",
"Z. c #92785C",
"A. c #8B4366",
"S. c #864369",
"D. c #93426C",
"F. c #8E4675",
"G. c #AE4161",
"H. c #897964",
"J. c #907E63",
"K. c #957E69",
"L. c #C34145",
"P. c #C84146",
"I. c #C14249",
"U. c #CA434D",
"Y. c #C4494D",
"T. c #D1454B",
"R. c #C84753",
"E. c #D54756",
"W. c #C85158",
"Q. c #DE4860",
"!. c #8E856F",
"~. c #9B8768",
"^. c #998673",
"/. c #A2896B",
"(. c #A58C72",
"). c #A69672",
"_. c #AA9479",
"`. c #B49C7C",
"'. c #BAA17B",
"]. c #C7A77C",
"[. c #567685",
"{. c #5E848E",
"}. c #6E9097",
"|. c #769DA7",
" X c #7EA5AD",
".X c #AD9A82",
"XX c #B69C86",
"oX c #BEA481",
"OX c #B9A58A",
"+X c #B7A992",
"@X c #8FA5AA",
"#X c #84AAB4",
"$X c #89AAB3",
"%X c #A3AFB3",
"&X c #CDAD86",
"*X c #C7AA89",
"=X c #D0AD86",
"-X c #CDB48A",
";X c #D3B285",
":X c #DBB584",
">X c #D5B58C",
",X c #D9B68D",
"<X c #D6BB8D",
"1X c #D9B98E",
"2X c #C3AC92",
"3X c #CCB496",
"4X c #D5B692",
"5X c #D7B797",
"6X c #D6BA92",
"7X c #DABA91",
"8X c #DCBD9A",
"9X c #E4BD8D",
"0X c #E1BF95",
"qX c #E1BD9A",
"wX c #DABEA1",
"eX c #D6C08E",
"rX c #DDC195",
"tX c #DDC19B",
"yX c #E4C394",
"uX c #E3C39B",
"iX c #E6C999",
"pX c #D8C8A5",
"aX c #E5C8A5",
"sX c #E9CCA5",
"dX c #F0D4AF",
"fX c #8DB9C8",
"gX c #97BDC8",
"hX c #94BECC",
"jX c #8CBDD2",
"kX c #95BFD4",
"lX c #8EC5CC",
"zX c #93C3CD",
"xX c #9EC5CD",
"cX c #94C3D2",
"vX c #9BC4D4",
"bX c #96CAD6",
"nX c #98C8D8",
"mX c #A2C8D5",
"MX c #B3D0DA",
"NX c #B5D7E5",
"BX c #BAE0E3",
"VX c #C6D7DD",
"CX c #C2DBE6",
"ZX c #D8DBE0",
"AX c #D5E7EE",
"SX c #ECECEF",
"DX c #EAEEF4",
"FX c #F3EDF5",
"GX c #EDF3F6",
"HX c #F4F3F6",
"JX c #F8F4FB",
/* pixels */
"7X7X7X7X1X7X7X1X7X7X5X7X7X7X7X7X7X7X7X7X7X7X7X7X7X5X7X7X-X<X<X8XyXyXyXyXyXyXyXyXyXyXyXyXyXyX7XuXyXuXiX;X<X:X7X6X7X7X1X5X,X7X7X7X7X7X7X7X7X7X7X7X7X7X7X",
"7X7X7X7X7X7X7X7X7X7X7X7X7X7X1X7X7X7X7X7X1X7X7X7X1X1X7X1X7X6XaXOX).).).).).).).).).).).).).).)._._._._.aXrXyX1X<X>X>X1X7X8X1X7X7X7X7X1X7X7X7X7X7X6X1X7X",
"7X7X7X1X1X7X7X7X1X7X7X7X7X7X7X7X7X1X7X7X7X7X>X7X5X9X0X,X8X`.J.6                                       H.{ /.uX4XuX8X>X1X7X7X7X7X7X7X7X1X7X7X7X1X7X7X7X",
"7X7X7X7X7X7X7X6X7X7X1X7X7X7X7X7X7X7X6X5X5X8X1X>X,XyXsX_.( i     . o . .         X O X   X   . .       O   # ) V (.*X8X7X7X7X7X7X7X7X7X1X1X7X7X7X1X7X7X",
"7X7X7X7X7X7X7X7X7X1X7X7X1X7X7X7X7X7X8X1X1X1X<XrXqXK.} - O & + + O O   . $ . o o   .         X X O   . . + O   o * 4 C.`.5X>X1X>XuX7X>X7X7X7X7X7X7X7X7X",
"1X7X7X1X7X7X7X7X7X7X7X1X7X7X7X7X7X1X1XqX7X<X<X3XC..   + + +     . 5 n <.=.&.*.&.=.*.=.&.=.&.=.*.s $ X   =   @   @ O     !.aX>X7X;X0X0X5X7X7X1X7X7X7X7X",
"7X7X7X7X1X7X7X7X7X7X7X7X7X7X7X1X7X7X7X>X1X].dX{ $ # . +       < 9.M.U.T.P.L.L.P.P.P.P.P.P.P.Y.U.I.W.8.s < < <       X   . Z wX8X8X0X&X7X7X7X7X7X7X7X7X",
"7X7X7X7X7X7X1X7X7X1X7X7X1X7X7X7X7X7X7X1X1XuX).7 ; + .   5 k 8.W.L.m.m.:.m.N.n.m.m.L.m.m.m.m.I.;.:.n.N.R.E.Q.=.k 3   O   X $ a 2X8X;X8X7X7X7X7X7X7X7X1X",
"7X7X7X7X7X7X7X7X7X7X7X1X7X7X7X7X7X1X1X1X;XtXC   + .   3 0.W.w.l.m.N.w.w.I.x.l.x.x.w.I.I.P.P.P.I.I.x.M.m.9.n.Y.Y.<.5   . + @ # 5 OXsX=X7X7X7X7X,X1X7X7X",
"7X7X7X7X7X1X7X1X7X1X7X7X7X7X7X7X7X1X7X>XdX!.-   O     m x.U.n.U.I.q.M.M.M.M.I.N.M.R.Y.q.9.N.q.w.L.w.w.M.N.l.;.P.z.P.n X X X O   { rXiX,X7X7X0X7X7X7X1X",
"7X1X5X7X7X1X7X7X7X5X7X7X7X7X7X1X7X7X,X5X_.8   O O   d e.I.m.M.w.x.w.I.Y.m.n.l.N.w.w.x.M.V.R.E.R.x.M.e.m.I.q.I.z.P.T.w.m %   X O   Z -X7X>X1X1X1X7X8X7X",
"7X7X7X7X7X7X7X7X7X7X7X7X1X7X7X7X7X,XuX.X4   X     < =.z.n.n.U.M.w.N.I.M.l.P.x.U.T.E.q.=.%.&.N d . * * o % % X l =.&.*.8.0.1   @ O x 3XiX7X8X8X1X,X1X5X",
"7X7X7X1X1X7X7X1X7X7X7X7X7X7X1X7X7X;XuX`.-       $ n Y.l.n.L.P.M.M.R.l.w.x.M.V.m d d 5 % . $ $ $ +       + . X . $ $ .   n 2         C.1X,X;X1X8X7X7X5X",
"7X7X7X7X7X7X7X7X7X7X5X7X7X7X7X7X1X1XuX`.7   O # M M.Y.M.M.I.w.M.M.R.>.L.V.n 5 *               X   O       O o $ X o     O O o   O   p OXsX7X=X>X7X7X7X",
"7X7X7X7X7X7X1X7X7X7X1X7X7X7X7X1X7X,XsXXX4   @ . N T.l.w.M.I.m.M.R.w.-.c.e +         . X O   O O @ @ +.+.[.T   X O O     O +       O   p Z OXdX>X9X9X>X",
"1X7X1X7X7X7X7X7X7X7X7X7X7X7X7X1X4X7X].x     O & N Y.L.w.L.L.m.M.q.9.W.<   X   O   ,   # u ..@X}.|. XMXmXmXzX}.}.@X{.R y y = O *   X         4 `.uX=X7X",
"7X7X7X7X1X7X7X5X1X7X7X7X1X7X7X7X4X7X'.i     O $ m P.L.m.m.I.m.M.U.b.&.    O     ; _ }.}.cXkXnXnXnXcXhXMXCXVXCXNXCXCXMXMXVX%X@.H.@.  * .   >     !.pX8X",
"7X7X7X1X7X7X7X7X7X7X7X1X>X7X7X7X,XsX2Xp   . + 3 :.Y.L.I.m.m.M.M.:.c.  X   .   y O.| xXnXjXcXnXcXzXxXAXGXSXJXFXJXJXJXJXJXJXFXJXJXFXMX  . + . .     ] ;X",
"7X1X7X7X7X7X7X7X7X7X7X1X>X7X7X>X8X*Xf O .   . N T.m.I.I.M.L.M.m.N.0.  O   . # _ ' Q hXcXnXnXnXcXvXxXAXGXSXJXGXDXHXDXSXSXGXJXHXJXDXAX@XR u         V &X",
"7X7X7X7X7X7X,X7X7X6X7X6X7X7X1X>XyX&X8 O O # O k T.l.I.I.M.M.I.m.U.& . + .   R ' O.~ hXnXkXkXvXlXbXbXmXBXVXAXJXHXDXFXHXHXGXFXFXGXAXxXzXnXfXa     O p ^.",
"7X7X7X<X1X1X8X1X;XrX7X1X9X5X5X=XqX=Xx   +   l w.x.L.w.w.L.M.M.q.U.& O O X X E | ! ~ hXhXcXvXzXcXzXcXcXzXhXvXZXDXHXDXDXGXGXGXDXNXhXlXlXfXNX+.X . O   ] ",
"1X7X7X4XuX7X;X<XeX-XiX-X/.`.).).`.(.4   O   l I.l.M.M.M.w.M.L.m.U.& O     a ! ^ o.O.fXmXcXjXvXcXcXcXcXcXcXcXhXcXcXzXcXcXhXgXxXzXcXnXcXkXjXMXi   O   ] ",
"7X7X1XqX>XrXeXpXpX!.] V #               O   g B.Y.x.w.L.M.L.L.w.I.$ O O X u / O.^ ~ xXvXcXbXbXvXcXvXcXcXcXcXvXvXcXkXvXnXkXlXzXbXnXnXcXnXjXBXE   O > C ",
"7X7X1X>X8X-X!.- - # +       . $ $ $ O     : g B.V.w.M.M.w.M.M.w.U.$ O     B o.! | Q +.gXcXcXcXcXcXcXcXcXcXcXvXvXvXvXvXvXvXzXcXbXcXlXzXlX{.~ , # O   { ",
"7X7X1X,XtX.X# O + O O + O O       @ .     h s.5.0.M.w.M.l.M.M.w.E.*   O . , E o. .O.! | #XxXvXvXcXcXcXcXcXcXlXcXbXlXlXlXcXnXzXhXkXmXhX{.^ W -   O O ] ",
"7X7X1XyX'.e O O     . . % 5 V.-.e.s   $   h F.L t.I.w.M.M.I.M.w.U.$ O     . O Q Q ! | ' o.O.|.nXcXvXvXzXcXcXvXcXkXvXvXnXvXcXmXhX{.O.+.` ..u .   O   ] ",
"7X1X7XiXXX4 X . +   k 9.N.L.I.v.L t       h g.5.B.L.I.w.M.w.w.m.c.M   + + O   E ..^ ^ o._ ' _ W |.$X#X#X#X#X#X#X$X#X#X X X$X[.R | o.^ o.^ u +   O 4 J.",
"1X<X7X;XC + o   O N V.U.m.l.t.1.i.e       g d.2.G.I.L.I.I.I.N.M.W.l.[         > `  .O.Q ^ o.o.' Q Q Q Q ! | ! ^ ! Q Q ^ ! ~ Q O.O.| Q O.a # . . O ( =X",
"7X7XqX].7 + .     -.T.;.;.R.r.2.S.2       g d.P 7.q.I.I.L.L.N.M.:.E.q.    O O O   ` | | O./ / ! ' o.o.' O.' Q ^ ' ! ' o./ o.o.| Q ` E >         > C =X",
"1X7XqX=Xp ; .   l q.z.z.V.t.1.U F.2   .   g d.I 7.t.V.I.M.l.m.m.l.n.M.#.  . X     a `  .| ! o.o.o.| | O. .^ O.^ O.O.| | ! ' ' E a       O O   O > +XaX",
"1X7XtX].p O     M w.l.x.B.B.d.Y p.2       g a.U u.r.V.I.l.,.L.m.w.N.w.W.<.  .   X O , > > > a | _ _ _ _ W +._ _ | E 9 > > > >   O     O     - 7 *X6X8X",
"6X7X8X*X7 O     <.V.B.t.6.5.a.U i.3 O     h d.y.u.6.t.x.w.L.P.L.M.l.z.l.V.<.      X O O                 > E 9           . .       . X     p +XdX].9X:X",
"4X8X4X} - o . X <.G.P y.s.p.u.3.X.q       t A.u.i.i.M.z.M.I.,.N.l.M.m.m.I.=.l       O     X X . . .                 X   . O X         . X V `.9X>X7X,X",
"4X6X&Xz         F 7.L i.s.i.u.4.I q       t A.i.i.i.M.>.q.I.L.I.M.N.n.>.z.U.b.B.n d 3 1 .           O   O O O   .     % 5 3 5 3 d 3 X   # + Z.dX;X7XyX",
"6X6X&Xx     O w H a.s.i.i.i.u.i.X.q       r A.u.i.i.V.l.M.I.L.m.x.M.n.m.,.>.L.z.x.E.W.8.$.#.$.$.$.n <   O     . l N m #.Q.R.E.U.E.0.% .   - ~.aX1X>X>X",
"7XtX&Xz   .   j j.y.s.i.i.i.u.3.S.q       r A.u.i.i.w.l.V.I.,.M.U.x.M.N.I.n.m.n.m.w.x.l.Y.x.M.N.R.R.9.-.x.z.9.q.l.R.I.m.Y.n.m.m.U.b.%   # * Z.iX8X8X7X",
"6XrX&Xz     @ b f.s.s.i.i.3.u.i.I q O     r A.u.y.i.q.L.M.I.L.M.w.l.l.w.m.N.M.x.U.V.M.m.m.n.:.n.;.:.N.N.m.M.Y.I.w.;.I.l.>.N.m.n.L.9.%     * ~.sX&X6X7X",
"6XtX-Xz O     h h.s.y.p.s.s.u.4.X.3       t A.y.i.5.b.L.M.L.L.M.M.I.I.x.L.I.I.I.w.x.l.x.L.I.L.l.P.x.I.w.w.L.n.w.x.Y.M.m.m.P.l.L.U.9.    O - J.sX7X>X5X",
"7XtX&Xz   .   c h.y.y.p.s.s.d.2.X.q       r A.y.i.y.7.V.w.L.I.x.M.M.M.M.I.w.M.I.L.M.L.M.L.M.M.M.I.M.w.I.L.M.l.M.M.L.I.M.L.I.L.M.Y.e.    O * Z.iX,X7X7X",
"6XqX&Xx   .   j D.y.y.i.a.u.f.u.4.q       r A.3.s.k.u.r.M.I.M.V.L.M.L.M.I.M.M.I.M.x.M.M.M.L.I.M.I.I.I.I.M.I.M.I.M.M.I.w.M.I.M.L.I.e.    O * !.aX,X7X1X",
"6XtX&Xz   .   j h.i.i.i.s.u.u.d.P r       t A.2.s.k.i.r.M.L.L.I.M.I.I.M.I.w.I.I.I.w.I.I.L.M.L.M.M.L.x.M.M.l.M.L.L.w.L.M.M.x.I.L.I.e.    O * Z.sX,X7X7X",
"6XuX&Xz   .   j g.y.i.i.d.y.u.p.X.r       r A.u.i.i.3.6.r.M.L.>.M.w.M.L.M.I.I.M.M.I.L.M.M.L.M.l.L.M.M.L.I.M.I.M.I.I.M.I.w.I.I.m.Y.e.    O * !.sX5X7X1X",
"6XtX&Xz   .   h D.y.d.P d.y.d.I v +       r A.u.p.3.s.i.5.r.V.l.L.I.L.w.I.M.w.M.M.M.M.M.L.m.I.M.M.w.M.M.M.L.M.L.M.M.M.M.I.I.M.L.I.e.    O * ~.sX>X7X1X",
"6XqX&Xz       b g.i.I 3.u.i.u.A.5         r A.2.i.i.d.s.s.7.6.B.L.l.x.V.w.I.L.x.l.l.L.l.m.m.M.L.I.I.L.M.x.M.M.M.M.L.M.L.N.L.I.m.U.9.%   O * Z.aX,X7X1X",
"6XuX&Xz   X   j f.3.S.i.2.i.3.D.2         r A.y.i.u.p.s.y.y.5.7.r.e.M.L.l.l.w.M.M.M.M.M.M.I.I.I.I.L.I.x.L.M.M.L.M.M.M.M.M.I.I.N.P.9.%     * J.sX,X5X7X",
"6XtX&Xz       c D.3.i.3.u.i.3.p.h         r A.y.i.3.p.s.s.y.u.3.s.p.r.w.P.L.M.N.n.N.M.x.x.x.L.M.M.M.M.M.L.M.M.M.L.M.L.M.M.w.w.m.P.9.% O + * K.sX,X,X7X",
"6X8X&Xz       c D.p.i.u.d.i.y.3.D +       r A.3.i.3.s.p.s.s.s.s.y.y.p.5.r.0.w.x.l.x.U.I.I.M.m.M.I.M.M.M.M.M.l.M.M.I.M.L.M.I.L.m.z.9.%   O * J.aX,XqX7X",
"6XuX&Xz       : D i.3.2.p.X.s.f.I w       r A.y.p.u.y.s.a.a.d.i.7.y.s.Y I 6.8.t.t.w.M.w.M.L.L.L.L.I.l.L.x.I.M.I.L.M.I.I.L.I.M.b.r.6..   O * J.aX,X,X7X",
"6XtX&Xp   . X   A i.y.2.2.I s.f.S.2       t A.2.u.s.p.u.3.u.5.p.i.4.p.p.s.s.Y I 4.7.r.b.M.L.P.L.l.z.P.P.L.z.L.L.I.L.L.I.L.0.6.3.s.U ;   O * J.sX,X5X,X",
"1X7X7X~.- O O   G D.y.7.g.y.L 3.i.t       t A.u.i.i.i.i.i.i.i.i.i.p.i.i.i.i.i.i.i.i.i.i.u.u.p.v.g.v.7.7.7.7.7.7.7.7.7.7.7.2.S.I g.L O   O * K.iX9X5X5X",
"7X7X0X3Xp O O X . J F.I s.U s.f.L 2       r A.i.i.u.i.p.p.p.u.i.i.i.3.i.i.3.3.i.i.i.i.i.i.i.3.i.y.i.u.u.i.y.i.i.u.i.i.i.y.u.s.y.h.H O     - ~.sX;X7X0X",
"7X7XyXOXi #     . e J s.d.s.d.f.2.e       r A.u.3.i.i.i.4.i.i.p.u.i.i.i.i.i.i.i.p.i.i.u.i.i.s.s.s.s.s.s.s.I s.s.s.s.s.s.s.d.I s.u.j     O * C.sX>X;X,X",
"4X1X1XwXK.- X O @   G u.f.L y.f.P w       r A.u.i.i.p.i.i.p.p.4.i.u.p.i.u.i.3.i.i.i.i.i.i.i.u.3.3.3.3.3.3.3.3.3.3.3.3.3.2.p.2.p.L 2     O 1 /.iX;X<XrX",
"1X7X1X8X3XC   @     2 b S.S.d.u.I w       t A.u.i.i.u.4.u.4.i.i.i.4.i.i.i.i.i.i.i.3.i.i.u.i.i.3.3.i.3.3.3.3.3.2.i.3.3.3.3.u.2.d.L :   . + } aXiX;X7X7X",
"1X7X7X,X,XtX{   # O   o 0 5 A u.S.0       r A.u.4.i.i.i.i.i.4.i.i.3.3.i.s.u.i.s.i.i.p.i.s.u.i.y.i.I i.y.i.i.s.i.s.i.i.s.i.u.2.p.X.2   . + C.qX].7X7X6X",
"7X7X7X1X,XrX`.,   + O     O     c t   . O w 2.3.4.u.p.i.i.p.p.u.X.1.g.s.p.f.u.d.y.d.d.p.p.g.p.A.K P K L L P J S.p.y.s.p.u.I f.p.:   . . o } dX>X6X4X7X",
"7X7X7X1X1X8X4XOXp   + O O O X O     O       b D.i.p.i.p.i.i.i.u.X.2.j.U y.p.S.b j h h c c h c h :             r H D.d.p.L i.u.u.,   O     } aX=X6XtX8X",
"7X7X7X7X>X7X7X8X2XZ 6 p , O       O # O X   . D F.i.i.i.i.p.i.4.4.3.d.I s.i.b +   @ X                   .   X . G i.y.L d.y.3.P w       ] 5XqX:X7X>X;X",
"7X7X7X7XuX>X7X6X8X1X-XaXXX^.p           O X   c h.s.i.i.p.4.i.p.i.u.d.U p.A.c O O     O o . . . X             e K i.y.p.u.u.g.G .   . O { aX=X1XtX4X8X",
"7X1X7X,X7X8X>XuX;X,X1XyX1X7X3XoX.XOX).8   . X v f.i.i.p.i.u.i.i.y.u.a.y.3.p.v   X X O O       X X   , X.K D G K i.s.d.D.2.2.s.3     .   { ,X9X:XrXrXyX",
"7X7X7X8X;X7X7X7X7X7XrX;X1X7X;X1X<XiX].6 + + X v j.s.u.i.u.i.4.p.d.u.u.s.u.d.b     . 4 3X5X5XK.  . . : S.s.d.p.p.u.p.i.2.u.3.S.2 O     ) 3XyX1X,X6X6X-X",
"7X7X1X1X7X7X7X7X7X7X7X7X7X1X7X7X,X0X'.6       v h.d.u.i.i.i.u.i.s.4.3.u.a.u.b   O   6 eX7X1XK.      : 4.3.s.p.i.y.i.i.p.u.j.X., . .   ) 7X7X,X8X6X6X7X",
"7X7X7X7X7X7X7X7X7X7X7X7X7X7X7X7X<X0X'.6       v j.i.i.i.u.i.i.u.u.i.7.y.s.p.b   O   6 eX8X7XK.      * A.3.p.p.i.i.u.i.i.u.u.v + + +   ] 6X8X>X7X7X7X7X",
"1X7X7X7X1X7X7X7X7X7X7X7X7X7X7X7X,X8X].6     O v D.i.u.i.i.i.i.s.p.P 3.y.s.u.b   O O 6 6X7X1XK.  .   * S.u.i.i.i.p.i.u.i.i.D.t O .     C 4X7X1X7X>X7X7X",
"7X7X7X7X7X1X7X7X7X1X1X7X7X1X7X7X1X0X*X4 O     b h.s.i.i.i.i.4.u.p.4.3.u.a.p.v   O   6 <X7X1X~.  .   + c 3.u.s.u.u.i.i.i.p.S.w   O   8 +XuX7X1X7X1X7X7X",
"7X7X7X7X7X7X7X7X7X7X1X7X7X1X7X7X1XqX'.6       v j.i.u.i.i.u.p.i.s.i.5.u.a.d.b   O   6 <X7X1XK.  $     2 A.u.y.i.y.y.y.p.d.h . O     C &X0X>X7X7X7X7X7X",
"7X7X7X7X7X7X7X7X7X7X7X7X7X7X7X7X:XyX].6 O     b D.y.i.i.i.3.i.4.p.4.3.d.d.P 5   O   6 tX<XrX`.V     O 2 F.U 7.u.u.7.p.d.5.c + O   4 ^.7X7X1X7X7X7X7X7X",
"7X7X1X7X7X1X7X7X7X7X7X7X7X7X7X5X,XeX'.7     . c X.u.u.2.3.3.D.p.2.p.i.p.H c O   O O i wXeX-XtX}   O   $ t X.J J J P J A w * .     z 3XrX,X7X7X7X7X7X7X",
"7X7X7X7X7X7X7X7X7X7X7X7X7X7X7X1X1XyX].7 O O   . b h.L s.P I u.y.d.1.f.p.[     O   O @.4X:XiX>X}   O     +               O ; ,     } 3X0X1X7X7X1X7X7X7X",
"7X7X7X1X7X7X7X1X7X7X7X,X1X5X7X7X1X8X].8     O . S d.L s.S.I i.u.s.D.f.K :       o * 3X4X0X9X1X*XV O @ O O @     .         @ O   4 OXsX:X1X7X7X7X7X7X7X",
"7X7X7X6X7X1X7X7X7X7X1X1X1X1X7X7X1X7XsX^.6   @   p u.D.7.f.u.d.3.S.A G + O         pX1X7XqX;X;X8X3X] o                   O   - V OXaX=X,X1X7X7X7X7X1X7X",
"7X1X7X7X7X7X7X7X7X7X5X5X1X1X1X7X7X>XqX`.1 O O   + t b b 4.G j c c           O   H.*X9X;X6X8XuX>X8XuX).^.~.~.~.~.~.~./.~.~.!.2XdX;X,X7X7X7X7X7X5X7X7X7X",
"7X7X1X7X1X7X7X1X7X7X5X7X7X1X7X1X7X<XiX`.1   O + O     & 2 *         O O O O   /.8X7X,X7X7X7X7X1X;X7X7X7X7X4X7X1X1X7X1X7X1X8X8X;X7X7X7X7X7X7X7X7X7X7X1X",
"7X7X7X7X7X7X7X7X7X7X7X7X7X7X7X7X6X1X-XsXOXV         O   @ O     X         7 OXuX7X7X7X>X7X7X7X7X7X7X7X1X1X1X7X7X7X7X7X7X7X7X1X1X7X7X7X7X7X7X7X7X7X7X7X",
"7X7X7X1X1X7X7X7X7X7X7X7X1X7X7X7X7X8X8X&XuX6X} . .   O         + - o o z _.6X0X,X7X1X7X7X7X7X1X1X7X7X7X7X7X7X7X7X7X7X7X7X7X,X7X7X7X7X7X7X7X7X7X7X7X7X7X"
};
