/* XPM */
static char *result[] = {
/* columns rows colors chars-per-pixel */
"75 75 240 2 ",
"   c #020202",
".  c #0A0204",
"X  c #020904",
"o  c #0A0906",
"O  c #030409",
"+  c #0B050A",
"@  c #030A0A",
"#  c #0C0B0B",
"$  c #130204",
"%  c #180707",
"&  c #14050B",
"*  c #130B0B",
"=  c #04100E",
"-  c #0A100C",
";  c #17130C",
":  c #090812",
">  c #150A11",
",  c #1A0914",
"<  c #091315",
"1  c #191415",
"2  c #260B0A",
"3  c #250A17",
"4  c #320C13",
"5  c #231818",
"6  c #3A1417",
"7  c #2A241C",
"8  c #33271F",
"9  c #0F1B22",
"0  c #2A1422",
"q  c #381728",
"w  c #38172C",
"e  c #362D25",
"r  c #342828",
"t  c #293737",
"y  c #47171B",
"u  c #49171A",
"i  c #68191D",
"p  c #4C361C",
"a  c #471B2A",
"s  c #5A1C24",
"d  c #471C32",
"f  c #6A1E26",
"g  c #4F2626",
"h  c #46382B",
"j  c #4A263A",
"k  c #58243D",
"l  c #463C35",
"z  c #672225",
"x  c #692729",
"c  c #702931",
"v  c #4E4432",
"b  c #4C433A",
"n  c #524931",
"m  c #53473A",
"M  c #615138",
"N  c #1E3941",
"B  c #2A3943",
"V  c #5A2A45",
"C  c #593346",
"Z  c #5D324B",
"A  c #642C4C",
"S  c #672E4C",
"D  c #63334E",
"F  c #68354F",
"G  c #753445",
"H  c #712D52",
"J  c #6B3654",
"K  c #723253",
"L  c #7B345B",
"P  c #753A5A",
"I  c #7B3B5D",
"U  c #7E3561",
"Y  c #7E3B66",
"T  c #37484A",
"R  c #334E52",
"E  c #3A565B",
"W  c #3D5D62",
"Q  c #3F6567",
"!  c #564D42",
"~  c #45575B",
"^  c #445A5C",
"/  c #665847",
"(  c #735054",
")  c #6F644F",
"_  c #7A6A55",
"`  c #475B62",
"'  c #435C61",
"]  c #476267",
"[  c #56686C",
"{  c #4D6A72",
"}  c #546D75",
"|  c #51717A",
" . c #786067",
".. c #8C2C38",
"X. c #97343C",
"o. c #AE383D",
"O. c #C53D3E",
"+. c #D63E3B",
"@. c #A8433F",
"#. c #B5413F",
"$. c #C4423F",
"%. c #993944",
"&. c #882C5A",
"*. c #83345D",
"=. c #8A345D",
"-. c #83395E",
";. c #8E3A5A",
":. c #933455",
">. c #983A59",
",. c #AC2F48",
"<. c #A83A47",
"1. c #B63D41",
"2. c #BD3E44",
"3. c #B33848",
"4. c #BD3E4A",
"5. c #A53D56",
"6. c #B73D52",
"7. c #843661",
"8. c #8B3563",
"9. c #853A63",
"0. c #8A3A64",
"q. c #893769",
"w. c #843B69",
"e. c #8B3C6A",
"r. c #923B67",
"t. c #963966",
"y. c #93366C",
"u. c #923B6A",
"i. c #A23A61",
"p. c #C33E43",
"a. c #CA3844",
"s. c #C43D4A",
"d. c #CC3C4B",
"f. c #D83E50",
"g. c #90454D",
"h. c #AB444C",
"j. c #B54545",
"k. c #BC4145",
"l. c #B5424C",
"z. c #BE424A",
"x. c #BA4B49",
"c. c #AB4356",
"v. c #B84553",
"b. c #BD5452",
"n. c #826D56",
"m. c #897A5E",
"M. c #9C7A58",
"N. c #854265",
"B. c #874268",
"V. c #8C416A",
"C. c #91436B",
"Z. c #914871",
"A. c #AC4763",
"S. c #877A64",
"D. c #937F63",
"F. c #C24146",
"G. c #C14249",
"H. c #C64749",
"J. c #CB424B",
"K. c #D4424D",
"L. c #C64654",
"P. c #D64353",
"I. c #D84351",
"U. c #958567",
"Y. c #94836B",
"T. c #9A8569",
"R. c #918671",
"E. c #A69277",
"W. c #AE9674",
"Q. c #BCA17E",
"!. c #CCAE7D",
"~. c #6B7D85",
"^. c #5E828C",
"/. c #72888F",
"(. c #698A92",
"). c #769EA9",
"_. c #7CB2BA",
"`. c #818C93",
"'. c #AC9B83",
"]. c #B09D84",
"[. c #B8A287",
"{. c #8DB0BA",
"}. c #CAAC85",
"|. c #C3AB8C",
" X c #CDAD8D",
".X c #CDB18A",
"XX c #D4B485",
"oX c #D9B984",
"OX c #D5B68C",
"+X c #D9B68C",
"@X c #D6B98C",
"#X c #DABA8D",
"$X c #CCB696",
"%X c #D4B692",
"&X c #DAB692",
"*X c #D5BA93",
"=X c #DABA91",
"-X c #D4BB9A",
";X c #DABD9A",
":X c #E1BD8C",
">X c #E0BE94",
",X c #E2BC99",
"<X c #D4BDA3",
"1X c #E0BDA7",
"2X c #DDC38E",
"3X c #DDC296",
"4X c #D6C09D",
"5X c #DEC29B",
"6X c #E2C295",
"7X c #E3C39A",
"8X c #EBC69C",
"9X c #E8CA9D",
"0X c #DBC5A4",
"qX c #D9C7B2",
"wX c #E6C8A3",
"eX c #EBD0AF",
"rX c #8CBCCB",
"tX c #96BCC7",
"yX c #94BECC",
"uX c #8FBED2",
"iX c #94BFD2",
"pX c #8AC5CA",
"aX c #97C3CD",
"sX c #8DC3D2",
"dX c #94C3D2",
"fX c #9BC5D4",
"gX c #99C7D5",
"hX c #9ACADA",
"jX c #AACED6",
"kX c #A8CCD8",
"lX c #9BD1E1",
"zX c #B2D7E3",
"xX c #C6DAE4",
"cX c #D8E4E8",
"vX c #D2EAEF",
"bX c #DCEBF4",
"nX c #E7EAED",
"mX c #E8EDF3",
"MX c #EFF2F8",
"NX c #F5F4F9",
/* pixels */
"=X=X=X=X=X=X&X=X=X=X=X&X=X=X#X=X=X=X=X=X=X=X#X=X;X=XXXoX6X@XXX$XwXeX[.7 m b v v v v v v v p <XeXwX*XXXOXXX%X=X;XOXOX=X=X=X=X=X=X=X=X=X=X=X=X=X=X=X=X#X",
"=X=X=X=X=X=X=X=X=X=X=X=X=X=X=X=X=X=X=X=X=X=X=X*X#X#XXX#X%X-X$X[.1 ; ; # O O O         O     ; ; # m 0X|.7X=XOXXX,X=XOX6X=X=X=X=X=X=X=X=X=X=X=X=X=X=X=X",
"=X=X=X=X=X=X=X=X=X=X=X=X=X=X=X=X=X#X=X#X#X=X=X@X=X=X#XwXE.S.5 O @   X                           O     l Y.!.wX6X#X%XOX=X#X#X=X=X=X=X=X=X=X#X=X=X=X=X=X",
"=X=X=XOX6XOX+X=X=X=XOX=X7X&X+X=X#X#X#X#X#X#X#X2X;X:XwXS.o       X X   $   % 2 % % 2 %       O       O     o * ! 1X,X7X}.3X.X3X#X=X=X&X=X=X*X=X=X=X=X=X",
"=X=X=XOX=X=X=X=XOX=X=X=XOXOX6X;X%X;X*X=X;X=X=X=X=X$X_   O   O . .   5 x i <.s.d.K.L.h...f c s       O . .   &     v E. X3X=X@X#XOX6X=X&X=X=X=X=X=X=X=X",
"=X#XOX,X=XOX=X=X=X9XOXXX#X+XXX#X#X+X@XOXOX@XOX#X}.b O X     O . y %.<.z.H.F.x.j.#.2.2.p.2.s.p.<.z % .   * X   + O     h Q.5X;X#X=XXX;X=X=X=X=X#X=X=X=X",
"=X=X=XOXOX=X,X=XOX}.OX3X=XOX=X6X#X=X=X=X=X=X=X>X[.  : O   $ 5 j.o.b.L.a.a.4.p.O.p.s.G.H.G.H.G.G.J.s...y 6 .   O O   : O # U.5X*X=X=X*X=X=X=X=X=X=X=X=X",
"=X=X=XOX=X7X.X=X8X[.Y.Y.Y.D.D.Y.D.U.m.U.m.U.U._   & O O   s l.F.J.1.1.b.4.z.s.z.L.x.v.l.l.k.2.l.x.v.k.d.s.%.x X   . . O   ; S.*X=X>X+X=X#X&X=X=X#X=X%X",
"=X=X=X=X=X;XOX=XW.p                             X . . . % g.+.z.1.L.k.1.H.F.J.G.H.x.s.s.d.d.s.s.s.G.o.#.2.p.s.c.c X     : O e |.6X+X=X=X=X=X=X=X=X#X=X",
"=X=X;XXX3X[.1       .   X X .     X O O o     . . X   % k.k.s.x.G.d.d.k.G.O.a.L.%...<.,.,.%.X.h.c               O X   o O X m |.,X,X#XoXOX=X5X%X#X#X#X",
"=X=X3XXX2XM O +   @ X     O     O       .     . O   a 3.G.z.2.a.H.@.j.L.4.h.h.g     O   X           X X       .     .   X   8 / Y.<XwXXX6X=XXX>X3XOX=X",
"=X=X3X!.wX/   :       2 ..L.v.4.L.N.( -.P 5     O   %.f.1.G.G.z.H.H.H.o.s 2 1 . + X O     O @ X O X     .                 + X O   ) ].3XOX#X=X=X=X=XOX",
"=X=X+X5X'.e         5 %.d.d.o.F.d.6.i.&.Z.5         x a.H.x.J.G.s.s.h.6   X   X                   . t /.(.~././.`.T       O O   +     n [.5X=X=XOX=X=X",
"=X=XXX0X/   # O     g v.H.o.x.x.o.s.i.t.I >       g h.G.o.H.G.K.l.g..       . .   B jXpXpX_.pXpXpXaXtXxXMXMXmXnXmXnXcXcX9   X           e [.wXXX>XOX=X",
"#X#X9Xn.          4 c s.F.O.a.d.G.h.;.-.q         x j.F.I.o.x.j.x . . .     9 { | jXrXuXsXdXiXiXxXNXNXNXnXNXnXNXMXMXNXnXNXcX~ B     O @ @ 1 U.7XoX#X=X",
"OX8XW.e X       o X.k.k.$.O.F.H.h.;.:.t.0 O .     x z.k.l.J.l.g.*   X o .   ^ ] {.sXgXdXdXgXiXkXnXNXNXNXNXNXNXMXNXmXNXNXNXbXjXkX~.X   o     v $X3X#X=X",
"OX8XR.  > # X 2 j.H.F.F.F.G.G.6.>.-.0.V.r O     6 3.f.G.4.z.k.4 . @     O ~ W ' zXrXdXdXrXhXhXaXzXcXbXvXcXmXNXNXNXNXnXcXbXaXfXaXjX`.<       !  X%X@X=X",
"OX9XU.  :     k >.4.x.l.6.c.C.=.*.e.Y V 1 O     s d.a.1.G.z.k.2     O   R Q E | tXdXdXhXdXsXsXdXtXtXyXyXtXzXxXxXmXmXjXtXtXfXpXsXsXzX}   O   b $X,X=X#X",
"+X9XM.  @   . P V.>.>.>.;.-.9.Y w.w.V &         s 2.F.j.L.G.2.4   X   t ` ] W { kXaXiXuXdXdXdXdXdXuXdXdXsXsXrXyXzXgXrXhXdXdXyXlXsXkX[     O * ) =X=XOX",
"%XwXT.  + O + A q.7.*.w.0.0.9.U w.r.k         y j.x.F.k.4.d.k.2 .     T ^ W ] ] {.dXhXdXfXfXgXgXdXgXhXgXdXdXhXgXpXsXdXuXsXhXfXrXsXkX[     O O / %X7X=X",
"@X7XR.  &   , D t.8.0.7.-.-.=.8.-.r.k X $   % X.d.2.G.G.G.F.z.2   .   t ] ` ' W R ).dXdXrXuXfXfXgXdXyXdXfXfXaXdXgXsXuXuXsXdXuXhXdXjX[   O O   / $X=X#X",
"OX7XR.    X & F y.9.7.0.0.9.0.-.q.8.r   %   2 3.H.G.G.G.G.G.G.2 $     X R ] ` ` ' W ^.yXkXfXdXdXdXdXdXdXiXiXiXrXrXgXhXlXkXhXgX_.tX~.-   O O - / *X6XOX",
"*X9XR.  O X + D e.w.7.-.0.7.0.-.e.A     . @ 2 <.H.2.G.G.G.p.G.4 $ @ X   T ' ` E ` { R { (.{.fXfXfXiXfXfXfXfXyXkXkX{.^.(.(.~.~.W N           ! 0X3XXX#X",
"&X9XR.  + X   q U 0.=.0.9.0.0.7.u.A   X .   6 3.H.p.G.G.G.p.G.<.& @     + T R } W ' ] E E { } | | | | | | | } | | Q E E R ' ' R <   . @   e [.;X=X>X#X",
"+X6XD.. . O   & L w.-.0.9.0.-.7.C.A     . . G L.s.4.G.G.G.G.G.3.%   & +   @ @ t T ] E ^ ] ' ' ' ^ ' ' ' ^ ] ] ' ' ] [ [ } t t @ O .     # M .X,X=XOX3X",
"OX=XOX/       3 U w.0.7.0.7.0.-.e.A         G 6.G.p.G.G.G.p.2.j...*   .   @ X   X 1 B ] ^ ^ ~ ^ ^ ~ ~ ^ ^ ~ E ^ ` t < < @     . o     ; R.9X2X+X=X*X=X",
"%XOXwXD.      , L 0.-.0.9.0.9.0.K .   . @ $ &.A.G.k.F.G.z.k.O.J.d.%.2     X         o < = < @ < = = @ = = < @ = #       O .   .       # _ -X@X=X=X&X=X",
"&XOX8Xm.      > U 0.9.7.9.8.=.0.K     .   % G 5.k.F.F.z.l.k.O.j.2.L.o.c u $ .     .     o O     .       O               X     * %   X   7 [.#X#X=X=X=X",
"#XOX9XS.  .   & L q.9.=.9.0.8.8.H       @ j 9.t.G.F.F.p.z.G.G.z.k.x.k.L.l.o.s y 2                                       4 u u x s     O 7 Q.9X#XOX=X=X",
"=X+X9X_       > 7.0.9.9.7.0.9.0.H     . O Z 8.8.z.H.F.p.4.L.s.s.G.k.#.k.F.K.f.P.1.c i c x z z z z z z z z f z z z z z z v.L.L.P.<.    O 7 Q.7XXX=X=X%X",
"=X+X8XS.  O   > U 0.9.9.-.0.-.e.K       O D y.0.l.G.H.p.z.L.G.x.z.s.J.J.k.j.#.#.k.H.L.J.K.I.K.I.I.I.K.I.K.I.I.I.K.I.I.I.p.4.1.s...    O 7 [.7X@X=X=XOX",
"*XOX8Xm.  .   & L q.9.9.0.0.=.8.K   X     A r.-.%.l.k.k.G.G.p.G.G.2.z.k.G.J.G.G.F.G.p.k.k.j.1.k.k.1.j.k.j.k.k.1.j.k.k.1.d.j.j.K.X.  .   7 [.6X#X=X=X=X",
"=XOX9XY.  O   > 7.e.0.e.-.0.9.9.H     .   Z u.7.-.5.4.G.z.G.$.G.G.z.2.z.G.G.p.z.2.G.G.G.G.p.p.z.z.G.4.G.z.G.G.p.z.z.k.z.x.o.I.I.%.    O 7 [.=X>X@X=X=X",
"=XOX6X_   o   & *.8.-.0.-.-.0.e.F         Z r.Y -.5.G.F.G.p.F.z.G.z.G.G.G.k.G.G.G.G.k.G.G.z.G.G.G.k.G.k.G.k.k.G.G.z.s.G.s.z.F.X..   . O 7 |.5X=X=X=X#X",
"=XOX8Xm.      > 7.8.-.0.*.0.0.0.K     . . Z r.9.9.>.k.O.p.G.G.G.G.z.p.z.G.G.z.G.z.G.k.G.z.2.G.G.k.G.G.k.G.s.G.k.k.G.G.G.d.j.H.o.  .     7 Q.6X=XOX=X>X",
"=XOX8XS.  +   ; K w.7.0.7.0.9.0.K         A r.9.w.>.6.p.O.p.l.z.k.G.z.G.k.z.z.p.z.p.G.G.G.G.G.k.G.G.4.G.k.G.G.2.s.k.k.G.G.o.d.<.  $ X ; S.;XXX+X3X=X+X",
"=XOXwXS.  .     3 *.w.-.-.0.8.0.K       . Z t.w.9.0.>.c.G.G.z.G.G.G.G.p.G.z.G.G.G.G.G.G.G.s.G.G.G.p.G.z.k.G.G.G.G.G.z.G.j.H.4.c   . X 1 ].;X#X#XOX*X=X",
"=XOX7Xm.. . X   , w.0.0.7.e.9.0.K     .   V r.7.;.U 7.5.z.F.2.G.2.z.z.z.p.z.s.k.z.z.4.z.k.k.k.k.k.z.G.z.p.G.G.k.k.k.G.k.k.H.<.  @ .   1 E.6X:XoX=X*X=X",
"=X&X&XwX/   X   5 e.9.*.0.I 9.V.F @     . O J y.*.7.w.0.>.z.F.4.z.G.G.H.G.z.G.k.z.z.z.G.F.F.F.O.s.F.k.k.k.G.G.G.s.4.4.6.x.a.1.$ O   . 7 W.5X#X+X6X-XOX",
"=X+XOX;XS.  @ @ > k 9.e.8.=.7.e.L       . : J t.-.w.w.7.;.6.v.H.F.F.p.p.z.L.F.G.z.z.4.G.G.G.v.z.k.G.G.G.v.z.p.p.O.F.s.G.v.h.x   X # o E.0X;X+X#XOX=X=X",
"=X=XXXwXn.> @ O # . j ( U 8.e.9.Y V   # O o D u.=.7.w.9.7.;.>.l.l.v.G.G.F.o.J.F.F.k.2.z.4.z.G.z.G.F.p.p.p.O.p.s.F.k.l.l.>.G   X @ + + T.;X*X+X>X=X=X=X",
"=X=XOXOX1X/   #       3 C Z Z Z J C *     X $ L r.0.0.q.w.7.-.-.;.>.5.l.G.F.F.G.G.F.p.z.z.2.p.p.F.F.F.s.p.s.F.4.l.5.>.;.t.A <       l Q.3X=XOX=X=X=X=X",
"=X=X>X!.7X$X;   #               , o   o . X , J e.w.-.-.7.w.0.w.U 7.=.>.5.c.6.l.4.G.G.F.2.G.G.2.l.v.c.c.c.>.>.>.;.=.7.U N.&   * #   R.,X#XOX=X6X=XOX=X",
"=X=X@X>X#X@X4X/         O X        ._ -   @ @ 3 L 7.0.0.9.9.7.8.q.w.w.Y U 7.5.5.4.z.G.G.2.l.6.5.:.:.;.=.w.Y Y 7.0.0.w.w.>       . 5 E.3X=X#XOX#X=X=X=X",
"=X=X&X=X+X@X4X|.[./ O           1 Q.[.v + : O + V Y V.r.*.N.N.-.*.w.7.V.w.*.q.U I ;.5.i.;.0.q.w.w.8.7.w.0.*.0.7.8.e.A &       X   m.3X=X#X=X=X&X=X=X=X",
"=X=X6XOXOX=X3X*X5X5X$X<X0X-X*X-X4X@X9X) . O 1   0 J I K d 3 , , w ( w.7.*.e.w.9.9.*.=.=.w.9.r.I -.0.u.&.7.u.0.8.e.9.q .   # O X _ 4XOXOX=X=X=X=X=X=X=X",
"=X=X.X3X3X@X@X#X@X#XXXXX#XXXoX#X#X!.3XE.8 .     . . .       .     w V.*.e.0.7.w.0.-.-.w.w.0.I D Z A V.0.q.7.7.L N.j .     O r S.@X@X,X=X=X=X=X=X=X=X=X",
"=X=X5XOXXX=X6X#X#X2X=X=X3X=X#X:X2X2X.XqXb       X   .   X X O X . d 0.e.9.7.-.=.=.=.0.-.8.L d     & k 0.q.q.B.Z d 2     X   l |.7XXX&X=X=X=X=X#X=X=X=X",
"=X=X+X=X;X=X&X=X>X6X5XOX.X=X=X%XOX4X_               . . . . , 3 d Y q.0.L e.N.0.8.8.w.0.r.K 0   X . a B.u.e.V > O     # O v }.6X,X+X&X=X=X=X=X#X=X=X=X",
"=X=X=X#X&X=X=X%X=X&X=X=X=X=X+X=X4Xm   .             3 D A V 0.B.B.7.7.0.0.9.9.q.e.w.Y 9.0.P q       3 P r.k . O X   .   n.|.9XXX&X;X*X=X=X=X=X=X=X=X=X",
"=X=X=X=X=X#X=X=X=X+X=X%X*X#X>X7XY.      # . . & 0 ( N.-.&.u.7.9.9.9.=.0.9.9.0.-.-.0.9.-.e.K 3 O     O V 0.    @     ; R.#X=X3X#X+X=X@X&X=X=X=X=X=X=X=X",
"=X=X=X=X=X=X=X=X=X#X=X;X=XXX#X|.          0 j P y.0.8.r.9.9.7.9.0.9.8.9.9.9.0.-.9.0.0.-.e.-.j O   X O 3 q X + O   5 W.0X=X=X+X@X=X=X=X=X=X#X&X=X=X=X=X",
"=X=X=X=X=X#X=X=X#X#X.X3X#X=X3X|.2   X O   F V.8.8.=.w.0.L =.r.9.7.9.=.9.-.0.0.9.9.0.9.-.e.-.j O             + X r $X>XXX=X=X=X+X=X=X=X=X=X=X=X=X#X=X&X",
"=X=X=X=X=X=X#X&X@X3XOX3XXXXX*X<X    X   C Z.*.w.w.w.9.*.C.e.=.-.0.9.9.0.9.0.9.-.-.0.0.7.r.K 4         X       # n.&XOX:X=X=X=X=X=XOX=X=X=X=X#X=X=X=X=X",
"#X=X=X=X=X=X=X=X=X#X#X=X#X=X-X_     X . k 8.*.0.-.9.e.9.0.*.w.0.9.0.9.-.0.-.9.9.9.e.=.7.e.L 6 X O .       1 M E.wX,X=X;X=XOX=X=X&X@X=X=X=X=X=X=X=X=X*X",
"=X=X=X=X=X=X=X=X=X#X=X*X=X=X*XO         k V.r.*.w.9.w.9.w.w.w.N.0.-.-.e.9.-.8.0.7.L w.u.y.9.w X @ $ .     . b ) ].;X=X=X=X=X=X=X=X=X=X#X&X=X*X=X=X=X#X",
"=X=X=X=X=X=X=X#X=X#X=X-X+X#X*XO       , J 7.C.0.8.8.8.8.8.8.8.=.=.=.=.=.=.8.7.0.q.r.0.L A d 3     . X X .       M &XOX@X=X=X=X=X=X=X=X=X=X&X=X#X=X=X=X",
"=X=X=X=X=X=X=X=X#X#X=X=X#X=X$X        j Z.7.7.7.8.w.0.9.0.9.w.Y Y 0.w.-.9.8.w.0.9.0.P j :       .   @ X .       ) %X=X*X=X=X=X=X=X#X=X=X=X#X=X=X=X=X=X",
"=X=X#X=X=X=X*X=X=X#X=X-X#X#X*X        k V.&.q.0.w.7.w.9.w.w.9.w.9.9.Y *.*.L e.-.S w , .       X   & A j   #   l %X=X>X6X&X=X=X=X=X=X=X=X=X=X=X=X=X=X=X",
"#X=X=X=X=X=X=X=X#X#X=X=X@X=X*X        V Y 0.e.-.r.8.t.;.8.=.8.y.=.r.8.*.0.0.k 4         . .     5 K t.a   O   h %X>X}.=X=X#X=X=X=X=X=X=X=X=X=X=X=X#X=X",
"=X&X=X=X=X=X=X=X=X#X=X=X*X#X*X        + , V F S S S F H S S F K A D j 3 , % X           O : 4 L U Y 0.j       h %X:X#X=X=X=X=X#X=X#X=X=X=X=X=X=X*X=X=X",
"=X=X*X=X=X=X#X=X=X=X=XOX=X;X0Xo       O   & . . . . . . . . . .       o   X       =   . w B.y.e.8.8.V.w       h %XoXXX1X=X=X=X=X%X=X=X=X=X=X=X#X=X=X=X",
"=X=X#X=X=X=X=X=X=X*X=X=X&X%X-X[.7   X . O       O   X O   O O   # O     . X       & w J Y w.7.7.9.*.( w       m .XoX6X%X=X=X=X=X=X=X=X#X=X=X=X=X=X&X#X",
"=X=X=X=X=X=X=X=X=X%X6XOX+X7X XwX|.) e   .                         O +   5 j j j A V.u.u.&.0.e.B.P q & + O X   h -X3XXX%X=X=X=X=X=X=X=X=X=X=X=X=X=X=X=X",
"=X=X=X=X=X=X=X=X=X6XOX#X=X+X=XOX=XwX|.T.T.m.D.U.T.T.T.T.U.T.Y.5         0 r w q d 7.*.9.C.U d q , O   X   X   h %X=X@X6X=X=X=X=X=X#X=X=X=X=X=X=X#X=X=X",
"=X#X=X#X=X=X*X=X=X=XOX;X=X+XOX6XOX#X>X>XwX6X8X7X7X6X7X7X7X7X3X8   o     +     X O O > : O X       X X       M |.5X%X=XXX=X=X=X=X*X=X=X=X=X=X#X=X=X=X=X",
"=X=X=X&X=X=X#X=X=X=XOX=XOX=X5X@X=X@X+X=XOX*X@XXX&X#X#X+X#X#X@X .#     @   O . .     X         . .     o ! R.|.7XXX=X#X#X=X=X=X=X=X=X=X=X=X=X=X=X=X=X=X",
"=X=X=X=X=X=X=X=X=X=X=X=X=X=X=X=X=X=X=X&X=X=X=X=X=X=X=X=X=X#X3X0XT.e l l l h # O O O O O O O @   . b h _ 0X9X=X=XOX@X=X=X=X=X=X=X=X=X=X#X&X=X=X=X&X=X=X",
"=X=X=X=X=X=X=X&X=X#X=X=X=X=X=X=X=X=X=X=X=X=X=X=X=X=X=X=X=X=X#XOX7X%X-X$X;X Xm._ _ n.n._ n.n.) n.n.1X%XOX=XOX+X+X=X=X=X=X=X*X=X=X=X&X#X=X#X=X=X=X=X=X=X",
"=X#X=X=X#X=X=X=X&X=X=X=X=X=X=X=X=X=X=X#X=X=X=X=X=X=X=X=X=X=X=XoX@X@X%X#X:X:X6X6X6X6X6X6X6X6XeX,X7XXX6XXX#X&X=X=X=X=X=X&X=X=X=X#X=X=X=X=X=X*X=X=X=X=X#X",
"*X&X=X=X=X=X=X=X=X=X*X=X#X=X=X=X=X=X=X*X=X=X#X=X=X=X=X#X=X=X=X;X%X3X*X=X+X#X#XOX@X@X@X@X@X@XOX=X#XoX=X5X=X=X=X=X=X=X=X=X#X=X=X=X=X=X=X=X=X=X=X#X=X*X=X",
"=X#X=X=X=X=X=X#X#X=X=X=X=X=X=X#X=X=X=X=X=X=X=X=X=X=X=X=X=X=X*XOX5X5XOX@X=X=X=X=X#X=X=X=X=X=X%XOX6X@X=X*X;X@X+X=X=X=X=X=X=X=X=X=X=X=X=X=X=X=X=X=X=X#X=X",
"=X=X=X=X=X=X#X&X=X=X*X#X=X=X=X&X=X=X=X=X=X#X=X=X#X=X=X=X&X=X=X=X+X+X=X=X#X=X#X=X#X=X=X=X=X=X=XOX=XOX=X=X+X=X=X=X=X=X+X=X=X=X=X=X#X=X=X=X=X=X=X=X=X=X=X",
"=X=X#X=X=X=X=X=X=X=X=X=X=X=X=X=X=X=X#X=X=X=X=X=X=X=X#X=X=X#X=X=X=X=X=X=X=X=X=X=X=X=X&X=X=X=X=X=X=X=X=X=X=X=X=X=X=X=X=X=X=X#X=X=X=X*X=X=X=X=X+X=X=X=X=X",
"=X=X=X=X=X=X=X=X=X=X=X=X#X=X=X=X=X=X=X=X=X&X=X=X=X*X=X=X=X=X=X=X=X=X=X=X=X=X=X=X=X=X=X=X=X=X=X=X=X=X=X=X=X=X=X=X=X=X=X=X=X&X=X=X=X=X#X=X=X=X=X=X=X=X=X"
};
