/* XPM */
static char *result[] = {
/* columns rows colors chars-per-pixel */
"72 75 207 2 ",
"   c #010303",
".  c #080707",
"X  c #090807",
"o  c #020509",
"O  c #04090B",
"+  c #0C0D0D",
"@  c #0D100F",
"#  c #11110E",
"$  c #050C11",
"%  c #0C0E10",
"&  c #071311",
"*  c #0B1214",
"=  c #0B1419",
"-  c #0B1A1A",
";  c #121414",
":  c #131719",
">  c #141A1B",
",  c #1A1C1C",
"<  c #1D201E",
"1  c #20211F",
"2  c #0D1D21",
"3  c #121E24",
"4  c #1B1E21",
"5  c #0E2224",
"6  c #122126",
"7  c #1D2122",
"8  c #11222A",
"9  c #1C2529",
"0  c #1B292C",
"q  c #172A2E",
"w  c #1E2E35",
"e  c #1C3032",
"r  c #222425",
"t  c #22262A",
"y  c #252C2B",
"u  c #2B2D2D",
"i  c #302F2E",
"p  c #242D32",
"a  c #292E31",
"s  c #223335",
"d  c #2C3233",
"f  c #23353A",
"g  c #2D353A",
"h  c #2C393C",
"j  c #313536",
"k  c #32363A",
"l  c #343B3E",
"z  c #393C3D",
"x  c #2B3D44",
"c  c #353E42",
"v  c #393E42",
"b  c #363F48",
"n  c #403F40",
"m  c #2F4043",
"M  c #364145",
"N  c #3B4245",
"B  c #34434B",
"V  c #3A444C",
"C  c #36494D",
"Z  c #3C494D",
"A  c #3A4650",
"S  c #364A52",
"D  c #3C4B53",
"F  c #3E5259",
"G  c #3F5055",
"H  c #3C616D",
"J  c #3D6976",
"K  c #3E6976",
"L  c #414446",
"P  c #414649",
"I  c #43494D",
"U  c #4B4C4E",
"Y  c #424C52",
"T  c #4B4F53",
"R  c #424F58",
"E  c #425156",
"W  c #4B5254",
"Q  c #45545B",
"!  c #49555E",
"~  c #45595D",
"^  c #4C595D",
"/  c #545555",
"(  c #555659",
")  c #53595C",
"_  c #5B5D5D",
"`  c #4B5660",
"'  c #445C64",
"]  c #4B5B64",
"[  c #4D5F68",
"{  c #535D65",
"}  c #595F62",
"|  c #545F68",
" . c #4E6265",
".. c #44646C",
"X. c #4B656C",
"o. c #49686E",
"O. c #476066",
"+. c #546266",
"@. c #5B6265",
"#. c #54636A",
"$. c #5C656A",
"%. c #52686A",
"&. c #5B6A6C",
"*. c #446572",
"=. c #4A6773",
"-. c #456A73",
";. c #4A6A73",
":. c #436E79",
">. c #4B6E79",
",. c #536771",
"<. c #5A6670",
"1. c #526A73",
"2. c #5C6B72",
"3. c #5F6F78",
"4. c #4D717C",
"5. c #52727C",
"6. c #5B757D",
"7. c #5B7276",
"8. c #626363",
"9. c #60666A",
"0. c #636A6C",
"q. c #696A6B",
"w. c #636C73",
"e. c #686F75",
"r. c #657275",
"t. c #6B7176",
"y. c #65747B",
"u. c #6C757A",
"i. c #6D797D",
"p. c #64797B",
"a. c #717274",
"s. c #71757A",
"d. c #727A7D",
"f. c #7A7B7D",
"g. c #6D807F",
"h. c #557682",
"j. c #5D7682",
"k. c #567985",
"l. c #5D7A86",
"z. c #5B7C8B",
"x. c #557C88",
"c. c #4E7883",
"v. c #627780",
"b. c #6A7680",
"n. c #647A83",
"m. c #6C7981",
"M. c #617C89",
"N. c #707780",
"B. c #737D83",
"V. c #7B7E84",
"C. c #717F88",
"Z. c #5B828E",
"A. c #5E8791",
"S. c #648086",
"D. c #6D8282",
"F. c #64828D",
"G. c #6B838B",
"H. c #748285",
"J. c #7B8285",
"K. c #74848B",
"L. c #7A848B",
"P. c #76888F",
"I. c #7D898B",
"U. c #628291",
"Y. c #688A94",
"T. c #6E94A0",
"R. c #828284",
"E. c #82858A",
"W. c #858B8E",
"Q. c gray56",
"!. c #838C91",
"~. c #898E93",
"^. c #8B9294",
"/. c #929699",
"(. c #99999A",
"). c #9299A0",
"_. c #9FA4A5",
"`. c #A4A4A5",
"'. c #A4A6A9",
"]. c #A7AAAC",
"[. c #AAABAB",
"{. c #A7A8A7",
"}. c #B0AFAF",
"|. c #ABAFB1",
" X c #ADB2B4",
".X c #B3B4B4",
"XX c #B6B8BB",
"oX c #B7BCC0",
"OX c #BEC2C5",
"+X c #C3C3C3",
"@X c #C4C5CA",
"#X c #C6C9CB",
"$X c #C9CACA",
"%X c #CED1D4",
"&X c #DBDCDD",
"*X c #D4D5D6",
"=X c #DBDFE2",
"-X c #E5E5E6",
";X c #E6E6E9",
":X c #ECECEC",
">X c #E5EAEC",
",X c #EFEEF2",
"<X c #EDF0F2",
"1X c #F3F4F4",
"2X c #F5F8F9",
"3X c #FBFDFD",
"4X c #F5F7F8",
/* pixels */
"1X;X;X;X&X*X%X@XOX@X@X%X*X&X&X*X#XXX[.'.[.[.[.[.].].].].[.].].].].].].].].].].].].].].].].].[.].].].[.].{.{.[.].'.'.[.[.[.[.[.}..X+X*X&X1X1X,X1X",
"-X@XoXXX/.W.a.$.) ) $.s./.'./.E.} j *             o                           o o o o o o o o   o     o           o + + % % # # u 8.R.Q.:X1X3X1X",
"T U q.V.J.f.s.t.q.9.e.V.~././.~.s.( P v N L L L v L N P P N L L N N P L N L N N n n n n b N N L N N N N N L L L P P L n v u t 4 1 u u i 8.Q.,X1X",
". % v ) t.s.d.d.s.e.u.J.W.~./.~.R.e.} } $.9.9.$.} @.9.$.$.8.$.9.9.9.9.$.9.9.@.} } } | } } } } } @.@.@.@.@.$.9.0.9.9.} } U v k r , +     1 8.-X1X",
"; t @.i.d.H.g.J.I.H.J.I.V.B.J.J.N.s.t.t.a.N.e.e.t.s.s.t.u.t.u.t.u.s.t.u.u.u.s.u.N.N.N.N.N.N.N.N.s.s.d.d.B.i.u.r.r.r.r.u.s.u.u.t.q._ d , . X # }.",
": g 0.H.g.d.s.g.H.r.r.r.w.0.w.w.w.} } $.| $.} } $.@.@.$.@.$.$.$.$.} $.$.$.@.$.9.w.<.8.$.8.9.9.<.0.$.$.$.$.$.$.+.$.$.w.t.s.N.N.t.q.( z u   . # (.",
"r I d.~.f.i.0.0.&.^ ~ E Y D I I V P P Y n A b b P V N V N N N N v N N N N b N P n A A n n n n A Z Z V N l c c N I W +.&.p.d.B.N.9.L U /       f.",
"4 W i.~.L.H.g.p.p.w.&.%.$.$.$.$.9.| | | | { ` { { ` ^ ^ { ^ ` ^ ` ` ^ { ` ^ { | | | | | | <.` ` { { { @.&.#.#.#.$.$.2.y.B.K.K.B.f.f._ U X 1 U {.",
"< W g.W.I.I.g.g.g.p.p.r.r.p.u.r.j.b.b.b.<.<.<.<.v.<.,.<.| <.| ,.$.$.#.$.<.<.<.b.<.v.<.w.b.j.| b.w.2.2.w.m.b.b.y.y.y.y.b.H.K.P.B.J.^.8.U + i a.+X",
"< / u.I.g.g.g.&.+.~ ~ G C N Z C b b b b b b b b n b b b b A b b V V A B n b b b b n b b n b b b B B A B C B B A D G [ #.y.G.P.K.I.E.q._ X 1 / }.",
"< ~ g.I.I.g.g.&.&.%. .^ ^ ! ^ ^ ! R ` ` ` ` ! ` | ` ` ` ` ` ` ` ` Q ` ! ! ! ` ` ` ` ` ` ! ! ! ! ` ! ` ` ! Q R ` ] [ #.2.n.G.P.H.J.W.q.( X , L {.",
"< W u.W.g.I.g.g.r.g.g.r.p.b.b.y.b.b.b.b.b.b.b.b.b.b.b.b.b.b.b.b.b.b.b.b.b.b.b.b.b.b.N.N.b.b.b.b.b.b.b.b.b.w.w.j.p.n.y.p.m.K.P.H.H.E.8./   # 1 `.",
"< W p.W.g.d.p.&.&. . .^ ! ` ` Q ` ` ` ` ` ` ` ` ` ` ` ` ` ` ` ` ` ` ` ` ` ` ` ` ! ! ` ! ` ! ! ! ` ` ` ` ` F F ` [ [ ] ,.3.m.K.K.J.J.8.( X X 1 (.",
"< ~ i.I.g.p.t.&.+.G G C C C A B b b b A b A b b b A A A b b n R A A A b A A A b b n b b n b b b B B B b x b b S F F Q ] ,.n.K.P.L.J.8.(   X # (.",
"< _ d.I.s.s.p.r.&.&.&.#.$.<.<.<.<.<.<.<.j.<.<.<.<.<.,.<.<.<.<.<.#.<.<.#.<.<.<.<.j.<.<.j.j.j.| b.<.<.,.<.#.| | | ,.,.<.3.b.C.K.L.J.R.q.8.  X ; }.",
"< ) d.W.R.g.g.&.@.r.$.` ` ] ] ] [ ` | ` ` ` ` | ` ` [ [ { { ` { { ] ] { { ] ` ] ` ` { ` ` ` ` ` ] { ] ] ` ` ! ! ` ] <.2.n.C.P.I.V.f.q._   + 1 .X",
"7 ^ f.W.!.I.d.0.} w.| R ! ! ! ! ! ! ! ! ! ! ! Q ` ` ` ` ` ` ` ` ` ` ` ` ` ` ` ` ! ^ ! ! ! ` ! ^ ! ! ! ! ! R R T ! ` | <.b.N.C.!.V.V.8.8.  X 1 .X",
": u } s.s.0.^ ) { { } W { } | | | | #.| | | | | | | | | { | | | | | | | | { | +.| | | | | | | | { | | | | | { ` { ` | <.w.b.b.C.V.R.( n . r q.+X",
"; 4 _ s.f.t.@.$.w.( ` T { } | | | | #.| | #.| | | | | | | | | | | | | | | | | | { | | | | | +.| | | | | | { { ( { | <.w.w.e.b.e.s.V.L u   i R.*X",
"o + T a.R.V.s.J.E.T T I ^ { | | | | } | | } | | | | | <.$.| $.| | $.| $.#.| +.+.+.{ | | | | | | | { { { ) ` ` ! { | V.N.N.b.<.( } q.r     n +X,X",
"% % 1 t P T $.s.V.s.s.N.N.s.m.m.m.N.m.m.N.m.i.N.N.N.N.C.N.N.N.N.N.m.N.m.m.N.i.b.b.m.m.i.i.i.s.m.N.m.m.m.u.e.e.$.b.b.!.V.V.<.( b j r ; X 1 8.&X1X",
"; ; o o t k ( a.V.E.E.~.I.L.L.L.L.L.L.P.L.L.L.L.L.L.V.C.C.V.C.C.L.L.V.L.L.L.L.L.L.K.L.L.L.L.L.L.L.L.L.V.B.B.N.b.b.C.~.!.C.| n a 4   X # j t.:X4X",
"2X,X( + o $ : O o g p 4 3 3 3 3 3 3 3 3 8 3 3 3 3 8 8 3 9 8 8 8 3 3 3 3 6 3 6 2 3 5 6 6 6 5 6 6 3 3 3 2 = 3 3 3 > 3 8 4 = O $ $ o + `.1X2X3X3X4X",
"2X1X( . o O % O o p p 9 8 3 6 8 3 3 3 8 3 3 3 8 3 8 3 8 8 8 8 8 8 8 8 8 6 8 6 6 5 6 6 5 5 6 6 6 3 3 3 3 = 2 3 3 3 3 3 > = $ o o O + W.$X2X3X3X2X",
"2X3X(   o O O O O 5 q f q 8 8 8 8 3 8 8 8 8 8 8 8 8 8 8 8 8 8 8 8 8 3 8 8 3 8 8 6 6 8 8 5 6 6 6 6 6 6 2 2 2 2 3 3 3 2 2 $ $ $ o o $ ! N.3X3X3X3X",
"2X,X) %   & 8 C ~ O. .O.] ' ' ] [ ' ' [ ' [ ` ' [ ' ' [ ` [ ' [ ] [ [ ` ' [ ' ' ] ` ] ] ] ^ ] ] ] ] ] ] ] ' ` ` ` [ ` R b w 8 $ $ o g I oX%X3X3X",
"2X-X} :   @ e %.S.g.p.1.y.v.n.n.n.n.M.n.b.b.M.b.b.b.M.b.b.b.M.b.n.n.n.n.n.n.n.b.p.y.y.n.p.n.i.p.p.n.n.b.m.n.b.b.b.b.v.j.` x w $ o o 4 p ).oX3X3X",
"_.a *    .%.7.6.g.5.g.G.M.M.M.M.M.M.M.M.M.M.z.z.z.M.z.z.z.M.M.z.M.M.M.M.M.M.M.M.M.M.M.M.l.M.l.M.M.M.n.M.l.j.j.h.M.M.C.M.M.>.*.S x $ o o g e.>X2X",
"t.7 * O  .%.6.g.g.Z.Z.Z.g.k.z.z.M.l.z.z.z.z.z.z.z.z.z.z.z.M.z.z.M.z.z.z.l.l.l.l.n.M.n.l.l.l.M.M.v.l.l.M.M.M.j.h.j.M.C.M.M.h.,.` b 2 $ o 9 } %X,X",
"& o - 5 +.7.G.G.Z.A.A.:.k.k.z.z.z.z.z.z.z.z.z.z.z.z.z.z.z.z.z.z.z.z.z.z.z.l.l.z.z.z.l.l.l.l.j.l.l.l.l.M.M.z.M.l.j.h.z.z.l.l.l.l.] x = o o b '.=X",
"    x ~ 6.6.S.5.;.:.Z.Z.Z.Z.z.z.z.z.z.z.z.z.z.z.z.z.z.z.z.z.z.z.z.z.z.z.z.z.z.z.z.z.z.z.z.z.M.z.z.z.z.z.h.z.z.Y.z.M.z.h.z.h.z.M.j.,.t $ o t 9.@X",
"o   M #.n.j.6.5.5.g.g.Z.Z.Z.x.z.z.z.z.z.z.z.z.z.z.z.z.z.z.z.z.z.z.z.z.z.z.z.z.z.M.z.z.M.z.z.z.z.z.z.z.z.z.z.z.U.z.z.z.z.h.z.z.l.l.<.w $ o 4 W OX",
"O   Y 7.G.n.1.k.Z.A.Z.J Z.Z.Z.Z.z.z.Z.Z.Z.Z.Z.Z.Z.Z.Z.Z.Z.Z.g.Z.z.z.z.z.z.z.z.z.Z.l.l.l.Z.l.Z.l.l.l.Z.k.l.x.l.l.x.l.k.l.k.l.k.j.j.y.t o   * a  X",
"* 9 O.n.l.l.Z.U.A.c.:.g.J 4.J J 4.4.4.4.>.:.J g.4.4.4.4.:.J J g.c.c.>.c.c.>.5.>.5.5.5.4.5.4.5.5.4.4.5.5.5.5.4.5.4.1.>.5.5.5.h.j.v.n.x : o $ 3  X",
"* f #.S.5.l.U.T.T.J J 4.:.-.o.g.-.;.:.;.-.-.-.;.-.-.-.;.:.:.-.:.*.>.=.=.;.;.;.;.;.;.;.;.;.;.;.1.1.;.;.>.5.5.1.;.-.-.;.>.>.4.5.v.n.b.b 4 o o * |.",
"q F  .o.Y.G.k.-.J J J J :.-.o.o.;.;.;.;.;.;.>.;.;.;.;.;.;.;.o.o.=.=.=.>.;.;.;.;.;.1.;.;.o.;.;.;.;.;.o.o.H ....o.o.o.......o.o.1.<.v.{ T o o o ].",
"3 C [ 1.G.Z.5.:.J J J J J J J o.;.;.;.;.;.;.;.o.;.;.;.o.;.o.g.o.;.;.o.o.;.;.;.;.;.o.1.;.;.;.;.;.;.;.;.o.....o.o.o.o.o.X...o.o.=.,.y.! P o o o ].",
"- x X.j.S.Z.5.4.J J J J g.o.J o.;.o.;.o.o.o.o.;.o.;.o.;.;.;.H J o.o.;.;.;.;.;.o.;.o.;.o.o.;.;.;.;.o.;.o.....o.;.*.o.o.X.o.o.;.#.,.2.V x o o o [.",
"= s F X.;.o.-.:.J J J :.J o.o.o.;.;.-.o.-.-.;.;.;.;.;.-.;.o.-.o.-.;.;.;.o.;.;.o.;.;.o.;.;.;.;.=.;.o.;.;.o.;.;.;.;.;.;.;.o.;.;.1.,.$.b g o o o ].",
"= e S Q ..o.K J :.J J J -.-.K K ;.-.;.-.;.-.;.;.-.-.o.-.o.-.-.o.;.-.-.;.-.;.;.;.;.;.;.;.;.;.=.=.;.;.;.1.4.4.5.;.>.>.>.>.;.>.>.;.,.,.b f o o o ].",
"6 s C F ' ' H *.:.g.J J J K J J K -.-.J o.o.K K -.K o.-.K o.-.K -.J -.K K *.*.*.*.*.*.*.*.*.*.=.*.*.*.*.*.*.*.*.....*.H *.*.*.*.[ [ b p o o o ].",
"- s C F O.' O.-.-.-.J J -.o.J H -.-.-.-.J -.-.-.J -.-.K K -.K -.-.-.-.;.-.-.-.;.;.:.=.=.=.=.:.=.c.=.=.*.*.*.*.*.H *.*.*.*.*.=.*.,.[ b p o o   ].",
"= s Z ~ O.O.H ..K o.o.K -.g.J g.-.4.>.:.4.4.:.>.4.4.:.-.;.4.4.4.4.4.-.4.:.4.4.;.>.c.c.>.h.>.>.>.=.h.h.*.*.*.*.*.*.*.=.=.h.,.=.=.,.,.b p o o   ].",
": h Q +.&.X.O.O.o.o.o.o.-.o.J J -.:.;.;.-.-.-.;.;.-.-.o.-.-.-.-.-.-.-.-.;.;.;.;.=.=.=.=.=.=.>.=.=.*.=.=.*.=.=.=.=.>.=.>.=.>.=.=.,.<.b g o o o ].",
"> l ~ &.7.%.X.X.o.-.o.K o.o.o.K o.o.K o.-.o.-.-.o.o.K o.o.o.o.K -.-.o.o.-.-.-.=.=.=.=.=.=.=.=.=.*.=.=.=.=.=.;.>.>.4.>.=.=.=.=.,.=.3.A g o o o ].",
"> v ) &.&.%. .X.o.7.1.%.o.O.o.o.o.o. .o.o.o.o. .o.o.o.o.o.o.o.o.o.o.O.o.o.o.X.X.[ *.[ =.=.=.X.=.=.=.[ =.=.=.1.1.,.=.[ *.[ *.[ =.,.w.Y c $ o o [.",
"> l ) @.$.%. .+.%.1.%.o.%.o.%.%.o. .%.o.o.%.%.%.o. .%.%.o. .%.%. .%.%.o.o. .%.%.,.| ,.,.#.X.,.#.#.,.,.[ =.#.,.,.,.#.[ [ [ [ [ ,.<.y.I c o o o ].",
"; l ) @.&.&. . .%.1.%. .%. .%.%.%.%.%.%.%.%.%. .%.%.%.%.%.%.%.%.%.%.%.%.%.%.%.%.,.,.,.#.#.,.#.,.,.#.,.,.| | ,.,.,.#.[ ] [ [ #.3.<.w.Y x $ o o |.",
"< n ) &.@.^ C m h f e 5 - - - - - - - - - - - - - - - - - - - - - - - - - - - - - 2 - - - - - - 2 2 = = - - - 5 - - * = - q 0 g V 9.V k O o   [.",
"; L / 8.W I h y q q 5 - - & & & & & & & & & & & & & & & & & & & & & & & & & & & & * * * * & - & $ % = * & & * * * * & & * - > 9 z @.I v o     {.",
"< U / +.k p * O o O o o                 X           X           X             X   o o       o                     o             1 ( U U       [.",
"; z N L 4 : O o   o o o           X   X X   X   X   X     X   X   X   X                                             o           : z n n   o   [.",
"& j k k ; &       o O   O       X X X     X   X     X X X   X X   X                                           X         .   o   # i z n . .   }.",
"O < * @       O + * - & 7 y y y y y e y y y y y y y y y y y y y y y y y y y d d d u u d d u u u d d u u r y y r r < < < < * @     X , 1 X X   {.",
"O * @ X   o O * ; 6 < < y d h d d d d d h d d d h d d d h d d d d d h d d d j j j k k j j j j j g j j j u d j i d y y y r > #       ; 1 . .   {.",
"O X     o + > p d k j d M N N N N N N N N N N N N N N N N N N M N N N N N L N N N L N N L N L N N N L N N L I I L L v l l 7 <       # #       `.",
"O       * , a z N N v c z c c l m l c l c l l m v m l l l c l m m z z m z z z m c v v v v v v c v v v v l N P N N v N v v s r @ O   . X       {.",
"O       > 9 g L I L N c l l l l l l l l l l l l l l l l l l l l l m m z l m m z c k l l l l c l l l l l l N N V N v v v v d y @ %     .       {.",
"    + * a k b N L b z k l M M M M m M M M M M v m M M v M M M c z M M m N m m L N N N N N N N N N N N c l c c k j h l l v c m u r .           }.",
"    % : g k v N V v c k c M M M M M M M M M M M M M M M M M M M M M M M m M M z N N M N N N N M N N N M c N c l h h l l M c c h y X .       X }.",
"    : t z v z c v v l l M M M M M M M M M M M M M M M M M M M M M M N M N M M N M b M M b M M M M M M M N N N c l x c c c M M N j #         X }.",
"O . r d P N z k z N L I N M M M c M M M M M M M M M M M M M M M M M M M M M m N M B M M M M M M M M M M k x b B N N b M m l l l a ; .       X [.",
"O + t k L V c k k N N V N M M M M M M M M M c M m M m M M M M M M m M m M M N m M c M b M M M b M M M c c c c c M N M M M M M l a : X     . X [.",
"+ # a N U V z k z b M N M l c x c x c l m m c m M M m l m c m c m m m l l M m M c c c c c c c c b c c c b c c x c c N N V N V N j 1 X   X # # [.",
"+ 7 k z N P I I Y j k v v v v M M M M M M M B M M M M M M M M M M M M M M M M M M M N M M M M M M M M M Z N N N M M N V V N Z N l u #       . [.",
"% a k z v v T T W a g c b b N b N M B N M N N M B N M N B N M N M N B N M N M N N M N B N M N M M N N N Z V V N V N V N N V N N z d ;         [.",
"o O 4 u N N v z k I P b v v v v v c c v v v v v c v v c v c b c v v c v b c N c c N M c l N v c M M z c M l c N N N N N N c l h j u ;   # # + [.",
"  O > r k g k z v P P v v v b v v v v N v v v v v v v N v v v N v v v v v v v N N l N N N c N M N M N M N N v M N N N N M l j y r < +   # , j .X",
"    o + : 4 k v v P v a z N N v N N N v N L N N N v N N N N N v N N v L L N L v N N N N N N N N N N N N N N N v N N N v l y 9 - #         i R.%X",
">   o X O + % 4 9 4 4 , , 4 1 1 1 4 r , < , 7 , 1 r , < , r , 1 7 < 1 4 , 4 4 1 < < 7 7 < 7 7 7 < 7 7 7 r < < , 7 7 r 9 < > ; X .       i 8.+X-X",
"r   o o o     % = % % % % % # + + + + + + + # + + # + + + + # + + + + + + # # # @ + @ + @ + @ + @ @ @ @ @ * @ + * * ; : - + +           U f.&X1X",
"`.+ O o   o O o     o +                                                                                                             X # -X:X3X3X",
"oX_ ( ( * % O   o   o o                                                                                                     X X r / / / :X1X3X3X",
"3X3X2X4Xy 4   o o o O                 .       .                                                                           + @ ; 8.3X-X&X3X3X3X1X",
"3X2X2X2X X X].].[.].].'.'.[.[.[.[.[.[.[.[.[.[.[.{.[.[.[.[.[.[.[.[.[.[.[.[.[.[.[.[.[.}.{.}.{.[.[.[.[.{.{.[.[.[.[.[.[.[.[.[.}.}.}.$X3X1X1X1X1X3X3X"
};
