/* XPM */
static char *result[] = {
/* columns rows colors chars-per-pixel */
"60 75 61 1 ",
"  c black",
". c #010000",
"X c #000100",
"o c #000001",
"O c #5E3600",
"+ c #5E3700",
"@ c #5E3701",
"# c #5E4200",
"$ c #5E4300",
"% c #5E5B00",
"& c #5F5B00",
"* c #725A37",
"= c #726037",
"- c #727037",
"; c #5E5D4C",
": c #575756",
"> c #575657",
", c gray34",
"< c #727267",
"1 c #A05F01",
"2 c #A15F01",
"3 c #A07100",
"4 c #A17100",
"5 c #865C20",
"6 c #866720",
"7 c #A19C00",
"8 c #A19C01",
"9 c #FF9600",
"0 c #FE9601",
"q c #FF9601",
"w c #FF9701",
"e c #FEA800",
"r c #FFA800",
"t c #FFB200",
"y c #FEB300",
"u c #FFB300",
"i c #FFB301",
"p c #FFCC00",
"a c #FEDE00",
"s c #FFDE00",
"d c #FFEE00",
"f c #FFF600",
"g c #FEF700",
"h c #FFF700",
"j c #FFF701",
"k c #FFE930",
"l c #81805F",
"z c #FFFA4C",
"x c #FFFB4C",
"c c #949595",
"v c #959595",
"b c #A1A184",
"n c #FFFB84",
"m c #FEFED0",
"M c #FFFED0",
"N c #FFFFD0",
"B c #FFFED1",
"V c #ffECECEC",
"C c #EDECEC",
"Z c #ECEDEC",
"A c #ECECED",
/* pixels */
"VVVVVVVVVVVVVVVVVVVVVVVVVVVVVVVVVVVVVVVVVVVVVVVAVVVVVVCVVVVV",
"VVACVVVVVVVVVVVVVAVVVv              ,VVCVAVVVVVVVVVVVVCVVVVV",
"VVVVVVCVVVZVVVVVVVVVVv     . o      ,VVVVVVVVVVVVVVVVVVVVVVV",
"VVVVVVVVVVZVVVVVVVVVVv              ,VVVVVVVVVVVVVVVVVVVVVVV",
"VVVVVVVVVVVVVVVVVVVVVv              ,VVVVVCVVVVVVVVVVVVVVVZV",
"VVVVVVVVVVVVVVVVVVVVVvX             ,VVVVVCVVCVVVVVVVVVVVVVV",
"CVVVVVVVVVVVVVVVVVVVVv         X    ,VVCVVVVVVVVVVVVVVVVVVVV",
"VVVVVVVVVVVVVZVVVVVVVv    o         ,VVVVVVVVVVVCVVVVVVVVVVV",
"VVVVVVVVVVVVVV,,,,,,:-777787744444446,,,>,,,VVVVVVVVVVVVVVVV",
"VVVVVVVVVCVVVV   o   %hjhhhhhuuuuuuu4       AVVVVVVVVVVVVVVV",
"VVVVVAVVVVVVVV       %hhhhhhhuuuuuuu4X      VVVVVVVVVVVVVVVV",
"VVVVVVVZVVVVVV       %hjhhhhhuuuuuuu4       VVVVVVVVVVVVVVVV",
"VVVVVVVVVVVAVV     X %hhhhhhhuuuuuuu4X      VVVVVVVVVVVVVVVV",
"CVAVVVVVVVVVVZ     X %hhhhhhhuuuuuuu4       VVVVVVVVVVVVVVVV",
"VVVVVVVVVVZAVV       %hhhhhhhuuuuuuu4       VVVVVVVVVVVVVVVV",
"VVVVVVVVVVVVVV       %hhhhjhhuuuuuuu4       VVVVVVVVVVVVVVVV",
"VVVVVVv       MMMMMMMnhhhhhhhuuuuuuurwqqq9qq    .  ,VVVVVVVA",
"VVVVVVv       MMMBMMMnhjghhhhuuuuuuurqq0qqqq       ,VVVVVVVV",
"VVVVVAvX      MMMMMMMnhhhhhhhuuuiuuueqqqqqqq  X    ,VVVVVCZV",
"VVVVZVv       MMMMMMMnhhhhhhfuyuuuuurqqqqqqq       ,VVVVVVVV",
"VVVVVAv       MMMMMMMnhhhhhhhuuuuuuurqqqqqqq       ,VVVVVVVV",
"VVVVVVv       MMMMMMMnfhhhhhhuuuuuuirqqqqqqq       ,VVVVVVVV",
"VVAVVVv       BMMMMMMnhhhhhhhuuuuuuirqqqqqqq       ,VVVVVCVV",
",,:,,,<bbbbbbbzzxzzzzkpppppppuuuuuuurqq0qqqq22222225,,,,,,,V",
"      ;MMmMMMMhhhhhhhatuuuuuuuuuiuuurqq0wq0qqqqqqqq2       V",
"      ;MMMMMMMhhhhhhhsuuuuuuuiyuuuuurqq0qqqqqqqq0qq2 o.    V",
".     ;MMMMMMMjhhhhhhsuuuuuuuuuuuuuurqqqqqqqqqqqqqq2       V",
"      ;MMMMMMMhhhjhhhstuuuuuuuuuuuuurqq0qqqqqqqq0qq2       V",
"      ;MMMMMMMhhhhhhhsuuuuuuuuuuuuuurqqqqqqqqqqqqqq2       V",
"      ;MMMMMMMhhhhhhhsuuuuuuuuuuuuuueq9qqqqqqqqqqqq2    o  V",
"      ;MMMMMMMhhhhghhsuuuuuuuuuuuuuurqqqqqqqqqqqqqq2      XV",
"     o;MMMMMMNhhhhhhhstuuuuuuuuuuuuuuuuuuuuuqqqqqqq2       V",
"      ;MMMMMMMhhhhhhhsuuuuuuuiuuuuuuuuuutuuuqqqqqqq2       V",
"   .X ;MMMMMMMhhhhhhhsuuutuuuuuuuuuiuuuuuuuuqqqqqq92       A",
"      ;MMMMMMMhhhhhhhauuuuuuuuuuuuuuuuuyuuuuqqqqqwq2  .    V",
"      ;MMMMMMNhhhhhfhsuuuuuuuuuuuuuuuuuuuiuuqqqqqqq2     . A",
"      ;MMMMMMMhhhhhhhsuuuuiutuuuuuuuyuiuuuuuqqqqqqq2       V",
"    X ;MMMMMMNhhhhhhhsuuyuuuuuuuuuuuuuuuuuuuqqqqqqq2       V",
".     ;MMMMBMMhhhhhhhsuuuuuuuuuuuutuuuuuuuutqqwqqwq2       V",
"      ;MMMMMMMhhhhhhhsuuuuiuuuuuuuuuuuuuuuuuqqqq0qq2     . V",
"      ;MMMMBMMhhhhhhhsuuuuuuuuuuuuuuuuuuuuuuqqqqqw92 o     V",
"      ;MMMMBMMhhhhhhhsuiuuuuuuuuuyuuuuuuuuuuqqwqqqq2       V",
"    X ;MMMMMMMhhhhghhsuuuuuuuiuuuuuuyuuuuuuuqqqq0qq2 o   . V",
"  o  o;MMMMBMMhhhhhhhsuuuuuuuuuuuuuuuuuuuuuuqqqqqqq2       V",
"      ;MMMMMMMhhhhhhhsuuuuuuuuuuuuuuuuuuuuuuqqqqqqq2       V",
"      ;MMMMMMMhhhhhhhsuuuuuutuuuuuuuutuutuuuqqqqqwq2       V",
"      %hhhhhghhhhhhhhsuuuuuuuuuuiuuurqq0qqqqqqqqqqq2       A",
"      %hhhhhhhhhhhghhsuuuuuuuuuuuuuurqqqqqqqqqqqqwq2       V",
"      %hhhhhhhhhhhhhhauuuuuuuuutuuuurqqqqqqqqqqqqqq2       V",
"      %hhhhhhfhhhhhhhsuuuuiuuuuuuuuurqqqqqqqqqqqqqq2    o  V",
"      %hhhhhhhhhhhhhhsuuuuuutuuuuuuurqqqqqqqqqqqqqq1  .    V",
"      %hhhhjhhhhhhhfhsuuuuuuuuuuiuuueqqqqqqqqqqqqqq2 o     V",
".     %hhhhhhhhhfhhfhsuuuuuuuuuuuuuurqqqwqqqqqqqqqq2      XV",
"vvvvvvl%%%%%%%hhhjhhhdsssssssuuuuyuurqqqqqqq@+O@+++*vvvvvvvV",
"VVVVVVv       hhhhhhhhhhhhhhhuuuuyuurqqqqqqq       ,VVVZVVVV",
"VVVVVVv       hhhhhhhhhhhhhhhuuuuyuueqqqqqqqo X .  ,VVCVVVVV",
"VVVVVVv       hhhhhhhhhhhhhhhuuuuuuurqq0qqqq       ,ZVCVVVVV",
"VZVVVVv       hhhhhhhhhhghhhhuuuuuuirqqqqqqq       ,VVVZAVVV",
"VVAVVVv   X   hhhhhhhhhjhhhhhuuuiuturqqqqqqq    .  ,VVVVAVVV",
"VVVVVVv       hhhhhhhhhhhfhhhuuuuuuurqqqqqqq   o   ,VVVVVVVV",
"VVVVVVv       hhhhghhhhhghjhhuuuuuuurqq0q9qq       ,VVVVVVVA",
"VVVVVVVVVVVVVV       %hhhhhhhuuuuuuu4       VCVVVVVVVVVVVVVV",
"VVVVVVVVVVVVVV       %hhhhhhhuuuuuuu4       VVVVVVVVVVVVVVVV",
"VVAVVVVVVVVVVVo      %hhhhjhhuuuuuuu4 o     VVVVVVAVVVVVVCVV",
"VVVVVVVVAVVVVV       %hhhhhhhuuuuuuu4       VVVVVVVVVVVVVVVV",
"VVVVVVVVVVVAVV       &hhhhhhhuuuuuuu4       VCVVCVVVVVVZVVVV",
"CVVVVVVVAVVVCV       %hhhhhgfuuuuuuu3 o     VVVVVVVVVVVVVVVV",
"VZVVVVVVVVVVVV       %hjhhhhhuuuuuuu4  .    VVVVVVVVVVVVVVVV",
"VZVVVAVVVCVVVVvvvvvvvl%%%%%%%#####$#=vvvvvvvVVVVVVVVVVVVVVVV",
"VVVVVVVVVVVVVVVVVVVZVv              ,VVVVVVVVVVVVVVVVVVVVVVV",
"VVVVVVVVAVVAVVVVVVVVVv     . o      ,VVVVVVZVVVVVVVVVVVZVVVV",
"VVVVVVVVVVVAVVAVVVVVVc          o   ,VVVVVVVVVVAVVVVVVVVVVZV",
"VVVVVVVVVVVVVVVVVVVVVv        .     ,VVVVVVVVVVVVVVCVVVVVVVV",
"VVVVVVVVVVVVVVVVVVVVVvXo            ,VVVVVVVVVVAVVVVVVVVVVVV",
"VVVVVVVVAVVVVVVVVVVVVv            X ,VVVVVVVVVVVVVVVVVVVVVVV"
};
