/* XPM */
static char *result[] = {
/* columns rows colors chars-per-pixel */
"75 75 250 2 ",
"   c #000000",
".  c #0B0202",
"X  c #030904",
"o  c #070A0A",
"O  c #0A0A0A",
"+  c #090907",
"@  c #130103",
"#  c #1B0202",
"$  c #1D030A",
"%  c #1D090D",
"&  c #120809",
"*  c #07120C",
"=  c #180D11",
"-  c #0C1716",
";  c #131414",
":  c #141B1C",
">  c #1B1C1C",
",  c #161617",
"<  c #0C0F10",
"1  c #240202",
"2  c #2C0102",
"3  c #25010A",
"4  c #240A0B",
"5  c #2A0407",
"6  c #330102",
"7  c #3B0202",
"8  c #34020B",
"9  c #39070A",
"0  c #290815",
"q  c #3A0517",
"w  c #25171A",
"e  c #3B131A",
"r  c #23110F",
"t  c #3E221F",
"y  c #1A1D22",
"u  c #251D21",
"i  c #3A1322",
"p  c #1B2324",
"a  c #192827",
"s  c #232324",
"d  c #2A2B2B",
"f  c #242A29",
"g  c #2B3434",
"h  c #283435",
"j  c #383839",
"k  c #392528",
"l  c #082318",
"z  c #430202",
"x  c #4B0204",
"c  c #480507",
"v  c #540302",
"b  c #5B0103",
"n  c #570709",
"m  c #470718",
"M  c #570616",
"N  c #501518",
"B  c #640301",
"V  c #6A0302",
"C  c #660705",
"Z  c #750101",
"A  c #790804",
"S  c #6B0A17",
"D  c #7D0E1C",
"F  c #791519",
"G  c #6B1510",
"H  c #490822",
"J  c #580B27",
"K  c #451525",
"L  c #5B1328",
"P  c #571936",
"I  c #680C25",
"U  c #790A26",
"Y  c #69142A",
"T  c #761526",
"R  c #6C0E35",
"E  c #7E0636",
"W  c #750C35",
"Q  c #7D0A35",
"!  c #7C073A",
"~  c #750C3B",
"^  c #7B093A",
"/  c #750535",
"(  c #6D1234",
")  c #691437",
"_  c #751138",
"`  c #442D36",
"'  c #4A3432",
"]  c #7B2731",
"[  c #6C2D33",
"{  c #7D2013",
"}  c #3D403E",
"|  c #403E43",
" . c #790C40",
".. c #3B4445",
"X. c #474949",
"o. c #4B5455",
"O. c #585A5B",
"+. c #554B50",
"@. c #7B484A",
"#. c #674C52",
"$. c #784D55",
"%. c #6B525C",
"&. c #685459",
"*. c #725257",
"=. c #6B4C4A",
"-. c #695462",
";. c #755A62",
":. c #5B6765",
">. c #656969",
",. c #6C7576",
"<. c #737778",
"1. c #786E75",
"2. c #830102",
"3. c #860906",
"4. c #9A0706",
"5. c #831208",
"6. c #8D081A",
"7. c #970A1A",
"8. c #881818",
"9. c #981719",
"0. c #94150D",
"q. c #A50807",
"w. c #B70D0C",
"e. c #AD1309",
"r. c #BD140B",
"t. c #B61507",
"y. c #A60D19",
"u. c #BA0D19",
"i. c #AC121A",
"p. c #A81719",
"a. c #B31414",
"s. c #BC1514",
"d. c #B4141B",
"f. c #BB131B",
"g. c #B41A17",
"h. c #94271B",
"j. c #A3211D",
"k. c #B9271F",
"l. c #8C0223",
"z. c #880728",
"x. c #950824",
"c. c #881827",
"v. c #9B1A26",
"b. c #820634",
"n. c #830934",
"m. c #82063A",
"M. c #810B39",
"N. c #8B0735",
"B. c #871133",
"V. c #A40D24",
"C. c #B50C21",
"Z. c #A61826",
"A. c #B81724",
"S. c #8A2127",
"D. c #962429",
"F. c #903734",
"G. c #A42224",
"H. c #A62827",
"J. c #B4342C",
"K. c #CD0E0D",
"L. c #C70C09",
"P. c #D40D04",
"I. c #D20E0D",
"U. c #DD0B09",
"Y. c #C5120D",
"T. c #CC120C",
"R. c #C61609",
"E. c #D3110D",
"W. c #D7140A",
"Q. c #CD0D12",
"!. c #C30E1A",
"~. c #C50C16",
"^. c #D50B13",
"/. c #C61213",
"(. c #CA1212",
"). c #C81619",
"_. c #D41216",
"`. c #E50C09",
"'. c #E41111",
"]. c #D62815",
"[. c #E22819",
"{. c #E6361A",
"}. c #F33615",
"|. c #D83625",
" X c #CB3227",
".X c #EA3A21",
"XX c #F33928",
"oX c #98423C",
"OX c #EC4E19",
"+X c #DC4B3A",
"@X c #F74628",
"#X c #E54738",
"$X c #F14F2A",
"%X c #FC6F2A",
"&X c #DD7218",
"*X c #884547",
"=X c #8A4852",
"-X c #AD5859",
";X c #8F7475",
":X c #BD7678",
">X c #D35352",
",X c #E95044",
"<X c #EB6451",
"1X c #CD6A67",
"2X c #C97879",
"3X c #D26D6B",
"4X c #ED746E",
"5X c #D25D65",
"6X c #F9B13A",
"7X c #F0912A",
"8X c #F7CA38",
"9X c #FE8879",
"0X c #FCCF4C",
"qX c #FFF95E",
"wX c #FFFE63",
"eX c #797E81",
"rX c #B87A84",
"tX c #897888",
"yX c #CE7D81",
"uX c #778283",
"iX c #868989",
"pX c #9D8B89",
"aX c #8C9696",
"sX c #989899",
"dX c #998D91",
"fX c #BA868C",
"gX c #A89798",
"hX c #B6949C",
"jX c #B08B93",
"kX c #B29BA7",
"lX c #9BA6A7",
"zX c #8FA6A4",
"xX c #A6A8A9",
"cX c #A4AFB0",
"vX c #A7B2B3",
"bX c #AAB5B6",
"nX c #AEB9BA",
"mX c #B6BBBB",
"MX c #B6A0AD",
"NX c #98A09E",
"BX c #C58C8D",
"VX c #D0B7B7",
"CX c #B4BFC1",
"ZX c #BCC6C8",
"AX c #C6C7C7",
"SX c #D5D5D5",
"DX c #D2CDD1",
"FX c #E8E8E8",
"GX c #FBFBFB",
"HX c #F2F3ED",
/* pixels */
"                                                                                                                                                      ",
"                                                                                                                                    O   +             ",
"                                                                                                                                            O         ",
"                                                                                                                                o       O       +     ",
"                                                                                                                                +     +               ",
"                                                                                                                          O         > d O O           ",
"                                                                        gXgXgXgXdXgXgXdXVX                                      . y <.gX,., O       + ",
"                                O                                     # r # # 1 1 1 1 5 1 5 @ ;X                                  s AXGXAXd O         ",
"                          O                                       gX& @ 1 1 5 2 6 6 7 7 c c 9 6 4 *.                              f mXFXxXw O         ",
"                                      O O                       ' @ # 6 x z z z z x v x b A B z c z 6                       O     O O.>.j O           ",
"                      O     O                                 s @ 5 2 v 9.g.g.a.g.g.s.g.a.e.3.B b c z 5 ;X                          + O +             ",
"        X           O             O +                       VX. 3 8 V k.Y.E.P.I.I.I.P.U.P.P.[.t.A B x z z pX                    O O     O         X   ",
"              O         > > w O     O   O                   . @ 2 n f.U.T.I.I.I.I.E.I.I.I.U.'.'./.0.V b x 9 hX                    O         +       + ",
"                O     > <.sXdXo.O                           & + z k.Y.Y.Q.^.I.I.W.P.P.^.U.U.`.'.`.E.4.V v c 9 X                   O + +     +         ",
"                      X.DXHXFXiX>                           .   C _._.I.P.^.K.P.U.'.`.'.T.R.T.'.`.U./.3.b v n                                     +   ",
"          +     X     d mXHXFXeX>   O                     . < + L 8.h.^.Y.^.Q.T.(.s.u.q.2.2.4.q.W.L.q.3.B v v 7       X                               ",
"                      O O.mXsX+.o   O                     w > ; w > z ^.Y.Q.d.3.Z Z A A V B A 9.].t.t.q.3.V C v VX                                    ",
"              O   + +   ; d >                             y s u : w D.r.L.a.v 7 c C Z A 3.3.2.g.R.W.R.t.e.5.C G c                                     ",
"              O     ;                                   - p <.j - 0 j.t.).n 6 1 c c B A v.J.|.,X{.@X}.].t.e.A b x 5                                   ",
"                          O + + +                     y a p : ..zXt h.T.i.1 5 6 N ;XBX2X5X>X#XXX@X@X@X$X$X@Xj.C n 7 =                                 ",
"                                    + +         o     h a a : uXsX4 j.K.F 1 1 1 *.kXgXhXBX3X#XXX@X$X%X%X@X@X<X-Xc z # gX                              ",
"                  O   O O           +       O   o NXlXNXvX,.>.lXh $ G.Q.G # 1 ' %.gXhXhXfX2X9X,X}.%X6X6X%X$X<X4X:Xz e .                               ",
"            O                           < ,     o   ,.cXnXcXlX<.eX4 H.Y.C # # +.-.1.kXjXfXrX4X4X@XOX8XqX7XOX$X>X2X*X7 4                               ",
"                                        u y f f ..y lXbXbXlXaX>.iXw 8.s.B # $ &.%.-.MXkXjXBX3X5X#X$X8XqX0X$XXX>X3XyXz 1 X.                            ",
"                                  f = f O.eX,.o.y >.bXbXnXlXh h iXf G g.C # # +.&.%.tXkXhXjXrX2X,XOX&X0X0XOX{.,X1X2XN 6 @                             ",
"                                  - X.>.uXaXzXvXvXh ..nXCX..o...eXp 3 8 N # # ' &.%.&.dXhXjXrXrX1X+X$X7X7X$X.X,X>X-XL 5 .                             ",
"                                  g O.:.: - f cXnXCXa cX,...h p p -   . . . + ` -.%.;.#.;.rXfXrX1X,X{.$X&X{.XX[.J.oXn 2 .                             ",
"                                      y o o < y eXnX,.a aXo.g h ..s % 9 Y 7 & y -.&.%.*.$.$.@.@.oXJ.|.{.}.}.[.[. XD.n 6 #                             ",
"                                      , X     o - ZXvXh bX..h h :.> : # Y v.M . j &.%.*.=.*.$.=XoXJ.J.OX}.{.].|. XA v 6 &.                            ",
"                                    - X   .     y nXbXh vXO.O.p p f l . N y.Z.x & X.%.-.&.*.@.*.*XoXJ.J.{.{.|.k.5.5.n 9 X                             ",
"                                  <.p O +     < a CXzXh nX:.,.+.d f =   8 y.i.i.z   ` ;.*.$.=X=X*X=XF.J.J.k.).4.V A N t HX                    + O O O ",
"                                  ,.p - <   <   y ZXuX..h zX- < X.f = X 8 V.i.u.D.. 0 4 ' =.$.=.*X@.] { 5.A q.q.B v 9                           O     ",
"                                < - iX- | , o.: uXbXO.h cXX.: * } * &   z i.a.~.Z.. 5 1 2 5 6 6 z v v V 5.C A 4.B c [ X                   O +       , ",
"                                  ,...aXg p y eXcXbXy nX>.w . . > * & @ c.d.u.C.S.. # # # 4 8 7 z x n C A Z 4.d.Z c '                           O     ",
"                                  iXo.aXcXcXvXbXlXh ' lX= L S L 2 + . 1 Z.d.u.i.n 5 x 7 6 6 6 z x b Z 4.e.).(./.2.x k                                 ",
"                                  X.>.o.y y ..mXzX- xXX.w I z.c.T . O # Z.a.u.p.z ] s.i.9.F D 8.p.A.).E.`.U.I.Y.2.c w                                 ",
"                                  f < p - a : : uX: 1.- e U z.T x.2   # 9.u.w.b 7 g.T.Y.Y././.~.(.Q.E.I.E.E.I.d.B n r                           O     ",
"        +   +                     > <.- a h a g < : - a r T c.c.S.5 m 1 Z.t.p.1 j.Y.^.Q.Y.Q.K.K._.E.I.E.E.W.K.i.n n #                               + ",
"    O   O +                       - >.a p s s X.,.: +.s @ 1 6 1 1 8 D.2 S e.c.1 s.r.Q.Q.Y.T.T.Q.K.K.I.E.E.E._.y.v z 4                     O           ",
"      O       O                     p eX, > > sX>., :.s 2 ] T T 8.Z.u.G 1 F M c !.r.!.T.R.T.Y.K.T.T.I.K.T.E._.7.c 7 4                                 ",
"O   ; :.&.} +                     iX  = y ..:.>.w K k 2 U V.C.p.y.u.!.h.6 3 6 8.L.r./.Y.T.T.(.Q.T.E.Q.I.E.Q.~.x.c 6 4                                 ",
"    j DXSXsXf   O                     & 0 w - w J D z.x.y.y.i.i.u.a.i.F # D.f.s.Q.Y./.Y./.(./.(.K.(.(.T.E.E.C.x.c 1 #                                 ",
"  O j FXGXxXj                       , = q m 0 $ N U 6.7.q.e.a.g.w.~.G.1 . 0.R.L.K.K.Y.Y./.K.(.(.(.(.(.E.I.(.y.x.7 1 &                                 ",
"  O > iXxX>.,           +           w 0 m H i 3 # K 8.c.8.Z.V.Z.y.D.c 9 8 0.R.r.Q.~.Y.Q././.(./.(.(.R.Q.Q.).7.z.7 3 .                                 ",
"  O   > d ;                         u % q q J I c 5 # 1 6 7 7 6 2 2 z ] 1 j.L.s.~.f./.Y.Q./.(.K.(.K.T.T.).C.z.n.6 @                                   ",
"  +           +     +               - = q @ n S D 6.c.c.c.c.9.9.G.A.g.S.7 j.Q.Y.Y./.Y././.Y./.Q.(.(.T./.!.y.z.B.5 # .                                 ",
"    = X     + + X                   iX= k 0 $ T D 9.y.p.p.d./.!.e.p.g.N q v.Z.A.!.!.!.Q.L.R.T.(.P./.f.A.7.N.N.T 1 .                                   ",
"                                      & & I $ # Y v.y.a.d.f.d./.d.H.7 # / z.l.6.x.V.C.A.f.f.f.A.A.C.x.l.z.N.z.I # @                                   ",
"                                          8 I m 1 n c.D.v.Z.D.8.n # O q  . .~ ^ n.Q l.l.6.z.l.l.z.z.n.b.Q N.n.M # . <.                                ",
"                                          X U B.S 8 2 6 6 6 2 1 n ] @ J / ! ! E ! ! E b.b.m.m.Q E b.n.b.Q n.B.m @                                     ",
"                +                         @ # c.7.c.Z.v.D.G.Z.A.A.8 q b.W ! m.E Q b.! M.m.Q Q Q Q Q Q b.N.n.Q 8 .                                     ",
"+       +                                   . n 6.C.w.t.t.t.R.P.F 1 P ! / ^ ~ ~ ~ ^ M.! M.b.n.n.Q Q b.Q n.M.Q 8                                       ",
"          +                             aX  & # N S.S.v.A.Z.D.C 1 L ~ ! Q ~ ^ R H H J L ( W Q _ Q Q W E b.N.R 1   +                                   ",
"                                            X       . # 1 6 1 8 P N.m.~ W m.~ q .   @ $ # 1 3 3 5 1 3 I b.n.L #   o                                   ",
"                o                           -.        + X . K ) ! ~ ! ! ~ ! _ 3   .       . . . . # L W W M.m . . g                                   ",
"                                                          @ H R m.R ~ m.^ ^ ) $   . < O +   . & q U N.N.E Q 0   +                                     ",
"                                                      dX*   H / W b.E ~ ~ E ) . X           @ 4 _ W Q W _ M.3   .                                     ",
"                                                      DX+   H E E ^ ^ E E ~ R & .         + # 4 Q Q Q b.n.~ $                                         ",
"                                                            q ^ ^ ^ ^ ^ ^  .R @           + . K Q _ Q E b.~ 3                                         ",
"                                                          X q W ^ ^ ^ ~ ^  .( .           . @ K ~ Q M.m.b._ 0 .                                       ",
"                                                          + 0 ~ / ^ ^ ^ ^ ~ _ @           X . e _ Q N.n.E ) $                                         ",
"                                                            3 ) ^ ^ ~ ^ ^ ~ _ @           X . $ _ _ W _ _ P &                                         ",
"                                                            $ ) m.m.m.! ~ W P @             O   % % 4 % 3                                             ",
"                                                            @ K R R _ / _ J 1 .                 & . . . .   O                                         ",
"                                                              . 3 K H J q & & X                   .   . . X           +                               ",
"                                                              X   . . .       O sX                        X                             O             ",
"                                                            o . O         o   sX                                  O X X O     O                       ",
"                                                                  O     & }                                                   <                       ",
"                                                                                                                  O g ' j ,   O     O                 ",
"                                                                                                                + +.xXAXxXj                           ",
"                                                                                                            +   ; <.FXGXDX>.    O                     ",
"                                                                                                            +     +.mXFXSXj ;                         ",
"                                                                                                                  f >.1.O.w o                         ",
"                                                                                                                    O +         O                     ",
"                                                                                                                                                      "
};
