/* XPM */
static char *result[] = {
/* columns rows colors chars-per-pixel */
"75 75 115 2 ",
"   c black",
".  c #010000",
"X  c #000100",
"o  c #010100",
"O  c #000001",
"+  c #010001",
"@  c #000101",
"#  c #010101",
"$  c #020202",
"%  c #030202",
"&  c #020302",
"*  c #020203",
"=  c #020303",
"-  c gray1",
";  c #040404",
":  c #050404",
">  c #050405",
",  c gray2",
"<  c #060606",
"1  c #070706",
"2  c #070607",
"3  c #070707",
"4  c gray3",
"5  c #090909",
"6  c gray4",
"7  c #0B0B0B",
"8  c #0C0C0C",
"9  c gray5",
"0  c #0E0E0E",
"q  c #101010",
"w  c gray7",
"e  c gray8",
"r  c #151514",
"t  c #151515",
"y  c #161616",
"u  c gray9",
"i  c #181919",
"p  c #191919",
"a  c gray10",
"s  c gray11",
"d  c #1D1D1D",
"f  c #1E1E1E",
"g  c gray12",
"h  c #202020",
"j  c gray13",
"k  c gray14",
"l  c #252525",
"z  c gray15",
"x  c #272727",
"c  c #282828",
"v  c gray16",
"b  c gray17",
"n  c #2C2C2C",
"m  c #2D2D2D",
"M  c #313131",
"N  c gray20",
"B  c #353535",
"V  c #373737",
"C  c #3A3A3A",
"Z  c gray24",
"A  c #3E3E3E",
"S  c #414141",
"D  c gray30",
"F  c gray31",
"G  c #565656",
"H  c #5B5B5B",
"J  c #5F5F5F",
"K  c #606060",
"L  c gray39",
"P  c #676767",
"I  c #686868",
"U  c gray44",
"Y  c #717171",
"T  c gray45",
"R  c #747474",
"E  c gray46",
"W  c #767676",
"Q  c #848484",
"!  c #858484",
"~  c #888888",
"^  c #8D8D8D",
"/  c gray58",
"(  c gray59",
")  c gray61",
"_  c #9F9F9F",
"`  c #A2A2A2",
"'  c gray64",
"]  c #A9A9A9",
"[  c gray67",
"{  c gray68",
"}  c #AFAFAF",
"|  c #B2B2B2",
" . c #B6B6B6",
".. c gray73",
"X. c #BBBBBB",
"o. c gray75",
"O. c #C0C0C0",
"+. c #C1C1C1",
"@. c gray77",
"#. c gray80",
"$. c gray81",
"%. c gray82",
"&. c #D2D2D2",
"*. c #DDDDDD",
"=. c gray89",
"-. c #E4E4E4",
";. c gray90",
":. c #E6E6E6",
">. c #EAEAEA",
",. c gray93",
"<. c #EFEFEF",
"1. c #F4F4F4",
"2. c gray99",
"3. c #FDFDFD",
"4. c white",
/* pixels */
"                            O                             O                           X       O             .         O   $ $ $     .       #       $ ",
"                        . X                                                                                                 $     , 3 ; <   $ #       ",
"            .                                                                                                             # $     #     ; - , ; $ X   ",
"                                            X                                     O                                       #     , <     5 # # $ = #   ",
"  X                     .                                                                                         .             , # - ;           $   ",
"              X                                   X                                           O                           4         f n 4 6 $     $ # ",
"            .                   X                                                                                     O   #   ; ; f W _ Y p 7     $ $ ",
"            ;       #           4 -     #                 # # # # # # # #     5   - # - $ - $ $ $ #                       #   # $ j @.4.O.M 6 O - #   ",
"          # # $ - #     . 3 - - #             O           # # # # # # # # -   $ 5 z l d ; - $ $ $ #             O           # - $ c X.,.' g ,   ; X   ",
"          -   # ,     - $           , 6 3                 # # # # # # # # ,   $ D }  .Q v - $ $ % #                       $ < #   4 G I B 6 # $ ;     ",
"          -         , 4     , -   - -                   X # # # # # # # #   $ e E =.>.+.K - $ $ $ #                       #     $   < 6 1     $ #     ",
"        X           , -     $     4 -   #                 # # + # # # # #   $ e E =.>.+.K - $ $ $ #                           $ 6 7     8   - #     - ",
"            ; ; $ ;   ; i g h 8   , 3 ; 0                 # # # # # # # # ,   $ D }  .Q v - $ $ $ #                       $ - -   4 .     $ <     $ - ",
".           , # - ,   h T ( ^ F 8   .                     # # # # # # # # -   $ 5 z l d ; - $ $ $ #                           $   5 < 4   # <     ,   ",
"            -   # = X S #.1.;.~ s   , -     X         .   # # # # # # # #     5   - # - $ - & $ $ #                       #   =   <     ;   >     3   ",
"          ;   $   =   m ..<.:.! p $ ;   #                                 # # @ # # # # #                   .                                         ",
"          $   2       5 K | ) D <   ;                                     # # # # # @ # #                                                             ",
"              5 # - <   t b d $     ;   $                                 # # # # # # # #                                               O     O       ",
"              < # $ 0 ;         , -                                       # # # # # # # #                                           .       X         ",
".         ; . -     ; -   7 1 5 ;     ;                                   + # # # # # # #                                   O                         ",
"          #   # ;     $ $           < 3                                   # # @ # # # # #                                                             ",
"                ; , # ; , $ - - $ < 3                                 O   # # # # # # # #               X     X                                       ",
"            3     : $ $     $ #         8                                 # # # # # # # #                                                             ",
"                                                                          X                 X                         O           O                   ",
"              X                                   X       O                                                                                           ",
"                                                        X                                                                                 # #         ",
"                  .             X       O                           X                                                       O             #           ",
"                                                                                  O                                                                   ",
"            .                         X                           .                     O                     X                                       ",
"  X                                         X   .                               X                                                             $ ; ; $ ",
"          O                           X     X                                                                               O               $ , 3 3 , ",
"  # # # #                   O                                                                           X                                     , 4 # < ",
"                                      X                                         X                     .                                   5 $       w ",
"                            O                                                                                                         X       - 3 , - ",
"                    # # #                                     X                                                                               #     # ",
"          # #         # $                             .                         X       O                                   O .     .     ; , $     , ",
"  # # # # - $ #       # $                                                       X                                     O                     # < 3 ;   ",
"# $ - - ; , ; $         #                             .                           O           O     O .                                           $ - ",
"$ - ; , , < , $                                                       O                                                       .         O 3     # $ O ",
"- ;   ,   -   4 ;     #               X O                                 X                       X                                                   ",
";   y L L Z <   #   - -                                                                                                                               ",
";   V %.*./ x   ; - $                                                                                 .                                               ",
"  , C -.3.{ N   ,       #     .                 . X     X             O                                                             .                 ",
"  6 u ~ ` P t   $       ;                           O                                               O                                               O ",
"  9   d n r     -   #   -                                                                                                                 .           ",
"  3     X   . 2 $ $ ;                                 .                                         .                   X                                 ",
"    9 , ;   < 3     $   -   O                                                                   .                                               .     ",
"# # # # # # # # # # # # #                                                               O             .                                               ",
"# # # # # # # # # # # # #                                                                             .                                               ",
"# # # # # # # # # # # # #                               X       O .                                                   O .                             ",
"@ # # # # # # # # # # # # X                 X       O                                                           O .                     O             ",
"# # # # # # # # # # # # #               O           O                                                         X                                       ",
"# # # # # # # # o # # # #     .                       .                         X                                             .           .           ",
"# # # # # # # # # # # # #                                                                                                                             ",
"# + # # # # # # # # # # #                               X                                                                                             ",
"                    X                                                                                             .                                   ",
"                                                                                  O                           X O   X                 X               ",
"                                    .                                                                     O             .                             ",
"                            O                                                             .       X                                                   ",
"                                                            .                                                                       .                 ",
"      .                           O                                 X       O                                             X                       X   ",
"  X                                                                               O       .                               X                           ",
"                O                                       X   .                                                 X                     .                 ",
"                          X O                                                                               $ -     ; $     - $ $ O $ 3         .     ",
"                                                            .                                             # #     . , , $   #         $               ",
"          O                                             X         .                                       ;               - $     -     <             ",
"          O                                             X                                                     # 3 3 - ; 4 # ; <   $   X ,             ",
"                                                          O                                                 $ $       # $   # 7 #   ;   *             ",
".                                                                                                         * ,   O 8 M A B w   3     <                 ",
"                                                              X         .                                       < F ] @.[ A     -   <                 ",
"                                                                                              O           , ,   q R :.2.$.I ,   2   ,   #             ",
"            .   O           O                                                                           X   3     D o.>.&.C w     $ # # # .           ",
"                                                                                                            ,     k J U H a ;   - -                 O ",
"                                                                                        O                       O < 0 8 ; #     ,     #       O       ",
"                              .                                       O                                       X $             , -     - #             "
};
