/* XPM */
static char *result[] = {
/* columns rows colors chars-per-pixel */
"75 75 222 2 ",
"   c #010102",
".  c #090503",
"X  c #060907",
"o  c #0A0804",
"O  c #02030A",
"+  c #03090B",
"@  c #090A0A",
"#  c #0A060B",
"$  c #100A05",
"%  c #100F0D",
"&  c #10100E",
"*  c #010413",
"=  c #040A11",
"-  c #0B0D13",
";  c #000319",
":  c #050C1C",
">  c #0C0E1C",
",  c #130F10",
"<  c #0D1116",
"1  c #00161D",
"2  c #0C131F",
"3  c #001A1B",
"4  c #16171A",
"5  c #21221D",
"6  c #0A1824",
"7  c #111521",
"8  c #151B2C",
"9  c #171B29",
"0  c #1A1E31",
"q  c #1C2931",
"w  c #1C2437",
"e  c #112B2F",
"r  c #272727",
"t  c #22262B",
"y  c #282B2C",
"u  c #23293F",
"i  c #2E313A",
"p  c #263035",
"a  c #333333",
"s  c #383C3D",
"d  c #212E47",
"f  c #343B4C",
"g  c #353A43",
"h  c #353D53",
"j  c #3B3F53",
"k  c #2B3248",
"l  c #423A46",
"z  c #3C464A",
"x  c #3B4147",
"c  c #374850",
"v  c #3F535E",
"b  c #2E4A56",
"n  c #375E6B",
"m  c #444444",
"M  c #474B4C",
"N  c #464A5A",
"B  c #405157",
"V  c #555555",
"C  c #5E5E5C",
"Z  c #505259",
"A  c #464C62",
"S  c #4B586A",
"D  c #595E75",
"F  c #5B5D69",
"G  c #605E61",
"H  c #44616D",
"J  c #4C636D",
"K  c #52636C",
"L  c #546167",
"P  c #4C6472",
"I  c #4B6A77",
"U  c #446574",
"Y  c #516671",
"T  c #5D647C",
"R  c #576976",
"E  c #5A757E",
"W  c #656464",
"Q  c #67696D",
"!  c #6D6D6D",
"~  c #64646A",
"^  c #60687A",
"/  c #6D717A",
"(  c #737373",
")  c #797675",
"_  c #73757C",
"`  c gray48",
"'  c #4E7482",
"]  c #656D83",
"[  c #66718C",
"{  c #6B738A",
"}  c #787A86",
"|  c #747B96",
" . c #6A7896",
".. c #5A848D",
"X. c #7D8188",
"o. c #618D97",
"O. c #788296",
"+. c #7A839B",
"@. c #7D889B",
"#. c #7F8BA5",
"$. c #7E8CAA",
"%. c #7C8EB9",
"&. c #7F91BB",
"*. c #7E90B4",
"=. c #6C98A2",
"-. c #78A3AB",
";. c #7EA9B3",
":. c #7F95C5",
">. c #848483",
",. c #8B8B8C",
"<. c #82898B",
"1. c #898B95",
"2. c #8F949B",
"3. c #959595",
"4. c #8592AE",
"5. c #8893AF",
"6. c #9B9FAB",
"7. c #818DB2",
"8. c #848FBC",
"9. c #8492B5",
"0. c #8A96B5",
"q. c #8E99B4",
"w. c #8594BD",
"e. c #8995BE",
"r. c #8498BD",
"t. c #8B9ABC",
"y. c #8698B7",
"u. c #919CB6",
"i. c #929CBB",
"p. c #8288A6",
"a. c #A39FA3",
"s. c #9FA2A8",
"d. c #81ACBA",
"f. c #95A2BE",
"g. c #9AA1BF",
"h. c #A7A8AA",
"j. c #A3ADBE",
"k. c #BDBDBD",
"l. c #B3B5B8",
"z. c #8596C2",
"x. c #8996C3",
"c. c #8599C3",
"v. c #8A9AC4",
"b. c #8894C9",
"n. c #859AC9",
"m. c #8999C8",
"M. c #8697C8",
"N. c #939EC2",
"B. c #8FA0C3",
"V. c #94A2C2",
"C. c #9AA5C5",
"Z. c #96A4CA",
"A. c #9BA3C8",
"S. c #94BDC9",
"D. c #A5ADC2",
"F. c #A8B4CE",
"G. c #B8BDC5",
"H. c #92C6CB",
"J. c #9CC6CB",
"K. c #8FCEDC",
"L. c #94CCD6",
"P. c #99CBD5",
"I. c #93CDDA",
"U. c #9ACCD9",
"Y. c #98C4D6",
"T. c #8DD0D3",
"R. c #98D2DC",
"E. c #A7C5CB",
"W. c #A5CED8",
"Q. c #A6D3D9",
"!. c #B2D6D8",
"~. c #BAC5D7",
"^. c #BDCBE6",
"/. c #B9C8E5",
"(. c #AAD2E1",
"). c #BDDDE4",
"_. c #B4DEE3",
"`. c gray77",
"'. c #CAC9CA",
"]. c #C3C9CF",
"[. c #C3C9D5",
"{. c #CDD3DA",
"}. c #DDDDDD",
"|. c #D8D7DB",
" X c #C2CDE9",
".X c #C9D4E9",
"XX c #D1D6E2",
"oX c #DBDCE4",
"OX c #D5DDEC",
"+X c #D9DEEB",
"@X c #D2D9E5",
"#X c #D5DEF2",
"$X c #D1DEF8",
"%X c #D8DFF2",
"&X c #CDDAF5",
"*X c #DBE2EE",
"=X c #D7E1EF",
"-X c #D5F0EF",
";X c #D6E1F3",
":X c #DAE3F2",
">X c #D6E1F8",
",X c #DAE4FA",
"<X c #DEECFE",
"1X c #DEEBF5",
"2X c #DFFBFD",
"3X c #CAE7EA",
"4X c gray93",
"5X c #E2E2E3",
"6X c #E0E7F4",
"7X c #E3EAF5",
"8X c #E3EBFC",
"9X c #EAEFF9",
"0X c #E9EDF4",
"qX c #E5FEFF",
"wX c #EDFDFE",
"eX c #EAF2FC",
"rX c #F5F5F5",
"tX c #F4F6FA",
"yX c #F3FEFE",
"uX c #FEFEFE",
"iX c #F8FAF9",
"pX c None",
/* pixels */
"pXpXpXpXpXpXpXpXpXpXpXpXpXpXpXpXpXpXpXpXpXpXpXpXpXpXpXpXpXpXpXpXpXpXpXpXpXpXpXpXpXpXpXpXpXpXpXpXpXpXpXpXpXpXpXpXpXpXpXpXpXpXpXpXpXpXpXpXpXpXpXpXpXpXpX",
"pXpXpXpXpXpXpXpXpXpXpXpXpXpXpXpXpXpXpXpXpXpXpXpXpXpXpXpXpXpXpXpXpXpXpXpXpXpXpXpXpXpXpXpXpXpXpXpXpXpXpXpXpXpXpXpXpXpXpXpXpXpXpXpXpXpXpXpXpXpXpXpXpXpXpX",
"pXpXpXpXpXpXpXpXpXpXpXpXpXpXpXpXpXpXpXpXpXpXpXpXpXpXpXpXpXpXpXpXpXpXpXpXpXpXpXpXpXpXpXpXpXpXpXpXpXpXpXpXpXpXpXpXpXpXpXpXpXpXpXpXpXpXpXpXpXpXpXpXpXpXpX",
"pXpXpXpXpXpXpXpXpXpXpXpXpXpXpXpXpXpXpXpXpXpXpXpXpXpXpXpXpXpXpXpXpXpXpXpXpXpXpXpXpXpXpXpXpXpXpXpXpXpXpXpXpXpXpXpXpXpXpXpXpXpXpXpXpXpXpXpXpXpXpXpXpXpXpX",
"pXpXpXpXpXpXpXpXpXpXpXpXpXpXpXpXpXpXpXpXpXpXpXpXpXpXpXpXpXpXpXpXpXpXpXpXpXpXpXpXpXpXpXpXpXpXpXpXpXpXpXpXpXpXpXpXpXpXpXpXpXpXpXpXpXpXpXpXpXpXpXpXpXpXpX",
"pXpXpXpXpXpXpXpXpXpXpXpXpXpXpXpXpXpXpXpXpXpXpXpXpXpXpXpXpXpXpXpXpXpXpXpXpXpXpXpXpXpXpXpXpXpXpXpXpXpXpXpXpXpXpXpXpXpXpXpXpXpXpXpXpXpXpXpXpXpXpXpXpXpXpX",
"pXpXpXpXpXpXpXpXpXpXpXpXpXpXpXpXpXpXpXpXpXpXpXpXpXpXpXpXpXpXpXpXpXpXpXpXpXpXpXpXpXpXpXpXpXpXpXpXpXpXpXpXpXpXpXpXpXpXpXpXpXpXpXpXpXpXpXpXpXpXpXpXpXpXpX",
"pXpXpXpXpXpXpXpXpXpXpXpXpXpXpXpXpXpXpXpXpXpXpXpXpXpXpXpXpXpXpXuXuXuXuXiXuXuXuXuXuXuXpXpXpXpXpXpXpXpXpXpXpXpXpXpXpXpXpXpXpXpXpXpXpXpXpXpXpXpXpXpXpXpXpX",
"pXpXpXpXpXpXpXpXpXpXpXpXpXpXpXpXpXpXpXpXpXpXpXpXpXpXpXpXuXuXuXuX}.`.`.`.'.`.'.}.rXuXiXuXpXpXpXpXpXpXpXpXpXpXpXpXpXpXpXpXpXpXpXpXpXpXpXpXpXpXpXpXpXpXpX",
"pXpXpXpXpXpXpXpXpXpXpXpXpXpXpXpXpXpXpXpXpXpXpXpXpXpXuXuXuX>.  @               .   o   4XuXuXpXpXpXpXpXpXpXpXpXpXpXpXpXpXpXpXpXpXpXpXpXpXpXpXpXpXpXpXpX",
"pXpXpXpXpXpXpXpXpXpXpXpXpXpXpXpXpXpXpXpXpXpXpXpXuXuXiX!                               @ V rXiXpXpXpXpXpXpXpXpXpXpXpXpXpXpXpXpXpXpXpXpXpXpXpXpXpXpXpXpX",
"pXpXpXpXpXpXpXpXpXpXpXpXpXpXpXpXpXpXpXpXpXpXpXuXuXa.      @       - Z _ 1.2.( s - O X     5 rXuXpXpXpXpXpXpXpXpXpXpXpXpXpXpXpXpXpXpXpXpXpXpXpXpXpXpXpX",
"pXpXpXpXpXpXpXpXpXpXpXpXpXpXpXpXpXpXpXpXpXpXuXuX% . o     < {.*X:XOX%X+X%X7X6X*X@X*X2.    @ a uXpXpXpXpXpXpXpXpXpXpXpXpXpXpXpXpXpXpXpXpXpXpXpXpXpXpXpX",
"pXpXpXpXpXpXpXpXpXpXpXpXpXpXpXpXpXpXpXpXpXuXuXX   X @ 4 tX*X:X:X:X;X:X:X:X:X*X:X:X:X:XoXX     h.uXpXpXpXpXpXpXpXpXpXpXpXpXpXpXpXpXpXpXpXpXpXpXpXpXpXpX",
"pXpXpXpXpXpXpXpXpXpXpXpXpXpXpXpXpXpXpXpXuXuX        G.*X:X;X;X;X:X:X:X:X*X6X:X:X:X:X:XOX/       uXuXpXpXpXpXpXpXpXpXpXpXpXpXpXpXpXpXpXpXpXpXpXpXpXpXpX",
"pXpXpXpXpXpXpXpXpXpXpXpXpXpXpXpXpXpXpXpXuXW     = *X;X<X=X=X;X#X%X%X,X:X,X%X:X:X:X:X:X+X7XO     Q uXpXpXpXpXpXpXpXpXpXpXpXpXpXpXpXpXpXpXpXpXpXpXpXpXpX",
"pXpXpXpXpXpXpXpXpXpXpXpXpXpXpXpXpXpXpXrXiX.     oXl.5.X._ / } <.s.].0X:X%X1X%X:X:X:X:X6X*Xj.O     uXpXpXpXpXpXpXpXpXpXpXpXpXpXpXpXpXpXpXpXpXpXpXpXpXpX",
"pXpXpXpXpXpXpXpXpXpXpXpXpXpXpXpXpXpXuXuX'.                      +   X   O } XXXX:X:X:X:X*X.X:     5XuXpXpXpXpXpXpXpXpXpXpXpXpXpXpXpXpXpXpXpXpXpXpXpXpX",
"pXpXpXpXpXpXpXpXpXpXpXpXpXpXpXpXpXpXuXrX              X   .                 O +X:X:X:X:X*X#XO.@ o s iXpXpXpXpXpXpXpXpXpXpXpXpXpXpXpXpXpXpXpXpXpXpXpXpX",
"pXpXpXpXpXpXpXpXpXpXpXpXpXpXpXpXpXrX!           + 3 e q q 6 3 1 * + +           *X:X:X;X%X<Xq.O     uXpXpXpXpXpXpXpXpXpXpXpXpXpXpXpXpXpXpXpXpXpXpXpXpX",
"pXpXpXpXpXpXpXpXpXpXpXpXpXpXpXpXuXm   X     f E.J.H.Q.Q.!._.H.T.P.P.S.).c o o   t +X,X*X;X,X4.*   o uXpXpXpXpXpXpXpXpXpXpXpXpXpXpXpXpXpXpXpXpXpXpXpXpX",
"pXpXpXpXpXpXpXpXpXpXpXpXpXpXpXuX<.$ .   6 E.).wXyXuXiXiXuXyXqXP.I.K.K.U.I B   o   7X:X*X:X,X#.h   @ uXuXpXpXpXpXpXpXpXpXpXpXpXpXpXpXpXpXpXpXpXpXpXpXpX",
"pXpXpXpXpXpXpXpXpXpXpXpXpXpXuXuX  o . E S.yXyXuXuXuXiXuXiXuXwXL.I.I.K.U.H J X     yX,X:X:X>X5.[     l.uXpXpXpXpXpXpXpXpXpXpXpXpXpXpXpXpXpXpXpXpXpXpXpX",
"pXpXpXpXpXpXpXpXpXpXpXpXpXpXuX` .   b Y.W.uXuXuXuXuXuXuXuXyXQ.R.U.I.I.S.P J O     7X;X:X;X>Xf.V.    a uXuXiXuXpXpXpXpXpXpXpXpXpXpXpXpXpXpXpXpXpXpXpXpX",
"pXpXpXpXpXpXpXpXpXpXpXpXpXpXuX  . + Q.I.U.-XwXyXwXqXqX3X!.J.L.K.I.U.U.' S J +   @ 7X,X:X:X;XV.Z.      r ` 4XuXuXuXpXpXpXpXpXpXpXpXpXpXpXpXpXpXpXpXpXpX",
"pXpXpXpXpXpXpXpXpXpXpXpXpXpXuX      W.I.U.R.P.P.U.P.L.U.L.K.U.L.L.L.W.I I J       8X#X;X;X:XA.N.                V uXuXpXpXpXpXpXpXpXpXpXpXpXpXpXpXpXpX",
"pXpXpXpXpXpXpXpXpXpXpXpXpXpXuX  @   R U.U.K.K.I.R.K.K.L.R.U.R.U.L.(.n U J J       eX:X:X:X;XC.w.      O           a uXuXpXpXpXpXpXpXpXpXpXpXpXpXpXpXpX",
"pXpXpXpXpXpXpXpXpXpXpXpXpXpXuX  o O P I U ..-.;.;.d.d.;.-.=.o.' U n R H P L     # :X:X*X*X;XC.z.    O h.G.F -       m uXpXpXpXpXpXpXpXpXpXpXpXpXpXpXpX",
"pXpXpXpXpXpXpXpXpXpXpXpXpXpXuXV     c Y H P P P P P J P P P P P H J R K Y q     ~ +X:X:X:X:Xt.%.      Q +X:X*X4X- @ X uXpXpXpXpXpXpXpXpXpXpXpXpXpXpXpX",
"pXpXpXpXpXpXpXpXpXpXpXpXpXpXuX}.  @ = L L P I J P J P J Y J J J H Y P Y K     O 0XOX%X:X;X>X$.&.O O   i :X:X6X6X      uXpXpXpXpXpXpXpXpXpXpXpXpXpXpXpX",
"pXpXpXpXpXpXpXpXpXpXpXpXpXpXpXuX4       x S P J J P P J J J J J H Y S K +     O 7X%X6X:X:X:X9.z.7     9 :X>X,X:X      uXpXpXpXpXpXpXpXpXpXpXpXpXpXpXpX",
"pXpXpXpXpXpXpXpXpXpXpXpXpXpXpXuXrX%         p K J P U J P P U P P Y v +   .   h.+X:X%X:X:X,Xe.m.8     < ~..X#X8X=     uXpXpXpXpXpXpXpXpXpXpXpXpXpXpXpX",
"pXpXpXpXpXpXpXpXpXpXpXpXpXpXpXrXiXuX              = 4 p z M z i &       o # N |.:X:X:X:X=X,Xv.z.w   O O z.8.M.z.8     uXuXpXpXpXpXpXpXpXpXpXpXpXpXpXpX",
"pXpXpXpXpXpXpXpXpXpXpXpXpXpXpX5XuXrX                      X             O } *X+X:X:X:X:X:X$Xw.v.c     O x.w.M.r.k     iXuXpXpXpXpXpXpXpXpXpXpXpXpXpXpX",
"pXpXpXpXpXpXpXpXpXpXpXpXpXpXpXpXuX3.    Q / =   X                   + x 6X6X+X8X:X:X:X;X;X^.n.z.A       x.w.:.z.A   o }.uXpXpXpXpXpXpXpXpXpXpXpXpXpXpX",
"pXpXpXpXpXpXpXpXpXpXpXpXpXpXpXpXuXm     {.*X+X7X9X[.h.Q t +   4 _ ].eX*X*X:X:X;X:X:X:X*X;XV.n.z.T     O 8.z.z.z.^     k.uXpXpXpXpXpXpXpXpXpXpXpXpXpXpX",
"pXpXpXpXpXpXpXpXpXpXpXpXpXpXpXpXiX,     9X8XOX:X:X>X:X*X:X=X*X=X:X:X:X*X6X:X:X:X:X:X:X*X,X*.z.&.]       z.w.z.z.{     h.uXpXpXpXpXpXpXpXpXpXpXpXpXpXpX",
"pXpXpXpXpXpXpXpXpXpXpXpXpXpXpXpXrX    + 8X:X:X:X:X:X>X:X=X:X;X:X>X:X:X*X:X;X:X:X:X:X:X@X$Xz.z.w.{ +   O 8.w.x.z.+.    3.iXpXpXpXpXpXpXpXpXpXpXpXpXpXpX",
"pXpXpXpXpXpXpXpXpXpXpXpXpXpXpXpXuX      D.;X:X:X:X:X:X:X:X:X:X:X:X:X;X:X:X:X:X:X:X:X:X:X&Xe.z.w.[       w.w.z.z.+.    ,.uXpXpXpXpXpXpXpXpXpXpXpXpXpXpX",
"pXpXpXpXpXpXpXpXpXpXpXpXpXpXpXpXuX  #   q.,X:X:X:X:X:X:X:X:X:X:X:X:X:X:X:X:X:X:X:X:X:X:XV.w.z.r.]       z.w.z.x.+.    ` uXpXpXpXpXpXpXpXpXpXpXpXpXpXpX",
"pXpXpXpXpXpXpXpXpXpXpXpXpXpXpXpXuX      0.,X;X;X:X:X:X:X:X*X:X*X:X:X:X:X:X:X:X:X:X*X:X>Xt.c.z.z.]       w.r.z.z.+.    W uXpXpXpXpXpXpXpXpXpXpXpXpXpXpX",
"pXpXpXpXpXpXpXpXpXpXpXpXpXpXpXuXuX    + t.F.OX+X:X*X:X:X:X:X:X:X:X:X*X:X:X:X:X:X:X=X>X.X*.z.M.z.]       z.r.z.M.| O   V uXpXpXpXpXpXpXpXpXpXpXpXpXpXpX",
"pXpXpXpXpXpXpXpXpXpXpXpXpXpXpXuXuX      t.4.,X,X:X:X:X:X:X:X:X:X:X*X:X:X:X*X:X:X:X:X;Xy.z.z.M.z.D O   O z.w.z.z.{ O   V uXpXpXpXpXpXpXpXpXpXpXpXpXpXpX",
"pXpXpXpXpXpXpXpXpXpXpXpXpXpXpXuXuX    O i.x.,X8X;X:X:X:X*X:X*X:X:X:X:X*X:X*X:X*X@XOX^.:.z.z.z.r.S O   O z.w.z.z.D     G uXpXpXpXpXpXpXpXpXpXpXpXpXpXpX",
"pXpXpXpXpXpXpXpXpXpXpXpXpXpXpXpXuX    O i.w.V.$X*X*X:X:X:X:X:X:X:X:X:X:X:X:X*X*X1X8Xe.w.z.z.z.z.c     O x.z.z.z.z   . >.iXpXpXpXpXpXpXpXpXpXpXpXpXpXpX",
"pXpXpXpXpXpXpXpXpXpXpXpXpXpXpXpXiX    O t.z.w.^.>X;X7X;X:X:X:X:X:X:X:X:X:X,X=X*X<Xr.n.z.z.v.z.z.h O O O 8.r.z.c.0     l.uXpXpXpXpXpXpXpXpXpXpXpXpXpXpX",
"pXpXpXpXpXpXpXpXpXpXpXpXpXpXpXpXuX<     V.z.z.y.~.>X8X:X,X1X:X:X:X:X1X:X#X,X,X$Xf.z.n.z.z.n.z.z.k     O 8.e.n.w.:     *XuXpXpXpXpXpXpXpXpXpXpXpXpXpXpX",
"pXpXpXpXpXpXpXpXpXpXpXpXpXpXpXpXiXy   O q.x.z.r.e.w. X:X,X:X%X>X;X>X:X8X,X[.C.8.n.r.r.z.z.z.z.w.d O   = z.e.z.w.*   . uXuXpXpXpXpXpXpXpXpXpXpXpXpXpXpX",
"pXpXpXpXpXpXpXpXpXpXpXpXpXpXpXpXuXG   + | z.z.w.w.z.z.z.r.%.w.9.&.&.&.z.r.M.x.z.w.z.z.z.r.z.z.z.8 #   7 7.z.n.w.*   . uXpXpXpXpXpXpXpXpXpXpXpXpXpXpXpX",
"pXpXpXpXpXpXpXpXpXpXpXpXpXpXpXpXuX'.    N z.z.z.r.z.z.e.w.r.w.w.e.w.w.e.w.x.z.r.x.x.z.w.z.w.z.w.2     8 w.:.v.f.      iXpXpXpXpXpXpXpXpXpXpXpXpXpXpXpX",
"pXpXpXpXpXpXpXpXpXpXpXpXpXpXpXpXuXuX    2 z.x.z.z.r.z.z.z.z.x.m.z.z.z.z.z.x.r.e.w.z.x.r.z.z.z.r.O     8 z.M.e.R     l uXpXpXpXpXpXpXpXpXpXpXpXpXpXpXpX",
"pXpXpXpXpXpXpXpXpXpXpXpXpXpXpXpXpXuX.   O 8.M.z.r.v.r.c.z.w.M.w.w.V.V.B.B.e.v.v.x.z.z.z.r.z.z.z.      i 1.+.h O     uXuXpXpXpXpXpXpXpXpXpXpXpXpXpXpXpX",
"pXpXpXpXpXpXpXpXpXpXpXpXpXpXpXpXpXuX  . + N.w.z.w.V.i.#.] h 0 O   O O O O d 9.v.z.z.z.w.z.w.z.r.O             -   C iXpXpXpXpXpXpXpXpXpXpXpXpXpXpXpXpX",
"pXpXpXpXpXpXpXpXpXpXpXpXpXpXpXpXpXiXM     D w.n.v. .;   X     O           O 0.n.z.e.z.x.r.r.M.Z.      .   o     h.rXpXpXpXpXpXpXpXpXpXpXpXpXpXpXpXpXpX",
"pXpXpXpXpXpXpXpXpXpXpXpXpXpXpXpXpXuXuX    * *.n.z.7.f.^ >               @   u.n.z.w.z.x.w.z.n.N.      Q C 3.|.uXuXpXpXpXpXpXpXpXpXpXpXpXpXpXpXpXpXpXpX",
"pXpXpXpXpXpXpXpXpXpXpXpXpXpXpXpXpXuXuX    * f.c.z.w.w.*.0.O   X uXuXiXm     u.n.x.w.z.x.y.n.m.0.    a uXuXrXrXpXpXpXpXpXpXpXpXpXpXpXpXpXpXpXpXpXpXpXpX",
"pXpXpXpXpXpXpXpXpXpXpXpXpXpXpXpXpXpXuX@   O f.c.z.z.M.:.e.O   @ uXuXuXm     i.%.z.w.z.w.r.n.v.[ .   3.uXpXpXpXpXpXpXpXpXpXpXpXpXpXpXpXpXpXpXpXpXpXpXpX",
"pXpXpXpXpXpXpXpXpXpXpXpXpXpXpXpXpXpXuX@   O q.n.z.z.:.:.e.O   @ uXuXuXC     t.z.z.z.z.z.r.z.w.A     4XuXpXpXpXpXpXpXpXpXpXpXpXpXpXpXpXpXpXpXpXpXpXpXpX",
"pXpXpXpXpXpXpXpXpXpXpXpXpXpXpXpXpXpXuX4   O 0.n.z.z.r.w.0.    # uXuXuX(     u.M.z.r.z.r.r.M.w.w     uXpXpXpXpXpXpXpXpXpXpXpXpXpXpXpXpXpXpXpXpXpXpXpXpX",
"pXpXpXpXpXpXpXpXpXpXpXpXpXpXpXpXpXpXuXW   @ +.z.M.w.x.z.f.O X , uXuXuX(     p.b.w.r.z.z.z.:.9.*     uXpXpXpXpXpXpXpXpXpXpXpXpXpXpXpXpXpXpXpXpXpXpXpXpX",
"pXpXpXpXpXpXpXpXpXpXpXpXpXpXpXpXpXpXuXrXo   A A.f.V.i.N.N O   m uXuXuX`     { e.w.y.z.z.r.M.q.      uXpXpXpXpXpXpXpXpXpXpXpXpXpXpXpXpXpXpXpXpXpXpXpXpX",
"pXpXpXpXpXpXpXpXpXpXpXpXpXpXpXpXpXpXpXuX    # O     O #       uXuX'.iXk.    8 w.x.m.x.x.z.%.i.O   . uXpXpXpXpXpXpXpXpXpXpXpXpXpXpXpXpXpXpXpXpXpXpXpXpX",
"pXpXpXpXpXpXpXpXpXpXpXpXpXpXpXpXpXpXpXuXrX. .               C uXpXpXpXuX    * | e.8.N.e.e.9.S O   r iXpXpXpXpXpXpXpXpXpXpXpXpXpXpXpXpXpXpXpXpXpXpXpXpX",
"pXpXpXpXpXpXpXpXpXpXpXpXpXpXpXpXpXpXpXpXuXuX5X` ) ) _ Q ,.uXuXpXpXpXpXpX! . .   ; ; : 6 2 * O     '.uXpXpXpXpXpXpXpXpXpXpXpXpXpXpXpXpXpXpXpXpXpXpXpXpX",
"pXpXpXpXpXpXpXpXpXpXpXpXpXpXpXpXpXpXpXpXpXpXuXuXuXuXuXuXuXpXpXpXpXpXpXpXuXV           .   .       uXpXpXpXpXpXpXpXpXpXpXpXpXpXpXpXpXpXpXpXpXpXpXpXpXpX",
"pXpXpXpXpXpXpXpXpXpXpXpXpXpXpXpXpXpXpXpXpXpXpXpXpXpXpXpXpXpXpXpXpXpXpXpXpXuXiXr   @   @       >.uXuXpXpXpXpXpXpXpXpXpXpXpXpXpXpXpXpXpXpXpXpXpXpXpXpXpX",
"pXpXpXpXpXpXpXpXpXpXpXpXpXpXpXpXpXpXpXpXpXpXpXpXpXpXpXpXpXpXpXpXpXpXpXpXpXpXuXuXuXuXiXrXuXuXuXuXuXpXpXpXpXpXpXpXpXpXpXpXpXpXpXpXpXpXpXpXpXpXpXpXpXpXpX",
"pXpXpXpXpXpXpXpXpXpXpXpXpXpXpXpXpXpXpXpXpXpXpXpXpXpXpXpXpXpXpXpXpXpXpXpXpXpXpXpXpXuXiXuXuXuXpXpXpXpXpXpXpXpXpXpXpXpXpXpXpXpXpXpXpXpXpXpXpXpXpXpXpXpXpX",
"pXpXpXpXpXpXpXpXpXpXpXpXpXpXpXpXpXpXpXpXpXpXpXpXpXpXpXpXpXpXpXpXpXpXpXpXpXpXpXpXpXpXpXpXpXpXpXpXpXpXpXpXpXpXpXpXpXpXpXpXpXpXpXpXpXpXpXpXpXpXpXpXpXpXpX",
"pXpXpXpXpXpXpXpXpXpXpXpXpXpXpXpXpXpXpXpXpXpXpXpXpXpXpXpXpXpXpXpXpXpXpXpXpXpXpXpXpXpXpXpXpXpXpXpXpXpXpXpXpXpXpXpXpXpXpXpXpXpXpXpXpXpXpXpXpXpXpXpXpXpXpX",
"pXpXpXpXpXpXpXpXpXpXpXpXpXpXpXpXpXpXpXpXpXpXpXpXpXpXpXpXpXpXpXpXpXpXpXpXpXpXpXpXpXpXpXpXpXpXpXpXpXpXpXpXpXpXpXpXpXpXpXpXpXpXpXpXpXpXpXpXpXpXpXpXpXpXpX",
"pXpXpXpXpXpXpXpXpXpXpXpXpXpXpXpXpXpXpXpXpXpXpXpXpXpXpXpXpXpXpXpXpXpXpXpXpXpXpXpXpXpXpXpXpXpXpXpXpXpXpXpXpXpXpXpXpXpXpXpXpXpXpXpXpXpXpXpXpXpXpXpXpXpXpX",
"pXpXpXpXpXpXpXpXpXpXpXpXpXpXpXpXpXpXpXpXpXpXpXpXpXpXpXpXpXpXpXpXpXpXpXpXpXpXpXpXpXpXpXpXpXpXpXpXpXpXpXpXpXpXpXpXpXpXpXpXpXpXpXpXpXpXpXpXpXpXpXpXpXpXpX",
"pXpXpXpXpXpXpXpXpXpXpXpXpXpXpXpXpXpXpXpXpXpXpXpXpXpXpXpXpXpXpXpXpXpXpXpXpXpXpXpXpXpXpXpXpXpXpXpXpXpXpXpXpXpXpXpXpXpXpXpXpXpXpXpXpXpXpXpXpXpXpXpXpXpXpX",
"pXpXpXpXpXpXpXpXpXpXpXpXpXpXpXpXpXpXpXpXpXpXpXpXpXpXpXpXpXpXpXpXpXpXpXpXpXpXpXpXpXpXpXpXpXpXpXpXpXpXpXpXpXpXpXpXpXpXpXpXpXpXpXpXpXpXpXpXpXpXpXpXpXpXpX"
};
