/* XPM */
static char *_a9e10eca89b4bc494fb61bf3f486755cLL6a3gw1KSuMc4Z[] = {
/* columns rows colors chars-per-pixel */
"75 75 138 2 ",
"   c #B9855C",
".  c #AB7B55",
"X  c #966C4A",
"o  c #79553A",
"O  c #9F724E",
"+  c #9D714E",
"@  c #855E40",
"#  c #735037",
"$  c #593D29",
"%  c #664730",
"&  c #9C6F4D",
"*  c #876142",
"=  c #7E593D",
"-  c #976C4A",
";  c #957860",
":  c #907762",
">  c #8C715B",
",  c #7B573B",
"<  c #8D6445",
"1  c #936848",
"2  c #8C6344",
"3  c #715036",
"4  c #745238",
"5  c #926847",
"6  c #6C4B33",
"7  c #835D3F",
"8  c #8A6344",
"9  c #8A827B",
"0  c gray53",
"q  c #7E7874",
"w  c #AC7B55",
"e  c #B28058",
"r  c #956A49",
"t  c #765338",
"y  c #714F36",
"u  c #8F6646",
"i  c #806754",
"p  c #7F6959",
"a  c #7B6351",
"s  c #8B6244",
"d  c #906646",
"f  c #805B3E",
"g  c #6A4932",
"h  c #7F5A3D",
"j  c #7C573B",
"k  c #865F41",
"l  c #5F422C",
"z  c #856C58",
"x  c #6C6C6C",
"c  c #9A7B62",
"v  c #A47651",
"b  c #906747",
"n  c #866A54",
"m  c #6F6762",
"M  c #97765C",
"N  c #875F41",
"B  c #8A6343",
"V  c #654630",
"C  c #755238",
"Z  c #8C6445",
"A  c #866042",
"S  c #815E43",
"D  c #8E6C51",
"F  c #7D5A3F",
"G  c #A27450",
"H  c #805A3E",
"J  c #A67752",
"K  c #745E4E",
"L  c #765A44",
"P  c #78553A",
"I  c #835D40",
"U  c #996D4B",
"Y  c #855F41",
"T  c #6F4E35",
"R  c #6D4C34",
"E  c #6F4D35",
"W  c #6F533E",
"Q  c #615044",
"!  c #74543C",
"~  c #704E35",
"^  c #806149",
"/  c #847D78",
"(  c #816855",
")  c #7D583C",
"_  c #825C3F",
"`  c #AA7954",
"'  c #876042",
"]  c #7C5F49",
"[  c #765339",
"{  c #87664C",
"}  c #836A56",
"|  c #7A563B",
" . c #B07E57",
".. c #845E40",
"X. c #896243",
"o. c #8D6545",
"O. c #936948",
"+. c #886142",
"@. c #9E714E",
"#. c #7F5A3E",
"$. c #825D3F",
"%. c #946A49",
"&. c #735137",
"*. c #61432D",
"=. c #63452E",
"-. c #7C583C",
";. c #755338",
":. c #775439",
">. c #815B3E",
",. c #A77752",
"<. c #9C7352",
"1. c #886448",
"2. c #916847",
"3. c #9C704D",
"4. c #9D704D",
"5. c #765B46",
"6. c #9C7251",
"7. c #8E6F56",
"8. c #817368",
"9. c #755B48",
"0. c #7D6C5E",
"q. c #725036",
"w. c #9A6F4C",
"e. c #A97954",
"r. c #A37550",
"t. c #7A5A41",
"y. c #745137",
"u. c #916747",
"i. c #A87953",
"p. c #78563C",
"a. c #745844",
"s. c #77563E",
"d. c #8D6546",
"f. c #765740",
"g. c #705038",
"h. c #7D6B5E",
"j. c #816E60",
"k. c #79563A",
/* pixels */
"        . X X X X X X X X X o o o o o o o o o O         + X X X X X X X X @ o o o o o o o o # $ $ $ $ % o o o o o o o o o         O o o o o O         ",
"        . X X X X X X X X X o o o o o o o o o O         + X X X X X X X X @ o o o o o o o o # $ $ $ $ % o o o o o o o o o         O o o o o O         ",
"        . X X X X X X X X X o o o o o o o o o O         + X X X X X X X X @ o o o o o o o o # $ $ $ $ % o o o o o o o o o         O o o o o O         ",
"        . X X X X X X X X X o o o o o o o o o O         + X X X X X X X X @ o o o o o o o o # $ $ $ $ % o o o o o o o o o         O o o o o O         ",
"O O O O & X X X X * = = = = o o o o o o o o o - . . . . ; : : : > = = = = , o o o o < 1 1 1 2 3 3 3 3 4 o o o o o o o o o . . . . 5 6 6 6 6 7 1 1 1 1 ",
"o o o o @ X X X X 3 $ $ $ $ o o o o o o o o o 8 X X X X 9 0 0 0 q $ $ $ $ 6 o o o o w       e X X X X 8 o o o o o o o o o X X X X = $ $ $ $ $ $ $ $ $ ",
"o o o o @ X X X X 3 $ $ $ $ o o o o o o o o o 8 X X X X 9 0 0 0 q $ $ $ $ 6 o o o o w       e X X X X 8 o o o o o o o o o X X X X = $ $ $ $ $ $ $ $ $ ",
"o o o o @ X X X X 3 $ $ $ $ o o o o o o o o o 8 X X X X 9 0 0 0 q $ $ $ $ 6 o o o o w       e X X X X 8 o o o o o o o o o X X X X = $ $ $ $ $ $ $ $ $ ",
"o o o o @ X X X X 3 $ $ $ $ o o o o o o o o o 8 X X X X 9 0 0 0 q $ $ $ $ 6 o o o o w       e X X X X 8 o o o o o o o o o X X X X = $ $ $ $ $ $ $ $ $ ",
"O O O O r @ @ @ @ t 6 6 6 6 % % % % y O O O O u @ @ @ @ i p p p a 6 6 6 6 s O O O O r 1 1 1 d @ @ @ @ f o o o o g % % % % 3 3 3 3 h 1 1 1 1 j 6 6 6 6 ",
"        O o o o o o o o o o $ $ $ $ 6         1 o o o o o o o o o o o o o O         k o o o o o o o o o o o o o l $ $ $ $ $ $ $ $ h         1 o o o o ",
"        O o o o o o o o o o $ $ $ $ 6         1 o o o o o o o o o o o o o O         k o o o o o o o o o o o o o l $ $ $ $ $ $ $ $ h         1 o o o o ",
"        O o o o o o o o o o $ $ $ $ 6         1 o o o o o o o o o o o o o O         k o o o o o o o o o o o o o l $ $ $ $ $ $ $ $ h         1 o o o o ",
"        O o o o o o o o o o $ $ $ $ 6         1 o o o o o o o o o o o o o O         k o o o o o o o o o o o o o l $ $ $ $ $ $ $ $ h         1 o o o o ",
"X X X X z x x x x c         o o o o h X X X X 3 $ $ $ $ # o o o k         v X X X X X X X X b o o o o @ X X X X h o o o o         . X X X X @ o o o o ",
"X X X X z x x x x c         o o o o h X X X X 3 $ $ $ $ # o o o k         v X X X X X X X X b o o o o @ X X X X h o o o o         . X X X X @ o o o o ",
"X X X X z x x x x c         o o o o h X X X X 3 $ $ $ $ # o o o k         v X X X X X X X X b o o o o @ X X X X h o o o o         . X X X X @ o o o o ",
"X X X X z x x x x c         o o o o h X X X X 3 $ $ $ $ # o o o k         v X X X X X X X X b o o o o @ X X X X h o o o o         . X X X X @ o o o o ",
"X X X X n m m m m M e e e e k k k k N B B B B 4 V V V V C o o o 7 w w w w O X X X X Z B B B A o o o o S D D D D F o o o o e e e e G B B B B H o o o o ",
"X X X X 8 o o o o 8 X X X X         J $ $ $ $ = X X X X h o o o o o o o o 8 X X X X V $ $ $ l o o o o K x x x x L o o o o X X X X = $ $ $ $ 6 o o o o ",
"X X X X 8 o o o o 8 X X X X         J $ $ $ $ = X X X X h o o o o o o o o 8 X X X X V $ $ $ l o o o o K x x x x L o o o o X X X X = $ $ $ $ 6 o o o o ",
"X X X X 8 o o o o 8 X X X X         J $ $ $ $ = X X X X h o o o o o o o o 8 X X X X V $ $ $ l o o o o K x x x x L o o o o X X X X = $ $ $ $ 6 o o o o ",
"X X X X 8 o o o o 8 X X X X         J $ $ $ $ = X X X X h o o o o o o o o 8 X X X X V $ $ $ l o o o o K x x x x L o o o o X X X X = $ $ $ $ 6 o o o o ",
"@ @ @ @ P % % % % I X X X X v v v v U 6 6 6 6 Y X X X X T % % % % % % % % R 3 3 3 3 R 6 6 6 E o o o o W Q Q Q Q ! o o o o @ @ @ @ , 6 6 6 6 s O O O O ",
"o o o o 6 $ $ $ $ = X X X X X X X X b o o o o 8 X X X X V $ $ $ $ $ $ $ $ $ $ $ $ $ # o o o o o o o o 6 $ $ $ $ # o o o o o o o o o o o o o O         ",
"o o o o 6 $ $ $ $ = X X X X X X X X b o o o o 8 X X X X V $ $ $ $ $ $ $ $ $ $ $ $ $ # o o o o o o o o 6 $ $ $ $ # o o o o o o o o o o o o o O         ",
"o o o o 6 $ $ $ $ = X X X X X X X X b o o o o 8 X X X X V $ $ $ $ $ $ $ $ $ $ $ $ $ # o o o o o o o o 6 $ $ $ $ # o o o o o o o o o o o o o O         ",
"o o o o 6 $ $ $ $ = X X X X X X X X b o o o o 8 X X X X V $ $ $ $ $ $ $ $ $ $ $ $ $ # o o o o o o o o 6 $ $ $ $ # o o o o o o o o o o o o o O         ",
"w w w w s $ $ $ $ ~ h h h h h h h h ^ / / / / ( h h h h C # # # ) J J J J J J J J J _ o o o 7 w w w w ` J J J J _ o o o o b b b b ' o o o o u + + + + ",
"        1 $ $ $ $ 6 o o o o o o o o ] 0 0 0 0 p o o o o o o o o k                   k o o o k                   k o o o o X X X X 8 o o o o 8 X X X X ",
"        1 $ $ $ $ 6 o o o o o o o o ] 0 0 0 0 p o o o o o o o o k                   k o o o k                   k o o o o X X X X 8 o o o o 8 X X X X ",
"        1 $ $ $ $ 6 o o o o o o o o ] 0 0 0 0 p o o o o o o o o k                   k o o o k                   k o o o o X X X X 8 o o o o 8 X X X X ",
"        r l l l l [ k k k k k k k k { 9 9 9 9 } h h h h | o o o 7 w w w w  .e e e e h # # # h e e e e e e e e e ..o o o o b b b b X.h h h h o.X X X X ",
"        O o o o o O                 e X X X X X X X X X h o o o o o o o o 8 X X X X V $ $ $ V X X X X X X X X X h o o o o o o o o @ X X X X X X X X X ",
"        O o o o o O                 e X X X X X X X X X h o o o o o o o o 8 X X X X V $ $ $ V X X X X X X X X X h o o o o o o o o @ X X X X X X X X X ",
"        O o o o o O                 e X X X X X X X X X h o o o o o o o o 8 X X X X V $ $ $ V X X X X X X X X X h o o o o o o o o @ X X X X X X X X X ",
"        O o o o o O                 e X X X X X X X X X h o o o o o o o o 8 X X X X V $ $ $ V X X X X X X X X X h o o o o o o o o @ X X X X X X X X X ",
"v v v v O.o o o o +.1 1 1 1 v v v v @.@ @ @ @ u X X X X h o o o C % % % % P @ @ @ @ #.= = = $.X X X X u @ @ @ @ , o o o o o o o o t 3 3 3 3 ) @ @ @ @ ",
"X X X X 8 o o o o o o o o o X X X X b o o o o 8 X X X X h o o o # $ $ $ $ 6 o o o o b X X X X X X X X 8 o o o o o o o o o o o o o 6 $ $ $ $ 6 o o o o ",
"X X X X 8 o o o o o o o o o X X X X b o o o o 8 X X X X h o o o # $ $ $ $ 6 o o o o b X X X X X X X X 8 o o o o o o o o o o o o o 6 $ $ $ $ 6 o o o o ",
"X X X X 8 o o o o o o o o o X X X X b o o o o 8 X X X X h o o o # $ $ $ $ 6 o o o o b X X X X X X X X 8 o o o o o o o o o o o o o 6 $ $ $ $ 6 o o o o ",
"X X X X 8 o o o o o o o o o X X X X b o o o o 8 X X X X h o o o # $ $ $ $ 6 o o o o b X X X X X X X X 8 o o o o o o o o o o o o o 6 $ $ $ $ 6 o o o o ",
"X X X X %.b b b b &.l l l l h h h h = o o o o R V V V V *.l l l =.# # # # [ o o o o = h h h h h h h h -.o o o o G w w w w w w w w r # # # # ..b b b b ",
"X X X X X X X X X 3 $ $ $ $ o o o o o o o o o % $ $ $ $ $ $ $ $ l o o o o o o o o o o o o o o o o o o o o o o o w                 O o o o o 8 X X X X ",
"X X X X X X X X X 3 $ $ $ $ o o o o o o o o o % $ $ $ $ $ $ $ $ l o o o o o o o o o o o o o o o o o o o o o o o w                 O o o o o 8 X X X X ",
"X X X X X X X X X 3 $ $ $ $ o o o o o o o o o % $ $ $ $ $ $ $ $ l o o o o o o o o o o o o o o o o o o o o o o o w                 O o o o o 8 X X X X ",
"X X X X X X X X X ;.l l l l k k k k k k k k k E l l l l g 6 6 6 ~ h h h h :.# # # # _ k k k k k k k k >.o o o o ,.e e e e e e e e <.] ] ] ] 1.b b b b ",
"X X X X X X X X X @ o o o o                   1 o o o o w       e X X X X 3 $ $ $ $ J                 O o o o o b X X X X X X X X : 0 0 0 0 p o o o o ",
"X X X X X X X X X @ o o o o                   1 o o o o w       e X X X X 3 $ $ $ $ J                 O o o o o b X X X X X X X X : 0 0 0 0 p o o o o ",
"X X X X X X X X X @ o o o o                   1 o o o o w       e X X X X 3 $ $ $ $ J                 O o o o o b X X X X X X X X : 0 0 0 0 p o o o o ",
"X X X X X X X X X @ o o o o                   1 o o o o w       e X X X X 3 $ $ $ $ J                 O o o o o b X X X X X X X X : 0 0 0 0 p o o o o ",
"X X X X 2.8 8 8 8 f o o o o . . . . . . . . . 3.1 1 1 1 4.O O O @.X X X X 5.Q Q Q Q 6.. . . . . . . . - o o o o ) = = = = X X X X 7.8.8.8.8.9.6 6 6 6 ",
"X X X X 8 o o o o o o o o o X X X X X X X X X .         k o o o h X X X X 0.x x x x D X X X X X X X X 8 o o o o l $ $ $ $ X X X X 8 o o o o % $ $ $ $ ",
"X X X X 8 o o o o o o o o o X X X X X X X X X .         k o o o h X X X X 0.x x x x D X X X X X X X X 8 o o o o l $ $ $ $ X X X X 8 o o o o % $ $ $ $ ",
"X X X X 8 o o o o o o o o o X X X X X X X X X .         k o o o h X X X X 0.x x x x D X X X X X X X X 8 o o o o l $ $ $ $ X X X X 8 o o o o % $ $ $ $ ",
"X X X X 8 o o o o o o o o o X X X X X X X X X .         k o o o h X X X X 0.x x x x D X X X X X X X X 8 o o o o l $ $ $ $ X X X X 8 o o o o % $ $ $ $ ",
"h h h h q.l l l l ) b b b b h h h h I X X X X w.+ + + + e.w w w r.h h h h t.L L L L F h h h h h h h h -.o o o o y.# # # # h h h h u.w w w w i.J J J J ",
"o o o o 6 $ $ $ $ = X X X X o o o o h X X X X X X X X X e       w o o o o o o o o o o o o o o o o o o o o o o o o o o o o o o o o 1                   ",
"o o o o 6 $ $ $ $ = X X X X o o o o h X X X X X X X X X e       w o o o o o o o o o o o o o o o o o o o o o o o o o o o o o o o o 1                   ",
"o o o o 6 $ $ $ $ = X X X X o o o o h X X X X X X X X X e       w o o o o o o o o o o o o o o o o o o o o o o o o o o o o o o o o 1                   ",
"o o o o 6 $ $ $ $ = X X X X o o o o h X X X X X X X X X e       w o o o o o o o o o o o o o o o o o o o o o o o o o o o o o o o o 1                   ",
"o o o o @ X X X X @ o o o o o o o o p.a.a.a.a.s.o o o o b X X X X X X X X @ o o o o l $ $ $ 6         1 $ $ $ $ # o o o o         . X X X X X X X X X ",
"o o o o @ X X X X @ o o o o o o o o p.a.a.a.a.s.o o o o b X X X X X X X X @ o o o o l $ $ $ 6         1 $ $ $ $ # o o o o         . X X X X X X X X X ",
"o o o o @ X X X X @ o o o o o o o o p.a.a.a.a.s.o o o o b X X X X X X X X @ o o o o l $ $ $ 6         1 $ $ $ $ # o o o o         . X X X X X X X X X ",
"o o o o @ X X X X @ o o o o o o o o p.a.a.a.a.s.o o o o b X X X X X X X X @ o o o o l $ $ $ 6         1 $ $ $ $ # o o o o         . X X X X X X X X X ",
"@ @ @ @ ' 8 8 8 8 P 6 6 6 6 1 1 1 1 d.f.f.f.f.g.6 6 6 6 ..8 8 8 +.= = = = , o o o o g % % % y O O O O 7 $ $ $ $ # o o o o O O O O & X X X X X X X X X ",
"X X X X 8 o o o o % $ $ $ $         w o o o o % $ $ $ $ # o o o # $ $ $ $ 6 o o o o o o o o o o o o o 6 $ $ $ $ # o o o o o o o o @ X X X X X X X X X ",
"X X X X 8 o o o o % $ $ $ $         w o o o o % $ $ $ $ # o o o # $ $ $ $ 6 o o o o o o o o o o o o o 6 $ $ $ $ # o o o o o o o o @ X X X X X X X X X ",
"X X X X 8 o o o o % $ $ $ $         w o o o o % $ $ $ $ # o o o # $ $ $ $ 6 o o o o o o o o o o o o o 6 $ $ $ $ # o o o o o o o o @ X X X X X X X X X ",
"X X X X 8 o o o o % $ $ $ $         w o o o o % $ $ $ $ # o o o # $ $ $ $ 6 o o o o o o o o o o o o o 6 $ $ $ $ # o o o o o o o o @ X X X X X X X X X ",
"X X X X 8 o o o o +.1 1 1 1 v v v v O 8 8 8 8 P 6 6 6 6 h.8.8.8.j.= = = = Y 8 8 8 8 8 8 8 8 ' o o o o y.6 6 6 6 ..8 8 8 8 8 8 8 8 +.@ @ @ @ k.3 3 3 3 ",
"X X X X 8 o o o o O         X X X X X X X X X @ o o o o / 0 0 0 9 X X X X X X X X X X X X X b o o o o o o o o o b X X X X X X X X 8 o o o o % $ $ $ $ ",
"X X X X 8 o o o o O         X X X X X X X X X @ o o o o / 0 0 0 9 X X X X X X X X X X X X X b o o o o o o o o o b X X X X X X X X 8 o o o o % $ $ $ $ ",
"X X X X 8 o o o o O         X X X X X X X X X @ o o o o / 0 0 0 9 X X X X X X X X X X X X X b o o o o o o o o o b X X X X X X X X 8 o o o o % $ $ $ $ ",
"X X X X 8 o o o o O         X X X X X X X X X @ o o o o / 0 0 0 9 X X X X X X X X X X X X X b o o o o o o o o o b X X X X X X X X 8 o o o o % $ $ $ $ "
};
