/* XPM */
static char *result[] = {
/* columns rows colors chars-per-pixel */
"75 75 251 2 ",
"   c #020202",
".  c #0B0303",
"X  c #030A03",
"o  c #0B0906",
"O  c #03040A",
"+  c #0A040B",
"@  c #040A0A",
"#  c #0B0B0B",
"$  c #130404",
"%  c #190300",
"&  c #130E0A",
"*  c #140906",
"=  c #09120C",
"-  c #17130C",
";  c #060911",
":  c #1B0915",
">  c #0B1412",
",  c #0A1916",
"<  c #0C1D1B",
"1  c #071819",
"2  c #141D1B",
"3  c #191E1C",
"4  c #141615",
"5  c #2A0406",
"6  c #260A19",
"7  c #380D15",
"8  c #261817",
"9  c #381515",
"0  c #3A0D0D",
"q  c #09211E",
"w  c #14211E",
"e  c #1A211E",
"r  c #27251B",
"t  c #2F2D1E",
"y  c #151D21",
"u  c #370B23",
"i  c #2A1524",
"p  c #3B162A",
"a  c #3C192C",
"s  c #341627",
"d  c #290F25",
"f  c #0D2222",
"g  c #062222",
"h  c #122525",
"j  c #1C2322",
"k  c #152B2B",
"l  c #1B2C2C",
"z  c #152727",
"x  c #1A302E",
"c  c #1C3333",
"v  c #1F3839",
"b  c #192E30",
"n  c #2A2A24",
"m  c #28322C",
"M  c #37352A",
"N  c #243434",
"B  c #253B3C",
"V  c #2A3C3A",
"C  c #273736",
"Z  c #373A35",
"A  c #352725",
"S  c #4A1719",
"D  c #520C11",
"F  c #4A1E35",
"G  c #471833",
"H  c #4F1730",
"J  c #651D22",
"K  c #4A2438",
"L  c #54233C",
"P  c #453838",
"I  c #4F2B27",
"U  c #672329",
"Y  c #77282B",
"T  c #7B3336",
"R  c #6C2D34",
"E  c #35423D",
"W  c #45453A",
"Q  c #564B38",
"!  c #283D41",
"~  c #572743",
"^  c #543744",
"/  c #65314A",
"(  c #6B3958",
")  c #7D3B5E",
"_  c #78365A",
"`  c #6E2B4E",
"'  c #7C3964",
"]  c #7C3B73",
"[  c #2C4343",
"{  c #294447",
"}  c #374643",
"|  c #394544",
" . c #3B4945",
".. c #344A4A",
"X. c #3B4C4B",
"o. c #354749",
"O. c #3C524F",
"+. c #324E52",
"@. c #3B4D53",
"#. c #335256",
"$. c #3A5354",
"%. c #335359",
"&. c #3D5A5D",
"*. c #3B5759",
"=. c #2E4751",
"-. c #3D5C63",
";. c #355A61",
":. c #3D6063",
">. c #1E4254",
",. c #494B45",
"<. c #4D554C",
"1. c #455149",
"2. c #525245",
"3. c #53564D",
"4. c #57574D",
"5. c #43555B",
"6. c #435B5E",
"7. c #455755",
"8. c #545C55",
"9. c #404F50",
"0. c #694F4C",
"q. c #54615B",
"w. c #5D645B",
"e. c #48645E",
"r. c #706755",
"t. c #435D63",
"y. c #445E66",
"u. c #525F65",
"i. c #7E4364",
"p. c #436164",
"a. c #496468",
"s. c #5D6E6B",
"d. c #556969",
"f. c #5E716D",
"g. c #5B7579",
"h. c #516B72",
"j. c #657B78",
"k. c #6D716B",
"l. c #8E2E39",
"z. c #8A2A35",
"x. c #8A3238",
"c. c #8E2C35",
"v. c #B73A3D",
"b. c #AE383D",
"n. c #8E1F2D",
"m. c #C33B3F",
"M. c #C4403F",
"N. c #872D59",
"B. c #83355D",
"V. c #8A365E",
"C. c #823A5E",
"Z. c #8B395B",
"A. c #943C5D",
"S. c #983956",
"D. c #953947",
"F. c #AB3C47",
"G. c #BD3E44",
"H. c #B33B4A",
"J. c #B93B47",
"K. c #A83C55",
"L. c #B33C53",
"P. c #853662",
"I. c #8A3662",
"U. c #863963",
"Y. c #8A3A64",
"T. c #843B68",
"R. c #8B3C69",
"E. c #873768",
"W. c #923563",
"Q. c #923B64",
"!. c #943C6B",
"~. c #98396D",
"^. c #873870",
"/. c #C33D44",
"(. c #C43E4A",
"). c #C93C47",
"_. c #CD3A52",
"`. c #8E415A",
"'. c #BD4246",
"]. c #BE4249",
"[. c #B94748",
"{. c #A94454",
"}. c #B74652",
"|. c #AC4249",
" X c #8B4366",
".X c #864369",
"XX c #93426C",
"oX c #8E4675",
"OX c #AE4161",
"+X c #807B69",
"@X c #C34145",
"#X c #C84146",
"$X c #C14249",
"%X c #CA434D",
"&X c #C4494D",
"*X c #D1454B",
"=X c #C84753",
"-X c #D14A56",
";X c #DE4860",
":X c #6A827D",
">X c #65817D",
",X c #73847D",
"<X c #888069",
"1X c #707D80",
"2X c #567685",
"3X c #6B8481",
"4X c #6B8985",
"5X c #6A8786",
"6X c #738D8A",
"7X c #748A86",
"8X c #73918D",
"9X c #7F928F",
"0X c #789496",
"qX c #6A8F94",
"wX c #7EA5AD",
"eX c #668C96",
"rX c #869A97",
"tX c #87948C",
"yX c #889FA5",
"uX c #8AA5A7",
"iX c #95ABAA",
"pX c #85AAB4",
"aX c #9CB5B6",
"sX c #ABBBBC",
"dX c #93A19B",
"fX c #D2B594",
"gX c #E1BF97",
"hX c #94BECC",
"jX c #97BDC8",
"kX c #90BCCF",
"lX c #A2BDC1",
"zX c #8EC5CC",
"xX c #93C3CD",
"cX c #9EC5CD",
"vX c #94C3D2",
"bX c #9BC4D4",
"nX c #98C8D8",
"mX c #96CAD6",
"MX c #A2C8D5",
"NX c #B2CCD1",
"BX c #B5D7E5",
"VX c #BAE0E3",
"CX c #C7DBE5",
"ZX c #D5E7EE",
"AX c #F3EDF5",
"SX c #EDF3F6",
"DX c #F4F3F6",
"FX c #F8F4FB",
"GX c #EBEDF2",
"HX c #C6D7DD",
"JX c #E4C6A5",
/* pixels */
"3 2 2 = < | |  .} } | | | | | o. .E } } } } } } } } } } } } | } } } } } }  .} } } } } | E  .} } } | | } } }  .} } } } } }  .} } } } } } } } } E } } } ",
"3 4 2 = 2 } |  .} | ,.! | | | | } } } } } } } } } } } } } | } 1.<.<.<.<.<.<.<.<.<.<.<.<.<.<.<.3.<.<.<.} } } } } } } } } } } } } } } } } } } } } }  .} ",
"3 2 2 = 2 | |  .| | | | } } | } } } } } } } } } } } } } | <.4.n                                       8.2.3.}  .}  .} } } } } }  .} } } } }  .} } } } ",
"3 2 2 = 2 E  . .} | | | | } } } } } } } } }  .} } } } 3.,.n     . . . .         X O X X X X   .           # ,.W 3. .} } } } } } } } } } } } } } } } } ",
"4 2 2 > 2 |  .|  .| | | } } } } } } } } } } } } } 3.2.4 X * . + X O . . $ . & o   .   . . o   X X   . . + O   o * r 3.<.}  .} } } }  .} } } }  .} } } ",
"3 3 2 > 3 !  . .| | | | | } } } }  .} } } } }  .4.X   + + + O     0 R x.l.l.c.x.l.l.l.l.l.l.x.x.D $ X   X   @   @ @     8.E } } } } E } } } } } } } } ",
"3 3 2 > e | | | | | | | | } } } } } } } } }  .2.* # . +     O 5 F.$X%X*X).@X@X@X#X#X#X#X#X#X$X&X$X-X|.D 5 % 5 .     X     Q } } } } } } } } } } } }  .",
"3 2 2 > w | | | | | | | | } } } } } } } } } <.m @ . o   9 J F.=X@X'.G.'.'.[.[.[.@X[.@X[.@X'.@Xm.b.[.[.=X;X;Xl.U 7   O   o o Z 1.} } } } } } } } } } } ",
"3 3 w = 3 |  . .} | | | | | | | } } } } } } Q   O     D F.=XG./.'.].].G.$X/./.$X}.(.(.(.$X%X@X$X$X$X$X].F.[.&X&XD.9   . . @ + t 1. .} } } } } } } } } ",
"3 2 2 > 2 !  . .o.| | | | | } | } } } }  .3.-   O O   Y %X$X[.%X$X'.].].'.'.].].$X=X$XJ.F.].G.v.$XG.G.G.@X/.v.).m.%XU X @ X O   2...} } } } } | } } } ",
"3 2 e > j |  . .| o.| | | } } } } } } | <.M         S |.$X'.'.(.%XG.].&X'.[.'.].G./.@X].=X=X=X(.(.].[.J.&XJ.'.).#X*X@XY %   O   . Q | } } } } } | } E ",
"3 e 2 > 2 E  .| | | ! ,.| } } } } } } 1.r   X     5 l.(.[.'.%X].].].$X'./.%X).%X*X-X[.l.z.l.T I . & &   % % o I l.l.x.F.F.9   @   E  .} } } } } } } | ",
"3 3 2 > h E | | | | | | } } } } } } } 3.-       $ U &X/.'.'.%X].].}././.%X}.}.Y S S 9 % $ . $ $ .   O . + .   $ $ % .   L 6         4.| } } } } } } } ",
"3 j e > 2 |  .|  .| | | | } } } } } } <.t   O o R $X%X'.'.$XG.[.J.=Xm.$X}.J 9 &                 O           o . X X   O   . o   O   M <. .} } } } } | ",
"e w e > y }  .| | | | | | } } } | }  .<.A   @ o T -X'.'.].$X'.$X-XG.b._.s . O     .   O O . O O O O h.g.2X>.  @ O O   .   O   . O X   M Q 7.| | } } } ",
"3 e e > 2 |  . .| | | | } } | } } } X.M       $ T &X@XG.$X$X'.]./.F.&X5   X X O   4   # j a.uX0X0XwXBXbXBXhXeX0XwX5X{ g l = @ &           . r <.} } } ",
"3 e e > w |  .| | ! ,.| | | | } } } 1.M     O . Y *X@X'.@X].'.].%XF.l.    O     1 5.6XqXkXkXnXnXmXmXzXBXHXNXCXBXCXCXNXHXHXiXk.tXk.+ - .   4     8.| | ",
"3 e e > w |  .| | o.| | | o.} } } } 1.M   . O S b.&X@X'.'.'.].].b.-X      .   z y.-.MXnXkXvXnXnXvXcXZXSXGXFXFXFXFXFXFXFXFXAXFXAXFXlX  + o O .     2.E ",
"e e e > 2 |  . .| | | | | } } } }  .P   +     T *X@X$X$X].$X'.'.$XF.  + X . # *.t.;.kXvXnXnXvXbXMXjXZXSXGXFXDXAXSXGXGXGXDXFXAXAXSXZXiX{ y         W  .",
"3 j e > w }  .| | | | | | } } } }  .M   O #   J *XG.$X$X'.'.$X'.%X* . O .   [ 6.y.;.kXMXkXnXnXzXvXmXMXVXHXZXFXAXAXAXDXSXAXAXAXFXCXcXzXmXjXN   . O M <.",
"3 e e > w |  .| | |  .| | | } }  . .P   .   J J.(.$XG.G.'.$XG.'.-X* O O   o ..t.5.-.hXhXvXbXvXvXvXxXvXxXhXbXZXGXSXGXGXSXGXSXSXBXhXvXzXkXBXh.@ . O   2.",
"e e w > w | | | | | } } 2.1.<.<.<.3.r   O   U }./.$X].@XG.].$XG.$X* O     C *.t.a.y.jXnXzXkXbXvXvXvXvXvXvXvXhXnXvXxXbXbXxXaXcXxXkXnXvXbXkXNXm   O   ,.",
"e e e = w | | | | 3.<.W &                   S {.$X$XG.@X$X$X].G.%X$ O O X l :.a.*.;.hXbXnXvXnXvXvXvXbXvXvXvXnXkXvXkXnXnXkXzXzXmXnXvXvXbXzXBX .  O > ,.",
"j j e > e ,.4.4 3 o o       . % % . O     6 L `.}.].].].G.].$XG.%X$ O     E p.-.y.&.h.jXbXvXkXvXvXvXvXvXvXvXhXMXMXnXbXbXbXxXvXmXvXzXzXzXeX;.4 # O   2.",
"e j e > e <.# + ; O O O O         = .     G T.Z.H.'./.].G.$X].G.-X*   O . 4 @.t.y.a.*.t.uXbXbXvXvXvXvXvXvXvXzXvXvXvXzXzXzXbXvXhXkXnXjX2Xy.@.&   @ X 1.",
"3 e e > m A +       . $ * 9 }.b.F.D   $   G oX) K.(.].G.'.$X'.G.%X$ + O   .   *.%.*.a.6.p.a.wXnXbXnXvXvXvXbXnXhXhXbXbXbXMXvXnXhXeXa.h.t.h.j . . O X Q ",
"e e j > Z 8 X . +   J F.[.#X=XZ.P.s       G Q.Z.K.@X].G.$X].G.G._.R   . +     o.u.t.-.a.-.6.5.+.0XpXpXpXpXpXpXpXpXpXpXpXwXiX2X=.t.t.t.y.-.b .   O n 1.",
"e e j 3 M + o   X R }.%X'.G.H.B.P.s       H R.B.OX$X@X$X].$X].&X}.).0.. O     1 5.y.a.%.-.p.t.6.*.*.$.%.5.-.;.&.-.%.%.-.;.;.%.p.a.y.*.a.C * .   O ,.{ ",
"3 n z n r O .     b.).m.v.%XK.) .X6       H R.) A.J.(.@X/.'.].[.J.*XJ.  . O O O   5.5.t.p.-.t.&.:.p.p.t.y.t.%.-.t.&.6.a.:.p.p.&.$.7.o.=   .   O # W m ",
"2 j 2 r r ; .   I J.).).}.L.N.' oX6   .   H R.' V.}.}.$XG.@X@X[.@X].}.n.    X . O Z 5.a.t.6.p.p.p.t.-.a.y.y.a.y.a.p.t.y.t.6.t.o.C     O   O     > j # ",
"j j j n A O     T G.G.(.}.OXE.' Y.6 O     H E.' W.K.}.&X/.M.@X'.G.[.G.=XD.  .   X   < 4 > > V 6.9.5.5.t.+.h.5.5.t.} y > 4 > 4   O     .   O & r n - 4 ",
"j j j Z t O     D.L.}.K.S.V.E.' U.7       G R.P.I.S.L.$X'./.#X@X'.m.)./.}.D.      O O O                 > 9.y             .       o X     n n 3 2 3 2 ",
"j j e W & o . X N.}.) T.T.Y.I.C.i.u       a  XI.P.T.].m.].$X@X].$X&X'.'.@XD.S X     O       X . . .                 X   . @ O         . X Z M e , 2 3 ",
", 4 2 M X       R S.) U.P.Y.I.U.i.u       a  XP.P.P.].@X].$XM.].].].[./.).%X|.{.J S 9 8 .           O   O O O   .     % 9 7 9 0 S 7 X   # * M > > > = ",
"4 e e M     O i _ W.T.P.T.U.I.Z.' u       a  XI.U.U.]./.].].M.].$X].'.'.M.m.@X#X).-X-XF.n.z.z.n.z.Y 5         . J x.Y n.-X-X-X%X-XF.% . . - Z , 1 1 , ",
"> C  .P   .   F ~.E.T.P.U.U.I.Y..Xu       p  XI.U.U.G.#XL.&X@X].%X(.'.[.[.'.'.'.[.J.$XJ.&X$X].].&X&XF.b.(.).F.J.].}.[.'.&X[.'.'.%X|.%   # & 2.{ E [ E ",
", C  .P     @ L W.T.P.P.Y.P.I.P.i.u   O   p  XI.U.U.[./.].$X@X].'././.].[.].].$X$X&X].'.[.'.v.[.v.v.[.}.@X'.[.&X/.v.'.@Xm.[.].'.@XF.%     & q.#.+.+.+.",
"4 C  .P O     G !.T.P.T.T.T.Y.B.i.7       p  XP.P.Z.|.@X$X@X@X'.'.$X(.(./.$X%X$X(.(./.(.G.@X'.(.).(.%XG.'.@X'.'.(.$X].'.'.)./.@X%XF.    O & q...+.+.+.",
", w z M   .   F !.P.I.Y.T.P.Y.P.i.u       p  XP.U.P.A.}.G.@X$X(.G.].'.G.$X].].].].].].$X'.@X@X].(.].].$X$X].$X(.$X@X].$X$X$X$X@X&XJ.    O & q.#.+.+.+.",
", w < M   .   K !.P.P.U.P.P.!.Y.C.u       a  XI.U.^.I.K.].$X].}.].].$X].$X$XG.].$X]./.'.$X].].$XG.$X$XG.$X'.@X].$X].@X].$X$X].'.$XH.    O & q.+.+.+.+.",
"N f.,XQ   .   F Q.U.P.P..XU.W.Y.) p       a  XB.T.^.C.K.'.@X/.$X$X].].(.$X/.].$XG.].$X'.@X].$X].].@X$X].$X].G.$X].@X].$X].(.$X@X$XH.X   O & q.#.+.%.%.",
"N 9XiX4.  .   F XXP.Y.U.E.P.I.Y._ p       a  XI.Y.T.V.S.L.].@X/.@X].$X'.].$X].$X$X$X$X$X].$X].@X(.].$X$X/.$X$X].$XG.@X].G.$X].'.%XH.    O & q...+.+.+.",
"q j.7X2.  .   G Q.P.Y.C.R.P.R.' L .       a  XB.Y.P.T.T.I.{.}./.$X$X'.$X].].$X].].].G.$X'.'.$X$X'.].].G.].].$X@X$X].$X].$X$X@X'.$XJ.    O & q.#.%.+.+.",
", f.,X2.      L XXU.' P.I.Y.I. Xi X       p  XI.U.V.Y.T.U.Z.S.{.#X@X$XJ.]./.@X@X/.@X/.'.M.'.'.$X@X$X$X@X$X$X].'.].].].@X$X$X@X'.$XF.%   O & q.#.#.#.+.",
"2 f.j.2.  X   F Q.V..XV.V.U.I.XX7         p  XP.U.I.Y.T.U.P.A.A.K.F.].@X/.@X].].].].].].].$X$X$X].$X$X$X$X].'.].].@X].@X].&X].[.#XF.%   O & 8.%.#.#.#.",
"2 f.,X2.      K XXV.T.V.P.U.U.I.p         p  XP.I.I.Y.T.T.P.B.I.T.Q.K.G.#X@X].].[.].].].(.(.$X'.G.$X].].@X].].$X].].].].].]./.'.#XF.% O + & u.%.#.%.#.",
"4 f.7X2.      K  XI.P.V.I..XP.V.~ ;       p  XV.Y.P.Y.E.T.T.T.U.P.U.Y.Z.K.H.G.)./.%X%X/./.'.'.].].'.'.$X'.].(.].$X'.$X].].@X@XM.).F.%   O & k.@.%.%.=.",
"y s.j.2.      : ` I.P.B.Y.i.P.~.T.i       p  XP.U.Y.P.U.E.T.T.Y.V.I.T.] ' S.D.L.L.J.].].].@X@X@X$X(.@X(.(.$X'.@X$X$X$X/.$X].}.|.K.S..   . & w.%.#.%.%.",
"2 s.1X,.        ~ Y.U.B.P.' U.W. Xd       a  XB.Y.T.I.Y.Z.I.I.Y.P.C.Y.Y.T.' ] T.C.A.K.|.'.@X#X#X/.).%X).).%X#X@X@X#X@X@X@XH.S.P.T.' ;   O & q.%.+.#.+.",
"4 s.>X,Xr O O   / XXB.Y.Q.C.) I.) s       p  XI.P.Y.U.U.U.U.U.U.U.Y.U.Y.U.U.P.U.U.U.U.U.U.I.I.A.A.`.A.`.`.`.A.A.A.A.A.A.A.P..XP.Q._ O   O & q.%.%.%.%.",
"< f.:X6XW O @   . ( .XU.T.' E.W._ u       p  XP.C.Y.U.U.I.U.U.Y.U.Y.U.U.Y.P.Z.U.U.U.U.U.U.U.U.C.P.P.I.Y.P.P.P.P.P.P.U.C.P.I.' T.~._ O     - a.%.%.%.%.",
", f.>X7XZ @ O   . s ( ^.E.R.R.W.B.s       p  XI.P.U.P.Y.Y.C.U.U.U.U.U.U.Z.U.U.U.U.U.Y.U.Y.P.T.T.T.T.T.T.T.T.T.T.T.T.T.T.U.Y.' T.I.F     O & w.#.%.%.%.",
"2 s.:X4X,Xe X X O   / W.W.) P.W.) i       p  XI.V.U.U.Y.C.I.I.U.C.U.U.U.I.U.U.U.Y.Y.C.Y.P.Y.Y.Z.V.V.V.V.V.V.C.V.V.C.V.V.I.Y.) Y._ 6     O r u.;.%.%.%.",
", s.:X4X8Xw.  # O   6 L .X.XT.I.) i       p  XI.U.U.Y.C.U.U.C.Y.I.Y.U.Z.P.Y.U.Y.U.P.Y.U.P.Y.P.V.I.V.V.V.V.V.V.I.I.I.Z.Y.I.I.B.R.) :   . o 8.#.%.%.#.#.",
"w s.:X4X8X8Xk.X +     o 8 i ~ W..Xd   O   p  XU.U.U.U.Y.Y.I.Y.U.P.C.P.U.Y.P.U.U.U.P.P.U.U.U.P.C.P.C.P.P.U.P.U.P.T.P.T.P.U.I.C.Y.' 6   . . q.@.@.#.$.$.",
"4 s.:X4X8X:X8Xr   @ O     O     K a   . O i ) W.Z.U.U.U.U.C.U.U..XN.Q.T.E.W.Y.R.U.R.R.Y.Y.!.I. X( i._ _ ) ) ( .XY.I.U.Y.I.' W.I.:   o . * 4.3.,.,.,.,.",
"q f.>X4X8X3X4X7XW   O O O   X O     O .     L XXU.U.U.U.U.U.U.I.i.N.~.' P.I..XL F G G K F G K G : O           p _ R.E.Y.B.' W.V.:     O   0.P P P L P ",
", f.:X4X8X3X4X5X3Xr.M Z 3 O     O X + @ X   $ ~ oXU.Y.U.U.U.Y.C.C.V.R.' T.U.L o   X X                   .   X . / I.P._ R.I.V.) i       4.fX4.^ ^ P ^ ",
", f.>X4XqX>X4X5X3X6X3X&.x E M           O o   K !.U.U.Y.Y.P.U.Y.T.I.Y.' Y.Y.K O O O .   o . . .   X           s _ P.U.U.I.I.Q./ o   . . r.gX2.1.$.X.9.",
"w f.>X5X8X>X4X>X1X4X3X7.q q { e.a.e.e.C     X K ~.U.U.U.U.Z.Y.C.P.Y.E.T.V.R.K   X X O         X X   & i._ / / _ C.U.oXXXB.P.U.7     .   +XfXO.$.*.*.@.",
"4 s.:X:X4X>X4X4X:X7X:X*.q q E { { =.$.t + . O P ~.U.Y.P.C.Y.Y.Y.R.Y.U.Y.I.Q.L     . r t.6.6.w.  . o : U.U.R.R.I.I.T.P.B.I.V..X6 O     4.fXgX+.=.=.=.{ ",
"q s.:X4X8X4X4X4X:X8X:X7.q q x E E B  .r O     K !.T.Y.U.Y.P.P.U.U.P.V.I.E.Y.L   O   r { { { 8.      : C.V.T.T.P.P.U.Y.Y.P.~.i.3 . +   2.fXk.[ v ! ! ! ",
"2 s.,X4X8X>X>X>X:X6X:X<., q x E E C E r O     L !.U.P.P.Z.T.Y.U.Y.P.V.I.T.Y.L   O   r [ ! ! 3.      :  XV.Y.Y.U.Y.Y.Y.P.I.V.K + . o . Q fXE C C B B v ",
"2 s.3X3X8X4X4X:X4X,X:X1.w q C ......1.r     O L !.Y.U.Y.U.U.U.U.Y.' V.P.T.I.L   O   r [ [ [ 3.  .   & i.I.I.C.U.Y.U.P.I.P.XXa O .     Q ,XE B E V B C ",
"2 s.,X4X8X8X8X6X6X,X:X7.q q m  .E E O.r O     K !.Y.U.Y.P.U.U.Y.Y.U.V.I.T.Y.L   O   r [ E E  .  .   O F V.I.U.U.I.P.P.I.Y..Xi O O   t w.Z Z C C C C V ",
"< s.:X,X0X8X8X8X8X7X>XO.q , x E E v B r       L !.Y.U.I.Y.U.U.U.U.P.Z.I.T.R.L   O   r m m N E   .   O 6  XU.U.U.P.V.P. X XG .   O   E Z N N C C N C C ",
"q s.:X:X8X8X8X8X8X6X:X7.q , e x h k k r O     L !.P.P.C.Y.C.C.C.Y.C.C.R.R.C.s   O   r l x m m P     X 6 oX' W.W.V.V.I.R.I.K o O   8 E l l l l l b l m ",
"w s.:X:X8X8X8X8X8X7X:X7.q = q q q q q r       K i.E.I.I.V.V.XXI.B.R.P.Y.` L     O O r 1 , < q Z   O   % a i.( ( ( i.( ~ i * O .   M h < < 1 1 > ; 1 1 ",
"4 s.:X>X4X:X4X4X3X:Xj.6.q < z l x x x t X X O . L !.B.P.C.P.Y.P.R.N.W.Y.0.        O  .x k k b V   O   X o               O ; 3      .x v b f k h z k h ",
"w j.tX7X8X6X8X8X6X0X9Xd.< , 9.9X,X:X:XM   X   o ^ R.) .XT.' U.I.T.XXW._ :     O o - 1Xj.3X2Xj.h.,.  O O O O     .         @     r E x v c @.a.g.h.h.h.",
", 8.:Xj.3X3X3X>Xj.3X3X7.z , j.NXNXNXNXdXr   O   a V.Q.V.W.V.R.V.i.~ ~ $ O         aXlXcXlXsXlXjXg.,.o O O         O   O O   n E E k x v *.iXiXuXiXiXiX",
"= , w q g q 1 q f f 2 < 1 1 d.sXiXiXdX>Xr   O   + a L L i./ K K K o     O .     s.yXuXuXuXuXrX5X*.v 1. .|  .8.tXtXtXtXtXtX,Xp.c v c x v [ 3X0X9X0X0X0X",
"r , w w f h g q 1 < f z y h B @.....B v 8   O O O     * 6 &         O O O O   1.k { ....[ ..B v v B ! N v B f v E ..B B E c x c B k v v z c ! ! ! ! ! ",
"Z m m E E ..E v k l C z z l k h z k k b V Z       O     # O   O   X       r V N x h q h f z f k l b b l l z l z q q w z w h x k x k z h z b h h f f y ",
"E m x E E [ N N N 9.5.7.5.9.$.@.$.+.$.$.O.$.8.. o   O         O - o o E 8.9.@.O.O...O.O....... .| X.o.o...} } } ..} } } [ } ..E } o.=.o.! o.! o.! ! ! "
};
