/* XPM */
static char *result[] = {
/* columns rows colors chars-per-pixel */
"75 75 250 2 ",
"   c #020202",
".  c #0A0204",
"X  c #020904",
"o  c #030409",
"O  c #0B050A",
"+  c #030A0A",
"@  c #0C0B0B",
"#  c #0A0906",
"$  c #130204",
"%  c #14050B",
"&  c #130B0B",
"*  c #180707",
"=  c #0A120E",
"-  c #04100E",
";  c #15120D",
":  c #090812",
">  c #150A11",
",  c #1A0914",
"<  c #061315",
"1  c #0A1412",
"2  c #0A1916",
"3  c #0C1D1B",
"4  c #071B1B",
"5  c #131D1A",
"6  c #191D1C",
"7  c #151615",
"8  c #260B0B",
"9  c #250A17",
"0  c #23171A",
"q  c #3A1417",
"w  c #300C11",
"e  c #0A211E",
"r  c #14201E",
"t  c #1A211E",
"y  c #2A241C",
"u  c #30261F",
"i  c #101D22",
"p  c #281621",
"a  c #381728",
"s  c #38172C",
"d  c #0D2223",
"f  c #0D2428",
"g  c #122524",
"h  c #1C2321",
"j  c #15252A",
"k  c #152B2B",
"l  c #1B2C2C",
"z  c #162828",
"x  c #18302E",
"c  c #1A2C32",
"v  c #1B3333",
"b  c #1C3738",
"n  c #292B26",
"m  c #28332E",
"M  c #38342B",
"N  c #3A2839",
"B  c #243434",
"V  c #293433",
"C  c #243539",
"Z  c #243B3C",
"A  c #2B3B3B",
"S  c #263937",
"D  c #3A3933",
"F  c #48171A",
"G  c #471C32",
"H  c #501B27",
"J  c #6A1E26",
"K  c #49273A",
"L  c #463839",
"P  c #502C2F",
"I  c #672225",
"U  c #692729",
"Y  c #702931",
"T  c #68191D",
"R  c #35423A",
"E  c #44443B",
"W  c #484538",
"Q  c #243D41",
"!  c #2B3D42",
"~  c #273342",
"^  c #383A43",
"/  c #1E3941",
"(  c #5A2A45",
")  c #483544",
"_  c #5B3349",
"`  c #423F50",
"'  c #652D4C",
"]  c #64334E",
"[  c #6B3654",
"{  c #723253",
"}  c #7B345B",
"|  c #783B5B",
" . c #73304C",
".. c #7E3863",
"X. c #2D4344",
"o. c #284445",
"O. c #374643",
"+. c #394544",
"@. c #344943",
"#. c #3B4945",
"$. c #344B4B",
"%. c #3B4B4C",
"&. c #34454B",
"*. c #2E4C52",
"=. c #2E4650",
"-. c #324E52",
";. c #3C4C52",
":. c #2E5358",
">. c #335256",
",. c #3A5354",
"<. c #34545B",
"1. c #3B565B",
"2. c #355A5C",
"3. c #3D5959",
"4. c #3C524F",
"5. c #3B5C61",
"6. c #3F6567",
"7. c #484B47",
"8. c #4C534B",
"9. c #485149",
"0. c #53564C",
"q. c #464553",
"w. c #425955",
"e. c #445B5C",
"r. c #455658",
"t. c #545A52",
"y. c #555954",
"u. c #5C4846",
"i. c #7A435F",
"p. c #51625E",
"a. c #435C61",
"s. c #475B62",
"d. c #486367",
"f. c #5D6E6B",
"g. c #53686A",
"h. c #5E716D",
"j. c #556D74",
"k. c #577378",
"l. c #4D6A72",
"z. c #657B79",
"x. c #6C746C",
"c. c #7F4067",
"v. c #902F39",
"b. c #AE383D",
"n. c #C53D3E",
"m. c #D63E3B",
"M. c #B5413F",
"N. c #A8433F",
"B. c #C4423F",
"V. c #993944",
"C. c #882C5A",
"Z. c #83345D",
"A. c #8A345D",
"S. c #83395E",
"D. c #8E3A5A",
"F. c #983A59",
"G. c #933455",
"H. c #A83A47",
"J. c #BD3E44",
"K. c #BD3E4A",
"L. c #B53B44",
"P. c #A53D56",
"I. c #B73D52",
"U. c #AC2F48",
"Y. c #843661",
"T. c #8B3563",
"R. c #853A63",
"E. c #8A3A64",
"W. c #843B69",
"Q. c #8B3C6A",
"!. c #893769",
"~. c #923B67",
"^. c #923B6A",
"/. c #963966",
"(. c #93366C",
"). c #A23A61",
"_. c #C33E43",
"`. c #C43D4A",
"'. c #CC3C4B",
"]. c #CA3844",
"[. c #D83E50",
"{. c #90454D",
"}. c #AB444C",
"|. c #BC4145",
" X c #B5424C",
".X c #BE424A",
"XX c #B74847",
"oX c #AB4356",
"OX c #B84553",
"+X c #BD5452",
"@X c #854265",
"#X c #8A4269",
"$X c #91456E",
"%X c #AC4763",
"&X c #C24146",
"*X c #C14249",
"=X c #C8454A",
"-X c #D4424D",
";X c #C64654",
":X c #D84351",
">X c #D64353",
",X c #6A827D",
"<X c #66817D",
"1X c #70827F",
"2X c #687D83",
"3X c #5F7C80",
"4X c #5E828C",
"5X c #668381",
"6X c #6B8482",
"7X c #6B8985",
"8X c #6D8B8A",
"9X c #738D8A",
"0X c #728985",
"qX c #73918C",
"wX c #7B928C",
"eX c #7A9393",
"rX c #6C8B92",
"tX c #7AABB4",
"yX c #839A9B",
"uX c #818C93",
"iX c #869FA2",
"pX c #8CA5A7",
"aX c #93ACAB",
"sX c #9AB5BA",
"dX c #8EADB3",
"fX c #A2BABB",
"gX c #8CBCCB",
"hX c #94BDCB",
"jX c #94BFD2",
"kX c #8FBED2",
"lX c #A2BDC1",
"zX c #8AC5CA",
"xX c #97C3CD",
"cX c #8DC3D2",
"vX c #94C3D2",
"bX c #9BC5D4",
"nX c #9ACADA",
"mX c #99C7D5",
"MX c #A8C5C8",
"NX c #A8CCD8",
"BX c #B1D0D4",
"VX c #B2D7E3",
"CX c #9BD1E1",
"ZX c #C6DAE4",
"AX c #D8E4E8",
"SX c #DCEBF4",
"DX c #D2EAEF",
"FX c #E8EDF3",
"GX c #F5F4F9",
"HX c #ECEFF4",
/* pixels */
"6 7 5 - 3 R #.+.+.+.+.+.+.+.O.O.O.O.O.O.O.O.O.O.#.O.O.O.+.@.+.@.@.O.8.y W E W W W W W W W P 9.O.O.+.O.O.O.O.O.O.O.O.O.O.O.O.O.O.O.O.O.O.O.O.O.O.O.#.O.",
"6 5 5 = r ^ #.+.&.+.+.+.+.+.#.O.O.O.O.O.O.O.O.O.R #.O.O.O.+.O.9.7 ; ; @   o                 ; 7 # W O.7.O.O.O.O.O.O.O.O.O.O.O.O.O.O.O.O.O.O.O.O.O.O.O.",
"6 6 5 = 5 O.#.+.+.+.+.+.O.O.+.+.O.O.O.O.O.O.O.O.O.O.O.O.7.0.y   o X .   X                         o   D t.9.O.O.O.O.O.O.O.O.O.O.#.O.O.O.#.O.O.O.O.O.O.",
"7 5 5 1 5 O.#.+.+.+.+.+.O.O.@.+.O.O.O.O.O.O.O.O.O.O.#.0.o o           . . % * 8 * 8 $       X         o   # # 7.O.O.O.O.O.O.+.O.R +.O.O.O.O.O.O.O.O.O.",
"6 5 5 = 5 O.#.+.+.+.+.+.O.O.O.O.O.O.O.O.O.O.O.O.O.O.8.  o   o O .   t U T H.`.`.-X;X}.v.J Y H         o . . %     R 9.O.O.O.O.O.O.+.O.O.O.#.O.O.O.O.O.",
"6 5 5 1 h R #.&.+.+.+.+.O.O.O.O.O.O.O.O.O.O.O.O.+.E   +     o # F V.H.=X=X*XXXXXM._.J._.J.`.&Xb.I * . # @   o @ #     L 9.R O.O.O.O.O.O.O.O.O.O.O.O.O.",
"6 6 6 1 5 D %.+.+.+.+.+.O.+.O.O.O.O.O.O.O.O.R +.9.  + + . $ 0 b.b.+X;X_.].J.n._.&X=X=X.X*X=X=X*X-XK.v.F q * X   o . : X & 8.+.O.O.O.O.O.O.O.O.O.O.O.O.",
"6 6 5 - g O.#.+.+.&.+.t.0.8.9.9.9.9.8.8.8.8.8.0.  O o o   H XX=X-Xb.L.;XK..X`.K.OX.XOX XXX|.L.K.XXOX X'.`.v.U X   o   o   7 8.O.O.O.O.O.O.O.O.+.O.+.O.",
"5 t t = 5 +.+.+.7.L                             X . . O * {.m..X|.;XJ.J.=X&X=X&X*X XJ.`.'.'.`.=X&X_.M.b.J.`.J.oXY .   X o o D O.O.O.O.O.O.O.O.O.O.O.O.",
"6 5 5 1 5 +.h       .   X X . o   X o o @   X . . X   ; |.|._.XX|.'._.|..Xn.].;XV.V.H.U.U.V.v.oXY               X     o o o W O.O.O.O.O.O.O.O.O.O.O.O.",
"6 6 5 1 5 W   :   + X           +     o .   # . o   F U.=X|..X].=XN.XX;X X}.oXH         X         X X X .     O X   .       u 8.8.O.O.O.O.O.+.O.O.O.O.",
"6 5 t 1 6 8.  o       8 v.;XOXK.OX{.i.Z.| 7   o     V.[.L..X*X|.*X=X=XH.I 8 ; . # +         + X   o                     o # X #   8.9.O.O.O.O.O.O.O.O.",
"6 t t 1 h D   o     0 v.'.'.b.=X'.I.).C.$X9         J ].=XXX-X.X=X_.V.F   X   X                     ~ rXrX2X0XuXuX+.      o   o #     E +.O.O.O.O.O.O.",
"t 6 t 1 M   @ X     P OX*Xb.XX+XL.K.).~.i.>     o P }.*Xb.;X&X-XXX{..       . .   Q CXzXzXtXzXzXzXMXsXZXFXHXHXSXFXFXAXAX4   o           M 9.O.O.O.O.+.",
"t t t n   o       w Y `.=Xn.n.]._.}.D.E.a         U XXB.:Xb.XXXXU . . O     h d.j.NXkXkXcXmXjXjXZXGXGXGXHXGXHXHXHXHXGXFXGXAXr.!     + o   0 8.O.O.O.O.",
"5 t n y X     X * v.|..Xn._.&X&X}.D.G./.p X .     U XX|. X=XK.{.%   X #     e.d.dXvXmXvXvXmXjXNXFXGXGXGXGXGXGXGXGXHXGXGXGXSXNXNX2X    X     W O.O.O.O.",
"t t D   , #   8 }.=X&X&X&X=XOXH.F.R.T.#XN       q L.[.J.|.|..Xw # +     o w.5.d.VXgXvXvXkXnXmXvXBXDXSXDXDXFXGXGXGXGXAXAXSXMXmXvXNXeX<       E +.O.O.O.",
"6 t D   :   o H P.I.XX XI.oX%XA.Z.Q.W.( ,       T '.].|.;X XXX8         ;.5.5.l.hXvXvXnXbXcXcXvXhXhXhXhXjXBXZXZXFXFXBXgXlXbXgXcXxXVXk.  o   E O.O.O.O.",
"6 t L   +   $ ..W.F.F.F.D.S.Y...W.W.( %     X   H &X|.XX;X`.J.w       A d.d.5.l.NXxXjXgXvXvXvXvXvXcXbXvXcXcXgXhXVXmXgXnXcXvXcXCXcXNXg.    o & 0.O.O.O.",
"6 h R   O   : ] Q.Z.Y.E.R.E.R...R.^.K o       F  XXX&X|.K.].|.8 #     #.a.5.s.d.dXxXnXjXmXbXmXmXmXmXmXmXvXbXnXmXzXcXvXjXcXmXmXgXcXNXj.    o   7.O.O.O.",
"6 h R   %   , ] /.E.R.R.S.A.A.E.Z.T.P X $   * v.'.|.&X*XK.'..X8   .   B d.a.a.a.:.tXkXjXkXjXjXmXmXkXkXvXbXmXjXvXmXvXkXkXvXcXjXnXmXNXg.    +   9.O.O.O.",
"6 6 E   X   % [ (.Y.Y.E.R.R.R.R.!.Y.K   *   8 L.=X*XK.*X*X&XXX8 $ o   X $.d.d.a.a.5.2XhXNXmXvXvXkXbXvXvXjXjXkXgXgXmXnXnXNXnXnXtXsX2X:     . @ 9.+.+.O.",
"h h D     X # ] Q.T.R.E.R.E.R.A.$X'     . X 8 H.=X.X*X&X&X&X`.w $ + X   q.5.s.1.d.l.*.l.rXdXbXbXbXbXbXkXbXnXbXNXNXdXrXrXrX4X3X5./   o X   o E @.R O.O.",
"h h E   @     a ..E.S.A.E.R.R.S.Q.'   X .   q I.=X_.*X*X*XJ.=XH.* +     @ &.=.j.5.a.d.1.<.l.k.j.j.k.l.3Xj.l.l.k.l.6.1.<.*.s.s.-.1   . o   M 9.4.+.#.O.",
"h h W . .     % } W.Y.R.R.T.R.R.^.'     . .  .;X=X`..X*X*X&X*Xb.* X $ +   X @ v &.d.3.s.e.d.a.a.e.a.a.e.a.s.d.a.d.d.d.g.f.C V :   #     @ W @.@.@.@.@.",
"6 6 n L       9 ..R.T.R.E.R.A.R.E.'     o . Y OX*XK.*X&X*X&X.XXXv.%   .   + O     6 ! s.e.e.e.e.e.e.e.r.a.e.,.e.s.A < 3 o     # o .   & t.4.@.@.@.@.@.",
"5 t t W   o   , } E.R.S.R.R.Y.E.{ . X . X . G.%X|..X&X*X.X|.b.-X'.V.8     X         X 1 - 1 - + - - @ < - < + - + .     o . o .   o . O 0.R @.R R @.@.",
"t t t W   o   > Y.E.R.R.S.R.T.~. .    .   *  .F.*X&X&X.X*X&XB.L.J.;Xb.Y F * .     .     o o o             o     o       X     & $ X X   y 8.4.@.@.4.R ",
"t h h W   o   % ..T.T.S.R.R.Y.E.{       + K A./..XB.n.&X.X.X&XXX|.*XK.;X Xb.H F 8 X                                     w F F Y J     o y R m m R m m ",
"5 t 6 R   .   > ..R.R.R.R.E.T.E.{     . o _ (.T..X=X&X_.K.;X`.=X&XXXM.J.&X-X[.:X|.J T Y U I I I I I I I I I I I I I I I K.;X;X'.H.    X y t = - - - - ",
"h n h E   .   > } W.R.R.A.R.A.E. .        ] (.R.}..X=X&X.X;X`. X.X_.=X=X|.XXM.M.*X;X=X=X-X:X-X-X-X-X:X:X:X:X:X:X:X:X-X:XJ.|.K.`.v.X   X y y ; ; ; 7 ; ",
"h h h E   o   % Y.T.Y.R.R.E.T.E.{         ' ~.R.H. X|.|..X*X&X*X*XK..XK.*X=X&X&X&X&XJ.K.XX|.|.|.|.|.|.L.M.|.XXb.|.|.|.L.'.XX|.-Xv.  . X y n t t r 7 r ",
"h h h W   o   > E.!.R.Q.R.A.R.E. .      . ( ~.W.S.P.K.*X.X*X&X&X.X.X.X&X.X_..X*X.X&X.X_..X.X.X_..X.X.X_..X&X.XJ.*X.X_..X Xb.:X:XV.      y n t r 5 6 6 ",
"5 5 5 E   o   , Z.E.A.E.S.R.R.E.{     . o _ ~...Y.P.&X&X*X&X&X.X.X&X.X&X&X.X&X.X&X.X&X.X.X&X&X.X*X.X.X.X.X&X&X.X&X.X.X&X=X.X|.b.$   # + y 6 = = = = = ",
"1 5 h W   o   % Y.E.S.R.A.E.R.E.{         ' ~.Y...oX|.n._._.*X*X&X&X.X.X*X*X.X&X.X&X&X.X&X_..X&X.X.X.X&X_..X*X*X.X.X&X.X'.XX&XV.  .   X y 3 2 < 2 < 2 ",
"1 V +.0.  .   ; [ E.R.R.R.E.W.E.{     . o ( ~.Y...D.I._.n.&X X.X.X.X.X_..X*XJ..X.X`..X&X*X.X*X.X.X_..X.X.X.X*XJ..X_..X*X&Xb.'.H.  $ . & 8.o.o.o.o.o.R ",
"5 V +.0.  .     9 Y.R.R.Z.E.R.E.{       o ' ~.R.R.E.F.I.=X&XK.&X&X.X.X.X&X*X*X*X*XK.*X.X.X&X&X.X&X.X&X.X&X.X&X.X.X.X*X.XXX=XJ.Y   . X 7 r.>.>.-.*.-.-.",
"3 V %.y..     X , R.E.T.R.E.R.E.[     . o ( ~.Y.D...W.P.OX&XJ.*X.X&X.X.X.XJ.&X.X*X*X.X&X|..X.X&X.X_..X.X.X&X.X*X&X_..X*XK.&X}.  + .   7 r.>.-.>.-.-.-.",
"3 3 h z E   X   0 E.T...E.S.W.$X .+   X .   [ (.Y.Y...Q.P.I.&X.X.X&X&X=X*X=X*XK..XOX.X*X_.B.|.&X&X&X.X|.|.*X_.&X`..X XI..X].L.$   . . n ,.>.-.;.:.-.-.",
"2 h 3 e R   + + > ( R.E.Z.T.Z.^.{ o     . : [ /.R.W...Y.G.}.OX&X&X_._.`.*XOX&X&X*XK..X.X&X*X.X.XJ.*X*X.XXXK.*X_.n._.&X&XOX}.I X   @ # 3.>.>.-.-.-.*.-.",
"B h.z.x.x.0 X X X . K i.| T.Q.Y...(   &   O ] /.Z.E.W.Y.R.D.F.I. XOX*X*X&Xb.=X&X*X.XK..X.X.X.XK.*X&X&X]._._._._.&X.X X XF. .. X o : # r.;.<.>.>.>.>.>.",
"B uXaXaXaX1X  @   X   9 _ _ _ _ [ _ &   o X $ } ~.E.R.!.W.Y.S.R.D.F.P. X&X&X&X&X_.*X_..X.XJ._.`.&X=X&X&X_._.*XK. XP.F.D./.( 1       +.-.>.-.:.-.-.>.*.",
"r z.0X0X1XqXy   @ .             , .   . # X > [ Q.E.R.A.R.E.W.R...Y.A.F.P.oX XK.K.*X&X&X_._.&XK. XoXoXoXoXF.F.F.D.A.Y...@X%   & O   s.>.>.>.>.-.>.-.>.",
"3 h.,X,X1X,X9Xx..   X     X       p.e.;   + + 9 } R.R.R.R.Y.T.R.E.W.W...Y.Y.F.P.I..X&X&XK.K.}.P.G.G.A.A.Q...W.Y.R.E.W.Y.>   X     n 1.>.>.-.>.:.>.>.>.",
"r h.1X1XwXqXqXwXwXx.  X         0 e.2.E O :   O ( c.E.^.Y.@X@XS.Z.W.Y.#XY.Y.!...| D.P.P.D.R.!.W.W.T.T.R.W.Z.R.Y.T.Q.' %       X o r.1.1.<.>.-.<.>.-.:.",
"e h.1X1XqXqXqXwXqX9X,Xe.4 k $.2.:.:.>.0.. o 7   p [ | { G 9 , , a i.R.Y.Z.#XW.W.R.S.A.R.W.R.~...S.E.^.Z.C.^.E.E.^.R.a     @ o   r.<.>.>.<.>.>.<.>.:.:.",
"r h.1X1XqXwXqX1XqX0X<X3.4 f $.:.:.:.>.g.u     # . . . X     $     s @XA.Q.R.Y.W.E.A.S.Y.W.W.| ] _ ' E.~.!.Y.W.} @XK .       m s.<.1.<.<.<.>.>.<.:.>.>.",
"5 f.,X,XqXwXqXwXqX9X,X3.e g $.2.:.:.<.-.7.      X   .     X   X o G E.Q.T.R.S.A.A.A.E.E.T.} G     % ( R.!.Q.@X( G 8     X   7.1.<.<.<.<.<.>.>.>.>.>.>.",
"5 f.<X,X8XqXqX9XqX9X6Xw.4 g -.>.:.:.t.        X   o . . . . , 9 G ..!.T.} Q.@XE.T.E.W.@XE.{ p   X # G @X(.Q.( ,   . . .   7.<.<.<.5.<.<.<.<.<.<.:.<.<.",
"5 f.,X7XqXqX8X9X9XwXz.w.e f -.,.:.7.  .     X       9 ' ' ( W.@X@XE.Y.E.E.Y.W.E.Q.R.W.Y.^.} a o     9 { E.( .   X X   X y.2.<.<.<.<.<.<.<.<.<.:.:.:.:.",
"2 h.,X7X8X7X5X6X8X9X2Xw.4 f -.>.y.X     @ . . % a [ @XA.C.Q.R.E.E.R.E.R.R.A.E.R.R.R.R.S.E.{ 9       O K E.    + +   ; a.:.<.5.<.<.<.:.:.<.:.<.:.<.:.<.",
"r h.,X7X5X5X6X6X0X0X6Xw.4 f ;.e.          p G | #XE.D.#XR.T.S.R.R.R.R.R.R.R.R.S.T.R.R.R.E.R.K o   o o p a   : o   0 2.2.5.2.2.<.2.2.2.5.<.<.<.<.:.<.:.",
"2 h.,X7X7X7XqX6X6X0X6Xw.4 g -.e.8   X     [ #XE./.S.W.W.S.Z.~.R.T.R.A.R.R.R.E.R.R.R.R.A.E.S.K o       .     + . N *.>.5.5.5.2.:.<.5.5.<.<.<.<.,.<.<.,.",
"5 h.,X7XqXqXqX7X6X9X6Xw.4 f -.,.    X   ( $XZ.R.W.W...Y.$X~.Z.R.R.R.R.R.A.R.E.A.R.R.R.R.E.{ q     .   X     . & g.*.:.5.5.2.2.2.<.,.:.<.<.<.<.>.*.<.>.",
"5 f.<X7XqXqXrX5X6X9X6Xw.4 f $.y.    X . P ~.Z.R.S.S.Q.T.E.Z.W.E.E.R.R.R.R.R.R.R.R.T.A.Y.Q.} q X   .       ; 0.g.3.-.>.5.5.5.5.<.3.,.1.,.,.,.1.,.<.,.,.",
"2 f.,X7XqX5X8X7X2X9X6Xw.3 6 q.X   .   . K ^.~.Z.W.R.R.R.W.W.W.S.E.S.S.E.R.S.E.R.Y...R.$X^.T.s X @ . .     # W u.q.q.` ` ` q.q.q.q.q.q.7.q.8.7.q.` _ q.",
"e h.5X7XqX5X8X6X2XwX6Xw.6 0 N +       , [ Y.$XE.T.T.T.T.T.(.T.S.D.T.A.A.T.T.R.R.E.E.E.} ' G 9       X   .       L N N ~ N N N N N N N N N L L L L L L ",
"5 h.5X5XqX5X8X6X2X9X6Xw.7 p ^         K $XY.T.Y.Q.R.R.W.Y.R.T...R.W.R.R.T.R.Q.R.T.R.| K O o     #   X X     .   u.) ) ) ) ) ) ) ) ) L L ) ) u.L ) _ L ",
"5 f.,X7XqX<X7X7Xz.9X6Xw.e e &.        ( #XC.!.T.R.Y.R.Y.W.W.R.Q...Y.Y.Z.S.Z.R.R.' s , .       X o * ' P   @   E e.1.r.1.1.1.s.;.e.r.r.3.r.r.q.4.7.q.%.",
"2 f.<X7X8X5X7X5X6X9X6Xr.e e o.        ( ..W.#XR./.E.~.T.T.D.A.(.A.~.E.Z.R.~.K w .       . .     9 { /.G       E 5.>.*.5.5.5.5.5.2.2.2.2.,.2.2.>.2.2.,.",
"5 f.,X<XqX<X5X5X,X9X,Xw.e e Z         @ , ( ] ' ' ' { ' ] [ ' { ' ] K 9 , * X             : a } ..W.R.K   o   L *.=.o.*.=.:.:.*.*.*.*.*.*.-.*.*.*.=.=.",
"5 f.,X7XqX5X7X7X,X9X,Xw.4 4 v =           O $ . . # . . . . O .   o   #   .       @   o a W.Q.Q.R.T.A.N   X   D / / b Q ~ / Q Q Q Q Q / Q Q Q Z Z Z Z ",
"5 f.1X7XqX<X<X<X,X9X,Xw.2 5 m #.y   o # o o   X     o       +   O       .         % N [ | W.C.W.R.} | s       7.o.b Z ! Z C Q Q Z Z Z S Z S Z S S S S ",
"3 f.1X7XqXqX,X,X7X1X,X8.e e S #.9.8.M   .   .                       O o 9 L K K ' E.(.^.C.~.E.@Xi.a * #   X   D A ! A ! A C Z ~ ! S R S A A S Z R A S ",
"5 f.1X7XwXqXqXqX9X1X,Xw.e 2 m @.R R 4.w.t.0.t.t.t.y.y.y.y.y.y.0         0 K s a G S.Z.Z.$X| G a , o   X   X   L A A A A A V S A A A A A A V C A C A A ",
"e f.,X1XwXqXqXqX9X9X<Xw.e 2 l R R Z b R S Z B C B C ~ C C V A u X #               : > : o o .   o X X       W m m m m V V V m m m m B V V V V V V V V ",
"5 f.<X,XqXqXqXqXqX9X<Xw.5 2 r l r k k k k z k j j j c j j j z 7.# . X X   X . @     X       X . . .   # E E m l l l l l m l l l n l l l n c c c k l x ",
"r f.,X,XqXqXqXqXwX0X<X3.e 2 e e e e e e d d i g i i i d d 4 3 3 R u R R L M @     o o o o   : O . D M W e r 2 e 3 2 2 2 2 3 e 3 e 3 3 3 4 3 < 1 2 < 3 ",
"7 h.,Xz.7X5X7X7X6X<Xz.t.3 3 h l x x x l R R C C ! Q c c c c v x x k x o.Z R 0.8.7.7.0.W 0.W 7.W 7.C Q c Z B v k j z j k k k k l R v v B c f g g g z g ",
"5 x.yX0XqXqXqXqX9XeXyXg.3 < w.wX9X,X<Xw.v b C C ! Q >.z.5X7X3X5X<Xg.o.b o.x b b X.d.k.z.z.2Xk.j.X.c Q b Z Z b ,.z.k.k.z.k.j.*.b b x v b v ;.g.k.j.j.g.",
"2 t.,X<X6X5X5X<Xz.<X6Xw.g 3 z.BXMXBXMXaXo.X.Z Z ^ o.pXMXMXBXMXMXBXdX6.b o.v o.Q z.sXxXMXlXhXlXfXk.! Q x Q b a.dXsXsXsXsXsXfX5X/ b x x b w.pXpXaXaXpXpX",
"= 2 3 e d e 4 e d d 5 i < 2 f.fXaXfXyXx.Z $.b B ! ! 8XaXaXdXaXdXeX<XZ b R v b b d.pXpXpXpXpXyX0X3.b Q b b Z ,.eXyXyXyXpXeX6Xe.v b b v b X.7XeXeXeXeXeX",
"y 5 r e d f e d 4 3 g g i g A %.$.o.R v Q -.C ~ ! ~ ~ -.=.! &.&.Z C C ! A b R b x o.o.$.R *.R B C Z X.c b A f S R X.R b A b x B Z x b B k v ! C ! Q C ",
"R n m R R $.R b f x V l j k k j k k k c v c c v C v c j j j c j c j j C c j k v x k e d f f d k l v l l l g l z e d d k r g l k x k j j j c g g f i g ",
"R m l R R X.B S B %.r.r.r.;.r.;.>.>.;.,.-.1.;.;.-.;.q.;.;.;.;.;.%.;.4.$.4.%.q.,.4.@.4.4.$.$.$.#.O.%.%.O.$.+.@.@.$.@.@.O.@.X.O.@.@.&.X.&.! &.! &.&.! &."
};
