/* XPM */
static char *result[] = {
/* columns rows colors chars-per-pixel */
"75 75 249 2 ",
"   c #020202",
".  c #0A0303",
"X  c #020904",
"o  c #090906",
"O  c #03030A",
"+  c #0B040A",
"@  c #040A0A",
"#  c #0A0A0B",
"$  c #120303",
"%  c #120C0B",
"&  c #170608",
"*  c #0A120E",
"=  c #031209",
"-  c #19140D",
";  c #0A0A14",
":  c #190B14",
">  c #0A1411",
",  c #0A1915",
"<  c #0C1D1B",
"1  c #07191A",
"2  c #131413",
"3  c #1B1611",
"4  c #131D1A",
"5  c #191E1C",
"6  c #161817",
"7  c #270709",
"8  c #360709",
"9  c #240D17",
"0  c #25141A",
"q  c #381718",
"w  c #321112",
"e  c #0E211E",
"r  c #15201E",
"t  c #1A211E",
"y  c #15280D",
"u  c #27221B",
"i  c #35241E",
"p  c #151D21",
"a  c #2A1223",
"s  c #321324",
"d  c #3B1A2B",
"f  c #361229",
"g  c #0D2222",
"h  c #132525",
"j  c #1B2422",
"k  c #142C2B",
"l  c #1B2B2C",
"z  c #162728",
"x  c #1D2C32",
"c  c #172B32",
"v  c #1C3334",
"b  c #1C3739",
"n  c #18312E",
"m  c #272A27",
"M  c #322C24",
"N  c #26332E",
"B  c #37352B",
"V  c #233434",
"C  c #243B3C",
"Z  c #273738",
"A  c #363B37",
"S  c #3C253B",
"D  c #461718",
"F  c #591B1C",
"G  c #56191A",
"H  c #460A0F",
"J  c #6B191D",
"K  c #4F201B",
"L  c #441829",
"P  c #451A34",
"I  c #541A32",
"U  c #741D24",
"Y  c #49263A",
"T  c #433B34",
"R  c #502B31",
"E  c #6A2429",
"W  c #752529",
"Q  c #7C2F37",
"!  c #6D201F",
"~  c #38423A",
"^  c #25403F",
"/  c #454239",
"(  c #55433C",
")  c #293E42",
"_  c #343E44",
"`  c #592A44",
"'  c #5B334B",
"]  c #632D4B",
"[  c #6A3556",
"{  c #7C3B5C",
"}  c #773659",
"|  c #6F324E",
" . c #7E3B63",
".. c #773963",
"X. c #274143",
"o. c #2D4343",
"O. c #2F494C",
"+. c #374643",
"@. c #394544",
"#. c #354943",
"$. c #3B4945",
"%. c #354A4A",
"&. c #394A4C",
"*. c #34464B",
"=. c #324E53",
"-. c #3C4C52",
";. c #364E59",
":. c #335156",
">. c #3B5254",
",. c #33535A",
"<. c #3C565A",
"1. c #3D5A5D",
"2. c #314F54",
"3. c #3C5B63",
"4. c #3F6164",
"5. c #464D46",
"6. c #4B534C",
"7. c #46514A",
"8. c #555A4E",
"9. c #55564A",
"0. c #46595A",
"q. c #535951",
"w. c #544A44",
"e. c #6E475B",
"r. c #55625A",
"t. c #4C615E",
"y. c #686757",
"u. c #435D62",
"i. c #4A5C65",
"p. c #7A4165",
"a. c #456265",
"s. c #4A6468",
"d. c #5C6E6B",
"f. c #556764",
"g. c #5E706B",
"h. c #557175",
"j. c #6A6C61",
"k. c #657B79",
"l. c #71776D",
"z. c #8B3237",
"x. c #98353B",
"c. c #902C35",
"v. c #BC3B3E",
"b. c #B73A3A",
"n. c #AC333B",
"m. c #C43C3E",
"M. c #BA423E",
"N. c #C4413D",
"B. c #84345E",
"V. c #8A345E",
"C. c #833A5D",
"Z. c #8A3958",
"A. c #933A5A",
"S. c #993B58",
"D. c #8E354E",
"F. c #A53B48",
"G. c #BD3D45",
"H. c #BD3E4A",
"J. c #B43B4A",
"K. c #A63B55",
"L. c #B63B54",
"P. c #853663",
"I. c #8B3663",
"U. c #863A63",
"Y. c #8A3A64",
"T. c #833A69",
"R. c #8C3C6A",
"E. c #8B3669",
"W. c #923B64",
"Q. c #933968",
"!. c #8F2F65",
"~. c #A03960",
"^. c #C33D45",
"/. c #C43D4B",
"(. c #CA3D4A",
"). c #C83944",
"_. c #D03E4C",
"`. c #9D425D",
"'. c #914448",
"]. c #B54546",
"[. c #BD4146",
"{. c #B64349",
"}. c #BE4149",
"|. c #BA4A4A",
" X c #AB4452",
".X c #B84554",
"XX c #AB494E",
"oX c #8A4266",
"OX c #8C426B",
"+X c #854465",
"@X c #95446A",
"#X c #934472",
"$X c #BD4561",
"%X c #C34144",
"&X c #C14149",
"*X c #CA434B",
"=X c #C8474A",
"-X c #D2434E",
";X c #D1494D",
":X c #CC4352",
">X c #C44B53",
",X c #C84753",
"<X c #D54756",
"1X c #C3504E",
"2X c #E14D60",
"3X c #6A817D",
"4X c #7B847B",
"5X c #9C8971",
"6X c #577981",
"7X c #627D80",
"8X c #6A8481",
"9X c #6B8687",
"0X c #758C88",
"qX c #749399",
"wX c #759191",
"eX c #789CA6",
"rX c #849B9B",
"tX c #909893",
"yX c #AA9D90",
"uX c #8BA5A7",
"iX c #93ACAD",
"pX c #83AAB2",
"aX c #94ADB1",
"sX c #96B5BA",
"dX c #8EB3B9",
"fX c #ACB1B2",
"gX c #92A29A",
"hX c #8CB9C5",
"jX c #92BECD",
"kX c #99BBC7",
"lX c #90BFD2",
"zX c #A2BDC4",
"xX c #A0BED1",
"cX c #98C2CD",
"vX c #8DC2D1",
"bX c #95C3D3",
"nX c #9AC4D4",
"mX c #98C8D8",
"MX c #96CDD5",
"NX c #A9C5C8",
"BX c #A3C9D5",
"VX c #B6CBCE",
"CX c #B0D6E3",
"ZX c #CBD4D5",
"AX c #C2D9E4",
"SX c #D5E7EF",
"DX c #ECF3F6",
"FX c #F7F7F9",
"GX c #F0EDF1",
/* pixels */
"5 4 4 * 4 @.@.@.@.@.@.$.@.@.@.+.+.+.+.+.+.+.+.+.+.+.+.+.+.+.+.+.+.+.#.@.+.+.+.@.+.+.+.+.+.+.+.+.+.+.+.+.+.+.+.+.+.+.+.+.+.+.+.+.+.+.$.+.+.+.+.+.+.+.+.",
"5 6 4 * < +.@.@.@.@.@.@.@.@.+.+.+.+.+.+.+.+.+.+.+.+.+.+.+.+.+.+.+.+.@.@.+.+.+.+.+.+.+.+.+.+.+.+.+.+.@.+.+.+.+.+.+.+.+.+.+.+.~ +.+.+.@.+.+.+.+.+.+.+.+.",
"5 4 4 * 4 @.@.$.@.*.@.@.@.+.+.+.+.+.+.+.+.+.+.$.+.+.+.+.+.+.+.+.+.+.+.#.6.7.6.6.6.6.6.6.6.7.6.6.7.6.7.+.+.+.+.+.+.$.@.+.+.+.$.+.+.+.+.+.+.+.+.+.+.$.+.",
"6 4 4 * 4 @.$.@.@.@.@.@.@.+.+.@.+.+.+.+.+.+.+.+.+.+.+.+.+.+.+.+.+.+.8.8.o o o o o # . . o o X . o o o 6.6.+.+.@.+.+.+.+.+.+.+.+.+.+.+.+.+.+.+.+.+.~ $.",
"5 4 4 > 4 @.$.@.@.@.@.@.+.+.+.+.+.+.+.+.+.+.+.+.+.+.+.+.+.+.@.7.9.9.    # O ; & $   X X X   X   X   ;   . q.@.@.+.+.+.+.+.+.+.+.+.+.+.+.+.+.+.+.+.+.+.",
"6 5 4 > 4 @.$.@.@.@.@.@.@.+.+.+.+.+.+.+.+.+.+.+.+.$.+.+.+.$.9.B #   . @ O O O . . .   .   .       +   O . X 5.6.$.+.+.+.+.+.+.+.+.+.+.+.+.+.+.+.+.+.+.",
"4 5 4 > 4 @.@.@.@.@.$.@.+.+.+.+.+.+.+.+.+.+.+.+.+.+.+.+.8.B           . . & D E ! ! W ! E E E W D   +     X     5.5.+.+.+.+.+.+.+.+.+.+.+.+.+.+.+.+.+.",
"5 4 5 > h ~ @.@.@.@.@.$.+.+.+.+.+.+.+.+.+.+.+.+.+.+.6./ . +   O       $ F x.[.<X_.*X=X*X*X%X=X=Xb.F.w         #   ~ 7.+.+.$.+.+.+.+.+.+.+.+.+.+.+.+.+.",
"5 5 4 > 4 @.$.@.@.@.@.@.@.@.@.@.+.+.+.+.+.+.+.+.@.8.M X . .   = . H E  X,X(.b.[.|.}.}.}.}.}.%X}.=X%XJ.J 9 . +   . X 6 q.@.@.+.+.+.+.+.+.+.+.+.+.+.+.#.",
"5 t 4 > 4 @.$.$.@.@.@.@.@.@.@.@.+.+.+.+.+.+.+.+.@.m   . . o X 7 W ,X<X^.m.*X/.[.].}.^.^.^.&X/.^.%X].].2X=XE   . # @ O   9.@.+.+.+.+.+.+.+.+.@.+.+.+.$.",
"5 4 4 > r @.$.@.@.@.@.@.+.+.@.+.+.+.+.+.+.$.+.5./ #   O     | &X^.].b.|.|.[.G.(.-X}.}.}.|.}.}.}.}.>X%Xb.*X*XD.X . O O O - 7.+.@.+.+.+.+.@.+.+.+.+.+.~ ",
"5 5 4 > 4 @.$.@.*.@.@.@.+.+.+.+.+.+.+.+.$.~ 6.B . X X X # z._.-XG.|.;X[.[.[.>X&XG.[.[.[.[.[.[.[.H.G./.=X{.G.&XF.-   O O   T +.+.+.+.+.+.+.+.+.+.+.+.+.",
"5 t t > h ~ @.@.$.$.@.@.@.+.+.+.+.$.@.+.+.+.9.  +   X   E ,X/.].[.(.&XG.&X/.&X&X=X;X:X-X-X-X-X:X*X/.J.F.F.J.n.XXR     O X % q.+.+.+.+.+.+.+.+.+.+.+.+.",
"t 5 t > 4 @.$.@.@.@.@.@.+.+.@.+.+.+.+.+.+.8.u O O   X U (.}.G.{.=Xv.N.b.:X,X XJ E E E E E E E E R w . . & $ . . . % O   .   q.+.+.+.+.+.+.+.+.+.+.+.+.",
"5 5 h > p @.$.@.@.@.@.@.@.+.+.+.+.+.+.+.6.B   + O   D ].:X/.].*Xb.*X/.}.'.8 & .   . . .   . . .   . o   #       . o   @   o 3 M 8.+.+.+.+.+.+.+.+.+.+.",
"5 t t > p @.$.@.@.@.@.@.+.+.+.+.+.+.+.+.8.y     X 7 z.1X[.).|.*XG.|.D.7 . X X   O       O ;     . +                     X     .   M q.+.+.+.+.+.+.+.+.",
"5 j t > j @.@.@.@.@.@.@.@.@.+.+.+.+.+.5.(     . o F G.%Xv.v.].b.-XF   X *       . O O 1 O O   .     yXgXfXfXyXfXfXyXfX#Xn - X   ; @ . 8.@.+.+.+.+.+.+.",
"5 t t > t +.$.@.@.*.@.@.@.@.+.+.+.+.+.q.u X     . z.<X(.*X|.*X&XF.o . . . . + < n eXdXeXeXdXVXZXZXZXFXFXFXFXFXFXFXFXFXFXfXN X     O     q.7.+.+.+.+.+.",
"5 t t > t @.$.@.@.@.@.@.@.@.@.+.+.+.+.7.N   +   q XX(.H.^.|.m.<XD   . O   1 ;.i.-.hXmXbXBXAXFXFXFXFXGXDXFXGXGXGXFXDXFXDXAXpX8X5   O O O   A 7.+.+.+.+.",
"5 j t > r +.$.@.@.@.@.@.@.@.#.q.            X & c.<X{.}.*XM.-XI   . .     _ i.3.,.hXxXmXlXnXAXDXFXDXDXDXFXFXGXGXGXFXSXBXcXmXmXcXv   #   o     8.+.@.+.",
"5 t t > r ~ @.@.$.q.T                       - Q ).).{.}.N.M.,XE   +     j 0.i.O.pXnXbXbXbXbXkXxXkXxXBXVXCXSXSXSXSXAXBXjXcXbXbXbXNXi.  O X o - 8.+.+.+.",
"t t t > h @.6.5.B X O O O O #     . . .   . K .X(.m.&X&X%X[..XI     2 > #.s.;.qXhXbXbXlXbXbXmXlXmXmXbXbXlXlXjXhXkXcXbXmXmXbXjXvXmXBX9XO . X % 8.+.+.@.",
"j t 4 > t 6.: o       .         @   X =     E {.m.[.}.&X[.=XW .   +   j s.u.,.eXmXnXnXbXlXbXmXmXbXbXbXbXnXnXnXbXmXmXvXvXbXmXmXmXvXmXsXx     % 8.@.@.@.",
"t j t 5 T X   O   $ .   $ Q z.z.| ` 0       E >X=X&X}./.].;XW   O     > 0.a.,.pXcXlXnXnXmXbXbXbXbXbXbXbXnXbXbXMXmXvXlXmXbXlXlXxXvXbXpX; o o % 8.~ #.@.",
"t 5 j 5 B         : w '.'.=XN.:XK.B.s . O   G :X).G./.&X[.:XW   X . 2 7.i.i.u.3.dXmXlXbXcXcXcXlXlXbXmXnXbXbXbXlXbXbXmXjXbXnXmXxXvXMXpX;   @ % 8.~ #.%.",
"5 j m M     $   q F.|.[.(.[.|.J.K.` 2   X @ c.&XG.&X{.}.*Xz.        6 0.3.3.u.3.qXcXjXmXbXbXnXmXbXbXbXbXbXnXbXlXnXnXmXjXnXnXmXmXvXmXqX%   . * q.O.#.#.",
"5 t T 3   O X X c.<XG.G.G..XK.K.T.f   .   D }.*XG.^.G.G.,Xz.  # X   @ -.3.3.3.i.1.6XnXmXjXjXBXjXlXbXbXlXbXlXlXmXvXvXbXbXvXcXnXBXqXh.1     # % 8.~ #.~ ",
"t j /   X   & E b._.v..X.X XA.B.`     . . q ,X^.%X*X%X&X%Xz.  O   2 -.1.4.3.i.<.4.4.,.h.hXsXhXmXnXnXnXnXnXnXmXlXbXBXhXhXhXhXqX2.3.1.@   .   M 8.#.%.+.",
"5 A B       G 2X%X[.{.K.K.D.I.#Xf O   .   D /.H.].[.[.G.:Xz.X     . @ i.s.a.3.i.4.u.s.1.2.3.6XqXqXqXqXeXqXqXqXeXeX9Xu.;.-.1.-.a.i.:   O . o / N ^ B N ",
"5 /   ;     L .XF.Z.@XA.C.{ E.Q.d   O   = D.<X/.].}.>X}._.x.& . X     j >.u.i.3.s.3.s.0.;.u.,.i.s.3.3.3.u.3.3.3.3.3.u.u.a.0.a.a.p       X X B * = * = ",
"j /       + Y p.!. .P.T. .OXP.V.L       1  X/./.].=X&X[.).>XR     O . . z >.u.s.u.i.1.u.s.u.i.u.i.u.u.i.i.i.u.u.u.a.i.3.s.>.%.1 O         A 2 2 2 2 2 ",
"m /       9 @XP. .I.P.U.I.T.E.R.P X .   9 W.L._.M.[.}.|.(.m.XXD     . .   # *.0.0.1.1.u.0.O.c x m c c l l l l l l c x x Z 2         #   M u 5 5 5 6 y ",
"/   O     9 @XB.T.Q.B.C.Y.T.E.Y.P       9 D.K.,XG.^.&X&X|.}.&X<XG       X . X   = .   X . . . . .                 X X X X X     # .   / r 4 r r r 6 y ",
"A   O O . 9 W.Y. .E.oX .Y.Y.P.W.P     . a C.K..X&X^.:X/.[.&X).(..XQ X X . . . $                                     . . . . o O X % B > * * * * * * > ",
"T   O O # e.V.B.T.I.Y.U.V.Y.I.Y.P       : [ Z.J.}.%XG.^.=XG.|.[.m.-XK.8 O = X   X             O O     O O   O   . % & 7 $       3 B , y , , , , , , , ",
"T   O   @ ' W.E. .E.P.P.U.OXT.Y.P         d C.K.}.&X[.G.&X/.G.}.}.v.*XXXG G J F G G F F F F F G G F F G F F G G F n.<X2XD.7 X . M >.X.^ o.X.X.X.X.o.) ",
"~ .     . : A.Y.T.Y.Y.C.U.Y.Y.P.I     +   a U.A..X&X%X}.G.&X(.^.[.}.^.%X}.:X-X:X>X*X*X(.(.*X*X*X*X:X:X&X:X*X:X*X=X%X%XF.D $ .   w r.=.:.:.:.:.:.=.=.:.",
"A 3       9 W.B.T.I.Y.I.C.I.U.+XB.s       s oXC.~.(.N.}.&X[.}.&X}.[.[.H.[.G.&XG.H.H.H.H.H.H.H.H.H.G.H.H.G.H.H.H.H.[.;Xc.7       - 0.=.=.:.:.%.=.:.=.:.",
"< /   O   9 W.{ T.Y.C.Y.C.I.C.U.oXP       s oXY.~.&X[.[.&X&X&X}.}.%X&X%X}.%X&X&X&X}.&X}.&X&X&X}.}.&X&X&X&X}.&X.XG.G.;Xx.7       8.<.:.:.:.:.=.:.:.:.:.",
"1 ~   X   9 W.B.Y.U.Y.V.C.!.W.U.B.s .     s OXT.A.}.%X}.H.}.%X}.}.}.&X}.&X&X&X}.&X&X&X&X&X}.&X&XH.&X}.&X&X&X&X}.&Xv.:Xx.7     3 t.:.=.:.:.%.=.=.=.O.O.",
"V j.      9 W.C.Y.T.V.Y.U.V.B.U.V.d       f Q...C.L.H.%XH.&X&X%X}.}.&X&X%X}.&X&X&X}.}.H.}.}.}.H.}.}.H.}.H.}./.}.&XG.;Xx.7     3 f.:.:.:.:.:.:.,.:.:.2.",
"N 4X  O   9 Q.{ U.Y.Y.C.U.V.B.U.C.d   X   H Q...C.L.&X}./.}.}.}.%X}.[.}.}.}.}.[.[.}.H.&X/.H.H.}.H./.&XH.}.}.}.}.}.m.;Xx.7     - t.:.:.:.;.:.=.=.:.2.2.",
"4 l.      : C.V. .T.I.Y.C.B.Y.B.oXf . .     [ #XP.V..Xm.^.&X|.}.G.%X/.[.^.}.%X}.}.%X&X&X}.&X}.&X[.&X}.&X&X&X[.&X/.[.=Xz.7   . - t.,.>.:.:.:.:.:.2.:.2.",
"4 j.      0 oXV.U.P.I.T.R.V.oXU.C.L         P T. .C.K.*X[.[.&X&XH.}.%X}.}.&X}.&X}.&X[./.}.&X%X}.}.%X[.}./.}.}.}.[.v.;Xx.7     3 r.,.,.:.:.:.:.:.:.2.2.",
"< j.      0 oXV.Y.P.Y.Y.I.C.P.B.U.I         L T.R.P.D.K.}.N.m.%X&X{.}.}.&X[.%X}./.[.&X}.%X}.}.^.}.[.&X%X%X}.&X}.[.v.*Xx.7 X   - t.,.,.;.,.2.2.,.:.:.2.",
"4 j.      : +XW.Y.T.I.U.I.Y.T.B.R.{ 0 . .   d P. .T.W.A..X=Xm.^.&X}.%X&X[./.}.&X%X}.&XH.}.&X&X}.&X/.}.}.&X}.}.&X}.b.<XF.9 X . - f.,.,.,.,.,.,.2.:.:.,.",
"4 j.    X   I Y.C.P.Y.Y.T.Y.T.P.Y.+Xa       L R.T.P.I.I.S. X}.G.%X[.%X}.&X}.&X&X}.%XH.%X^.&X[.%X%X&X&X%X/.[.}.[.^.&X>XQ &   . 3 f.,.,.,.,.2.,.,.2.,.2.",
"< j.      X s @X .T.E.P.Y.P.P.Q.Z.} 9   X   8 } T.P.I.T.I.S. X}.G.%X}.}.}.%X}.G.}.}.}.&X}.}.&X}.}.H.[.}.[.}.%X%X^.1Xx.H . X . 3 f.,.,.,.,.,.2.,.,.2.,.",
"6 l.T       O Y oXI.W. .P.oXT.V.Y.{ a         P W.I.T.T.P.P.A.K.}.*X%X%X%X%X}..X.X}.G.^.%X^.*X&XH.H.H.H.}.H.}.}.{.=Xn.8 X .   % f.,.,.,.,.,.,.,.,.2.,.",
"< d.j.  O X   $ R R.V.W.T.R.P.B.Y.T.] a       Y W.Y.T.I.P.T.Y.S.K.L.{.G.%Xm.^.%X%X|.}.&X&X[.[.{.[.%XN.&X%X[.%X[.^.-Xx.w X   - r.,.,.3.,.,.,.,.,.2.,.2.",
"4 d.l.m O . X   Y oXY.V.U.P.{ B.B.{ } 9       0 } W.T.Y.T.P.T.P.V.A.K. XJ.}.%XN.m.N.G.M.N.[.%X[./.,X,X&X,X/./.G.(.(.E . O   o ~ q.r.,.,.,.,.,.,.,.2.,.",
"4 d.8X4Xm       9 ` p.p.U.U.B.R.A.V.B.s   .   . I W.T.V.Y.E.T.T. . .B.V.A.K.L. X.X&X^.*X%X^.^.).}.{.{.{.].{.{.[.:XF.7       .         q.3.,.,.,.,.,.,.",
"< d.3X0Xj.*       . & .     X     X       . O . I #XP.C.I.Y.Y.Y.T.T.T.T.Y.V.Z.V.B.K.K.K.K..X}.}.*X*X(.(.).%X*X^.z.w   . . X . O O   O   X ~ a.,.,.,.>.",
"4 d.3X9X4X~           X . .       .   X . .   O ` #XP.U.U.V.Y.V.T.P.T.P.U.V.I.P.T.T.T.P.P.Z.S.S.S.S.`.S.S.S.`.S.! X : . = X 7 w .     O 2 . 8.,.,.2.,.",
"4 d.3X0X~ X . X X         +         X     X   . ` OXB.Y.Y.I.U.P.Y.U.E.I.Y.U.C.Y.Y.Y.P.T.P.T.T.T.P.{ p...R.E.} S   . X   # R S.H.E     . . X   r.2.>.>.",
", d.3Xl.3 - X       P ' Y R Y ] ` L &         : ` R.P.P.U.U.C.Y.U.U.Y.T.R.R.E.P.T.C.V.V.V.V.V.C.W.W.Q.Q.V.Y.`   . . X   : #XA.*X,Xc.      .   X 7.q.5.",
"4 d.8X8.        Y } P.T.OXOXY.Y.oXY.} | [ | [  .OXE.E.Y.V.U.U.U.P.Y.U.C.B.E.E.I.T.Y.Y.Y.Y.Y.Y.Y.{ Y.B.P.+X' .     . . 0 ..C.S.).v./.F.9 . .     O   w.",
"< d.4XB     X : ' Y.E.R.E.I.E.I.T.E.T.U.R.Y.Y.Q.E.I.I.U.U.P.Y.U.Y.C.V.R.C.Y.oXC.+XR.R.R.R.Y.R.I.{ ` ` ` +     X   X d U. .Z.L.[.%X*X&XJ.q   . . ; O O ",
"4 g.y.        Y +XI.W.Y. .Y.P.} B.P.OXR.R.Y.V.C.B.P.P.Y.Y.U.U.I.P.U.B.OX] s a 9 0 s s s s s s s :   $ .   X   .   . { Z.S..X*X[.[.b.m.[.(.q . $ . @   ",
"4 g.j.      : ` U.T.} C.U.U.Y.Y.Y.I.C.B.C.Y.Y.C.+X .{ Y.U.C.Y.I.Y.U.Y.] :   @ . .               X   .   X       s | } @XL.).%X/.>X|.M.*X{.). Xw   X O ",
"4 l.M       s Y.R.T.T.Y.U.U.U.U.C.U.Y.I.Y.U.P.Y.U.P.Y.P.T.U.W.V.U.Y S           O                   % .     9 ] } R.+XA./.*XG.[.G.}.^.G./.[.(.'.& .   ",
"4 j.        0 C.E.P.C.B.U.U.I.C.I.U.U.U.U.U.V.U.C.Y.U.I.V.Y.C.| P +           O @   O O   O           =   a #XQ.P.P. .Z.L.-X=X[.&X&X}.[.[.[.&X>X8 .   ",
"< l.5.    X 9 [ W.Y.C.P.Y.U.U.Y.I.U.Y.P.U.Y.C.Y.U.V.U.P.Y.B.oXP         #   M y.q.6.$.5.$.$.5.y.T       O . s { Y.E.P.C.J./.b.[.[.[.G.[.[.}.b.<X7 X + ",
"4 d.y.    X . f e.+XOXY.Y.I.C.U.C.Y.U.U.Y.C.Y.U.U.U.U.E.R.Y.R :   X O   % w.r.o.o.#.#.o.o.#.o.~ 9.  + $ .   . : | E.T.{ K..X.X&X&X&X&X[.G.G.*XU . X . ",
"< d.l.X o X   @   Y B.C.I.U.U.U.U.P.V.U.P.Y.U.V.P.Y.Y.T.R.] . . X .   / l.$.~ #.~ ~ o.~ ^ ~ ~ ^ ~ ~ B .   *     Y Y.P.T.V.D.@X^.^.%X^.G.^.&XXXi     @ ",
"4 d.3X5X$ .         P {  .U.Y.I.I.W.Y.W.Q.I.W.W.V.C. .{ ` d   X   o   5.Z N V V b N V v N N V N Z N N N j @ +     P T.T.R.P. .K. X}.v.=X>Xx.8   O O   ",
"4 d.3XtXyXt . X       2 : P [  .} [ } ..[ ..p.] d : : 6 .       = t ^ k j z h h h r k n n N l N N l m N n j ;   X   : 9 [ OXQ.!.C.D.>X,XW .     O     ",
"e d.3X3XtXyXT   O O O   X                         O X     O O   = e e e g < < g e , , , , e < < m < < < r e r @ +     X 9 | } Q.B.V.Z.R &   O O   > > ",
"y g.3X3X3X3XwX4X    @ o . . . . . . . X     . .         @ O > k n n n b C v ^ b n n k k n k l c Z $.+.v Z b v g # X X   : : ` { e.` a     X O @ , k h ",
"y 3XwX3X0X0XwX3X0X0Xj./ %                           % T w.f.7X8X3Xf.^ ^ ^ n b b ^ s.k.3X6X8Xk.h.o.c ) b C C b <.d.t   . + O O % O     o       q.h.g.h.",
", 0.3X3X3X3X3X3Xk.3X3X0.z 1 k.VXNXVXVXuXo.o.C C _ X.iXNXNXNXNXNXVXiX1.^ o.n ^ ^ 3XsXzXNXcXzXNXsXk.^ C c C b 0.aXsXyXu ; ;   X     . . X @ A tXuXaXiXpX",
"* 6 e g g e e e g e e < , 1 h.fXiXfXrXg.C *.Z v _ ) 9XaXaXaXiXaXqX3X^ b ^ b C b 4.uXuXuXrXuXrX9X3.b ) b b C >.qXqXuXtXM       O ; ;   4 C 8XwXwXwXwXwX",
"t y r j A l g e e < r h r h C &.%.%.C v ) *.Z ) ) b ) _ *.) _ ;.C Z Z o.C V ^ b k o.O.#.^ %.C b v Z X.v b C h b ^ ~ ^ ^ ~ ~ n z l z Z Z c x ) C ) ) b ",
"~ m N Z ^ %.C V h v Z z z c c h h k k n v x c x Z x c c c z c z l z c x x l l V n k e r h h h l x x l l l h l l e r r l h h l l l k h h z c h h g p h ",
"~ N N ~ o.o.Z Z x &.0.0.7.<.-.0.>.:.>.>.;.;.<.;.;.-.-.-.-._ -.-.&.>.%.>.-.&.-.-.%.%.>.>.%.%.%.%.%.$.%.%.#.%.@.+.%.#.#.#.o.#.#.~ #.*.*.*.) *.) *._ _ _ "
};
