/* XPM */
static char *result[] = {
/* columns rows colors chars-per-pixel */
"75 75 235 2 ",
"   c #020202",
".  c #0A0304",
"X  c #030904",
"o  c #0C0A06",
"O  c #03040A",
"+  c #0B040A",
"@  c #030A0B",
"#  c #0B0B0B",
"$  c #120304",
"%  c #180707",
"&  c #15050D",
"*  c #120B0B",
"=  c #05120E",
"-  c #15130E",
";  c #1B150D",
":  c #070813",
">  c #190813",
",  c #0B1516",
"<  c #1A1816",
"1  c #240103",
"2  c #2A090B",
"3  c #2C130F",
"4  c #270A19",
"5  c #27141A",
"6  c #391415",
"7  c #2E261A",
"8  c #1A1A25",
"9  c #2C1324",
"0  c #37182A",
"q  c #3B1A31",
"w  c #182627",
"e  c #1F2A39",
"r  c #342B2C",
"t  c #3B3629",
"y  c #3B352C",
"u  c #2C383B",
"i  c #510F19",
"p  c #461617",
"a  c #63171C",
"s  c #4B291B",
"d  c #461628",
"f  c #541928",
"g  c #461B33",
"h  c #651D23",
"j  c #7E1F2A",
"k  c #473B2C",
"l  c #472337",
"z  c #542332",
"x  c #463A36",
"c  c #672529",
"v  c #782A34",
"b  c #723035",
"n  c #4A4138",
"m  c #564939",
"M  c #62443D",
"N  c #313E43",
"B  c #4F2740",
"V  c #552842",
"C  c #5D354B",
"Z  c #642C4B",
"A  c #742D4E",
"S  c #65334C",
"D  c #6B334C",
"F  c #6C2E50",
"G  c #792E54",
"H  c #6B3754",
"J  c #733355",
"K  c #753659",
"L  c #7D345B",
"P  c #7B3B5D",
"I  c #7B3765",
"U  c #7D3A63",
"Y  c #354345",
"T  c #3A4A4A",
"R  c #334F52",
"E  c #3A5457",
"W  c #3D595C",
"Q  c #355962",
"!  c #3E5D62",
"~  c #3D6067",
"^  c #424F4E",
"/  c #5C5648",
"(  c #47585B",
")  c #425C5E",
"_  c #66594A",
"`  c #6E5450",
"'  c #7A664A",
"]  c #756754",
"[  c #736C58",
"{  c #425C62",
"}  c #475C64",
"|  c #7C4362",
" . c #446164",
".. c #4B6265",
"X. c #48656B",
"o. c #556E78",
"O. c #7D7062",
"+. c #922D38",
"@. c #A93A3F",
"#. c #B93B3B",
"$. c #C63A3B",
"%. c #CA403D",
"&. c #9B3846",
"*. c #8B3251",
"=. c #893354",
"-. c #84345E",
";. c #8A355C",
":. c #843A5E",
">. c #8B395C",
",. c #923B5C",
"<. c #993959",
"1. c #AA3C48",
"2. c #B63C43",
"3. c #BD3E45",
"4. c #B53A49",
"5. c #BD3E4B",
"6. c #A53C55",
"7. c #B63E55",
"8. c #853662",
"9. c #8B3562",
"0. c #8F3267",
"q. c #853A63",
"w. c #8A3A64",
"e. c #85376A",
"r. c #8B3769",
"t. c #843B69",
"y. c #8C3C69",
"u. c #963665",
"i. c #913B65",
"p. c #933B6A",
"a. c #C33D43",
"s. c #CA3C46",
"d. c #C43D4B",
"f. c #C83948",
"g. c #D43C4B",
"h. c #C53D52",
"j. c #8D415E",
"k. c #A9434A",
"l. c #B44344",
"z. c #BD4246",
"x. c #BE4249",
"c. c #B8474B",
"v. c #A94358",
"b. c #BA4555",
"n. c #886D50",
"m. c #84745A",
"M. c #8A4164",
"N. c #864468",
"B. c #8C436B",
"V. c #92446E",
"C. c #877966",
"Z. c #8B7A63",
"A. c #937762",
"S. c #C24245",
"D. c #C14149",
"F. c #C6474A",
"G. c #CA434B",
"H. c #D4444D",
"J. c #C44352",
"K. c #C94854",
"L. c #D24755",
"P. c #C94F62",
"I. c #92805F",
"U. c #968870",
"Y. c #988A74",
"T. c #A38C6B",
"R. c #A79479",
"E. c #B4997D",
"W. c #CBAF7B",
"Q. c #607C85",
"!. c #54808D",
"~. c #70939B",
"^. c #7B9CA3",
"/. c #7DA1AA",
"(. c #A69884",
"). c #B79D84",
"_. c #B8A688",
"`. c #BAAA95",
"'. c #8AB0B8",
"]. c #C5AB8A",
"[. c #D1AD8E",
"{. c #CDB389",
"}. c #D4B385",
"|. c #DAB886",
" X c #D5B58C",
".X c #DAB68C",
"XX c #D5BA8C",
"oX c #DBBA8D",
"OX c #C6AE95",
"+X c #CAB598",
"@X c #D4B592",
"#X c #DAB592",
"$X c #D5BA92",
"%X c #DABA91",
"&X c #D5BC9C",
"*X c #DBBD9B",
"=X c #E2BC8D",
"-X c #E2BD93",
";X c #E1BE99",
":X c #D6B8A4",
">X c #DAC18E",
",X c #DCC193",
"<X c #D6C29A",
"1X c #DDC39C",
"2X c #E5C38F",
"3X c #E3C39A",
"4X c #E5C599",
"5X c #DBC3A3",
"6X c #E8C9A5",
"7X c #EBD0AD",
"8X c #8AB9CA",
"9X c #8EBCCB",
"0X c #97BCC9",
"qX c #93BECC",
"wX c #9EBED1",
"eX c #96C2CE",
"rX c #8DC3D3",
"tX c #95C4D3",
"yX c #99C5D4",
"uX c #9AC8D6",
"iX c #9BCADA",
"pX c #A7CAD5",
"aX c #B2D1DB",
"sX c #A8CFE0",
"dX c #A8D6E5",
"fX c #B6D8E3",
"gX c #B5E4ED",
"hX c #C2D2DE",
"jX c #C8DBE4",
"kX c #CFEAF3",
"lX c #EFEAED",
"zX c #E9EDF5",
"xX c #F7EDF4",
"cX c #E8F2F8",
"vX c #F6F5F9",
/* pixels */
"%X%X%X%X%X%X%XoX$X%X$X#X%XoX%X%X%X%X%X%X%X%X%X$X$X*XXX$XXXXX|.,XXX2X$X*X&X%X$X*X$X%X$X*XXX1X}.oX4XoX2XoXXX-X%X.X;X%X X%X%X%X%X%X%X%X%X%X%X%X%X%X%XoX$X",
"%X%X%X%X%X%X%X%X%X%X%X%X%X%X%X%X%X%X%X%XoX%XoXXX,X X*X%XXX3X+X].+X+X] y y y y y y y y y y t r C.OX_.$X,XXX}.XXoX X X3X%X%X%X%X%X%X%X%XoX%X%X%X#X%X%X%X",
"%X%XoX%X%X%X%X%X%X%X%X%X%X%X%X%X%X%X%X%X%X#X%XoX X6X_.R.).n.    O     # X O       O     O :       o [ `.+X<X$X4X,X,X}.%X%X%X%XoX%X%XoX%X%X%X%X%X%X%X%X",
"%X%X%X%X%XoX#X$X%X%X%XoX$X%X%X%XoX#X%X.X%X%XoX$XR._ -               O                             X   % _ [ I.5X@X%X#X%X#X%X%X$X%X#X$X%X$X%XoX%X%X%X%X",
"%X$XoX$X%X%X%X%X%X%X%X%XoX%X%X X*X;X X4X}.oX&XR.# O .   X   O O O       . 6 6 6 6 6 6 6 2           .     o . / :X-X>X#X%X%X%X*X X%X%X%X%X%X%X%X%X%X%X",
"%X%X%X%X%X%X%X%X%X%X%X%X%X%X%X%X@X#X*X}.XX$X]._ X @ X   %       6 b v j +.J.J.J.K.F.h.L.1.+.+.b 3     X     *   m ].%X%X%X X X;X%X#X%X%X%X%X%X%XoX%X%X",
"oX%X%X%X%X%X%X%X%XoX%X%X%X%X%X X X;X%XXX{.5X5   . O @ X . P.J.f.d.F.F.a.F.S.a.a.S.S.S.%.S.S.z.5.d.6.0     , #   ; U.6X}.>XoXoXoX%X$X$X%X%X%X%XoX%X%X%X",
"%X%X%X#X%X%XoX%X%X%X%X%X%X%X%X%X$X%X.X{.&XU.  X + +   p J.f.1.c.x.3.D.z.3.z.x.z.z.z.z.S.c.l.G.D.l.x.H.G.d   @ X   - C.>X%X}.oX X%X%X%XoX%X%X%X%X%X%X%X",
"oX%X%X%X%X%X%X%X%X%X%X%X%XoX%X%X%X;XoXXX`.X +   X X +.G.F.z.F.x.5.F.f.d.G.a.D.z.d.S.x.3.z.5.3.s.s.$.#.F.1.%     $   7 _.5X.X.X%X%X@X%X%X%X%X%X%X%XoX%X",
"%X%X%X%X%X%X%X%X%X%X%X%X%X%X%X%X%X%X X6X5   O   X X *.F.#.c.z.S.z.c.c.l.c.#.a.S.S.F.K.F.H.H.F.F.K.K.G.L.H.k.6     .   _ +X*X}..X%X$X%X%X%X%X%X%X%X%X%X",
"%X<X$X%XXX}.,X%X$X*X%X%X-X-X%X-X-X{.&XO.#   . O X &.g.F.2.G.z.S.S.2.c.z.H.F.s.J.+.h c v c c c h c c c h a c s $       ; Z.1X=X=X3X@X%XXX*X*X X%XoX%X%X",
"%X%X%X>X}.4X4X6X[.E.E.).E.).).E.@X6XOX7         b 1.S.a.c.d.S.l.3.G.L.2.v 6 6 3                         @ O   : : + O O o 7 m.E.).*X%X XXX}.%X%XoX%X%X",
"#XoX.X$X&XA.' I.t - ; ; - ; ;   / A.6   . o   3 +.J.F.#.z.D.G.s.L.&.f 3 o $ $ . . o     + . O . . X X .   - o   X   .   O + # - . _ 6X4X%X-X}.%X%X%X%X",
"oXoX%X+X_               .     X       ,   X   v K.a.3.l.g.l.z.+.i $   O     X X       & : : : O O       O         @   .   X O # #   s OX X=XoX}.#X%X%X",
"$X@X_.7 O # : O   X     . .   . X     @   $ c l.F.S.F.F.3.b.+.. X   . $ # $ . , N e Q '.tXpXfXfXfXfXdXaXfXhXfXaXhXhXo.e u   X   O X X t 5X X-X%X#X#X%X",
"%X7X;         . $ % f v v b p 1 $   . +   z P.s.3.c.2.g.F.1.p $   @ O     w Q./.gXsXsXrXwXjXvXxXxXxXxXxXxXxXxXvXzXxXvXkXpXo.^   .     * ] 5X|.%X%X%X%X",
" X[.t   &     c k.@.5.K.5.K.S.c.f X &   . h d.S.k.S.s.#.H.b     . X   , u !.dXeX9XtXqX9XpXcXvXzXvXvXvXvXzXvXxXxXzXxXlXlXjXiXiX..  .     y `.=X-XXX%X%X",
"7X/ X .     6 K.K.3.d.G.3.3.#.P.b   . . 6 l.S.z.l.d.s.c.k.2         , ! ^.iXeXeXuXtXuXtX0XaXfXjXjXhXjXzXxXzXzXlXvXvXvXcXkX8XuX^.w   O   . _ ;X%X$X X%X",
"$X^ X o X X a s.#.d.S.G.a.S.K.+.1   @   p h.F.z.c.J.G.1.f         u W o.eXyXrXuXuX9XiXtXtXtX9X9XeXeXeXaXzXzXcXvXkXhXpXaX8XrXrXpX'.u       _ *X}.*X*X#X",
"n.* $     6 k.F.a.F.l.l.3.d.4.h   O O O 6 5.s.x.F.3.f.c.2 X       T  .Q tXeXyXrXuXiX9XiXrXrXrXtXeXrXeXeXwXpXwXeXpXtXqXeXyXiXrX9XpXY     X _ *X%XoX%X%X",
"' o +   X a 2.3.d.D.#.f.L.v.b       $ % v J.f.x.F.l.S.D.2 + o   < E W X.eXiXtXeXtXuXtXtXuXuXuXuXrXeXuXuXuXiXuXyXtXtXrXtX0XeXuXiXpXY       / *X-XXXXX%X",
"n.o   @ 2 +.g.x.$.G.b.v.<.>.S       % g b.J.$.5.3.F.S.2.2       N ..) ! o.tXuXtXrXtXiXtXtXqXyXwXeXyXuXeXeXyXeXyXtXtXtXtXuX0XqXqXQ.w       _ 5X XoX%X%X",
"' . .   p #.G.b.s.G.6.u.U w.A       & F ,.5.S.z.z.d.d.5.2 O     u .. .W  .~.'.eX0X8X9X9XtXtXrXwXtXtXtXtXtXtXtXtXtXtXtXeX8XdX'.o.( <       _ 5X#XXXoX%X",
"' o .   6 1.5.v.v.6.>.w.U r.A     . > K j.d.z.z.5.D.5.5.2       u  .! W ! R W ^.uXpXyXiXuXtXuXqXtXyXtXtXtXtXtXtXtXtXtXeXtX/.~  ..., O     / @X.X;X%X%X",
"n.o .   4 =.u.>.w.i.I 8.U w.A       & J ,.5.S.z.z.S.x.5.2       Y  .W W  . .) W W ~ ~./././././././././././././././././.~.Q ! ..w         _ 6X-X@X$X%X",
"' o .   4 I e.q.-.r.t.r.q.i.A       & J i.x.S.z.z.d.5.d.2 O     Y .. .! W ..(  .X.W E ! { ! { { { { { { } { { { { { { W X. .{ Y #     O   _  X.X%X%X%X",
"' o $   9 I y.>.8.i.q.9.8.i.A       & J ,.h.S.S.d.D.S.5.2       w W  . .{ !  .! W } ..) ! { { { { { { { { { ) { { { { ) W { ( w   *     y OX;X=X%X%X%X",
"' o     4 K y.9.q.;.N.9.w.y.A       > K >.G.#.S.x.l.s.c.2 O X #   e W W } ! ! ! ! {  .W { { { { { { { { { ! ~ W ! { ~ ~ ..( <   #   O - R.1X X%X%X%X%X",
"' o     9 J w.q.q.u.U y.8.w.D       > K >.h.S.S.c.F.S.3.p     . .   = E ~ { ....} {  . . .W ) ) { ! { W ) { { } X. .R ( = X   *     . x 1X;X%X%X$X%X%X",
"*       9 F r.r.q.u.L y.r.q.Z   X   & P >.4.S.F.l.f.F.z.1.$ .   X           , u T ^ T Y Y T T T T T T T T ^ T Y T u ,     O O O o   ] &X{.oX%X%X*XXX%X",
";       0 G r.t.q.8.r.U 9.G 5   X X & U ,.J.#.#.c.s.S.3.x.b . .   . . O O                                       X .         O     Y.6X}.2XoX;X X%X%X%X",
"-     > V i.w.8.q.L p.q.w.G       X & A ,.K.z.z.c.5.S.S.d.b.h.*.o   X       .               .   . .                   O     7 t (.&X@X-XXX X*X*XoX.X%X",
";     > D w.9.q.-.t.u.| i.A       . r L u.5.S.F.5.c.F.#.F.f.S.l.1.+.&.b =                                           . O   _ _.;XoX=X%X XoX%X@X*XoXXX%X",
"; X   9 J u.;.q.:.:.8.i.w.F o     : H 8.j.k.s.3.D.D.D.x.z.S.S.z.D.a.x.x.l.4.2.2.2.3.2.2.2.2.2.2.2.2.3.2.2.4.2.#.@.5..     - Z.%XoX#X#X%X%X%X%X%X%X%X%X",
"-     > S p.;.q.q.q.q.9.>.F       + C y.:.&.h.a.S.z.x.x.x.x.S.x.D.D.x.x.D.3.3.3.3.3.a.3.a.3.a.z.3.3.3.a.z.5.z.a.z.J.$       Z.*X=X*X%X#X%XoX%X%X%X%X%X",
"-     O g L r.8.9.q.q.w.M.H         5 P -.j.b.S.S.S.x.D.x.x.5.x.D.S.D.a.x.S.x.D.z.x.x.z.x.3.x.x.x.z.x.a.x.x.x.S.l.G.&       Z.%X%X%X%X%X%X%X%X%X%X%X%X",
"-       9 F w.e.q.9.q.q.>.H         & J r.w.6.z.S.S.a.S.F.5.z.S.D.z.S.x.D.z.D.D.D.D.z.x.D.D.x.D.D.x.x.D.x.x.z.S.x.J..   O   C.%XoX%X%X%X$X%X%X%XoX%X%X",
"m . O   4 J p.w.:.:.q.>.,.P 0   . . * K p.q.=.7.b.S.a.S.D.x.x.x.x.d.x.x.d.z.x.D.x.D.d.z.S.D.z.x.S.D.x.D.d.x.z.%.l.G.$       Z.%XoX*X%X%X#XoX%X%X%X%XoX",
"' o     4 A w.y.9.q.U -.;.w.C   . . * H 0.r.M.6.b.D.S.S.F.3.x.D.S.x.z.S.z.z.3.S.3.S.3.S.5.z.z.a.5.3.x.a.z.5.x.S.l.J.$   O   Z.%XoX%X%XoX%X%X%X%X%X%X%X",
"n.o   O   * q.w.:.w.q.9.:.w.A       > G U q.:.w.b.%.a.c.b.a.S.D.a.x.d.D.D.d.x.D.x.D.D.5.x.S.5.D.S.x.z.S.F.5.c.c.$.L.o   O   C.*X X%X%X%X%X%X%X%X%X#X$X",
"W.r   .   5 q.r.-.w.:.9.q.w.A       > =.I 8.q.;.<.4.F.a.a.x.x.3.x.D.D.x.a.x.x.D.S.z.x.z.D.D.x.D.D.D.z.3.G.D.2.S.d.L.&       C.@X4X.X%X%X%X%X%X%X%X%XoX",
"6X`       4 L p.8.w.q.9.q.i.A       % G e.8.>.9.t.V.c.$.a.x.D.x.D.x.5.S.D.x.D.x.x.d.D.D.D.D.3.D.x.x.3.z.F.D.c.F.h.+.o       C.@X}.3X%X%X%X#XoX$X%X%X$X",
"6XM . *   0 P e.-.i.-.r.q.i.A       & L q.q.:.-.t.t.<.5.S.S.S.S.x.D.S.x.x.S.D.D.S.x.x.3.D.x.x.D.S.5.z.F.z.3.c.4.K.4         Z.*X.X%X%X%X%X%X%X%X%X%X%X",
"2X'       O f q.q.w.P w.:.w.A       & L t.q.q.q.q.9.w.v.J.S.S.z.a.x.S.D.D.D.x.D.x.D.D.D.x.a.x.x.D.z.3.3.z.f.x.c.1.3         A.#X;X$X%X%X%X%X%X%X%X%X%X",
"4XM   O     d N.q.r.U w.q.w.F       & L t.8.q.w.=.>.t.8.6.a.S.D.x.D.S.3.S.3.D.D.5.S.x.x.D.S.a.x.d.x.d.z.S.d.x.7.p         O.&X%X}.%X%X%X%X%X%X%X%X%X%X",
"*X].x   O   % B r.q.q.q.u.:.C     . + x w.u.q.9.r.t.q.>.,.v.5.x.5.z.S.S.S.a.a.d.z.3.x.c.D.d.5.5.z.a.a.z.b.7.u.I 8         ' $X,XoX%X%X%XoX%X%X#XoX%X%X",
"XX6X;   O     l V.B.N.w.V.j.S X       4 L w.q.9.q.q.8.-.=.>.i.,.<.v.x.z.S.5.x.F.F.a.a.$.x.4.x.F.G.S.x.7.>.*.V.q         ` &X@X X%X#X%X%X$X%X%X%X$X%X%X",
"oX>XR.O     X o g q g d g g 9         4 G B.q.9.8.e.t.t.8.-.q.q.w.,.<.<.6.6.6.6.7.4.x.x.x.x.G.D.z.6.<.q.U :.N.0         _ [.4XXX X%X%X%X%X%XoX%X%X%X%X",
"oX}.1Xm       #                       > P B.U 9.q.q.q.y.w.q.-.:.8.w.8.8.t.q.:.9.,.,.u.v.v.4.4.k.6.9.U I t.r.q.g X     x `.4X|.}.*X|.%X%X%X%X%X%X%X%X%X",
"*X%X&X7X7           X           .     > J r.q.:.9.:.q.w.w.9.r.w.w.t.t.e.t.t.q.q.q.-.q.q.=.>.9.q.8.q.t.e.>.9.q.g       m ].=X|.*X$X|.oX%X%X%X%X%X%XoX%X",
"%XoX{.<XY.            + 4 4 4 &       o g r.r.q.9.:.:.9.-.w.t.t.8.r.y.8.;.-.:.q.q.q.q.q.t.e.t.t.t.9.;.>.>.9.N.q       x _.-X|..X*XXX%X%X%XoX%X%X%X%X%X",
"oX|.1XR.y         @   & Z U | C 5   @ X > Z w.9.w.-.-.M.:.q.y.q.q.8.8.8.q.8.q.q.q.q.9.q.q.r.:.9.q.q.q.q.8.;.B.q     .   ] &X-X=X.X#X%X%X%X%X%X$X%X%X%X",
"%X5XZ.. o     X   O   9 G p.9.w.z           V y.q.=.V.9.q.q.-.8.t.q.q.t.y.q.8.q.q.q.q.9.:.9.q.q.q.9.q.q.L 9.B.g   @       U.*X X4X%X%X%X%X%XoX#X$XoX%X",
"*X]     X   X   0 4 0 Z q.9.9.p.V &   # . X   q S N.w.;.9.-.i.-.9.8.r.w.w.q.9.w.q.9.q.q.q.w.w.q.q.q.q.M.:.9.w.U 5   X O     ] ]. XoX%X%X%X%X%X%X%X%X%X",
"4X/ O #   8 q H w.B.M.q.q.q.q.r.| 0   . .     # + 4 g N.w.:.-.-.L P :.;.=.-.:.q.:.q.9.q.q.q.9.q.9.w.9.-.q.;.-.B.C &   O       (.5X.X.X%X%X%X%X%X%X%X%X",
"6X_ X X   0 N.y.-.-.9.-.U q.y.-.p.-.9 8     .     @     4 | P | | | K q.V.y.y.w.w.9.q.q.9.q.q.q.q.:.q.:.w.B.-.-.q.J 6   O O @   R.%X%X%X%X%X%X%X%X%X%X",
"6XM . O @ 9 | r.y.8.:.:.q.q.y.r.r.r.-.K q                 . $ . o . 4 q B V z J V.r.i.:.-.q.q.q.w.w.q.q.>.q.w.9.8.q.K g     X +   [ }.}.=X%X#X*X.X$X%X",
"4Xm X O O % d B.e.9.9.-.:.w.w.t.8.8.i.y.P S l % .                     + O     > V N.-.r.y.q.M.w.>.w.q.:.q.q.q.q.w.q.w.N.B           OX3XW.oX;X[.-X%X%X",
",XI.- O       q y.y.-.>.w.9.-.8.q.q.q.q.9.p.i.K V 0 0 &     .           O       & B I e.r.-.-.9.q.-.r.w.q.9.q.9.q.q.>.q.L <   .   . # _.5XXX=X;X%X%X%X",
"<X7X3   #   . X Z P r.w.>.-.:.8.q.q.q.U q.8.9.w.N.q.N.F l l X             + O     X . g K N.w.w.U q.9.w.q.q.q.q.9.q.q.u.N.K 0         # m.6X}.=X X$X%X",
"%X$XOXk       o & l | w.8.w.r.:.9.:.q.q.N.q.q.8.8.;.9.w.N.H O       Y.`.T.m % .         0 S w.9.q.t.e.w.9.q.w.>.q.q.q.-.t.9.F O $   =     _ 3XXX%X%X%X",
"%X|.3X+X    O     X 0 U y.w.:.q.N.w.;.9.r.r.q.r.r.w.;.B.K & O       +X6X|.%X_.;   :   X   q w.u.-.q.e.8.:.q.q.q.q.9.q.| 0.9.M.S # . X   O n _.oXXXoX%X",
"oX*X*X;XT.2   O     X > H V.p.9.8.y.8.U I I U | 9.r.9.K 4     +     _.XX=X=X3X+Xk   o     X g t.r.;.w.M.w.w.q.q.q.9.q.q.q.9.-.y.K 9         m.>X%X%X%X",
"%X%X[.#X3X`.y   . . +     X 9 H A P q.p.p.9.u.-.9.9.e.` >   X     U.<XoX#XoX%X%X5Xk   O       V B.-.9.q.q.w.q.w.q.q.9.w.:.r.w.9.N.U >       m.,X$X%X%X",
"%X$XoXoX.X1X&XM .   @   = o       9 l l g V P M.Z g q * @   O   ] OXoX2X%X{.3X}.#XE.;   + O   > S B.r.0.8.q.q.9.q.w.q.w.q.P q.w.9.p.4       m.,X%X%X#X",
"oXXXXX|.oXXXXX4X] n o X     : @     X         . @     = X   : # A.3X=X%X$X<X X=X2X6X_.k   o     . V V.y.8.q.q.q.w.q.w.9.q.q.q.w.9.p.>       m.,X$X%X%X",
"%X%X%X;X XoXoXoX.X6XA.O.      o . .             X X X .   O < R.,XoX.X;XoX%X%X.XoX}.3X@X_   X o   & g P w.q.:.9.q.9.w.9.q.q.9.9.w.N.>       m.oX$X%X%X",
"%X%X$X$X<X X*XoXXX>X>X&X_.].Y.; < < < o @     O .   . < < `._.*XXX@X*X#XXX=X#X$X$XXXoXoX&XC.;   : O - D y.9.q.:.q.w.q.8.q.w.-.w.U q +       m.>X%X%X%X",
"oX%X%X%XoX%XoX%X%XoX%X#X%X%X%XoX>X>X5X_ _ _ _ _ ` _ m :X{.4X%X%X%X%X$X%X%X%X%X%X%X%X%X#X6XR.k         4 S N.y.0.q.q.U -.| t.r.8.| 5   + O   O.&X.X%X%X",
"%X%X%X%X%X%X%X%X%X%X%X%X%X%X%X%X;X%X X1X$X&X@X@X5X*X*X.X%X-X%X%X%X#X%X%X%X%X%X%X%X%XoX%X.X7X' X # @     > V K r.9.r.p.0.w.q.q.Z >   @     n OX$X%X%X%X",
"$X%X%X%XoX%X%X%X%X%X%X%X%X%X%X X%XXX XoX2X|.2X-X%X=X.X|.oX}.oX$X%X%X%X%XoX$X%X%X%X%X%X%X|.}.7X` *   O O   # > z H P P | H C > &   @ O + x &XXX>X<XoX%X",
"%X%X%X%X$X%X#X%X%X%X%X%XoX%X%X%X>X{.,X X*X X X$X$X%X$X%X$X*X%X%XoX%X%X%X%X%XoX%X%X%X%X%XoXoX{.7XR.;                         X     . O - U.4X=XXXXXoX%X",
"%X%X#XoX%X%X%X%X%XoX%X%X%X%X%X X}.%X*X X@X*X*X&X%X%X,XXX{.%X%X%XoX$X%X%X%X%X$X%X#X%X%X%X X4XoXXX&X_.7                 X + #     o   , +X,XXX$X;X X%X%X",
"%X%X%X%X%X$X%X%X%X%X$X%X%X%X%X%X;X.X.XoX%X}.oX%X%X X X%X;X.X%X%X%X%X%X%X%X%X#X%X%X%X%X%X3X X}.2X}.1X:Xm t                       7 :X7X{.XX$X$X@X%X%X%X",
"%X%X%X%X%XoX%X%X%X%X%X%X%X%XoX#XXX%X%X%X%X%X%X%X%X%X%X%X$X%X%X%X%X%X%X%X%XoX%X%X%X%X%X%X%X%X%X%X%X$XoX6X+XR.).(.(.(.Y.(.(.(.(.U.&X@X@X#X%X$X%X%X%X%X%X"
};
