/* XPM */
static char *result[] = {
/* columns rows colors chars-per-pixel */
"75 75 246 2 ",
"   c #020202",
".  c #0A0304",
"X  c #030A05",
"o  c #0B0905",
"O  c #03040A",
"+  c #0C0409",
"@  c #050A0A",
"#  c #0B0B0B",
"$  c #13040B",
"%  c #120C0B",
"&  c #180507",
"*  c #0A130E",
"=  c #060C13",
"-  c #1C0B15",
";  c #180913",
":  c #0A1312",
">  c #091916",
",  c #0C1D1B",
"<  c #071718",
"1  c #131D1A",
"2  c #191E1B",
"3  c #161715",
"4  c #15120C",
"5  c #2B0C0C",
"6  c #32120D",
"7  c #230E1A",
"8  c #280A19",
"9  c #261A19",
"0  c #3C1519",
"q  c #320E0F",
"w  c #0A211E",
"e  c #14201E",
"r  c #1B211E",
"t  c #27231C",
"y  c #181E23",
"u  c #281423",
"i  c #361727",
"p  c #370D26",
"a  c #0D2222",
"s  c #0D2428",
"d  c #122525",
"f  c #1D2522",
"g  c #15252A",
"h  c #142B2B",
"j  c #1C2C2C",
"k  c #162827",
"l  c #18302E",
"z  c #1B2C33",
"x  c #1C3334",
"c  c #1B3739",
"v  c #252926",
"b  c #29332E",
"n  c #25322F",
"m  c #3A352A",
"M  c #3A293A",
"N  c #243434",
"B  c #293532",
"V  c #243639",
"C  c #243B3C",
"Z  c #2B3C3B",
"A  c #253A37",
"S  c #3C3A32",
"D  c #383B37",
"F  c #2F2A2D",
"G  c #4A0D18",
"H  c #47171A",
"J  c #56161A",
"K  c #510E0E",
"L  c #44231E",
"P  c #471C33",
"I  c #4A162B",
"U  c #48283A",
"Y  c #463739",
"T  c #502D2D",
"R  c #712A2F",
"E  c #6B1E23",
"W  c #39453C",
"Q  c #464235",
"!  c #47453A",
"~  c #253D41",
"^  c #2C3E42",
"/  c #3B3942",
"(  c #1A3F4A",
")  c #5B2844",
"_  c #483644",
"`  c #583647",
"'  c #682C4C",
"]  c #792C4E",
"[  c #65334E",
"{  c #6A3654",
"}  c #743354",
"|  c #7D3356",
" . c #7C3A5D",
".. c #78385A",
"X. c #732D54",
"o. c #7D3B61",
"O. c #7D3868",
"+. c #7F3B70",
"@. c #2C4344",
"#. c #274345",
"$. c #374643",
"%. c #394544",
"&. c #354944",
"*. c #3B4A45",
"=. c #344A4B",
"-. c #3A4B4C",
";. c #34454A",
":. c #3C524F",
">. c #2E4C52",
",. c #2E4650",
"<. c #324E52",
"1. c #3C4C53",
"2. c #335156",
"3. c #3B5455",
"4. c #34545B",
"5. c #3B565A",
"6. c #355A5C",
"7. c #3C5A5A",
"8. c #2E5459",
"9. c #3C5C63",
"0. c #3C6465",
"q. c #494A48",
"w. c #4A524B",
"e. c #54544A",
"r. c #454552",
"t. c #425354",
"y. c #425A55",
"u. c #45595B",
"i. c #535C56",
"p. c #514A53",
"a. c #76425C",
"s. c #6A4455",
"d. c #4F615D",
"f. c #415D62",
"g. c #485B64",
"h. c #7C4763",
"j. c #48626A",
"k. c #466467",
"l. c #5C6E6B",
"z. c #56696A",
"x. c #5C7577",
"c. c #536D71",
"v. c #677B78",
"b. c #71746A",
"n. c #777056",
"m. c #8D2D35",
"M. c #A8353D",
"N. c #B73B3D",
"B. c #AD2C38",
"V. c #C33D3D",
"C. c #D23B3E",
"Z. c #AE413F",
"A. c #9E413E",
"S. c #84345E",
"D. c #8A355E",
"F. c #83395E",
"G. c #8A395E",
"H. c #8B3655",
"J. c #973A58",
"K. c #8C354A",
"L. c #AA3B48",
"P. c #BC3E44",
"I. c #B73C48",
"U. c #A63C55",
"Y. c #B53851",
"T. c #853562",
"R. c #8B3663",
"E. c #853A63",
"W. c #8B3A63",
"Q. c #833A6A",
"!. c #8B3B6A",
"~. c #863569",
"^. c #923A65",
"/. c #923869",
"(. c #8E376C",
"). c #C33D44",
"_. c #C43D4A",
"`. c #CA3B49",
"'. c #D33B48",
"]. c #C93D52",
"[. c #D43D53",
"{. c #974451",
"}. c #AC4149",
"|. c #BC4345",
" X c #BD4249",
".X c #B7484A",
"XX c #A94456",
"oX c #B84453",
"OX c #894268",
"+X c #934770",
"@X c #C34246",
"#X c #C14249",
"$X c #CA444C",
"%X c #C6494A",
"&X c #C44251",
"*X c #C94754",
"=X c #D14A52",
"-X c #CD5163",
";X c #6A827D",
":X c #65817D",
">X c #70827F",
",X c #8C8777",
"<X c #4F7582",
"1X c #6B8482",
"2X c #6B8985",
"3X c #6A8786",
"4X c #738C8A",
"5X c #758B86",
"6X c #73918D",
"7X c #78928D",
"8X c #7A9393",
"9X c #6F908C",
"0X c #7498A0",
"qX c #7EA4AF",
"wX c #839A9B",
"eX c #899086",
"rX c #8CA5A7",
"tX c #95ABAC",
"yX c #86ADB9",
"uX c #94ADB1",
"iX c #98B5BA",
"pX c #8CB1B6",
"aX c #A4B8B8",
"sX c #869EA1",
"dX c #89BAC7",
"fX c #92BDCB",
"gX c #93BED1",
"hX c #A1BDC8",
"jX c #96C2CE",
"kX c #8DC4D4",
"lX c #95C3D3",
"zX c #9AC4D3",
"xX c #99C8D8",
"cX c #8EC1CC",
"vX c #A4C9D7",
"bX c #AFCCD1",
"nX c #A8D4E2",
"mX c #ACCEE1",
"MX c #B2E6E6",
"NX c #D3F5F6",
"BX c #D1EDF1",
"VX c #F5EEF8",
"CX c #E9F3F9",
"ZX c #F6F4FA",
"AX c #E9ECF0",
"SX c #C4D8E3",
/* pixels */
"2 3 1 * 1 / &.%.%.%.;.%.%.%.%.%.%.&.$.$.$.$.$.$.$.$.$.$.$.$.$.$.$.$.$.$.$.$.$.$.$.$.$.$.$.$.$.$.$.$.$.$.%.%.W $.$.$.$.$.$.$.$.$.$.$.$.$.$.$.$.$.$.%.%.",
"2 1 1 * , $.*.*.%.;.%.%.%.%.$.%.&.%.$.$.$.$.$.$.$.$.%.$.$.$.$.$.$.$.$.&.$.$.$.$.$.$.$.$.$.$.$.$.$.$.$.$.%.$.&.&.$.$.$.$.$.$.$.$.$.$.$.$.%.$.$.&.$.$.W ",
"2 1 1 * 1 $.*.%.%.%.%.%.$.$.$.$.%.W $.$.$.$.$.$.%.&.%.%.$.$.$.$.$.$.$.W $.W *.*.*.*.*.q.*.*.$.$.$.$.$.$.$.$.$.$.$.$.$.$.%.%.$.$.$.$.$.$.%.W &.%.$.$.&.",
"1 1 1 * 1 $.*.%.%.%.%.%.$.$.$.$.%.%.$.$.$.$.$.$.&.%.&.W $.$.$.$.$.$.q.%.w.F # o # o # o o # # *.w.$.$.$.$.$.$.$.$.$.$.$.%.%.%.$.$.$.$.$.%.%.%.&.$.$.&.",
"3 2 1 : e $.*.%.%.$.%.q.$.%.%.&.%.$.$.$.$.$.$.$.$.$.$.$.$.$.w.w.w.!         @ X .           @     m e.-.$.$.$.$.$.$.$.$.W $.$.%.$.$.$.$.$.$.$.$.$.$.$.",
"2 2 1 : e W *.%.%.$.%.%.$.%.$.$.$.$.$.$.$.$.$.$.$.$.$.$.! S @   O   O X     X O   .       +           v ! w.&.W $.$.$.$.&.&.$.&.$.$.$.$.$.$.$.$.$.$.$.",
"2 2 1 : e / *.%.$.%.%.%.$.$.$.$.$.$.$.$.$.$.$.$.$.$.q.#   o       @   #       5 R E E T &         #     %   t w.$.$.$.$.$.$.$.$.&.&.%.$.$.$.$.$.$.$.$.",
"1 2 2 = e $.&.%.%.%.%.%.$.&.%.$.$.$.$.$.$.$.$.$.$.w.1 X O . @         R A.M.I.P.=X`.$X#XI.M.M.m.    # + O X   F e.$.$.$.$.$.$.$.W %.%.$.$.$.$.$.$.$.$.",
"2 2 e * 1 %.*.%.%.%.$.%.%.$.$.$.&.$.$.$.$.$.$.w.t 3   . - o o q R *X&X$X_.I..XL..X.X XI.@X#X#X}.-XR &       #   4 q.$.$.$.$.$.$.$.$.$.$.$.$.&.$.%.%.$.",
"2 2 1 : e %.%.-.%.%.$.$.$.$.$.$.&.&.$.$.$.$.$.  # O   $   & K.&X%X|.|.P.$X`.*X]. X X#X#X$X`._.P.oX XM.R 3   .   o   Q $.$.$.$.$.$.$.$.$.$.$.%.&.%.$.$.",
"2 2 e * e %.*.e.p.w.q.Y S S S S S m S Y Y S W o     O     I.).|.N.$X_.@X%XZ.N.|.N.P.|.|.Z.Z.N.@X@XV.$X'.B.q   #     # Q *.$.$.$.$.$.&.%.$.$.%.%.&.$.$.",
"2 e 2 : r e.! 2 2 2 o     O     O   X O X 4 .   .     H [.#X.X@X$X|.&X#X).$X$X$X*X*X*X%X*X&X*X&X@X%X@X`.-XoXJ O O O o t e.$.$.$.$.$.&.%.$.$.W %.$.$.$.",
"2 2 f * D O   O                     X       O O     E *X'.N.|.).$XP.M.m.R H H 0 G G G G G G J G L H H H 5 J H X   #     O e.w.W W &.W &.$.$.$.$.$.$.%.",
"r 2 e f &   O       .   7 0 G G J G K K &   O     5 L.oX@X@XN.=X{.H & 4 X X       X                           % + . %   + $ 3 q.w.W &.%.$.$.$.$.$.$.%.",
"2 r r m   X     q R m.m.|.=X%X%X%X=X.X-X& . & X O m._.I..X|. XM.6     X     % O o     O O         O       O X         X X     o   Y Q $.$.$.$.$.$.&.&.",
"2 2 v t   O     m.=X*X.X%X`.N.|.|.I.[.K o       @ B.#X`.I. XI.&             # t.( #.~ c g g c h l l h h h c :             . o   O O   t w.$.$.$.$.%.W ",
"2 r Y     o @ L oX=XN.I.`.].].].`.=Xm.% .       m.[..X|.N.-XU.&     #   n x >.MXnXvXmXBXNXBXBXNXNXNXNXBXNXCXhX0.k.c.k.0.c.  @ : O O O   S %.$.$.$.$.$.",
"2 r m   .   . J |.).|.@X_._. XL..X*XH   @ &   J I.@XI.|.%XM.q .   .   ^ g.c.jXdXgXhXSXVXZXVXZXZXZXZXVXCXVXVXZXCXCXCXCXCXCXrXrXx.        S %.$.$.$.$.$.",
"2 f !   o   H oX@X@X@XV.#XY.H.E.O.X.8   X . & m.$XP.$XP.'.XX4   . O < 3.f.c.jXzXkXjXMXAXZXZXZXZXZXZXZXZXVXVXVXAXCXZXAXZXVXCXnX3X  . .   m %.%.$.$.$.$.",
"2 v Q       K P.'.@X|.+XR.T.OXR.+XU   .   @ J @X$X#X|.'.I.0   o     9.g.9.x.fXxXlXkXlXmXnXmXmXvXmXnXnXmXMXCXZXVXZXCXZXZXAXmXxX3X    o   m %.&.$.$.$.$.",
"2 v Q   +   0 U.Y.J.J.G.G.E.E.+XE.9   .   O E #X_.oX).#XI.q         ;.j.6.k.nXfXlXlXcXlXgXfXgXlXjXcXcXcXcXzXvXvXvXzXvXxXgXgXlXvXz.      m %.%.&.$.$.$.",
"r S 3   +   u E.!.} Q.W.E.!.O.F.U   O   + u ] *X@XY.$X.XI.q +     f u.j.7.k.0XxXxXxXlXlXlXlXlXxXlXlXxXxXcXjXcXkXlXkXgXkXkXgXfXuXt.      Y %.&.&.$.$.W ",
"r Q         u | Q.o.!.S.E.~.!.{ $       ; [ XX@X@X X_.|._.q .     : 1.9.k.4.k.vXdXjXxXxXgXlXlXgXlXzXlXlXjXjXlXzXlXzXzXlXkXgXnX8Xg     X m W &.W $.$.%.",
"r Q o @     P D.W.E.R.E.E.T./.{       . i OXY.Z.|.oX XV.C.T . o     z 5.k.5.c.yXmXxXfXfXlXxXgXlXzXzXzXlXjXzXzXzXjXgXzXzXgXgXdX3XN       m W &.&.$.$.$.",
"r Q . @   u | /.D. .E.G.o.R./.[     . % s.(.Y.@X|.|..XC.$X{.4 .       1.u.i.9.j.<XyXzXvXgXgXlXlXlXjXjXlXlXlXlXxXzXlXgXlXjXzXqXf.N     . m &.&.&.&.&.&.",
"r Q O @   - S.W.T.R.R.R.O.E.^...      ; { U.]. X|.I. X@X`.}.L o   + o   u.k.j.9.f.9.f.0XyXyXqXdXyXyXyXyXyXyXyXyXyXyXyXdXqX0.y.B   .   O m &.&.&.&.&.&.",
"f Q o O   - | ^.o.W.W.W.o.o.W.)       ; { J.].|.|. X#X@X%X|.XX&     +   f V f.k.9.j.9.j.j.9.g.g.k.9.f.f.k.f.9.9.k.j.5.,.g.1.,   O O o X Y W W W &.W W ",
"f Q o O   - | R.o.W.R.W.o.E.| 8       ; { J.oX@X@X X).@X X).I.R   O     O   e u.1.g.u.u.9.u.g.f.9.u.f.f.f.9.7.k.7.5.z.z.;.#   O   @ . S e.&.=.*.&.=.W ",
"f Q o O   - | ^.o.W.W.G.F.E.}       O i E.W.XXP.@X@X X X|.$X$X}.6   o X         y %.t.j.k.k.k.g.j.g.j.g.g.g.j.g.=.%.Z     O   o O   q.D n b b b W n n ",
"r ! O O   7 | ^. .W.W.R.F.W.}     . # [ (.R.XXP.#X#X%X%X|.N. XP.oXE         o       @ , @ * < < < < < < < : : , X         O O .   m # * * * * * X * * ",
"v ! o O   - | ^.o.T.W.G.W.W.}     . o ..(.~.J.XX#X$X|.I.$X@X.X@X'.*XXXR .                 O .                   O     O   .     Q 1 3 4 * : 4 4 3 4 > ",
"f ! o @   7 | W.OXS.W.E.G.E.`       $ [ /.(.O.J. X). X X@X|.|.|.|.@X$X.X{.E & o .                           . . O O   o 6 T   O   S 2 2 2 r r e e 3 e ",
"v ! . O   7 S.R.OXS.W.E.W.| 8       $ [ W.(.Q.{.#X).#XP.|. X X#X XP.I._.&X&XL.K.. 5 5 5 5 5 5 5 5 5 5 5 5 5 5 6 6 5 H K.$XI.    #   f r 2 2 e e 3 e e ",
"e Q   @   - H.W. .S.W.E.E. .      O + ) W./.E.H.oX#X#X#X_. X@X X#X#X$X@X_._.).$X&X&X*X$X_.&X&X$X&X&X&X&X$X].&X X_._.#X%X|.A.        2 : * * * * * * 4 ",
"3 Q O O   7 S.G.o.S.W.OXS.... O     U | W.S.Q.W.J. X#X|.@X X#X#X#XP.P.I.|.|.@X X@X|.|.|. X X|.@X@X|.#X).|.|.@X@X$XP.P.%X'.B.    :   1 > > > > > > > > ",
"e !   O   7 | R.OXS.W.F.E....     o } OXG.T.!.Q.R.XX#X X). X#X X@X_.$X%X|.P.|. X X|.|. X X|. X.X|..X X X X|.|.P..X.X.XZ.P.L.  O     &.#.#.#.W ( ~ ~ W ",
"S W       - } ^.E.E.E.E.W. .o       I } G.R.Q.O.T.J.XX X@X).). X&X_.P.@X X#X#X_.@X#X@X).@X@X#X).@X X#X@X#X).#X$X`.`.#X|.P.L.    O   3.2.2.2.<.2.8.>.:.",
"Q % #     7 ..^.| h.W.O./.|     o   + ` R.R.E.Q.T.S.J.U. X@XV.#X X X#X|.|.#X#X|. X X X X X X X X@X X#X X X XP.@X).@X|.%X'.M.    O   5.2.<.2.<.<.<.<.>.",
"Q % @     -  .R.S.E.G.E./.| i       + [ OXR.Q.E.T.E.E.J.oX@X@XV.). X#X#X X X#X|. X)._.|. X_.#X#X X#X X#X#X#XoXoX@X@XN.N.).M.    O   3.2.2.2.2.2.2.2.<.",
"W 4 @ O   ; | ^.W.OXS.Q.E.OXa.      O ) R.R.!.E.T.Q.Q.R.J.L. X@X@X|. X#X).@X X_.#X X@X X#X|.#X#X#X|.@XP. XP.$XV.N.%X XU.U.K.    O   3.2.2.=.<.<.<.>.>.",
"q.S       3 } ^.T.o.W.W.E.T.X.        7 } R.W.G.E.E.Q.E.R.J.U.XX X|._.|.#X X@X@XP. X#X_.#X#X#X#X#X|. X X#X XV.$X XU.J.S.[ $     O   5.<.5.<.4.<.2.2.2.",
"x ,X#     O P R.OXo.R.S.E.R.S._     O $ ' ^.T. .W.S.R.E.O.Q.T.J.U.@X@X#X#X). X#X#X#X|. X#XP. XP. X_.|.|.@X@XN..XXXG.!.+.s.      O   3.<.4.<.<.2.<.2.>.",
", b.. =     8 ' o.E.E.G.| T.Q.[   X   # u { +XS.T.W.W.E.E.E.E.E.W.G.J. X#X%X@X XoX X X XP.|.|.$X@X X X X@XV. XU.R.~.+.+X.         g.2.2.<.4.<.<.2.<.<.",
"r v.S   o     + + a.W.F.+X~.!.| p       7 ..R./.E.T.E.E.R.E.R.E.E.O.W.J.L.|.@X$XV.V.@X#X|. X#XoXP.@X`.|.oXL.J.H.D./.!.I $   O @   u.4.4.4.<.4.<.<.4.2.",
"e l.b.  O @   o   $ p ' { X.| +X)       7 OXS.R.Q.E.E.E.E.W.W.E.W.Q.E.T.G.J.L.I.@X#X%X$XI.#XP. X#X@X).Y.J.~.h.O.OX .| .     O   g.2.4.1.4.>.>.8.4.>.4.",
", l.eX,Xf   $ +   @ O   o $ 8 U i       $ P G.G.o.E.T.W.E.T.E.E.W.H.G.O.E.E.R.D.R.J.J.U.Y.oX#X). XU.OXW.~. .~.(.{ & . # O O     g.4.4.4.4.4.4.2.<.4.>.",
"1 l.>X5X7X5XW     . . X X O       X       7 { OXE.E.W.E.W.E.W.E.G.H.G.E.O.Q.Q.Q.+.Q.E.R.J.J.U.U.U.W.E.O.E.W.W.' -   X         d.4.4.4.4.4.2.2.4.2.8.4.",
"1 l.>X>X5X7X7XeXe.2 . X     . . o X         0 } T.R.E.E.W.T.T.E.E.+.E.E.W.G.R.E.S.W.E.E.O.O.O.+.O.T.W.R.T.Q.) o X O   $ % v d.4.4.4.1.4.4.4.2.4.2.2.2.",
"1 l.v.3X9X6X6X4X7X4Xv.i.9 o 4 #   w.b   +     i OX/.W.W.R.E.E.R.D.W.W.T.E.W.T.E.W.G.E.~.o.W.W.OXW.^.^.G.h.i   O   @ X 4 d.5.4.4.4.4.9.8.2.4.4.4.>.>.4.",
"1 l.;X2X9X9X2X4X7X4Xv.y.w k b.u.7.8.d.: +     $ ) F.!.R.R.!. .| W.E.E.E.E.E.W.E.S.F.~.!.!. .' 8 p U { I ;   #   X   v f.7.5.4.9.8.9.8.9.4.4.4.4.4.4.>.",
", l.1X2X3X3X1X1X5X4X<Xy., s 3.3.5.4.f.v     X   9 [ OXW.S.R.OX .T.W.E.W.G.E.E.W.E.E.W.R.R.' - O     $         4 % F 8.8.6.8.4.9.9.8.8.8.8.8.8.8.8.8.4.",
"1 l.1X2X3X1X1X1X1X4X5Xy., d <.3.4.>.w.  .         7 ) G.R.E.W.F.F.E.E.E.W.T.E.E.F.OXW.R./.[ ;       O O +   O   m 8.8.6.9.6.4.4.8.8.9.9.8.9.8.8.4.4.4.",
", l.2X2X2X2X4X3X3X4X1Xy., s >.3.2.d.o               $ [ OXR.T.E.S.E.E.E.W.E.E.G.D.E.Q.G.^.' - X   . + .       O 2 i.8.9.9.4.4.6.6.4.9.4.4.4.2.4.4.2.2.",
"1 l.;X2X9X6X6X1X1X5X1X7.w s >.4.2.m     O . $ . O O   p E.R.R.W.G.E.W.T.E.T.E.R.R.G.o.W.^.' -     o p U M .     . 3 7.9.6.9.6.6.4.4.4.8.4.4.4.2.2.2.3.",
"3 l.:X;X9X9X9X1X1X4X1Xy., d =.3.3.  . X   8 )   X X     a.G.R.(.E.W.E.E.E.W.E.E.O.W.G.o.(.} ;   o + ' +X| p     O 9 g.9.9.9.4.5.5.5.3.3.3.3.3.:.1.1.3.",
", l.;X2X9X2X9X1X1X4X1Xt., y %.r.p.      $ U | M         U | D.!.o.T.W.E.E.W.E.E.Q.R.G.T.(.X.&   . + ) /.E.'       2 p.r._ r.r.r.r.q.r.r.q.w.p.e.r.q.q.",
"w l.:X2X9X1X2X3X<XeX2Xy.2 - M / M     O 7 a.E...        + ..S.E.O.W.E.E.E.E.T.W.Q.R.G.o.(.X.& o . + ' (.R.| .   O 9 _ / M M M M M M M M U Y Y U Y U Y ",
", l.:X2X9X1X2X1X<X7X1Xy.1 u / _ p.        0 E. .8         a.T.!.Q.G.R.E.W.E.E.E.Q.R.E.F.+X' ;   . + ) !.+X}     O 9 ` _ / _ _ / _ _ U D _ _ q._ ` Y _ ",
"1 l.:X3X9X1X2X1X>X4X1Xy.w w @.5.d.    .   X P OX`         a.E.T.E.E.E.E.E.E.W.E.Q.R.T.o.(.' ;   . + ) !.X.i     O t u.u.5.5.r.9.u.t.t.3.t.t.t.:.t.w.-.",
"e l.1X3X3X1X2X1X>XeX1Xt.w w #.6.7.t.        + & &     O    .E.E.E.E.E.G.G.W.T.E.E.R.E.T.!.' $     $ ) o.p     O O 2 5.6.9.9.9.9.6.9.6.6.6.6.7.2.7.4.5.",
"> l.;X2X9X:X2X1X;X5X;Xy.w w c =.>.3.F # O O #   O   X   p T.Q.OXS.E.E.E.E.T.E.W./.T.Q.+X' 8   O             = #   q.#.>.,.,.>.>.>.>.>.>.>.>.>.>.,.,.,.",
"1 l.;X;X9X:X2X1X;X5X;Xy.w w l W W C i.m #               h.R.W.T.R.W.E.R.E.W.E.E.T.T.T.R.' 8 X O       O O     + q.c c ~ ( ~ ~ ~ #.~ ~ ~ ~ ~ ~ C C ~ C ",
"1 l.2X2X5X2X:X:X2X5X;Xy., , x W Z Z A Z $.g #   o       h.S.W.E.R.W.E.E.W.E.W.G.T.!.D.OX} 7   O   .         # w.~ c V ^ ~ V ~ ~ C C A A V C A A A A A ",
"1 l.>X1X6X9X;X;X2X2X;Xw.w > A =.&.&.-.;.$.$.$.w.        ..R.!.!.S.W.E.G.E.E.T.E.S.D.G.F.U .     % ! m v t i.Z ^ ^ ^ ^ ^ Z V V Z Z Z Z Z Z Z Z Z Z Z A ",
"1 l.;X5X7X6X9X9X9X5X;Xy.w > n &.&.W @.=.&.%.%.%.#       ..R.E.E.W.E.T.E.E.W.W.W.W./.E.` ;   o o % n.%.W $.b.Z Z Z Z Z Z Z B A Z Z Z Z Z Z V B V Z B Z ",
"w l.;X>X7X6X6X6X9X5X;X:.e > j W W c W A C V V V @ O     h.E.!.E.E.R.R.W.R.R.~.R./.E...i         Y W b b n n b b n n b B B B n B b b N B B B M B B B N ",
"1 l.;X;X7X6X9X6X6X5X;Xy.w > r j h s a h h g g Z     . + 3 - i o.OXF. . .o.T. . .S.OXU # @ O   # j v v v j j j j j j j n v j j v j j j j j j z j j k j ",
"e l.;X;X6X6X6X7X6X5X:Xy.w * w w w a w w a e a D !       O       p ] ] ] ] ] ] ] { 8   O   X = k > w w w 1 e , , , < : < , , w w , 1 , , , < < < < < > ",
"3 l.:Xv.2X2X2X2X3X;Xv.u.w , k v l l x l A W V V b.  X   . o   X                 o       X   # / g V ^ z A x x k g h g l h l g h A x l c x a d d k h a ",
"> v.wX5X6X5X6X5X5X8X8Xl., < t.7X2X;X;Xy.l C V Z i.,X! Y X     + .                         d.x.c.#.c ~ c C C x 7.x.v.x.x.x.c.=.c C x x A x 3.z.x.c.l.c.",
"3 i.:X:X1X1X2X:Xv.:X;Xu.g > v.bXbXbXbXrX#.#.C C / $.rXbXaXaXtX  O O                     aXaXzXaXx.~ ~ h ~ C f.uXiXiXiXiXiXiX3X~ c x l c y.rXrXrXuXrXrX",
"* > , w a , w , a a e a : < l.aXtXtXwXb.W #.V c ^ ^ 4XuXtXuXtXtX8Xx.W x #.x W c k.rXrXrXwXrXwX5Xu.c ~ x c C 2.8XsXwXwXsX8X3Xu.x c c x x @.2X8X8X8X8X7X",
"r 3 e e s s w w , , a d d d Z -.=.=.C x ^ ,.V ~ ^ V ~ ,.;.^ ^ 1.^ V V ^ Z c C c l #.=.&.#.=.C c c V @.x x Z s c W @.W c W c h x A h x V g x ^ C ~ ~ V ",
"W v n W W #.W c s l B g g j g d h h h l z z z z V z z g z g z g g g h N N g j N l d w a d k a j N j j j j k j k w a d k d a j h j j h g g z s g a a g ",
"W n j W W W A x N r.u.u.t.3.1.3.3.=.3.3.<.5.9.<.1.1.1.1.1./ 1.1.-.1.3.-.1.-.1.-.=.=.:.:.=.-.=.*.%.*.=.;.&.&.&.;.&.&.&.;.@.W ;.W &.;.;.;.^ ;.^ $.,./ ^ "
};
