/* XPM */
static char *result[] = {
/* columns rows colors chars-per-pixel */
"75 75 242 2 ",
"   c #020202",
".  c #0A0304",
"X  c #030904",
"o  c #0C0A06",
"O  c #03040A",
"+  c #0B040A",
"@  c #030A0B",
"#  c #0A0C0B",
"$  c #120304",
"%  c #15050D",
"&  c #130B0C",
"*  c #180707",
"=  c #0A120F",
"-  c #04120E",
";  c #15130E",
":  c #1A160E",
">  c #070813",
",  c #190813",
"<  c #0B1411",
"1  c #0A1916",
"2  c #0C1C1B",
"3  c #061818",
"4  c #131513",
"5  c #141D1B",
"6  c #191E1B",
"7  c #181916",
"8  c #280708",
"9  c #270A19",
"0  c #26141B",
"q  c #391415",
"w  c #2D1111",
"e  c #14201E",
"r  c #1A211D",
"t  c #0E211E",
"y  c #2A251A",
"u  c #181B24",
"i  c #37182A",
"p  c #3B1A31",
"a  c #2C1324",
"s  c #0D2222",
"d  c #132525",
"f  c #16262A",
"g  c #1B2C2D",
"h  c #162A29",
"j  c #18302F",
"k  c #1C2B33",
"l  c #1B3333",
"z  c #1B3636",
"x  c #272A26",
"c  c #29332E",
"v  c #24352F",
"b  c #373529",
"n  c #3C2834",
"m  c #243435",
"M  c #233639",
"N  c #243B3B",
"B  c #2B3B3B",
"V  c #293635",
"C  c #3B3A32",
"Z  c #373B36",
"A  c #322D25",
"S  c #461617",
"D  c #510F19",
"F  c #461B33",
"G  c #4B1728",
"H  c #651D23",
"J  c #7E1F2A",
"K  c #462437",
"L  c #473838",
"P  c #502B2F",
"I  c #672529",
"U  c #782A34",
"Y  c #723035",
"T  c #5B1A1D",
"R  c #33433D",
"E  c #454338",
"W  c #564B3B",
"Q  c #293D42",
"!  c #313E44",
"~  c #552842",
"^  c #4D3A42",
"/  c #5B354A",
"(  c #4F2740",
")  c #642C4B",
"_  c #742D4E",
"`  c #67334C",
"'  c #792E53",
"]  c #6B3754",
"[  c #733355",
"{  c #7B3B5D",
"}  c #78355A",
"|  c #6C2D50",
" . c #7D3A63",
".. c #7B3765",
"X. c #2C4344",
"o. c #294447",
"O. c #374643",
"+. c #394544",
"@. c #344943",
"#. c #3B4945",
"$. c #354A4A",
"%. c #3A4A4B",
"&. c #33464A",
"*. c #324E52",
"=. c #3C4C52",
"-. c #335156",
";. c #3A5354",
":. c #34545A",
">. c #35585B",
",. c #3D595C",
"<. c #3C565A",
"1. c #334E52",
"2. c #3E5D62",
"3. c #355962",
"4. c #3D6066",
"5. c #474A48",
"6. c #4B524A",
"7. c #53544B",
"8. c #54564B",
"9. c #434C51",
"0. c #425C5E",
"q. c #465757",
"w. c #545B56",
"e. c #524B45",
"r. c #6B4A56",
"t. c #56625C",
"y. c #4F615C",
"u. c #6C6759",
"i. c #425C62",
"p. c #475C64",
"a. c #7C4363",
"s. c #446164",
"d. c #4B6265",
"f. c #49656A",
"g. c #5C6E6B",
"h. c #546A68",
"j. c #597477",
"k. c #576A72",
"l. c #657B79",
"z. c #6E7269",
"x. c #922D38",
"c. c #B93B3B",
"v. c #A93A3F",
"b. c #C63A3B",
"n. c #BA433E",
"m. c #CA403D",
"M. c #84345E",
"N. c #8A355C",
"B. c #843A5E",
"V. c #8B395C",
"C. c #893354",
"Z. c #923B5C",
"A. c #9A3959",
"S. c #91344D",
"D. c #AA3C48",
"F. c #B63C43",
"G. c #BD3E45",
"H. c #BD3E4B",
"J. c #B53A49",
"K. c #A53B55",
"L. c #B63E55",
"P. c #853662",
"I. c #8B3562",
"U. c #853A63",
"Y. c #8A3A64",
"T. c #8B3769",
"R. c #843B69",
"E. c #8C3C69",
"W. c #85376A",
"Q. c #923B65",
"!. c #933B6A",
"~. c #963665",
"^. c #8F3267",
"/. c #C33D43",
"(. c #C43D4B",
"). c #C93B47",
"_. c #D43C4B",
"`. c #C53D52",
"'. c #A9434A",
"]. c #B44344",
"[. c #BD4246",
"{. c #BE4249",
"}. c #B8474B",
"|. c #A94358",
" X c #BA4555",
".X c #894368",
"XX c #92446E",
"oX c #886866",
"OX c #C24245",
"+X c #C14149",
"@X c #CA434B",
"#X c #C6474A",
"$X c #C44352",
"%X c #C94854",
"&X c #D24755",
"*X c #D4444D",
"=X c #C94F62",
"-X c #6B827D",
";X c #79837A",
":X c #9F8F78",
">X c #5D7B81",
",X c #647D83",
"<X c #6B8582",
"1X c #6A8685",
"2X c #748B88",
"3X c #74928E",
"4X c #7A938D",
"5X c #799495",
"6X c #698E97",
"7X c #7B9CA3",
"8X c #7DA1AA",
"9X c #54808D",
"0X c #849A98",
"qX c #969D90",
"wX c #A79985",
"eX c #8CA5A7",
"rX c #93ACAC",
"tX c #93B1B5",
"yX c #A5AA9D",
"uX c #8EBCCB",
"iX c #8AB9CA",
"pX c #93BECC",
"aX c #97BCC9",
"sX c #9EBED1",
"dX c #A3BEC3",
"fX c #96C2CE",
"gX c #8DC3D3",
"hX c #95C4D3",
"jX c #99C5D4",
"kX c #9AC9D8",
"lX c #AAC6C9",
"zX c #A7CAD5",
"xX c #B4D0D6",
"cX c #AED6E4",
"vX c #B5E5ED",
"bX c #C2D2DE",
"nX c #C8DBE4",
"mX c #CFEAF3",
"MX c #F7EDF4",
"NX c #E8F2F8",
"BX c #F6F5F9",
"VX c #ECECF1",
/* pixels */
"6 7 5 - 5 O.+.+.O.+.+.+.+.+.+.+.O.O.O.O.O.O.O.O.O.O.O.O.O.O.O.+.O.O.#.+.O.+.O.+.O.O.+.O.+.O.%.O.O.R O.O.O.O.O.O.O.O.O.O.O.O.O.O.O.O.O.O.O.O.O.O.#.O.O.",
"6 5 5 - 5 ! #.+.O.+.+.+.+.+.O.+.O.O.O.O.O.#.O.O.O.O.O.O.O.O.O.%.O.#.8.C C C C C C C C C C C b 8.+.9.O.O.R +.O.O.O.O.O.O.O.O.O.O.O.O.O.O.#.O.O.O.O.O.O.",
"7 6 6 - 5 O.#.+.+.+.+.+.+.O.O.+.O.O.O.O.O.O.O.O.O.O.6.6.6.8.          @ O     O     O   O > O     o 8.6.+.+.O.O.O.O.O.#.O.O.O.O.O.O.O.#.R O.O.O.O.O.O.",
"6 5 6 < 6 O.#.+.+.&.+.+.+.O.O.O.O.O.O.O.O.O.O.O.6.8.4               .   .                         .   & 6.7.w.@.O.O.O.O.O.O.O.#.O.O.O.O.#.O.O.O.O.O.O.",
"7 5 5 < 5 O.#.+.+.+.5.+.O.O.O.O.O.@.+.O.O.O.+.q.; X + .     O O         X q q q q q q q 8     .     X     X . 6.O.O.O.#.O.O.O.O.O.O.O.O.O.O.O.O.O.#.O.",
"5 5 5 < 6 ! #.+.+.+.+.+.O.O.O.O.O.O.+.O.O.O.5.e.  @     * X     q Y U x.x.+X%X$X%X%X$X%XJ.x.x.Y w     .   . &   E 5.O.O.O.O.O.O.O.O.O.O.O.O.O.O.#.R O.",
"6 6 5 < 6 +.+.+.+.+.+.+.O.O.O.O.O.O.O.O.O.O.y   % O @ X . =X$X(.(.+X+XOX@XOX/./.OXb./.n.OXn.[.H.H.K.S     < #   r 8.O.O.#.O.O.O.O.O.O.O.O.O.O.O.O.O.O.",
"6 5 6 < d R +.+.+.&.+.#.O.O.O.O.O.O.O.#.@.8.    X +   S  X).F.}.{.[.+XOXF.[.[.H.[.[.OX#X}.].+XOX].{.&X$XG   X . X ; 8.O.O.O.O.O.O.O.O.#.O.O.@.O.O.O.O.",
"6 e 6 = r R #.+.+.+.+.+.+.+.+.+.+.O.O.O.5.X +   @ X x.@X#X[.+X[.+X+X(.).@XOXOX{.G.G.G.G.[.G.G.).).b.c.#XD.8     . . A 6.#.O.O.O.O.O.O.O.O.O.O.O.O.O.+.",
"6 5 5 < 6 +.+.#.+.+.+.+.+.+.O.+.O.O.O.O.y   O   X X S.#Xc.}.[.#X{.}.].}.].[./.OX#X@X@X%X*X*X#X%X%X%X$X&X*X'.w X X . @ e.#.O.O.O.O.O.O.O.O.O.O.O.O.O.R ",
"6 6 6 3 e +.+.+.+.+.+.+.+.+.O.O.+.O.+.8.#   . O X D._.{.n.).[.OX).[.}.n.*XOX/.$Xx.H I U I I I H I I I H T I G $       : w.@.O.O.O.O.@.#.#.O.O.O.O.#.+.",
"6 6 6 - 6 O.#.+.&.+.+.5.5.#.#.9.+.+.+.x         I D.OX(.}.@X[.].G.`.&X].U q q q .                       X X   > O + O O o A 8.6.6.O.@.@.R #.O.O.O.O.+.",
"r 6 r < d 6.7.7.C : 4 4 ; : :   e.8.A   . .   w x.%X#Xc.{.$X#X).&XS.H w X $ $ .   +   O . . . . o   X .   4 +       . O @ + # : . e.O.R O.O.O.O.O.O.O.",
"r 6 6 3 C             . X   . X       <   X   U %XG.G.}.).].OXx.D *   O     @         > > > > > O       O         >   .     O @ <   P #.O.O.O.O.O.O.O.",
"6 6 x x   > > O   X   . . .   X X     @   $ I ].#X{.#X#X/.$Xx.$ X X . + o % . < ! k 3.tXhXzXcXcXxXcXcXzXxXnXcXxXxXbXk.k B   . . .   . C O.O.O.O.O.O.O.",
"6 r :   .     . $ * T U I Y S 8 $   . +   P =X@XF.}.c._.#XD.q $   X O     d >X8XvXcXcXiXsXnXBXMXMXMXMXBXMXMXBXBXMXBXBXmXzXk.=.  . X   o 8.O.O.#.O.O.O.",
"r x b   + O   H '.v.H.%XH.%XOX}.P   % O . T (.+X'.+XOXn._.Y     .     2 B 9XcXhXuXhXuXpXzXNXBXVXBXBXBXBXNXBXMXVXMXVXVXVXnXcXkXf.        Z #.#.+.O.O.O.",
"6 E   o     q %X$XG.@X(.G.[.c.=XU   . . q ].OXOX]./.).#X'.8         3 2.7XkXgXfXjXhXkXhXpXzXnXnXnXnXnXNXMXVXVXVXBXBXBXNXnXiXhX7Xx   O     7.O.O.O.O.O.",
"x R X . X   T ).G./.OXOX/.+X%Xx.8   @   S $X#X[.{.$X@XD.G X       V ,.j.aXjXpXkXkXuXjXhXhXhXuXuXfXaXfXxXVXNXNXBXmXnXzXxXiXgXgXzXtXm O     6.+.R O.O.O.",
"L o $ .   y }.@X).#X].]./.(.J.H   O O   q H.).{.#XG./.}.8 @       %.i.3.hXhXjXgXkXkXgXkXgXgXgXkXhXgXfXhXzXsXsXfXsXjXpXsXjXkXgXuXzX+.      e.+.+.O.O.O.",
"L . +     T c.G.+X+Xc.).%X XY     . $ * x. X).OX@X].OX$Xw O .   6 9.0.f.fXkXhXgXhXkXpXhXhXkXkXhXgXfXzXjXkXkXkXjXkXhXuXhXuXfXkXkXzX!       e.O.O.O.O.#.",
"E o O X w x._.G.b.@X X|.Z.V.)       * F K.$X/.OX/.}.OXF.8 .     B d.s.4.j.kXhXhXhXhXkXhXhXsXhXhXjXjXjXhXhXhXfXhXhXhXhXhXkXaXpXpX,Xr   O   8.O.O.R O.R ",
"E * .   S F.@X X).@XK.Q. .I._       % | V.`.OXG.H.OXH.H.8       B d.2.>.s.6XtXhXpXiXuXgXhXhXjXpXhXhXhXhXhXhXhXhXhXhXhXgXiXcXtXj.2.2       8.O.O.#.R +.",
"E o .   q D.H.L.|.K.V.I.R.E._       & ' XX(.n.[.{.(.+X(.8 O     B d.,.i.2.-.3.5XzXzXjXkXjXhXkXhXhXhXhXhXhXhXhXhXjXhXhXfXkX8X3.4.w.2 .     e.@.@.#.O.#.",
"E * .   9 C.~.N.Q.~...P. .Q._     . % [ Z.H.[.[.G.[.+XH.8 O     ! d.,.2.s.d.<.0.>.f.6X8X8X8X8X8X8X8X8X8X8X8X8X8X8X8X8X8X5X3.2.f.f .     O 7.@.@.$.@.@.",
"E o .   9 ..T.R.{ T.R.E. .Q._       % [ Z.$XOX[.{.(.{.(.8       +.d.i.i.,.f.<.s.f.<.:.i.i.i.i.i.i.i.i.i.i.i.i.i.i.2.i.,.f.s.p.Q #         e.@.@.@.@.@.",
"L o .   a ..E.V.P.Q.B.I.U.Q._       % [ Z.(.OX[.{.+XOXH.w O     f i.i.i.i.2.p.i.<.d.d.0.2.i.i.i.i.i.2.2.i.i.i.i.i.i.i.0.<.0.p.f   &   . C #.@.@.R @.R ",
"E o     9 [ E.T.U.N.R.I.I.E._       & } Z.$Xc.OXH.].).{.8 X . #   j >.i.p.2.2.2.2.i.i.2.i.i.i.i.i.i.p.p.i.2.4.,.3.i.4.4.d.q.6   @     7 6.#.#.#.;.@.R ",
"E o     a [ E.P.U.~.R.Y.P.I.|       , [ V.$Xm.G.{.#X).F.S     . $   - ;.4.i.d.f.s.0.i.s.0.0.0.0.i.i.i.,.i.p.s.i.d.p.*.0.=     & X   . C c v c v R c c ",
";       9 [ Y.Y.B.~.} E.E.R.)   X   &  .V.J.#X+X].(.#XOXD.$ .     X         < B 9.%.%.O.$.%.$.%.&.%.$.%.+.%.%.+.%.B 2   . O O   .   C o - # = - X - - ",
";       i [ T.R.R.I.Q...U.' 9   X X % { Z.$Xc.[.}.).OX[.{.U .       O O                                           .   .     O     C 4 ; 4 4 ; 4 4 4 ; ",
"&     , / I.I.P.U.} !.U.Y.' .       % ' Z.%Xc.+X}.H.#Xn.+X X`.S.o   X     . .               . .   .   .     X           O   y A c 5 r r 7 r 4 r r 7 r ",
"4 .   9 | Q.I.Y.P.R.~. ..X_       . n } ~.(.OX+X{.}.OXc.#X).OX].D.x.S.Y -                                           . O   e.c 6 u 6 6 6 6 r r r 5 7 r ",
":     0 [ T.C.U.B.B.P.Q.A.| +     o ] I..X'.).G.{.#X+XH.}.+XOX[.+XOX+X{.[.F.F.F.F.F.F.F.F.F.F.F.F.F.G.F.F.J.F.c.c.H.+     ; C < < < < < = = = 3 - = - ",
";     , ` .XI.P.U.U.B.Y.U.|       + / Y.V.S.`.OXOX{.{.{.{.{.(.[.+X+X+X{.+XG.G.G.G.G.G.G./.G.G.G.H.G.G./.{.{.{.b.].$X$       L 1 2 2 3 3 1 3 3 3 3 3 1 ",
";     O F M.Y.P.U.B.B.Y..X]         0 { B.Z. XOXOX/./.#X{.H.[.{.OX+X+X/.+X{.+X[.+X[.+X+X+XOX{.+XOX[.OXG.{.{.{./.].$X$       w.o.o.o.Q Q X.o.R N o.R R ",
";   X   q | E.W.U.U.U.U.V.]         & [ T.E.K.(.OXOXb.OX+X{.{.+X+X[.H.+XOX+X[.(.+X{.+XG.+X[.{.{.+X{.[./.{.{.+XOX].$X$   O   t.:.-.-.-.1.*.:.*.*.*.*.*.",
"L .     9 [ E.W.V.M.U.I.Z.{ p   . . , ] !.P.C.D. X+XOXOX+X[.+X+X(.+XOX+X{.+X+X[.+X{.+X{.+X+X+X{.+XG.{.OX{.{.+Xn.].$X$       w.-.:.:.-.=.*.*.*.*.*.*.*.",
"E o     9 | Y.!.U.U.U.M.N.Y./   . . & ] ^.Y..XK. X+XOXOXOXOX[.(.{.[.OX{.OXH.[./.[./.H.OXG.(.[./.{./.{.[.{.H.{.OX[.$X$       h.-.:.1.-.-.-.-.:.-.*.*.*.",
"E o   O   & B.E.M.Y.B.I.B.Y._       , ' R.B.B.Y. Xm./.}. XOX{.+XOX{.{.+X+X{.+X{.{.+XOX[.{.[.H.OX+X[.{.(.@X{.}.}.b.&X.   O   h.*.:.1.1.1.1.1.:.! *.*.*.",
"R L   .   0 B.E.M.Q.B.I.U.Q._       % C.W.U.M.V.A.J.+Xn./.@X+X[.+XH.OX+X[.(.[.OX{.{.{.{.{.+XH.+X(.[.[.[.@X$Xc.OX/.&X$       d.:.:.-.-.-.-.-.:.:.:.*.-.",
"c z.X .   9 } !.U.Q.{ T.B.Y._       % ' R.U.V.P.E.XX Xb.b.{.+X+X{.OX+X{.+X+X+X+X{./.[.(.OX+XOX{.[.+X+X[.+X+X}.#X).S.o       y.-.:.-.-.-.-.-.*.*.*.*.*.",
"r 8.. .   i ..I.M.Y.B.I.U.Q._       % M.R.I.M.U...R.K.}.OXG.[.[.+X+X+X[.[.+X[.+XH.+X+X{.[.+X{.+X+X{.{.OX]./.{.J.`.9         y.-.:.-.:.-.-.-.-.*.*.-.*.",
"t u..     + G W.U.U.B.T.U.Y._       % ' R.R.B.U.P.R.I.|.%XOXOX{.[.+X[.(.+X+X+X+XOX+X+X[.+X(.[.+X+X[.OXG.G.(. X].D.w .       y.>.-.:.-.-.-.-.-.-.-.-.-.",
"6 7.  O     G a.U.I. .Y.U.Y.|       % ' U.U.U.Y.N.N.R.I.K.OX+X{.OX(.OXOX/.{.OX{.[.+X{.{.OX+X{.{.(.[.+X[./.`. XL.S   O     w.>.:.:.:.:.-.:.-.-.-.-.:.*.",
"4 l.e.  O   * ( T.R.R.M.Q.B./     . + L Y.~.P.B.U.E.U.C.A.|.J.{.H.[.n.#XOX/.).+XG.G.}.{.OX(.+X+XH././.G.}.L.A...,     O   w.>.:.:.:.:.:.:.:.-.-.-.-.:.",
"5 g.y   O     K XX.X.XY.~..X`         0 ' T.Y.I.U.R.P.M.N.V.Z.A.A.|.J.OX+XH.H.#X+X+X/.b.H.J.+X).@XOX+X|.V.C.XXn O       w.:.>.>.:.:.:.:.-.:.:.-.*.:.:.",
"2 g.;XO     . # F F p F G K i         9 } E.R.V.P.P.R.R.P.M.R.R.Y.Z.A.A.K.K.K.K. XJ.{.+X}.H.#X+X/.K.A.Y. .M..Xi         7.:.:.>.:.:.:.-.:.:.-.:.:.*.*.",
"2 g.,Xu.  X   @                       , { XXM.B.U.I.R.Y.Y.U.V.M.V.R.R.P.R.P.P.V.Z.A.~.|. XJ.H.'.K.V.....W.I.U.K       5.,.<.:.:.>.:.:.:.:.:.:.:.*.:.*.",
"5 g.-X1Xb   .                         , [ Y.R.U.U.Y.V.U.Y.U.R.I.P.W.P.W.W.U.R.R.R.B.P.M.M.N.I.M.P.R.W.P.I.V.R.p       5.:.:.<.:.:.:.3.:.:.:.:.:.:.*.*.",
"5 g.<X1X;X  .         + 9 9 9 &   X   . F W.T.P.I.V.B.U.N.Y.W.W.Y.E.I.P.M.M.B.U.U.R.R.U.W...R.W.W.U.Y.V.U.~..Xp     . E 3.:.>.3.3.:.:.3.:.3.:.:.:.*.:.",
"1 g.-X2X5.        X   , / .X ./ 0   # X , ) E.N.E.M.M..XM.U..XY.P.P.P.V.R.U.V.Y.U.M.U.U.R.Y.U.V.U.V.U.R.P.N..Xp     .   w.>.>.>.:.3.:.>.:.:.:.:.:.:.:.",
"5 g.;X  .     X   .   9 ' !.^.Y.F         X ~ .XM.M.!.V.R.B.M.P.W.R.U.R.Y.U.U.U.U.Y.I.U.U.U.U.U.U.U.U.U.{ I.XXF O X     O d.:.>.:.3.:.3.:.:.:.:.*.:.:.",
"e u.  X X       i a i ) P.I.I.!.) %   o       p ` U.E.M.I.V.T.V.I.U.U.Y.I.U.U.Y.U.U.U.V.U.U.I.U.I.V.V.R.B.I.I. .0   X O     w.>.:.:.<.:.:.:.:.:.:.:.-.",
"5 u.  # X i p ] R..XE.U.U.U.P.U.a.i   . . .   + + 0 F .XR.N.' M.{ { V.V.M.M.B.M.B.I.U.I.U.V.U.U.U.U.U.M.U.U.M..X/ %   O       d.3.3.;.<.<.;.<.1.*.*.1.",
"2 w.  X   a a.E.M.M.N.P.{ W.Y.P.!.M.a u     .     X     9 a.a.a.a.a.[ U.XX!.E.E.U.U.U.U.I.Y.U.U.U.U.Y.N.U.Q.N.M.U.[ q   O @ # X r.9.5.5.5.5.e.5.=.%.e.",
"1 u.  > @ 0 a.W.E.P.M.U.U.P.E.T.I.~.M.{ p   .             . $ . + . , p ~ ( K [ XXW..XV.} P.U.B.Y.Y.U.U.U.U.Y.I.M.Y.} F   .   @   e.n n L L L ^ L L L ",
"r W   + O * F .XP.I.V.M.B.E.I.R.P.I.Y.E.} / K * .                     + + . . % ~ .XP.T.E.Y.E.U.V.I.U.B.Y.U.U.U.U.U.R..XK .         ^ L ^ ^ ^ ^ ~ ^ L ",
"x z.* O .     p E.E.P.N.Y.U.M.U.R.U.U.I.T.Q.Q.[ ~ i i %     .         O O       $ ( ..W.T.M.B.V.P.M.U.E.U.I.U.V.U.U.Y.V.' 7   .   . 4 y.=.q.9.;.9.=.9.",
"r z.y   #   . . | { R.Y.V.M.B.U.U.U. . .U.I.I.E..XU.Y.| K K X       < 5 2 + O     . . K { R.Y.E.U.R.T.I.V.U.U.I.U.U.Y.~..X{ i         o t.:.>.:.<.>.<.",
"t g.-XE       o % K a.R.N.I.Y.U.U.B.U.W..XR.U.M.P.P.I.I..X] O     2 o.*.&.o.: .         i ` Y.I.B.W.E.P.U.Y.V.U.U.U.U.M.R.I.` O $   -     q.*.*.$.o.o.",
"e g.;XqXX   +     X i ..!.P.U.U..XY.V.N.I.E.Y.R.Y.Y.N.XX} % O     j N N z Q O.d   +   X   p Y.~.M. .W.P.U.Y.U.U.U.U.U.a.^.T.Y.` # . X . . Z Q z Q Q Q ",
"5 g.-X2X:X8   O     . , r.XX!.I.Y.E.P. ..... .U.Y.~.I.} 9   . O   f V V B M V N C   o       F R.T.N..XV.Y.U.U.I.I.U.U.I.U.Y.M.E.[ a O       E R B M N ",
"5 g.-X<XqXwXb   . . +       a ] _ } U.!.!.T.T.N.I.U. .r., X   .   6.X.O.R R @.X.X.E   O   .   ~ XXM.Y.U.U.U.U.U.U.U.I.Q.M.U.U.E.R. .,       6.N R N N ",
"5 g.-X2X4X4XyXW . X X   - X       a n K F ~ { .X) F n + O   O   6.R O.O.O.O.O.@.@.R c   @ O   , ) XX^.I.W.U.U.U.U.Y.U.~.B.{ U.I.I.E.,       6.M V V B ",
"t g.-X-X4X3X4XyXu.E . o   . O @               . .     # o   > 4 R z m m m m v v v v m c # o     . ~ XXE.M.U.U.Y.U.U.Y.I.R. .U.E.I.Q.0       e.c m m m ",
"2 g.-X-X3X3X4X3X4XqX:Xu.      o . .           . X . X X   O f f s h h h d h d d r d h g j = . @   + K  .U.U.I.V.U.Y.Y.Y.M.U.I.N.Y..X,       5.g g g g ",
"e g.-X-X3X3X3X4X3X2Xl.q.2 1 g 4 7 e 5 < 3 -     X   . 7 6 f 2 3 t s t s 2 2 t t t 1 1 1 2 r :   > . ; ` !.U.U.P.P.Y.Y.P.Y.E.M.E. .p +       C 3 3 3 3 ",
"1 h.-X-X-X-X1X-X1X-Xl.0.t 2 d x j j j j N R B M +.5.k j j l z j j j j N z z o.z j j j j j h c .   .   9 ) .XT.T.I.W.W.M.R.R.Y.M.a.0   + O   R d d h d ",
"4 -X4X3X3X2X3X3X2X5X4Xg.2 - q.2X2X-Xl.y.l N M M ! M :.>X,X1X<X,X-Xf.N z o.z z z o.f.j.-X>X>Xj.+ + @     , ~ } Y.U.I.E.N.Y.R. .) ,   >     5.h.l.h.j.k.",
"1 8.-X-X-X-X1X-Xl.-X-Xq.h 1 l.xXlXbXlXeXX.X.N N ! o.rXlXlXlXlXlXlXtX4.z o.z N N -XtXlXlXlXtXlXtXV   O O   + , P ] { a.a.] / , ,   X O o E eXeXeXrXeXeX",
"1 1 1 s s s 2 s s s e 2 3 3 g.dXrXrXqXj.N $.M l ! Q 1XrXtXtXrXeX5X-XR z R j R z 4.7XeXeXeXeX5X2X0.l 2         O                   o O 4 w.1X0X4X5X5X5X",
"y 5 5 t s d s s 3 s t d e d B *.$.&.N l Q &.Q k Q z Q &.&.Q ! 1.Q m M Q Q z N z j o.$.@.X.$.N z m N X.@ O             X . o   X X   4 O.h l Q Q Q Q m ",
"R x v R R $.R z d j m h f k f d h h j l k k k Q Q k k f f f k f g d f m k f g m j d s d d d s g k g g C b X             X X     A Z f d f k d s s s s ",
"R v x R R @.v v m 9.q.q.q.;.=.;.-.-.1.;.*.:.3.=.=.=.=.=.=.! =.=.#.;.;.1.=.%.9.;.$.$.;.%.$.$.$.#.#.%.$.z.u.u.wXwXwXwX:X:X:XwXyXoX9.%.&.&.! &.Q &.! &.! "
};
