/* XPM */
static char *result[] = {
/* columns rows colors chars-per-pixel */
"75 75 230 2 ",
"   c #04040C",
".  c #08070C",
"X  c #0C0C13",
"o  c #080D18",
"O  c #100F15",
"+  c #120F1C",
"@  c #0B131A",
"#  c #0D191B",
"$  c #0D1216",
"%  c #121116",
"&  c #14141C",
"*  c #18171E",
"=  c #16191F",
"-  c #1A191E",
";  c #0F0F23",
":  c #0C1324",
">  c #0E1A2C",
",  c #141523",
"<  c #1A1723",
"1  c #151A24",
"2  c #1C1B24",
"3  c #13162A",
"4  c #151B2B",
"5  c #1C1D29",
"6  c #1A1E32",
"7  c #161C35",
"8  c #211C26",
"9  c #211D2A",
"0  c #261927",
"q  c #1D2026",
"w  c #1D212C",
"e  c #14252F",
"r  c #1C2233",
"t  c #1C2930",
"y  c #1E263C",
"u  c #0D2129",
"i  c #212126",
"p  c #22232B",
"a  c #25282E",
"s  c #29282E",
"d  c #232432",
"f  c #232B34",
"g  c #2B2B32",
"h  c #252939",
"j  c #2A3036",
"k  c #3A3A3E",
"l  c #34353A",
"z  c #1F2E4C",
"x  c #252B43",
"c  c #2A2E4B",
"v  c #2B354E",
"b  c #2B3547",
"n  c #3B3B42",
"m  c #353C47",
"M  c #2D3650",
"N  c #243D51",
"B  c #333C53",
"V  c #383E58",
"C  c #403F46",
"Z  c #3A445C",
"A  c #3B4757",
"S  c #32414B",
"D  c #3F4964",
"F  c #3F5C65",
"G  c #3B5C6A",
"H  c #3F6370",
"J  c #424249",
"K  c #49474B",
"L  c #4C4B53",
"P  c #41485A",
"I  c #504F57",
"U  c #42545E",
"Y  c #4A515B",
"T  c #474E65",
"R  c #4C5D65",
"E  c #4D556A",
"W  c #4B5E6A",
"Q  c #475562",
"!  c #565965",
"~  c #545D77",
"^  c #46626C",
"/  c #4A656D",
"(  c #48686C",
")  c #52656E",
"_  c #5E646E",
"`  c #4C6571",
"'  c #4C6973",
"]  c #446874",
"[  c #57677B",
"{  c #50727C",
"}  c #4D727D",
"|  c #636365",
" . c #69696C",
".. c #65666C",
"X. c #666A75",
"o. c #6D747E",
"O. c #76757A",
"+. c #4F7380",
"@. c #517582",
"#. c #636B85",
"$. c #6B738D",
"%. c #677788",
"&. c #797E88",
"*. c #737C97",
"=. c #6D7792",
"-. c #578490",
";. c #688797",
":. c #76829B",
">. c #7A819D",
",. c #778B94",
"<. c #7B86A1",
"1. c #7D8CAC",
"2. c #7294A4",
"3. c #7F8AB0",
"4. c #6C96A4",
"5. c #7FA9B6",
"6. c #7F92C2",
"7. c #828384",
"8. c #88878B",
"9. c #828692",
"0. c #969599",
"q. c #9D9D9E",
"w. c #848EA8",
"e. c #8792AE",
"r. c #999CA2",
"t. c #838FB5",
"y. c #858FBD",
"u. c #8491B6",
"i. c #8A96B5",
"p. c #8E9BB6",
"a. c #8495BD",
"s. c #8996BB",
"d. c #8599BE",
"f. c #8D9BBC",
"g. c #929BB5",
"h. c #919DBD",
"j. c #8EA8BE",
"k. c #94A3BD",
"l. c #92B1BA",
"z. c #A7A7AA",
"x. c #A6ACB8",
"c. c #B7B6B9",
"v. c #ABB6BE",
"b. c #8696C2",
"n. c #8896C3",
"m. c #8598C2",
"M. c #8A9AC3",
"N. c #8596C9",
"B. c #8B9ACA",
"V. c #8698C9",
"C. c #919EC2",
"Z. c #94A2C6",
"A. c #9DAACC",
"S. c #99BDCA",
"D. c #8AB5C3",
"F. c #A0AEC9",
"G. c #AAB9D5",
"H. c #AAB7D7",
"J. c #B7BEC9",
"K. c #8EC7DC",
"L. c #93C4D3",
"P. c #97C9D6",
"I. c #9CC8D5",
"U. c #92C7DB",
"Y. c #95CBDC",
"T. c #9ACBDB",
"R. c #98C4D3",
"E. c #9CC2CC",
"W. c #BDC3C8",
"Q. c #A4C4D4",
"!. c #A3C9D5",
"~. c #A0CDDB",
"^. c #A9CED5",
"/. c #B7C7D9",
"(. c #A3D1DF",
"). c #B4D3DC",
"_. c #A5C4CC",
"`. c #94CCE1",
"'. c #9BCDE2",
"]. c #9ED0E0",
"[. c #BCCAE4",
"{. c #A4D4E2",
"}. c #BCD9E5",
"|. c #C5C5C8",
" X c #CBD3DE",
".X c #D8D7DA",
"XX c #C7C9D8",
"oX c #C3CDE8",
"OX c #CFDBE6",
"+X c #C4D3EB",
"@X c #CEDDEC",
"#X c #C7D4E3",
"$X c #D2DBE6",
"%X c #DEDDE0",
"&X c #D4DEEB",
"*X c #D8DBE8",
"=X c #CDDCF3",
"-X c #CCDDF8",
";X c #D3DFF1",
":X c #D6DEF5",
">X c #C9E3EC",
",X c #D6E2ED",
"<X c #D9E3ED",
"1X c #D4E3E8",
"2X c #D6E2F1",
"3X c #D9E4F1",
"4X c #DDE9F5",
"5X c #D6E3FA",
"6X c #D9E5FB",
"7X c #DCE9FD",
"8X c #D7E9F9",
"9X c #CFF3FF",
"0X c #DEF4F9",
"qX c #EBECEB",
"wX c #E2E1E8",
"eX c #E3EAF6",
"rX c #EDEDF2",
"tX c #E6ECF9",
"yX c #F0EDF4",
"uX c #EFF0F2",
"iX c #E6F2FD",
"pX c #EDFCFF",
"aX c #E8F7FC",
"sX c #F5F5F6",
"dX c #FBFAF7",
"fX c #F6F5F9",
"gX c #F4FCFE",
"hX c #FDFDFE",
"jX c #F8F7FB",
"kX c None",
/* pixels */
"kXkXkXkXkXkXkXkXkXkXkXkXkXkXkXkXkXkXkXkXkXkXkXkXkXkXkXkXkXkXkXkXkXkXkXkXkXkXkXkXkXkXkXkXkXkXkXkXkXkXkXkXkXkXkXkXkXkXkXkXkXkXkXkXkXkXkXkXkXkXkXkXkXkXkX",
"kXkXkXkXkXkXkXkXkXkXkXkXkXkXkXkXkXkXkXkXkXkXkXkXkXkXkXkXkXkXkXkXkXkXkXkXkXkXkXkXkXkXkXkXkXkXkXkXkXkXkXkXkXkXkXkXkXkXkXkXkXkXkXkXkXkXkXkXkXkXkXkXkXkXkX",
"kXkXkXkXkXkXkXkXkXkXkXkXkXkXkXkXkXkXkXkXkXkXkXkXkXkXkXkXkXkXkXkXkXkXkXkXkXkXkXkXkXkXkXkXkXkXkXkXkXkXkXkXkXkXkXkXkXkXkXkXkXkXkXkXkXkXkXkXkXkXkXkXkXkXkX",
"kXkXkXkXkXkXkXkXkXkXkXkXkXkXkXkXkXkXkXkXkXkXkXkXkXkXkXkXkXkXkXkXkXkXkXkXkXkXkXkXkXkXkXkXkXkXkXkXkXkXkXkXkXkXkXkXkXkXkXkXkXkXkXkXkXkXkXkXkXkXkXkXkXkXkX",
"kXkXkXkXkXkXkXkXkXkXkXkXkXkXkXkXkXkXkXkXkXkXkXkXkXkXkXkXkXkXkXkXkXkXkXkXkXkXkXkXkXkXkXkXkXkXkXkXkXkXkXkXkXkXkXkXkXkXkXkXkXkXkXkXkXkXkXkXkXkXkXkXkXkXkX",
"kXkXkXkXkXkXkXkXkXkXkXkXkXkXkXkXkXkXkXkXkXkXkXkXkXkXkXkXkXkXkXkXkXkXkXkXkXkXkXkXkXkXkXkXkXkXkXkXkXkXkXkXkXkXkXkXkXkXkXkXkXkXkXkXkXkXkXkXkXkXkXkXkXkXkX",
"kXkXkXkXkXkXkXkXkXkXkXkXkXkXkXkXkXkXkXkXkXkXkXkXkXkXkXkXkXkXkXkXkXkXkXkXkXkXkXkXkXkXkXkXkXkXkXkXkXkXkXkXkXkXkXkXkXkXkXkXkXkXkXkXkXkXkXkXkXkXkXkXkXkXkX",
"kXkXkXkXkXkXkXkXkXkXkXkXkXkXkXkXkXkXkXkXkXkXkXkXkXkXkXkXkXkXkXkXkXkXkXhXhXhXhXhXhXhXkXkXkXkXkXkXkXkXkXkXkXkXkXkXkXkXkXkXkXkXkXkXkXkXkXkXkXkXkXkXkXkXkX",
"kXkXkXkXkXkXkXkXkXkXkXkXkXkXkXkXkXkXkXkXkXkXkXkXkXkXkXkXkXkXkXkXhXhXsXhXhXhXuX%X.XfXhXhXhXhXhXkXkXkXkXkXkXkXkXkXkXkXkXkXkXkXkXkXkXkXkXkXkXkXkXkXkXkXkX",
"kXkXkXkXkXkXkXkXkXkXkXkXkXkXkXkXkXkXkXkXkXkXkXkXkXkXkXkXkXkXdXhX.XJ   X 2 2 2 i i s p X k 0.hXhXhXkXkXkXkXkXkXkXkXkXkXkXkXkXkXkXkXkXkXkXkXkXkXkXkXkXkX",
"kXkXkXkXkXkXkXkXkXkXkXkXkXkXkXkXkXkXkXkXkXkXkXkXkXkXkXkXkXsXr.O 2 2 2 2 5 5 5 2 2 4 5 5 2 8 i k sXhXhXkXkXkXkXkXkXkXkXkXkXkXkXkXkXkXkXkXkXkXkXkXkXkXkX",
"kXkXkXkXkXkXkXkXkXkXkXkXkXkXkXkXkXkXkXkXkXkXkXkXkXkXkXdXhXs 9 & 9 , 5 5 Y 9.9.o.J o < 2 = p i - X ..hXhXkXkXkXkXkXkXkXkXkXkXkXkXkXkXkXkXkXkXkXkXkXkXkX",
"kXkXkXkXkXkXkXkXkXkXkXkXkXkXkXkXkXkXkXkXkXkXkXkXkXkXkXhX% = q 2 , x.tX$X,XeX,X&X:X<X&X<X_ @ p 2 w q = hXhXkXkXkXkXkXkXkXkXkXkXkXkXkXkXkXkXkXkXkXkXkXkX",
"kXkXkXkXkXkXkXkXkXkXkXkXkXkXkXkXkXkXkXkXkXkXkXkXkXkXhXn p q 5 S <X<X,X,X<X,X,X,X,X,X,X,X<X*XS 1 f p p - dXhXkXkXkXkXkXkXkXkXkXkXkXkXkXkXkXkXkXkXkXkXkX",
"kXkXkXkXkXkXkXkXkXkXkXkXkXkXkXkXkXkXkXkXkXkXkXkXkXhXfXp < , _  X,X,X2X,X1X,X2X2X2X2X,X2X1X4X<XW.4 5 p 2 s fXhXkXkXkXkXkXkXkXkXkXkXkXkXkXkXkXkXkXkXkXkX",
"kXkXkXkXkXkXkXkXkXkXkXkXkXkXkXkXkXkXkXkXkXkXkXkXkXdXO , 4 w eXpX,X,X<X,X,X2X2X,X2X2X2X2X2X2X4X,XXXw d * p z.hXkXkXkXkXkXkXkXkXkXkXkXkXkXkXkXkXkXkXkXkX",
"kXkXkXkXkXkXkXkXkXkXkXkXkXkXkXkXkXkXkXkXkXkXkXkXhXsX5 p 3 i.5X&X2X2X,X<X<X3X@X3X$XOX$X:X,X,X1XOX&XJ.- 2 5 & hXhXkXkXkXkXkXkXkXkXkXkXkXkXkXkXkXkXkXkXkX",
"kXkXkXkXkXkXkXkXkXkXkXkXkXkXkXkXkXkXkXkXkXkXkXkXhXJ & 4 Z e.5X,X,X2X,X X,X4X$XY j 5 # # @ @ 1 q # $ * 9 9 8 XXhXuXkXkXkXkXkXkXkXkXkXkXkXkXkXkXkXkXkXkX",
"kXkXkXkXkXkXkXkXkXkXkXkXkXkXkXkXkXkXkXkXkXkXkXkXhX2 2 r p.g.;X2X,X,X<X3XY 5 2 8 2 2 2 2 8 < 2 5 0 9 + 2 2 2 g hXhXkXkXkXkXkXkXkXkXkXkXkXkXkXkXkXkXkXkX",
"kXkXkXkXkXkXkXkXkXkXkXkXkXkXkXkXkXkXkXkXkXkXkXkXhX2 < z s.H.,X2X XOXx.@ = & p 1 , 4 7 Z ;.l.l.l.2.N > 5 i 2 2 g hXhXkXkXkXkXkXkXkXkXkXkXkXkXkXkXkXkXkX",
"kXkXkXkXkXkXkXkXkXkXkXkXkXkXkXkXkXkXkXkXkXkXkXdX%X8 2 $.B.+X$X3X3XOXw w 2 t u 2.T.~.].Y.L.!.).).^.S.S.}.v d p q - hXdXkXkXkXkXkXkXkXkXkXkXkXkXkXkXkXkX",
"kXkXkXkXkXkXkXkXkXkXkXkXkXkXkXkXkXkXkXkXkXkXkXhXq.- 1 Z.B.=X,X1X2X@ q 2 5 U Q.T.Y.Y.Y.P.pXhXgXgXgXgXgXpX_.l.e 1 0 J gXkXkXkXkXkXkXkXkXkXkXkXkXkXkXkXkX",
"kXkXkXkXkXkXkXkXkXkXkXkXkXkXkXkXkXkXkXkXkXkXkXhX7.- 4 t.M.:X,X1XiXp 2 2 t ' ;.U.Y.Y.T.E.gXdXdXhXhXhXhXhXhX).}.4 2 p <XhXkXkXkXkXkXkXkXkXkXkXkXkXkXkXkX",
"kXkXkXkXkXkXkXkXkXkXkXkXkXkXkXkXkXkXkXkXkXhXhXhX! 4 h b.a.6X,X,X&Xq 8 2 R / ] T.Y.Y.Y.!.gXdXhXhXhXhXhXhXhX9X(.Q.4 9 . hXkXkXkXkXkXkXkXkXkXkXkXkXkXkXkX",
"kXkXkXkXkXkXkXkXkXkXkXkXkXkXkXkXkXqXsXfXhXrX .i & q Z s.M.6X,X,X*Xd 2 q / / W I.'.Y.`.'.I.).>X>X>X2X0XpXpXI.Y.R.W d i rXhXkXkXkXkXkXkXkXkXkXkXkXkXkXkX",
"kXkXkXkXkXkXkXkXkXkXkXkXkXkXkXkXhX.X& & 9 q 2 2 1 r $.b.f.6X<X,X3Xq 2 q ) / ` { (.`.`.K.T.T.Y.T.Y.T.T.P.P.'.K.P.%.5 q 8.dXkXkXkXkXkXkXkXkXkXkXkXkXkXkX",
"kXkXkXkXkXkXkXkXkXkXkXkXkXkXkXsXhX2 i 2 < 5 q q 2 r g.b.f.8X,X2XiXw 2 w R W / { 5.U.K.Y.P.Y.Y.`.K.`.`.`.K.'.P.-.[ 1 =  .gXkXkXkXkXkXkXkXkXkXkXkXkXkXkX",
"kXkXkXkXkXkXkXkXkXkXkXkXkXkXkXhXp q q p a &.x.9.- 5 f.b.m.3X,X2X4XX < 2 m / ` ( R 2.T.'.L.L.Y.T.].{.(.D.4.] ( ^ A q 2  .hXkXkXkXkXkXkXkXkXkXkXkXkXkXkX",
"kXkXkXkXkXkXkXkXkXkXkXkXkXkXkXhX1 p p &. X XiXtX8 1 k.b.m.5X1X2X&X! 2 2 4 / ( / / ' ^ ] +.+.H G F ( ( ' ^ F ( / 4 2 2 0.hXkXkXkXkXkXkXkXkXkXkXkXkXkXkX",
"kXkXkXkXkXkXkXkXkXkXkXkXkXkXhXuX2 q 4 eX3X<X<XeX2 3 s.d.a.=X,X3X,X X9 2 1 F / / ` ` ~ / ` ` ^ / ` ` ` ) ^ ) ) j @ & < %XhXkXkXkXkXkXkXkXkXkXkXkXkXkXkX",
"kXkXkXkXkXkXkXkXkXkXkXkXkXkXhX|.q 5 1 &X3X2X8XeX9 4 i.m.a.+X,X,X8X$Xf p 2 5 U W ` ( / / ( / / / ` ( / ` ^ ^ e q 1 - % hXkXkXkXkXkXkXkXkXkXkXkXkXkXkXkX",
"kXkXkXkXkXkXkXkXkXkXkXkXkXkXhXz.2 q b eX+Xk.p.k.9 3 p.M.m.[.,X<X&X3XyX% p < : Q ` ^ ( ( ( ^ ( ( / ^ / R t 1 1 q 2 % yXhXkXkXkXkXkXkXkXkXkXkXkXkXkXkXkX",
"kXkXkXkXkXkXkXkXkXkXkXkXkXkXhX8.2 q X.a.b.d.b.$.2 , s.m.m.G.,X,X,X,X<X&., p , 9 1 e m Q R W W Q A f @ w < + 2 5 2 qXhXkXkXkXkXkXkXkXkXkXkXkXkXkXkXkXkX",
"kXkXkXkXkXkXkXkXkXkXkXkXkXkXhX&.< 1 *.b.b.a.b.~ - 3 s.m.b.k.,X2X1X<X<X$Xj h < 5 2 5 5 q 5 5 5 q q q = q 2 X 2 9 q hXhXkXkXkXkXkXkXkXkXkXkXkXkXkXkXkXkX",
"kXkXkXkXkXkXkXkXkXkXkXkXkXkXhXO.2 1 g.n.b.b.b.D 2 , s.m.6.1.2X<X,X,X,X3X3X..1 & 5 2 p 2 2 8 2 q 5 , 1 r.iXgX& 2 & qXhXkXkXkXkXkXkXkXkXkXkXkXkXkXkXkXkX",
"kXkXkXkXkXkXkXkXkXkXkXkXkXkXhX| 2 4 h.V.n.u.b.B 2 , s.m.N.d.4X,X2X,X2X2X<X<X<X,.n , 1 & q %.v.XX*XeX&X1X<X&X> 9 2 |.gXkXkXkXkXkXkXkXkXkXkXkXkXkXkXkXkX",
"kXkXkXkXkXkXkXkXkXkXkXkXkXkXhX| 2 5 s.N.n.s.b.M 2 , s.d.N.b.2X1X2X2X2X2X3X4X&X3X<X3X&X:XeXOX2X&XOX3X,X4X1X2Xr 4 2 7.hXkXkXkXkXkXkXkXkXkXkXkXkXkXkXkXkX",
"kXkXkXkXkXkXkXkXkXkXkXkXkXkXhXL 2 5 h.b.b.b.n.M 8 1 s.d.b.b.-X*X,X,X,X2X,X,X2X2X2X2X;X,X;X2X3X<X,X,X,X,X,X8XV < 2 ! hXkXkXkXkXkXkXkXkXkXkXkXkXkXkXkXkX",
"kXkXkXkXkXkXkXkXkXkXkXkXkXkXhXL 2 6 h.b.b.M.B.v - 3 s.b.f.b.F.&X,X,X<X,X,X,X,X,X,X<X,X,X,X,X2X,X,X,X2X,X,X-XT < q k hXkXkXkXkXkXkXkXkXkXkXkXkXkXkXkXkX",
"kXkXkXkXkXkXkXkXkXkXkXkXkXkXhXL 2 6 f.b.b.b.b.v - , M.m.d.B.u.8X3X,X,X,X2X,X,X,X,X,X2X,X,X,X,X,X,X,X,X,X2XG.E d 1 p hXkXkXkXkXkXkXkXkXkXkXkXkXkXkXkXkX",
"kXkXkXkXkXkXkXkXkXkXkXkXkXkXjXL - r f.b.b.b.b.M 2 1 s.m.d.m.s.5X&X,X,X,X,X2X,X<X,X,X,X,X,X,X,X,X,X,X,X&X:XM.T 8 2 a dXkXkXkXkXkXkXkXkXkXkXkXkXkXkXkXkX",
"kXkXkXkXkXkXkXkXkXkXkXkXkXkXhXJ 2 6 h.m.b.b.M.M 2 5 B.m.d.m.d.oX2X,X,X,X,X,X,X,X2X,X2X,X,X,X,X,X2X,X,X3X6XM.V < - p hXkXkXkXkXkXkXkXkXkXkXkXkXkXkXkXkX",
"kXkXkXkXkXkXkXkXkXkXkXkXkXkXhXC - 6 f.b.b.n.n.M 2 5 C.b.m.m.B.u.2X,X,X<X&X2X,X,X,X2X,X,X,X,X,X,X2X<X1X3XH.B.c 2 = j dXkXkXkXkXkXkXkXkXkXkXkXkXkXkXkXkX",
"kXkXkXkXkXkXkXkXkXkXkXkXkXkXhXg - 4 f.b.b.b.b.v < , g.n.m.b.b.b.oX&X,X<X3X<X,X<X,X&X3X,X2X,X,X,X3X1X:XtXa.s.x 9 5 g hXkXkXkXkXkXkXkXkXkXkXkXkXkXkXkXkX",
"kXkXkXkXkXkXkXkXkXkXkXkXkXkXhXm - 7 f.b.b.n.b.M 2 9 g.n.n.n.b.n.u.7X8X,X1X<X5X;X2X:X2X:X5X3X,X<X,X,X2X/.C.d.7 9 5 n hXkXkXkXkXkXkXkXkXkXkXkXkXkXkXkXkX",
"kXkXkXkXkXkXkXkXkXkXkXkXkXkXhXI - d C.b.b.n.M.B 9 4 u.b.b.n.n.n.b.s.6X2X,X,X&X3X,X,X&X3X<X3X,X<X&X3XoXa.d.u.3 2 2 ..hXkXkXkXkXkXkXkXkXkXkXkXkXkXkXkXkX",
"kXkXkXkXkXkXkXkXkXkXkXkXkXkXhXO.2 6 f.d.b.b.b.V < 4 <.n.n.b.b.b.d.B.f.F.5X5X&X3X,X,X1X2X3X,X&X,X5Xk.d.d.m.d.4 - q r.hXkXkXkXkXkXkXkXkXkXkXkXkXkXkXkXkX",
"kXkXkXkXkXkXkXkXkXkXkXkXkXkXhXz.- 6 s.b.b.b.b.Z 5 5 *.b.n.n.b.b.a.n.s.d.a.h.H.oX5X6X7X2X=X[.G.u.u.m.V.m.m.C., - i <XhXkXkXkXkXkXkXkXkXkXkXkXkXkXkXkXkX",
"kXkXkXkXkXkXkXkXkXkXkXkXkXkXhXwXi 5 *.n.m.n.n.D 4 < *.b.b.b.b.b.n.n.n.b.b.b.m.m.b.b.m.m.b.m.m.m.b.b.b.m.n.h.6 4 - hXkXkXkXkXkXkXkXkXkXkXkXkXkXkXkXkXkX",
"kXkXkXkXkXkXkXkXkXkXkXkXkXkXhXhX5 5 7 M.m.n.b.[ 2 5 #.b.a.b.b.d.b.b.b.n.b.b.b.d.a.d.d.d.d.b.d.b.m.m.m.b.a.t.5 2 & hXkXkXkXkXkXkXkXkXkXkXkXkXkXkXkXkXkX",
"kXkXkXkXkXkXkXkXkXkXkXkXkXkXkXdX+ 1 1 P t.n.b.:.2 5 ~ n.a.b.b.b.d.b.m.n.b.m.d.m.m.6.V.6.b.N.V.V.m.m.m.n.s.X.2 9 - hXkXkXkXkXkXkXkXkXkXkXkXkXkXkXkXkXkX",
"kXkXkXkXkXkXkXkXkXkXkXkXkXkXkXfXO.X 2 p 3 E <.$.9 2 Z b.d.b.d.b.d.b.m.a.s.h.f.Z.s.d.m.3.d.d.m.M.a.n.n.n.s.A 5 < - hXkXkXkXkXkXkXkXkXkXkXkXkXkXkXkXkXkX",
"kXkXkXkXkXkXkXkXkXkXkXkXkXkXkXhXhX% 9 9 2 2 f 1 8 2 v m.b.b.M.d.b.m.N.M.h.5 1 5 : r x b E #.$.>.<.t.m.m.m.e q 2 K hXkXkXkXkXkXkXkXkXkXkXkXkXkXkXkXkXkX",
"kXkXkXkXkXkXkXkXkXkXkXkXkXkXkXkXhXhXn 5 * 2 < 2 2 2 r 3.m.m.d.b.b.b.b.a.Z d 5 2 2 5 2 p - 5 4 9 x Z.V.V.C.3 5 8 c.hXkXkXkXkXkXkXkXkXkXkXkXkXkXkXkXkXkX",
"kXkXkXkXkXkXkXkXkXkXkXkXkXkXkXkXkXdXjXwXn % & X 8 p d s.n.m.d.d.b.b.V.m.V 2 * & l X < 2 2 5 > X.a.M.M.6.f.5 2 2 jXhXkXkXkXkXkXkXkXkXkXkXkXkXkXkXkXkXkX",
"kXkXkXkXkXkXkXkXkXkXkXkXkXkXkXkXkXkXkXhXhXhXhXhX2 2 1 d.V.b.d.s.b.b.N.5.P 2 8 K fXhXg 5 3 g.V.M.b.B.M.V.:.5 2 2 jXhXkXkXkXkXkXkXkXkXkXkXkXkXkXkXkXkXkX",
"kXkXkXkXkXkXkXkXkXkXkXkXkXkXkXkXkXkXkXkXkXkXhXhXi 2 , s.m.b.d.n.b.a.m.m.T 5 2 | dXhXi i 5 f.N.N.n.b.b.d.E 5 2 + hXkXkXkXkXkXkXkXkXkXkXkXkXkXkXkXkXkXkX",
"kXkXkXkXkXkXkXkXkXkXkXkXkXkXkXkXkXkXkXkXkXkXkXgX- 2 4 C.n.b.d.n.b.b.V.m.T 5 i O.hXhXk 2 4 C.N.6.b.b.b.d.x 9 2 8.hXkXkXkXkXkXkXkXkXkXkXkXkXkXkXkXkXkXkX",
"kXkXkXkXkXkXkXkXkXkXkXkXkXkXkXkXkXkXkXkXkXkXkXhXi 2 6 Z.V.m.m.m.d.s.m.M.Z < 2 ..hXhXz.2 4 h.n.b.b.b.b.a.3 9 9 hXhXkXkXkXkXkXkXkXkXkXkXkXkXkXkXkXkXkXkX",
"kXkXkXkXkXkXkXkXkXkXkXkXkXkXkXkXkXkXkXkXkXkXkXhX- 2 9 i.V.m.d.b.a.b.N.d.h 2 2 | hXhXhX2 4 g.b.b.m.M.b.i.; 9 & hXkXkXkXkXkXkXkXkXkXkXkXkXkXkXkXkXkXkXkX",
"kXkXkXkXkXkXkXkXkXkXkXkXkXkXkXkXkXkXkXkXkXkXkXhXk 2 9 w.b.b.d.b.m.V.V.u.6 < < 7.dXhXhX2 p =.a.u.s.s.f.g.4 < z.hXkXkXkXkXkXkXkXkXkXkXkXkXkXkXkXkXkXkXkX",
"kXkXkXkXkXkXkXkXkXkXkXkXkXkXkXkXkXkXkXkXkXkXkXsX8.- 5 #.y.b.b.V.V.B.y.g.6 , * c.hXkXhXl 2 3 y x x x y : 2 - hXhXkXkXkXkXkXkXkXkXkXkXkXkXkXkXkXkXkXkXkX",
"kXkXkXkXkXkXkXkXkXkXkXkXkXkXkXkXkXkXkXkXkXkXkXhXhX8 5 r C.M.f.y.u.i.g.; 9 + + hXkXkXkXsX& 5 p 5 5 p 2 X i 0.hXkXkXkXkXkXkXkXkXkXkXkXkXkXkXkXkXkXkXkXkX",
"kXkXkXkXkXkXkXkXkXkXkXkXkXkXkXkXkXkXkXkXkXkXkXkXhX2 & - 7 : r c 7 r , 2 8 2 C hXkXkXkXkXsXk * X + g L |.hXhXkXkXkXkXkXkXkXkXkXkXkXkXkXkXkXkXkXkXkXkXkX",
"kXkXkXkXkXkXkXkXkXkXkXkXkXkXkXkXkXkXkXkXkXkXkXkXhXqX- 2 5 2 < 5 2 9 , s p & hXkXkXkXkXkXkXhXhXhXdXhXhXhXhXkXkXkXkXkXkXkXkXkXkXkXkXkXkXkXkXkXkXkXkXkXkX",
"kXkXkXkXkXkXkXkXkXkXkXkXkXkXkXkXkXkXkXkXkXkXkXkXkXhXdXs X . + s i p - O &.hXhXkXkXkXkXkXkXkXkXkXkXkXkXkXkXkXkXkXkXkXkXkXkXkXkXkXkXkXkXkXkXkXkXkXkXkXkX",
"kXkXkXkXkXkXkXkXkXkXkXkXkXkXkXkXkXkXkXkXkXkXkXkXkXkXhXhXhXhXhXhXdXhXhXhXhXhXkXkXkXkXkXkXkXkXkXkXkXkXkXkXkXkXkXkXkXkXkXkXkXkXkXkXkXkXkXkXkXkXkXkXkXkXkX",
"kXkXkXkXkXkXkXkXkXkXkXkXkXkXkXkXkXkXkXkXkXkXkXkXkXkXkXkXkXkXhXhXhXhXkXkXkXkXkXkXkXkXkXkXkXkXkXkXkXkXkXkXkXkXkXkXkXkXkXkXkXkXkXkXkXkXkXkXkXkXkXkXkXkXkX",
"kXkXkXkXkXkXkXkXkXkXkXkXkXkXkXkXkXkXkXkXkXkXkXkXkXkXkXkXkXkXkXkXkXkXkXkXkXkXkXkXkXkXkXkXkXkXkXkXkXkXkXkXkXkXkXkXkXkXkXkXkXkXkXkXkXkXkXkXkXkXkXkXkXkXkX",
"kXkXkXkXkXkXkXkXkXkXkXkXkXkXkXkXkXkXkXkXkXkXkXkXkXkXkXkXkXkXkXkXkXkXkXkXkXkXkXkXkXkXkXkXkXkXkXkXkXkXkXkXkXkXkXkXkXkXkXkXkXkXkXkXkXkXkXkXkXkXkXkXkXkXkX",
"kXkXkXkXkXkXkXkXkXkXkXkXkXkXkXkXkXkXkXkXkXkXkXkXkXkXkXkXkXkXkXkXkXkXkXkXkXkXkXkXkXkXkXkXkXkXkXkXkXkXkXkXkXkXkXkXkXkXkXkXkXkXkXkXkXkXkXkXkXkXkXkXkXkXkX",
"kXkXkXkXkXkXkXkXkXkXkXkXkXkXkXkXkXkXkXkXkXkXkXkXkXkXkXkXkXkXkXkXkXkXkXkXkXkXkXkXkXkXkXkXkXkXkXkXkXkXkXkXkXkXkXkXkXkXkXkXkXkXkXkXkXkXkXkXkXkXkXkXkXkXkX",
"kXkXkXkXkXkXkXkXkXkXkXkXkXkXkXkXkXkXkXkXkXkXkXkXkXkXkXkXkXkXkXkXkXkXkXkXkXkXkXkXkXkXkXkXkXkXkXkXkXkXkXkXkXkXkXkXkXkXkXkXkXkXkXkXkXkXkXkXkXkXkXkXkXkXkX",
"kXkXkXkXkXkXkXkXkXkXkXkXkXkXkXkXkXkXkXkXkXkXkXkXkXkXkXkXkXkXkXkXkXkXkXkXkXkXkXkXkXkXkXkXkXkXkXkXkXkXkXkXkXkXkXkXkXkXkXkXkXkXkXkXkXkXkXkXkXkXkXkXkXkXkX",
"kXkXkXkXkXkXkXkXkXkXkXkXkXkXkXkXkXkXkXkXkXkXkXkXkXkXkXkXkXkXkXkXkXkXkXkXkXkXkXkXkXkXkXkXkXkXkXkXkXkXkXkXkXkXkXkXkXkXkXkXkXkXkXkXkXkXkXkXkXkXkXkXkXkXkX"
};
