/* XPM */
static char *result[] = {
/* columns rows colors chars-per-pixel */
"75 75 194 2 ",
"   c #090F0D",
".  c #06110F",
"X  c #0A110E",
"o  c #061313",
"O  c #0C1411",
"+  c #0C1915",
"@  c #071718",
"#  c #071D1D",
"$  c #0C1C1A",
"%  c #121614",
"&  c #141916",
"*  c #121719",
"=  c #1F121F",
"-  c #141D1B",
";  c #191E1B",
":  c #04221D",
">  c #0D221E",
",  c #15201E",
"<  c #1B211E",
"1  c #0D1F22",
"2  c #111F20",
"3  c #1D1C25",
"4  c #211721",
"5  c #0D2223",
"6  c #0E2429",
"7  c #122525",
"8  c #1C2323",
"9  c #152925",
"0  c #1A2C26",
"q  c #14252A",
"w  c #18272C",
"e  c #152B2B",
"r  c #1C2C2B",
"t  c #16312F",
"y  c #19302F",
"u  c #182730",
"i  c #152E32",
"p  c #1C2D32",
"a  c #173032",
"s  c #1B3333",
"d  c #1E3836",
"f  c #1C3639",
"g  c #1F393A",
"h  c #222D2B",
"j  c #24332E",
"k  c #29332F",
"l  c #3D2B35",
"z  c #37253A",
"x  c #3A273D",
"c  c #362A3D",
"v  c #3B293E",
"b  c #253433",
"n  c #293431",
"m  c #253B37",
"M  c #283834",
"N  c #243539",
"B  c #28363A",
"V  c #243B3C",
"C  c #2B3C3B",
"Z  c #383539",
"A  c #313E3C",
"S  c #383E38",
"D  c #412F38",
"F  c #46343B",
"G  c #49363D",
"H  c #27413F",
"J  c #32413E",
"K  c #3C2A41",
"L  c #243D41",
"P  c #2A3E42",
"I  c #383A43",
"U  c #3F3F48",
"Y  c #443246",
"T  c #493740",
"R  c #4E3A42",
"E  c #46344A",
"W  c #49354B",
"Q  c #453A4A",
"!  c #4C394E",
"~  c #503A42",
"^  c #443E52",
"/  c #264244",
"(  c #2B4344",
")  c #254847",
"_  c #2B464A",
"`  c #27494F",
"'  c #2E494E",
"]  c #374643",
"[  c #394544",
"{  c #344943",
"}  c #3A4A45",
"|  c #34454A",
" . c #38474B",
".. c #334A4C",
"X. c #3B4A4B",
"o. c #33504F",
"O. c #3C524F",
"+. c #2E4650",
"@. c #274B50",
"#. c #2C4D54",
"$. c #2E4F58",
"%. c #324E54",
"&. c #3C4C54",
"*. c #324F5B",
"=. c #3C4F58",
"-. c #2D5156",
";. c #2D5259",
":. c #335156",
">. c #3A5355",
",. c #355A57",
"<. c #3F5955",
"1. c #33545A",
"2. c #3A555B",
"3. c #36595D",
"4. c #3A595E",
"5. c #355760",
"6. c #375C62",
"7. c #3B5C63",
"8. c #3C5F68",
"9. c #376264",
"0. c #3C6165",
"q. c #3D6268",
"w. c #4A464B",
"e. c #404A48",
"r. c #4D4A4E",
"t. c #454354",
"y. c #494655",
"u. c #404F50",
"i. c #4A4759",
"p. c #414F58",
"a. c #4D4A5D",
"s. c #425354",
"d. c #425A55",
"f. c #4E5C57",
"g. c #43555C",
"h. c #445A5E",
"j. c #495C5B",
"k. c #49645F",
"l. c #425B63",
"z. c #4A5B64",
"x. c #445F68",
"c. c #4F6867",
"v. c #426368",
"b. c #4B6668",
"n. c #526965",
"m. c #556D6B",
"M. c #5D6E6B",
"N. c #5E716D",
"B. c #556E71",
"V. c #5B7375",
"C. c #5E767A",
"Z. c #637B76",
"A. c #677975",
"S. c #637C7B",
"D. c #6B7E79",
"F. c #66827D",
"G. c #6A827D",
"H. c #70827F",
"J. c #647D81",
"K. c #668381",
"L. c #6B8482",
"P. c #6C8985",
"I. c #6E868A",
"U. c #6E8C89",
"Y. c #718683",
"T. c #728B86",
"R. c #738D8A",
"E. c #798D8B",
"W. c #6F908C",
"Q. c #74918C",
"!. c #7A928D",
"~. c #7A9393",
"^. c #839994",
"/. c #839B9D",
"(. c #869FA2",
"). c #86A0A3",
"_. c #8EA8A7",
"`. c #8CA7AA",
"'. c #92ABA7",
"]. c #93ADAA",
"[. c #99AFAE",
"{. c #96B1AB",
"}. c #94ADB1",
"|. c #96B3B2",
" X c #99B2B7",
".X c #9BB5B9",
"XX c #9EB9BD",
"oX c #A2BABB",
"OX c #A2BDC1",
"+X c #A6C2C5",
"@X c #AAC6C9",
"#X c #ADC9CA",
"$X c #B5CACA",
"%X c #BCD1CF",
/* pixels */
"- & - X - ] [ [ [ [ [ [ [ [ [ [ e.J O.J } J } J e.J J } J } } J } } e.J } J O.J J } J J } J J J } J e.J J O.J J e.J J J } J d.J J } J O.J J } J } } J ",
"; - - X - ] [ [  . .[ [ } [ ]  .J } J } } } J J J O.J } } } J } } J J } J e.e.J } } } } J e.O.J J e.J O.e.J J } J e.O.J J e.J J e.J e.J J d.} J J } } ",
"- & - . - ] } [ ] [ [ [ ] ] ] ] } J } J J e.J O.J e.} } J J J J J J } J e.J J O.} J J } } J O.e.J e.J } J e.} J O.} J e.} J } } O.J } J J J } } J J J ",
"; - - O - I } [ [ ] [ [ ] ] ] ] } J } J } J e.J e.J } J d.J } O.} } e.J J e.J J } J } } J e.J J O.J e.J } J } } J J e.J J } } J J e.J e.} } J } e.e.} ",
"; - - X - ] } [ ] [ e.[ [ ] ] ] J } J O.J } } J J O.J e.J O.e.J J J e.J J J } J J } J J J } O.J J J J } J } } J } J J e.e.J J d.J } } J J } } } J O.J ",
"; - - O - ] } [ [ [ U [ [ ] J ] J O.e.J e.J } J J J } J } J J e.} O.J e.d.J } } J O.d.J e.J J e.J } } } J } J O.J J d.J J e.J J J O.J } } } J J J J } ",
"; - ; O - [ [ [ [ [ } [ ] ] ] ] e.J } J J e.J O.} J e.J J } } J J d.} J J e.J } e.J } J J e.e.J d.} } J } J } J } J J } e.J } J e.J J O.J e.J } } } } ",
"; ; - X 7 J } } [ [ } [ ] ] ] ] J e.J J O.J e.J J e.J O.} J J } J J J J O.J e.J J e.J J O.J J } J J J } e.J J e.} } J O.J e.J } J } J J e.J } J } J J ",
"; ; - X - ] } [ | [ [ [ [ [ [ | J } J J } } e.J J e.} J J } } J } } J } } } J } } } J } J } J J J } } J J e.J J J } J O.J J e.J O.J J e.J J d.J } } } ",
"; - , O - [ } [ [ [ [ [ [ [  .[ J O.d.J } J } J J J } } } } J } J } } J J } } J J } } J J e.} } } J } J e.J } O.} J e.J J } J e.J e.e.J J d.J e.J J } ",
"; - - O 8 ] } [ [ [ [ [ [ ] ] ] e.J } J J J } } d.J J J J e.O.J J } } J O.J J e.e.J } J J } } J } J J d.J O.e.J } } J e.d.J O.J } J J e.J } } J } J J ",
"; ; - o - ] } [ | [ [ [ J ] ] ] J e.J J } } J } } J O.J e.J J e.e.J } } J J O.J J e.J } } J } } J } J e.J J J e.J } } J J J e.J J J O.J } J J } } } } ",
"3 < , O 8 ] [ [ [ [ [ [ [ ] ] ] J e.J O.J O.J e.} J } } J e.J J J } J e.J O.J e.O.J e.J e.J J } e.J O.J J } } J J J e.J J } } J } } J e.J e.J J J e.J ",
"< - , O - [ [ [ [ [ e.} ] ] ] ] } J e.J J J e.J J } } J J O.O.J e.J e.J J J } J } J J } J O.} J J e.} J } J J } } O.J e.} J } } J } } J e.J } O.} J e.",
"; < < O , [  .[ [ [ [ [ } ] ] ] } } J J } J J } e.J } J e.J J e.J J } } } J e.J J e.J J J d.J } J O.J e.} } J J J e.} J J e.J } J } e.J J O.e.J J O.J ",
"; < , O 2 [ [ [ [ [ [ [ [ ] ] ] J } } O.J e.J O.J e.J } J J e.J O.J } J J e.J O.e.J O.J } J J } J J e.J J } } J d.J J J O.J e.J J O.J } J J J e.J J } ",
"; < , O , ] [ [ [ [ [  .[ [ J ] ] ] ] ] ] ] ] ] e.J J J e.J J } J } } J } J J e.} } J } } J J } O.J } } ] ] ] ] ] ] } J } } ] ] } J } J } } e.J e.J J ",
"; 8 8 O , ] } [  .[ [ [ [ [ ] ] ] ] ] ] ] ] ] [ J e.e.J J e.} J e.J } J J e.J J J J } } J } } } J } } J ] ] ] ] ] ] J } } J J ] } J J } } J J } J O.} ",
"; ; , O 2 [ } [ [ [ [ [ [ [  .] ] ] ] ] ] ] ] ] } J } } } J J O.J e.J O.e.J J e.} J } J } } } J J } J } ] ] ] ] ] ] ] ] ] ] } } } } } } } J J J J O.J ",
"; 8 < O , [ } [ [ [ [ [ [ [ ] ] ] ] ] ] ] ] ] ] J } J J J O.e.J O.J e.J J O.J e.} } } J } J J } } } J } ] ] ] ] ] ] ] ] ] ] ] ] J } J J J e.} } J J e.",
"; < < O 8 [ [ [ ] [ [ [ ] ] ] ] } J e.J ] ] ] ] J } } } } J J } J } J } } J e.J J J } J } } J } J e.J } e.J { ] ] ] ] ] ] ] J } } J } } } J O.J } } J ",
"; < , O - ] [ [ ]  .] [ ] } J } J } J } [ J ] ] } S J } } } } J J } J e.} J J } } } } } J } } J } J } J } J ] { ] ] ] ] ] ] ] ] } J J } J } J } } J } ",
"8 8 - O ; [ } [ [ [ } ] ] J } J e.J e.J e.J } J } } S } S } } } e.S } } S } S } } e.S } J } } J } e.J } J } } { ] ] { ] { ] ] ] J O.} e.e.} J J e.e.} ",
"8 ; < O 3 [ } } [ } } ] } } } { J e.J } J ] ] } J } } S } } } } } } J } } } } } J J } J } } J { J } J } e.J } } | ]  .] ]  .} ] J } J J } J O.J J J J ",
"< < 8 O ; [ [ [ [ [  .[ { { { { } } } J { { J { J { { { J } J J J J J J O.J } } J O.J J { { { { { { { ] ] ] | [ ] ]  .] ]  .] [ { } J { { { { { { { { ",
"- 8 ; O - A e.[ [ [  .[ } J { { } J J o.{ O.O.{ { { { { } } O.{ J } O.J J } } { J O.O.{ { { { { { { { { ] [ [ [ [ [ [ [ [ [ [ [ } } } { { { { { { { { ",
"- ; 8 O - A [ [ [ [ [ [ J } } J J { J J J J J J { { { { J J J J J J J J { { { { J J J J { { J { { { { { ] | [ ] ] ] ] [ [ [ | ] J } } J J J O.J { { J ",
"8 8 8 O - A w. . .e.e.[ } } } e.O.J O.O.} } e.e.} } } } } } } e.d.} O.} { } } } J O.} e.O.} O.{ } { } } } [ } [  .[ [  .} } [ [ e.J O.J O.J J O.} } } ",
"; 8 8 * + h k h h h b n n n n n J k k J k k k k S j k k k k k k k k k k M k k k k k Z k k k k k k k k k n n n b n n n n b n n b k k k k k k k k k k k ",
"; 8 - O O O O o O O O @ O   X X O O O O X X X X O O O % X % X X     % X + O X O X X X X X X     X . X X . O . . . . . o . . . . X X X           . . X ",
"8 0 8 < - - - - 2 - * $ = & ; ; & < & ; & ; & ; & < & & & & & ; & & & & & & & & % & % % & & % % % % % * + + - + O + + + + + * O & O % % O % O % % O + ",
"< 8 8 8 8 8 8 8 3 3 8 3 8 8 < < < < < < < < < < < < < < < < < < < < < < < < < < < < < < < < ; ; < < < < < , - , , , 8 - - , - - & < ; & < & ; ; ; ; < ",
"< 8 < 8 3 h 8 8 3 h 3 h < < < < < < < < < < < < < < < < < < < 8 < < < < < < < < < < < < < < < < < < < , 8 - 8 < 2 < 3 - , - < - - , < < , ; , < & , & ",
"* - - - - 2 + * & * * % & + , % , + , O + % + O > & + O & O O O % % O O O O + O O O O O O O + O O O O O O O O O % O O O O O O O O O X X X X . + X O X ",
"O , 8 < 8 8 8 8 8 8 ; * + + + > : + > + > + $ $ + : $ & : + + $ % > : : : : + + + $ $ + + $ $ + + : + > $ * - + $ + $ $ $ * + $ $ + + + + + + o + + + ",
"O n e.J X.[ } ] [ I J 0 + > H H H H / / ( / ( L H H / / / / L L J { { ..{ o.{ o.' ' ' | ' { _ _ { ( ( J _ _ _ _ ' L P +._ _ _ ' _ / / ( / / H ) / H H ",
"- n [ [ X.{ X.X. .} X.0 o 7 ( ..,.-.o.-.%.=.%.%.:.:.:.#.#.%.#.%.2.l.7.l.0.v.4.7.7.7.2.7.h.4.h.2.2.2.2.<.2.2.2.1.1.+.%.2.1.2.2.:.1.=.:.:...:.o.:.o.:.o.",
"$ n X.| } { { { J X.[ r @ 7 { o.o.:.' :.%.%.%.#.#.o.%.' #.#.#.%.:.4.7.4.4.4.4.4.3.4.2.4.2.2.4.4.4.4.2.2.4.3.4.2.1.` #.1.*.*.1.%.1.:.:...:.:.%.%.o.#.:.",
"$ - 8 9 9 9 t 9 9 0 7 $ @ q ..%.:.#.-.%.*.%.%.#.-.#.-.#.$.$.$.@.;.4.7.6.6.6.6.6.4.5.4.4.4.4.4.4.4.4.2.2.4.3.4.1.2.' #.:.:.1.1.1.1.:.:.:.:.>.:.%.:.:.o.",
"@ 7 $ $ > > > > 5 > > > @ q _ %.#.#.;.-.%.*.#.#.#.#.#.+.@.#.@.@.-.3.6.4.4.6.3.4.7.3.3.3.3.3.1.4.<.,.2.,.1.:.1.1.:.` #.:.*.:.:.%.:.:...:.:...%.%.o.#...",
"b N.D.A.Z.A.A.Z.F.F.F.n.9 5 | %.#.#.$.*.5.*.*.*.;.@.;.;.#.#.;.@.-.3.9.9.6.6.9.9.6.5.6.6.7.3.4.4.3.4.2.4.5.1.3.3.3.@.-.1.3.3.1.3.3.:.:.2.:.:.1.>.:.:.:.",
"b ~.].'.].{.{.{.'.{.{.H.e 7 %.:.:.-.$.5.*.*.*.*.;.$.@.$.;.@.;.@.#.;.7.6.6.6.6.5.6.6.5.6.5.3.4.3.3.4.3.1.3.3.1.1.3.@.-.;.;.1.;.-.;.:.:.%.%.%.%.%.%.%.o.",
"- Z.R.T.T.P.P.P.F.W.Q.m.7 6 ..:.;.$.$.$.*.*.*.$.;.@.#.#.$.;.@.@.;.;.6.9.8.8.6.6.6.6.6.6.5.7.7.7.4.4.3.3.5.3.3.1.3.@.#.1.,.;.;.;.;.:.:.:.:.:.:.:.:.:.:.",
"$ N.G.G.H.P.U.U.T.P.G.k.5 6 +.1.-.$.;.*.*.*.*.$.#.;.;.-.@.;.;.;.#.5.6.6.6.8.8.6.6.9.6.6.7.5.7.5.3.4.4.3.4.4.4.3.;.@.#.;.;.1.;.,.:.:.2.:.:.:.:.%.:.%.:.",
", N.H.T.Q.!.Q.Q.T.T.F.<.$ 6 ..1.;.$.;.*.*.*.*.*.$.$.-.#.#.$.;.#.;.;.5.8.9.8.8.6.6.6.8.5.6.8.7.2.7.4.4.4.4.3.3.3.3.@.#.1.3.1.3.;.1.1.1.2.:.:.:.*.:.%.-.",
", N.H.H.Q.Q.T.T.Q.R.F.k.# 6 ..:.;.;.;.;.*.*.5.;.-.;.$.$.$.$.#.#.#.;.5.6.9.8.8.6.8.8.6.8.8.5.7.7.4.7.4.4.7.4.5.3.3.#.#.1.1.1.3.1.1.1.1.:.1.:.;.:.:.:.:.",
"+ N.H.H.Q.Q.Q.Q.Q.R.F.<.# 6 ' ,.-.-.;.:.*.1.$.$.;.;.*.$.$.;.$.$.#.$.;.8.8.8.8.8.8.8.5.5.5.5.8.2.7.7.7.4.7.2.5.4.1.#.#.4.3.,.1.3.1.1.2.1.1.1.:.1.*.:.:.",
"* N.H.H.H.!.Q.!.Q.R.G.2.# q ..,.;.:.;.1.$.:.;.$.-.#.;.;.$.$.*.$.$.#.5.8.8.8.8.6.8.8.8.8.8.8.8.7.g.4.7.7.7.2.5.4.3.+.#.3.4.2.1.1.2.1.1.1.1.*.1.:.:.:.:.",
"& M.F.G.Q.Q.Q.R.Q.E.K.d.$ 5 %.:.;.;.;.;.;.;.;.;.;.;.;.;.%.#.:.#.:.#.;.6.8.8.8.8.7.8.8.7.l.7.7.l.7.7.7.7.7.2.4.4.2.%.:.3.2.1.2.3.1.3.1.1.1.1.1.*.*.:.:.",
", N.G.P.W.R.U.R.E.E.D.d.1 6 %.>.1.;.;.;.;.;.;.;.;.;.;.;.*.$.$.$.;.#.;.5.8.q.8.8.8.7.7.8.7.7.8.7.7.l.7.7.7.7.7.4.5.#.-.3.3.1.1.1.3.5.3.1.1.*.;.1.:.:.%.",
"+ N.K.P.U.P.K.K.I.R.F.d.# 6 ..2.:.;.;.;.;.;.;.;.;.;.;.;.;.;.;.-.;.#.-.;.6.0.0.0.7.0.8.9.7.7.8.7.7.7.7.7.6.4.3.7.7.-.-.1.;.3.5.3.5.;.5.;.5.*.;.;.;.;.;.",
"- N.F.P.K.K.Y.K.I.R.K.d.$ 5 %.>.:.3.;.;.;.6.;.;.:.:.3.;.:.:.;.;.-.;.-.;.7.q.q.0.0.8.9.7.8.0.7.7.7.7.7.7.6.7.6.4.3.#.;.3.5.3.1.3.3.5.;.3.3.;.5.3.:.3.:.",
"$ N.F.P.P.U.R.I.Y.T.K.<.# 5 %.>.2.2.1.5.5.*.*.=.2.%.1.1.1.%.:.;.#.:.-.-.5.8.0.v.q.q.8.8.8.l.8.7.l.7.7.l.7.7.4.7.4.#.:.7.7.4.3.3.1.1.3.1.3.1.1.:.1.1.:.",
"& N.F.P.W.W.!.K.I.R.L.d.# 6 ..,.1.1.:.1.5.*.5.*.=.1.:.:.;.:.:.-.;.1.-.-.3.8.q.q.q.q.0.7.9.7.6.8.7.7.7.7.7.7.7.4.4.-.1.6.7.3.3.1.3.3.3.1.:.1.,.:.1.:.:.",
"$ N.F.P.W.W.U.K.L.R.L.d.$ 5 ..2.2.1.*.5.=.=.*.=.=.=.=.%.*.=.%.=.*.*.:.%.2.l.x.b.x.v.x.l.l.l.7.l.l.7.l.l.2.7.l.7.4.:.:.2.2.2.4.2.2.2.>.,.>.>.<.>.>.O.>.",
"& N.G.P.Q.P.U.I.J.R.K.<.* 3 e.t.t.t.t.t.i.^ ^ ^ ^ ^ ^ ^ ^ ^ ^ ^ ^ ^ U ^ t.i.i.a.a.a.a.a.a.a.i.i.i.i.^ i.i.i.y.y.y.t.^ t.y.t.t.t.t.t.w.w.r.r.y.w.w.w.w.",
"+ N.F.P.W.P.T.I.Y.E.L.d.* 4 v v c c c K K K K K x x x D K D v v K v x x x x x K Y K K v K v K K K K x x v x z x z z z x x x x x x c l l F F G G F F F ",
"$ N.K.P.W.F.I.K.D.R.L.d.- 4 T Q Q E Q E U U U E W W W W W Y W W W Y Y Y Y Y Y W ! ! ! ! W W W Q E E E W W E Y W Y Y Y Y Y Y Y Y Y F F F T T R R ~ ~ R ",
"& N.F.P.W.F.I.G.J.E.L.d.: > _ <.>.g.p.2.=.*.=.=.=.p.p.p.t.=.s.=.=.=.=.=.=.=.g.l.z.z.z.z.z.z.z.z.l.l.z.h.h.g.g.j.j.>.>.h.h.d.h.g.g.g.p.>.d.s.s.u.e.u.e.",
"$ N.F.P.W.F.I.L.J.E.G.d.: : ) ,.,.1.3.1.5.5.5.3.3.*.1.1.1.1.1.1.*.:.:.;.:.-.-.7.0.v.0.0.0.0.9.0.9.9.9.9.9.9.9.9.4.3.-.4.3.6.6.3.3.4.4.3.1.,.,.,.,.2.,.",
"- N.F.P.W.K.P.K.G.T.G.d.: : C ..%.' ..%.+.%.#.+.+.+.+.+.+.+.+.#.' #.' ' ' ` _ ' :.1.2.,.:.1.1.:.:.:.;.;.:.1.:.#.+.` _ #.#.#.#.#.#.#.%.#.+.%.+.#.+.+.' ",
"- M.G.K.U.F.P.K.G.T.G.d.+ $ b H C C L L P L V V V V L V V V V V V V V V g V g f L / / / _ _ / ( / _ / / / / / / L g f L / V / H L L L L L L L V L L N ",
"$ M.H.I.R.P.F.F.P.T.G.d.+ + b J C m C C C C V C C C V m N V m N V m m C m m C V H / ( / / C C / / C / P P P P P L V V P N V V V L m m m m m m m m m m ",
"- N.H.G.Q.U.F.G.Y.T.G.d.> $ m } ..{ ..] ] | I [ [ |  . .[  .| [ ] P A ( ] ] ( ( J ( { ( { ( ( J ( J ( J A P P ( C P P P V N N C C C C C C C C C C C C ",
"- N.H.P.Q.Q.Q.W.R.T.G.d.> + M } ] { { {  .]  . .] [ | U | I | | J ] ] [ I ] { J J J ( J J J J J J H J J C J C C C C C A C M m C C C C C B B C B B B B ",
"+ N.G.H.!.Q.Q.Q.R.T.F.O.> + 0 J m m V V m N b N N N B N N N B N B N b b n N M j b j m j j k k k k k k k k k k k b k k M n k k n k k b n n n n n n n n ",
"> M.G.H.Q.Q.W.Q.Q.Q.G.d.> + , 0 9 9 9 e e e e w w w w u q q 9 q q q 9 9 7 7 9 9 , < , 0 0 j r r 0 0 h h h r 0 r 0 r r r r r h r r w r r p r p h r r p ",
"> M.G.G.Q.Q.Q.Q.Q.Y.G.d.> O > : $ 5 : > 1 7 1 2 1 2 1 5 1 1 $ @ # 5 > : $ 5 $ 5 : + : : + > > , > , $ $ - > > $ + @ + @ $ $ $ $ $ , $ $ $ @ @ @ @ @ @ ",
"& M.G.A.R.P.U.F.I.G.Z.j.$ $ e r y t s i m / N N P P i a i a s t a t t g d d H g s t a t e t u i w N C i m s s e e w e e w e e i m y y s p 5 q 5 7 e 7 ",
"& A.^.T.Q.U.Q.Q.R.~.^.n.$ @ s.E.T.L.D.d.s C N B I N 1.C.J.I.K.K.F.m.H g ( t d f ) b.C.K.J.S.C.B._ s L f V V s 2.C.C.C.C.C.B...s C s s m s O.c.V.m.B.m.",
"> f.G.G.L.F.K.K.Z.K.L.d.e @ Z.%X$X$X$X_.( ( C V ( _ `.@X+X@X+X@X#X|.k.d ) s ) g C.XXOX+XOXOXOXXXC.L L i L V l.}. X X.X X XXXK.L f a t d <._.'._.}._.`.",
"X O - > 5 : # > 1 7 $ - @ @ M.oX[.[./.V.V | N f P P U.}.}.}.}.}.~.C.H d H s g f b.).)._.).`.(.I.2.f L f s V :.~././.(.(.~.P.h.a g f s s _ I.~.~.~.~.Q.",
"< & & , > 9 5 > : 1 2 8 2 9 C X.{ ' C s P %.N N P N L  . .P +.&.P b g P C s C g e ) { _ ( ..V N b V ( s b C 6 m H { C V C s y V H r s N q s P V P L N ",
"J k k J J { H d 9 r b w q r q 7 e e e i i s i p N p u q u 1 u 3 w w w N p w r b t 9 > 5 7 9 5 0 s r r r 0 9 e e $ 7 7 9 > 7 r 0 e e q q w u q 6 1 1 q ",
"J k 0 J J J M M n &.j.s.s.>.=.>.,.%.>.>.&.>.=.=.=.&.&.&.&.| =.&.| &.&.X.&.X.&.O.O...O.O.X.o.} | { X.| } ..] ..] | { { ] ] { ] ( { ] | | P | P ..| P | "
};
