/* XPM */
static char *result[] = {
/* columns rows colors chars-per-pixel */
"103 75 198 2 ",
"   c #010304",
".  c #080707",
"X  c #060807",
"o  c #030608",
"O  c #060A0A",
"+  c #090B0C",
"@  c #0E100F",
"#  c #0B0E11",
"$  c #0C1213",
"%  c #111111",
"&  c #131816",
"*  c #121619",
"=  c #13191C",
"-  c #1A1D1D",
";  c #181717",
":  c #19211F",
">  c #171E21",
",  c #1C2224",
"<  c #1C2428",
"1  c #1F2A2A",
"2  c #232424",
"3  c #212729",
"4  c #242B2D",
"5  c #2A2D2E",
"6  c #262D31",
"7  c #2A2E32",
"8  c #253135",
"9  c #2C3235",
"0  c #2D3539",
"q  c #2C383A",
"w  c #333636",
"e  c #363739",
"r  c #323A3C",
"t  c #393B3C",
"y  c #3C403E",
"u  c #353D42",
"i  c #3B3E42",
"p  c #374143",
"a  c #3B4244",
"s  c #3C4649",
"d  c #3F494B",
"f  c #454646",
"g  c #4A4C4C",
"h  c #444A4A",
"j  c #434D51",
"k  c #4D4F50",
"l  c #4C5355",
"z  c #4E5658",
"x  c #4A5658",
"c  c #545555",
"v  c #535B5D",
"b  c #5D5D5E",
"n  c #565759",
"m  c #475B63",
"M  c #4B5B66",
"N  c #475A6A",
"B  c #4D5E6C",
"V  c #545D62",
"C  c #515F6C",
"Z  c #4E5F71",
"A  c #4F616E",
"S  c #4D6167",
"D  c #5A6366",
"F  c #52626E",
"G  c #5C656A",
"H  c #5D696C",
"J  c #536569",
"K  c #4E6271",
"L  c #536472",
"P  c #586673",
"I  c #556975",
"U  c #5A6B75",
"Y  c #556678",
"T  c #576A79",
"R  c #5C6E7B",
"E  c #5B7276",
"W  c #5D717D",
"Q  c #636565",
"!  c #626B6E",
"~  c #6D6E6D",
"^  c #626D72",
"/  c #606E7C",
"(  c #6B6F73",
")  c #657275",
"_  c #6A7175",
"`  c #63727C",
"'  c #6B757B",
"]  c #64787D",
"[  c #6D7B7E",
"{  c #73767A",
"}  c #727B7C",
"|  c #777879",
" . c #5D6D80",
".. c #5F7381",
"X. c #647583",
"o. c #697684",
"O. c #667985",
"+. c #6A7B85",
"@. c #667B89",
"#. c #6B7D89",
"$. c #737F82",
"%. c #717F8D",
"&. c #6B8186",
"*. c #6D828B",
"=. c #758384",
"-. c #7B8484",
";. c #72838D",
":. c #7A848A",
">. c #73888D",
",. c #7A898D",
"<. c #6F8291",
"1. c #748593",
"2. c #788793",
"3. c #768995",
"4. c #7A8B94",
"5. c #758699",
"6. c #768A99",
"7. c #7B8D9B",
"8. c #7B9296",
"9. c #7E919D",
"0. c #7E999A",
"q. c #7D8EA0",
"w. c #7F93A0",
"e. c #828484",
"r. c #848C8C",
"t. c #85878B",
"y. c #828D92",
"u. c #808F9B",
"i. c #849195",
"p. c #899396",
"a. c #82939D",
"s. c #89959B",
"d. c #839A9E",
"f. c #8C9A9E",
"g. c #939394",
"h. c #929B9D",
"j. c #9A9B9C",
"k. c #818FA2",
"l. c #8394A2",
"z. c #8997A3",
"x. c #8699A5",
"c. c #8B9CA5",
"v. c #8699A8",
"b. c #8B9CA9",
"n. c #929EA3",
"m. c #919FA9",
"M. c #8F9CB1",
"N. c #86A1A2",
"B. c #8DA1A6",
"V. c #8EA2AC",
"C. c #8EA8A9",
"Z. c #95A2A6",
"A. c #9AA3A6",
"S. c #95A4AC",
"D. c #99A5AB",
"F. c #94A9AD",
"G. c #9BA9AE",
"H. c #8DA3B1",
"J. c #94A5B3",
"K. c #99A6B2",
"L. c #96A9B4",
"P. c #9AABB4",
"I. c #97A6B8",
"U. c #99A7B9",
"Y. c #97ACB8",
"T. c #9BACBA",
"R. c #97B0B5",
"E. c #9AB1B5",
"W. c #9CB1B9",
"Q. c #A0AAAE",
"!. c #A6A7A8",
"~. c #A2AEB4",
"^. c #A1AFB8",
"/. c #A6B1B4",
"(. c #AAB3B6",
"). c #A2B2BA",
"_. c #ABB4BA",
"`. c #B3B3B5",
"'. c #BCBDBD",
"]. c #9EACC0",
"[. c #A9B9C1",
"{. c #CACBCB",
"}. c #C0C2C1",
"|. c #CFD1D0",
" X c #D3D5D4",
".X c #D6D6D8",
"XX c #D7DAD8",
"oX c #D9DADA",
"OX c #DDDDE0",
"+X c #DFE1E0",
"@X c #E2E2E2",
"#X c #EBEBEB",
"$X c #EFF0F0",
"%X c #F3F3F4",
"&X c #F5F7F9",
"*X c #F7F9F8",
"=X c #FDFEFE",
"-X c #F6F9F6",
/* pixels */
"=X=X=X=X=X=X%X%X=X*X$X@X{.c n y e g Q b t t y f f f f f f f f f f f f f f f f f f f f f f f f f f f f f f f f f f f f f f f f f f f f f f f f f f f f f f f k n k e t f f | g.!.#X#X=X=X-X$X%X=X=X=X=X=X=X=X=X",
"=X=X=X=X=X=X@X@Xj.e.b w 5 ; ; % @ % ; ; % % % % % % % % % + % % @ % @ % % % % % % + % % % % @ % % % % % % % % % % % @ % % % % % % + % % % % @ % % % % % @ % % % ; 2 2 ; % - 2 e ~ ~  X#X%X=X=X=X=X=X=X=X=X=X=X",
"=X=X=X=X=X*X@X@Xe.Q e   .   . .         . .         .                                                                                                           + 2 2 . .   . % g g {.@X$X=X=X=X=X=X=X=X=X=X=X",
"=X=X=X*X$XoXe.e.f w - .           .   . . .                                                                                                                     . % % .   . . . 2 2 Q { g.!.'.*X*X=X=X=X=X=X=X",
"=X=X=X%X@X'.2 2 .     . .       . X + +                                                                                                                     . O X         . . .         5 g { -X&X=X=X=X=X=X=X",
"=X=X=XoX`.j.- - .   o . . + + ; ; - : - * * = * ; ; = = = = = = = = = = ; = = = = * = = = = = = * * * * = = * = = = * * * * = = ; * = = = = = * * * * * = = - - = ; = + . . O           2 f Q |. X&X=X=X=X=X*X",
"=X&X%X|             O # * 0 w V ! _ _ ' ( ( _ ' _ ) ' ) ) ) ) ) ) E ] ) ) ] ` ] ` ` ` ` / / ` ` ` / ` ' / ` / / ` / / ` ` ` / ` ` ` ` / / ` / ` ` / ` ' / ` ^ U ) [ [ u 8 = o o     o   O @ : f f XX=X=X=X-X#X",
"=X&X%X|             . # * w 9 V ! _ ' ' ^ ( _ ( ' ) ) ) ) ) ` ) ) ] ) E ` ) ` ` ] _ / / ` ` ` ` / ' ` / ` ` ` ` ` ` ' ` / / ' / ` / ` ' / ` ` ` / ' ` / ` ` ^ U ^ [ O.u 8 = O o     o   @ $ : a a XX=X=X=X=X#X",
"%XQ i 2   o O O < 7 k ( ' t.y.s.g.z.p.g.m.m.m.m.c.Z.B.c.c.N.c.c.N.x.B.N.B.N.B.B.V.b.b.b.v.v.b.b.b.v.v.v.b.v.b.v.b.b.v.v.b.v.b.b.v.b.v.v.v.b.v.v.b.b.v.v.b.b.B.S.B.f.f.4.4.-.=.^ q q #       O & & e.j.|.=X=X-X",
"$Xe . o   o # # 9 u V t.p.Q.Q.m.A.n.m.m.~.~.U.~.P.P.G.P.P.F.P.F.P.L.L.L.L.Y.L.R.Y.L.L.L.I.Y.K.Y.U.Y.Y.I.Y.I.Y.L.K.U.I.Y.K.Y.Y.K.L.L.Y.Y.U.Y.Y.I.U.Y.Y.I.K.Y.W.).T.S.Z.G.G.F.A.y.s s $ o     X X X ~ e.}.=X=X=X",
"e.2 o o o # > > s k _ n.j.~.(.D.!.m.m.m.~.~.K.Q.P.G.P.L.K.P.L.L.L.L.P.P.L.L.L.L.Y.L.L.L.Y.J.I.Y.L.L.J.I.L.L.I.J.L.L.J.I.I.J.L.I.I.I.L.L.L.L.J.I.L.L.L.J.K.L.T.).P.V.B.S.Z.G.G.h.) ^ q 6 : O X X X y g j.#X$X=X",
"  . O O O * u u V C %.Q.K._._.K.m.D.m.K.K.K.K.K.K.G.K.F.F.J.J.F.F.J.J.J.L.L.L.L.L.J.J.J.J.H.J.H.J.J.J.J.J.J.J.J.J.J.J.J.J.J.J.J.J.J.J.J.J.J.J.J.J.J.J.J.L.L.P.P.K.Z.B.c.Z.G.).G.f.f.H V q & $   X + + | XX+X=X",
"  . . . # * u i V G t.A.K.(.~.K.m.m.Q.m.K.D.K.K.K.K.K.F.L.L.J.L.J.L.L.L.L.L.L.L.L.J.J.J.J.L.J.J.J.J.J.J.J.J.J.J.J.J.J.J.J.I.H.J.J.J.I.H.J.J.J.J.J.J.I.J.L.J.K.P.P.S.S.c.Z.S./.G.p.i.H b y : & X X X + ~ {.XX=X",
"      % > u Y P ' ' %.k.s.z.z.m.m.K.~.~.m.m.K.~.P.P.P.P.K.K.L.K.P.L.L.L.Y.L.I.Y.Y.L.L.I.I.L.I.L.L.L.I.I.L.I.I.Y.Y.I.Y.J.L.L.Y.Y.L.I.L.I.I.I.Y.L.L.J.L.I.K.L.L.L.P.[.[.G.Z.s.4.,.[ [ ! H x p 9   X     f r.j.=X",
"      # < 7 G P ( o.t.p.s.z.j.M.m.D.^.P.m.m.K.P.P.T.P.K.L.L.K.K.L.L.L.L.Y.Y.Y.Y.Y.I.I.L.L.Y.I.I.Y.J.I.L.L.L.I.Y.I.J.I.I.L.Y.I.J.I.L.Y.I.L.L.I.L.I.Y.L.I.K.K.L.L.P._.[.F.S.d.y.,.[ [ H ! x a 9 X       f r.!.=X",
".     7 n G 2.y.y.y.z.K.K.~.Q.m.c.m.m.m.z.z.;.+.o.o.o.O.o.O.o.o.X.O.O.O.o.o.O.@.@.O.X.O.X.X.X.@.X.@.X.o.@.X.X.X.@.X.O.O.X.X.@.X.O.X.X.@.X.X.@.X.X.X.X.o.O.X.;.1.7.x.x.F.G.F.S.s.) ! ' [ } -.H X X X X 5 g _ *X",
". .   u ^ ' c.z.z.f.S.^.^.).^.m.c.c.c.z.s.z./ P P F P L L L L L Z P Z Z P Y P Y L L L L L L L L L L L L L L L L L L L L K L L L L L L L K L L L L L L L L I E +.;.>.2.F.P.P.~.z.H H } $.r.h.} X X X + : w b -X",
".     a :.y.D.K.z.s.c.Z.m.c.n.4.;.%.%.$.%.+.U P P P F F F L L L P C P P Z Y Z P L L L L L K L L K L L K K L K L L K L L L K K L L L K L K L K L L K L K I J R W ` +.O.a.f.Z.G.m.=.=.,.i.f.A.} X   X X % : c *X",
"    . l m.D.^._.z.s.a.8.7.;.%.U F B m M C C F F F F L C F C L L Z Z P Z P Z P Z L Z B L A A B K A A K K A L A A A A A K K A A A K C C K A K A K K A A A A A A J F J S ` ] u.S.Z.n.f.Z.A.A.Q.-.X X     X X y =X",
"  . + x m.D.^.^.z.a.4.4.,.%.$.U G C M M C C F F L L P C F L C F C P Z Z P P Y Z Y L L K A A F K A K A A A A K Z A A A A F A A A A A K A A A A F A A A A A A A A A F F ) ` 4.Z.n.B.n.A.A.G.!.=.O X X     X t =X",
"  < 9 D s.s.S.S.4.;.] F I L J I I F B F P P G L F F P P C Z C C Z C Z P P C P P Y Z C L K L B A Z A B L B K B L K B K A A A A A A A A A A F A A A A A A A A B N S U U S M ) ;.4.E.Q.G.G.A.!.r.y y +       t =X",
"  2 9 D s.z.S.J.4.;.] I J L J J J F V S U P P L P L C C P P C C P C P C P P Z Y C L Z L B K K A K F K K F K K K K F A K A K B K K A K A A K A K F K Z L F A S B A U U S B ` =.7.Q.E.!.G.G.A.r.y y +       t =X",
"  4 q H c.B.P.P.B.x.d.4.8.z.d.z.x.a.1.4.z.x.a.a.u.l.k.u.k.u.u.k.u.k.k.u.k.k.k.k.k.k.k.u.7.q.w.7.7.7.w.7.7.7.w.7.7.a.7.q.9.7.9.q.7.q.q.7.7.w.7.q.9.7.w.7.9.9.3.;.;.&.&.&.=.7.c.Z.G.G.A.G.Q./.p.w q $ X X   t *X",
"  5 w H Z.S.E.E.F.S.B.N.B.P.R.W.W.J.c.c.K.K.K.J.K.K.K.K.M.I.K.K.K.K.K.M.K.U.K.J.K.J.J.J.J.J.J.J.J.J.J.J.J.J.J.J.J.J.J.J.J.J.J.J.J.J.J.J.J.J.J.J.J.J.J.H.J.J.v.x.a.1.2.7.9.c.G.G.C.D.D.D./.(.p.q q $ X X X t *X",
". 5 w ! C.C.E.E.E.E.C.F.C.R.E.R.E.S.x.B.S.V.B.c.x.z.z.l.l.k.u.k.k.k.k.k.k.k.s.k.k.l.l.l.l.q.7.l.k.w.l.w.l.w.w.w.q.w.l.w.l.l.l.l.9.w.7.7.w.w.w.w.w.w.w.w.0.9.w.x.l.9.9.c.b.S.P.K.F.F.A.G.G./.p.w w $ X   X t *X",
"  5 w ! G.G.E.C.E.E.E./.W.R.E.R.F.S.V.B.c.c.7.3.1.;.;.#.$.o.o.+.o.o.o.o.o.o.o.o.X.o.o.O.O.O.@.@.@.O.O.@.O.o.@.@.o.@.@.@.#.#.O.@.X.X.o.X.X.X.X.X.X.o.O.O.O.@.3.w.x.B.V.T.W.W.P.P.Z.S.G.A.G.Q.8.y t @ X     t =X",
"X 1 w ! Q.C.F.F.R.R.E.E.R.R.C.C.B.B.x.x.d.a.3.*.%.#.%.o.o.o.o.` o.o. .o.o. .o. .X.X.o.o.o.X.o.X.o.X.o.X.X.X.o.X.o.X.X.o.@.@.O.O.X.X.X.W ..W X...X.X.X.X.X.X.>.6.l.c.v.L.Y.P.P.P.Z.F.A.G.G.Q.p.r y @       y =X",
"X 1 y ! C.C.C.C.C.C.C.N.0.>.>.] ` E J F F F S S B V M M M M B C C C G G P P P G L Z B B Z B B Z B B B B Z B B B B B K K Y L L Z K F K L L Y L P T Y I L Y I L K I W X.8.a.x.B.B.V.S.G.G.G.Q.p.y p $   X   r =X",
"  4 y H C.C.C.C.C.C.N.0.0.>.>.] E E J L S J S S B M M M M M C C C Z C P C C P C F B B B B B B B B B B B B B B B B B B B L L Z L A F K K L L L T Y T L I L L K A I W W 8.9.x.c.B.S.S.S.G.Q.Q.p.p p # X X X t =X",
"X 5 w ) Q.F.C.C.N.0.8.&.&.E E J S S S J J L L S F C F C V C J L C P P P P P P C F L L C L K K K K K K L K K L A K K L A L L Z B K A L L L L T L L L K F A K A A K I I @.*.;.7.8.B.B.K.P.E.G.i.r y #   X   t =X",
"  5 w ) E.E.C.C.0.8.&.] E S S S S S S S I I J L J L F F F F J L P P P P P P P C F L L K L L K L L L L L K L L L L L K L B B K A A A A L L I T L Y L A L Z N K A A A A W W +.;.4.B.Z.G.Q.Q.G.,.q 8 #     X t *X",
"X 5 w ) Q.E.C.C.0.0.>.&.&.E E E E E W W &.W ..&.] ` ] X.X.o.o.o.o.o.o.o.o.o.o.o.X.X.X.X.X.X.X.X.X.X.X.X.X.X.X.X.X.X.X.X.X.X.X.X.....X.X.X.O.O.X.X.X.X.W W E W ....W W O.O.*.1.8.B.S.G.G.G.G.i.r y # X     t =X",
"X 5 y ) R.F.C.C.N.N.0.0.8.8.8.0.8.0.w.0.x.w.w.w.9.9.9.9.7.u.u.a.z.k.z.z.l.z.k.l.l.k.a.q.w.7.9.7.l.w.q.9.a.9.q.w.7.l.9.l.l.l.q.9.w.9.w.l.w.l.a.w.7.l.7.7.3.3.w.w.w.6.6.>.>.6.6.0.Z.V.L.K.G.G.r.s s $       u *X",
"X 5 q ) G.R.C.C.N.0.0.w.0.0.0.w.9.0.x.w.x.N.x.0.a.9.9.7.9.a.u.a.k.z.l.k.k.l.l.k.7.7.7.u.q.u.9.7.7.7.q.7.7.7.7.9.7.7.7.9.9.w.l.7.q.w.7.w.9.q.a.a.q.7.7.6.3.3.6.w.w.6.6.8.6.0.6.0.B.Z.D.D.G.G.i.d s $ O o   r =X",
"X 5 w ) E.E.R.R.R.R.R.R.R.R.R.R.L.L.L.C.C.C.H.w.a.a.a.7.7.6.6.2.2.2.%.2.1.1.1.%.1.1.5.5.5.1.3.3.3.1.3.5.3.3.5.1.5.5.1.3.4.6.5.3.3.1.1.6.5.2.6.6.2.6.5.5.3.3.w.w.w.H.w.].].Y.R.R.F.K.Z.B.A.Q.f.G J = o   o y =X",
"X 5 t _ E.E.R.R.R.R.R.R.R.Y.W.R.E.R.J.J.V.V.w.w.x.l.l.4.7.6.5.5.5.2.5.5.%.1.1.%.1.1.1.1.5.1.1.1.1.1.5.1.1.1.1.5.5.1.1.3.6.6.3.5.3.1.1.1.5.6.6.6.6.6.1.1.<.3.w.w.w.R.].].R.R.Y.Y.L.J.Z.Z.F.~.n.H H = o     y =X",
"X 9 t _ F.F.L.R.R.R.R.C.H.C.H.0.9.6.<.>.&.&.&.&.O.X.X.W W R  .R  . ... .X.X. .X.X.R  .R R R R R R R R R R R R R R R R R / R R R Y R R R R W W X.` ` W ..W ......*.6.w.0.H.H.H.R.P.P.S.c.D.~.n.! H =       t =X",
"X 5 t ^ S.C.F.F.R.H.C.H.H.0.w.3.>.*.....I I T Y I K K A K K Z K K Z  .Y Y T  .T Y Z K A K C K K K F A A Z L K K K A L B B C B B B B B B B F L L L Y L L Y L I I ..*.<.w.w.H.H.H.P.P.S.C.D.~.n.^ _ =   O o t =X",
". 9 t ) R.F.R.H.H.H.w.0.w.<.<.*.&...W W I I I I I L L A Z Z Z Z K K Y Y Y Y Y Y L K K L K F B K A A A K A B K B K A F K B K L B B B A K K L L L I I L L A K K K K &...6.3.w.N.B.P.P.S.S.D.P.n.! E = o   o t =X",
"X 9 y ) W.R.H.H.8.8.3.<.&.E ..E I E I I I I I I I L K K K Z Z Z Y K Y Z Z Z Z Z L Z B B A B L B A A C A B L B L C B B A Y L K L L K L P L T T L Y L K L A A A N N N K T T *.>.6.J.L.S.S.D.~.n.C H =   O o t =X",
". 9 t ' W.W.S.H.w.0.>.*.......E T T I T T I I I Y Y Y K K L Y Z Y Z Y Y Z Y Z Z K Z K K L L L L L L L L L L L L L L L L I P Y L Y L L T P Y T T Y Y L L K K K Z K K K T  .@.<.6.R.J.S.F.Q.Q.z.! H =   o o t =X",
". 9 i ' ).P.H.V.w.9.6.>.>.>.<.<.>.3.3.3.6.3.6.6.5.5.3.1.5.6.5.5.q.5.5.q.q.5.5.5.5.q.5.6.6.6.3.3.3.3.6.4.3.3.6.6.3.6.3.6.3.3.3.3.3.3.3.6.3.3.3.<.<.#.O.@.......X.&...&... .@.<.<.V.b.m.B.K.~.m.{ ' = o o   t =X",
". 9 t ' ).T.C.H.w.9.6.>.<.<.<.<.3.w.6.6.6.6.6.w.7.7.7.7.6.7.5.q.q.q.q.q.q.q.6.5.6.7.7.7.7.8.7.7.7.7.7.7.7.7.9.8.7.7.7.7.7.7.6.7.6.7.7.6.7.6.3.3.1.*.O.#.....X.@...&.......@.@.5.m.b.B.m.K.~.m.{ ' = o o o t =X",
". 9 u ' ^.P.F.V.B.x.x.c.N.V.N.V.0.w.w.N.v.w.N.V.v.v.v.v.v.v.v.v.v.v.M.w.v.v.v.v.v.v.v.v.b.v.x.v.v.v.v.v.x.v.v.v.v.v.c.v.x.x.x.x.x.x.x.v.x.x.x.x.x.l.w.w.w.w.q.v.q.q.q.q.q.q.M.q.J.J.J.J.K.Q.m.{ ' - o     r =X",
". 9 u ' P.P.S.S.V.V.F.L.L.K.L.S.S.H.b.b.V.B.H.J.J.M.J.m.J.M.J.M.M.I.J.J.M.J.M.M.M.H.H.V.V.J.V.V.V.V.V.V.V.V.S.V.H.H.V.V.V.V.V.V.V.V.b.B.b.V.b.V.V.V.V.V.M.M.I.M.H.H.M.M.H.H.I.I.U.U.U.Q.K.D.z.o.o.>   o   t =X",
"o 0 u ' P.P.L.S.S.S.F.K.L.L.L.J.V.Z.v.c.V.x.l.l.l.u.u.7.7.7.6.5.q.q.q.q.7.q.7.7.7.7.8.6.7.6.7.8.7.7.7.7.7.8.7.6.7.7.8.6.6.3.7.6.7.8.6.7.7.7.9.9.9.9.l.l.v.k.v.M.H.H.M.M.H.].I.I.K.U.K.U.K.K.z.o.' > o     t =X",
"o 9 u ' ^.W.K.P.P.L.P.W.P.P.Y.S.b.c.a.a.7.u.o.W / U U P L L L L K Y Y Y Y Y Y Y Y A A A A A A A A F A A A A A A A F A S N B A B S A A F Y T R E W W X.X.@.o.%.k.q.M.M.].].].].].U.J.K.U.D.D.z.^ ^ *   o   t =X",
"  9 i ' ~.P.F.P.P.K.P.T.R.K.L.Z.b.l.a.a.7.7.O.` R R Y L L L L L K K Y K Y L P P Y A A A A A F A A A A A A A A A A A A A B B S A A A A I L I Y E W W X.X.o.o.%.u.q.M.M.].].].I.I.K.K.K.U.K.m.s.( ^ >       t =X",
"o 9 u o.).).K.P.B.c.z.9.8.;.;.] ` R L L F A L P Y L F A B B B Z Z Z C Z Z L Z L B L L F L F C L J L F L L F L F L F L F F F L K C L L L L L P T T U R U R / P Z  .X. .q.q.l.b.b.J.J.U.T.~.D.z.^ ^ * o o   r =X",
"o 9 i o._.).P.P.B.c.l.8.6.#.+.` E J S B M M F I L A F B B B B B C C Y L Z Z L Z C L L L F L L L I K L F F L F L F L F L L F L F L L F L L L P P T P U R / R Y N Z  . .%.%.k.b.v.M.K.P.^.U.D.z.( ^ * o o   i =X",
"  9 u ' E.P.V.V.9.8.;.+.O.E R I F A A A A A A K A A A A A K K Y Y Y Y Y L Y Z K L L L C F F L L F A F F C L C L F F F F L L F L L C C C F F C C C C A F Z Z Y Z Z Z Z  .X.%.6.l.J.S.U.P.K.D.z._ / > o     e =X",
"  7 u _ K.F.c.x.1.;.+.E U F S B B A S A L K A S A A A K A Y Y Y Y L T T L L L L L B L F C F C C F F F F L C L C F F F L P L L F C C C C C M M M M M m M M M B L Z N N Z Z @.1.7.m.J.T.~.P.K.m.' ' >   o   e =X",
"o 8 u / P.K.V.B.9.4.*.O.O.W E U U E W W ..W W W R R R .. .....X.o.X.@.X.X... ... .X. .` X./ / / ` ` / / / X./ /  ./ X. .] X.X.`  ./ X./ / R R / R R / / / R  .o. .Y Y  ...@.6.9.J.J.U.K.P.G.z.' ' >   o   u =X",
"  7 u ' ).^.L.P.C.B.d.9.8.1.3.4.7.8.9.9.x.x.l.l.w.w.w.w.9.w.w.w.l.l.v.q.w.w.w.q.7.l.l.l.z.k.z.z.l.l.z.l.z.z.z.l.z.z.z.z.z.z.z.z.z.z.z.z.z.z.z.z.z.c.z.b.b.z.b.v.v.q.q.%.3.6.w.x.m.V.P.K.K.D.c.' ' * o o   e =X",
"o 7 u ' ).).K.L.B.x.d.8.8.3.1.8.3.9.9.9.x.l.w.w.w.w.w.w.w.w.w.w.w.w.q.v.l.w.l.u.7.z.l.l.c.z.z.z.l.z.l.z.l.z.z.z.z.l.z.z.z.z.z.z.z.z.z.z.z.z.z.z.z.z.m.b.M.b.c.b.v.6.q.%.3.9.9.x.V.V.J.P.K.F.z.' o.=       r =X",
"  8 u / D.F.P.E.Y.E.R.L.P.J.J.J.J.F.J.H.V.V.V.x.x.w.w.6.6.1.1.5.5.<.5.5.6.6.5.6.6.;.1.5.%.%.%.1.1.1.%.2.%.%.%.2.2.%.%.2.%.1.1.%.5.%.%.2.5.%.2.2.5.5.u.2.5.u.u.k.w.M.M.I.L.J.J.H.J.V.P.R.F.S.f.H ! *       i =X",
"  6 u ) S.F.L.R.R.W.R.R.Y.R.Y.L.L.L.L.L.H.V.v.v.w.w.w.3.6.<.<.<.<.<.<.5.3.3.6.3.2.%.%.%.%.%.%.%.%.%.%.%.%.%.%.%.%.%.%.%.%.%.%.%.%.%.%.:.%.1.%.2.2.2.2.2.4.6.7.w.v.H.H.R.].R.L.L.C.H.R.R.F.S.d.H P * o     t =X",
"  6 q ^ V.F.P.P.P.W.Y.J.J.c.B.x.d.9.8.6.1.1.1.*.<.*...........T  ...............X./ / / / / / / / / / / / / / / / / /  ./ / o./ / / / / / / / / / / X.X.X.X.o.#.<.7.6.v.V.H.J.H.L.C.P.P.S.c.8.v x *       e =X",
"  6 u U S.S.P.L.P.L.F.B.B.8.8.3.;.*.O.X.E U W W W I I K K A N A Z N K K K K K K L L P F C C C L C C C P C C F P C F F F P C C C C C C C C C C C C C C F F F J U W *.*.0.w.V.C.H.L.L.P.P.B.i.:.d j $       e =X",
"  6 q ! C.V.F.J.J.F.B.0.9.1.1.*.&.O.E W T I I U I I K A A A A A K K K K K K K K C L F F L L P C C P F F F P F F C L F F C C P C C C C C C C C C F C F F F P I U T W W 3.3.9.C.V.P.P.F.F.d.8.[ s s $       t =X",
"  6 u P B.B.B.B.d.d.3.&.&.U E I J K S S m m m B S N S A S L L I P T P T I K K A C L L F F F G F L F F F L L F F L G F F C C C C F F C F F F C L F P P L U P T U L S S I I &.0.w.R.G.C.B.8.[ H 8 8 #       t =X",
"  6 r P c.B.B.B.d.d.4.&.+.E E F F F A S m m m m N S N A A F L I I T T Y K I K A C J L F G L F F P F P F J F P F L F F F C C C F C F F F F F F F P P L P P P I P J m S I I &.0.N.P.R.Z.C.,.[ J 6 8 #       t =X",
". 6 w F s.i.4.,.a.d.a.4.4.>.;.4.7.,.>.>.*.1.>.1.3.>.<.>.1.1.2.2.3.5.6.2.2.1.1.5.1.2.2.2.6.2.6.2.,.2.2.2.2.,.2.2.2.2.2.2.1.:.2.2.2.4.2.4.y.2.,.;.%.%.o.+.] ` ` ` E E W +.&.&.*.>.C.Z.&.) E ^ S q q #   o + i =X",
"# 6 w D i.i.>.>.a.s.i.8.4.4.2.8.a.8.2.4.2.6.7.7.8.9.7.7.9.y.9.7.7.7.7.u.7.a.7.7.u.7.a.u.u.y.y.u.u.u.a.y.u.7.i.u.a.y.u.y.2.2.u.y.u.u.a.u.a.y.u.2.,.;.+.$.+.] O.` ` ] ` =.>.>.&.>.Z.C.] ^ E H S q q +   O + i =X",
"o < 7 C p.y.+.+.8.8.i.f.d.f.c.N.B.z.a.a.c.c.c.c.c.c.c.c.c.c.c.b.z.z.M.z.z.b.z.z.b.z.n.z.z.z.z.c.c.c.z.c.z.c.z.z.c.c.c.z.z.z.z.z.n.n.c.m.m.c.c.z.z.a.a.a.y.y.a.a.p.4.i.s.s.a.i.d.D.C.i.,.,.,.) q q $ $ O o t =X",
"  > > M a.y.] ) =.,.p.C.C.E.G.G.G.Z.c.c.P.P.K.S.J.S.K.S.S.J.S.K.K.D.K.K.K.K.K.K.K.m.K.m.S.S.A.D.S.S.D.S.D.S.S.D.S.S.S.S.S.S.S.S.D.J.K.K.D.K.K.G.K.S.S.S.m.m.P.~.P.S.Z.F.G.F.F.F.G.G.D.C.A.h.-.q q > & O   r &X",
"  > > j ,.-.' ' ,.i.f.C.Z.G.G.G.S.Z.n.B.D.D.D.S.D.D.S.J.m.K.J.m.K.D.K.K.M.K.K.K.K.m.D.m.S.S.S.S.S.S.S.S.S.S.S.S.S.S.S.S.S.m.D.D.S.K.D.D.K.K.G.D.D.S.S.S.S.A.P.^.P.Z.Z.S.S.F.A.G.G.A.Z.Z.h.i.[ 1 1 * $ +   t %X",
"  $ > u D H [ [ h.F.A.G.A.f.f.Z.S.Z.n.n.m.n.S.S.S.S.S.D.m.K.m.D.D.M.A.M.m.K.m.m.m.D.K.D.S.D.S.S.S.D.S.S.D.S.D.S.S.A.S.S.Z.S.S.S.S.S.S.S.S.S.S.D.K.D.G.G.P.P.G.~.G.A.Z.Z.Z.A.).Q.f.h.s.s.=.) x X o o . + + y &X",
"  $ * u D H [ [ N.Q.G.A.C.n.h.Z.A.Z.Z.c.Z.h.Z.D.m.D.m.D.Q.m.K.m.!.M.D.A.m.K.D.D.D.D.D.D.D.S.S.S.A.S.S.A.S.D.S.S.S.S.A.S.S.S.S.S.S.S.S.S.S.G.S.G.K.K.G.K.~.Q.U.Q.G.A.Z.n.n.G.(.G.f.f.d.s.=.! z X   . . . + i &X",
"# o o $ = : 1 1 v H -.h.A.Q.Q.Q.Q.A.h.Z.h.Z.Z.S.D.D.D.A.m.Q.D.D.M.m.D.D.!.D.M.D.D.m.m.n.A.n.Z.Z.S.Z.S.Z.n.S.A.n.Z.Z.S.A.D.D.A.D.S.A.A.A.A.S.A.A.A.D.A.G.A.D.D.Q.G.(.(.A.n.A.A.s._ _ d p 5 : & X       2 f ~ =X",
"# o   o O O $ & d v } h.j./././.~.A.h.h.n.n.A.A.A.D.m.m.D.m.D.D.M.!.D.D.M.D.m.D.m.m.n.m.Z.n.Z.Z.Z.Z.A.Z.n.Z.Z.Z.Z.Z.Z.A.D.G.A.A.A.A.S.A.S.A.A.S.n.A.A.D.D.D.A.A.G._._.A.n.A.A.p.D H q 1 = O X         5 n | =X",
"f #       O O O 6 y g D H ) _ ! ! G G G _ _ ! ! Q ( ( G ( ^ ! ! ! ^ ^ P ( ! P Z ( ^ ^ ~ ^ ! ! ( ! ! ! ! ! ^ ! ! ! ! ! ! ( ! ! ^ ^ ^ ! ! ! ! ! H ! ! ! ! ! ! ! ^ _ { { H D ! ~ D p p : & @     X + 2 5 Q g.`.=X",
"( =             $ : < 9 q 9 9 1 4 4 6 9 h s u 0 0 0 0 0 0 u 7 u u 8 0 u 8 u u u 0 r q r r r q r r r r r r r r q r r r r q r r r q q r q r 0 0 0 9 9 8 9 9 9 9 e e i i 6 4 9 t 9 - : O         + % g n g.{..X=X",
"t.0 > #         @ & : 1 3 , , , , < < 4 u 0 4 4 4 3 4 4 4 < 3 < 4 6 4 4 < < 4 4 4 6 6 6 6 6 6 6 4 6 6 6 6 4 6 6 6 6 6 4 4 6 6 4 4 6 5 4 4 4 4 4 4 4 1 4 < 4 4 5 5 7 7 3 , 4 9 4 * & o   . O + % % V { !..X@X=X",
"OXe.~ r   .         X         X   O O o     o   o o   o o o o o o     o o o o o                                                 o     . o o . o o o                   . + # ; $         = 5 3 % % `..X#X=X=X%X"
};
