/* XPM */
static char *result[] = {
/* columns rows colors chars-per-pixel */
"75 75 252 2 ",
"   c #030202",
".  c #0B0202",
"X  c #030906",
"o  c #080709",
"O  c #0B0C0B",
"+  c #130102",
"@  c #1B0102",
"#  c #15070A",
"$  c #1C030A",
"%  c #160C13",
"&  c #0D1515",
"*  c #101010",
"=  c #141415",
"-  c #171618",
";  c #141C1C",
":  c #1A1B1D",
">  c #230101",
",  c #2B0202",
"<  c #26070A",
"1  c #2B020B",
"2  c #330102",
"3  c #3B0202",
"4  c #380609",
"5  c #341409",
"6  c #280512",
"7  c #370616",
"8  c #281618",
"9  c #38181A",
"0  c #16231D",
"q  c #312019",
"w  c #181E21",
"e  c #291924",
"r  c #1C2324",
"t  c #192626",
"y  c #262628",
"u  c #232B2C",
"i  c #322B2B",
"p  c #2B3334",
"a  c #2A3737",
"s  c #373738",
"d  c #343C3C",
"f  c #440203",
"g  c #4B0202",
"h  c #46070B",
"j  c #540202",
"k  c #5C0202",
"l  c #55080A",
"z  c #43160F",
"x  c #59130D",
"c  c #470618",
"v  c #560B16",
"b  c #471316",
"n  c #591519",
"m  c #630201",
"M  c #6B0302",
"N  c #690907",
"B  c #760605",
"V  c #7C0202",
"C  c #75140A",
"Z  c #68091B",
"A  c #770B19",
"S  c #691419",
"D  c #751617",
"F  c #4A0B22",
"G  c #570A27",
"H  c #471727",
"J  c #581527",
"K  c #5C1533",
"L  c #660B26",
"P  c #720D2B",
"I  c #681629",
"U  c #771426",
"Y  c #7D0635",
"T  c #750D36",
"R  c #7C0A35",
"E  c #7C063B",
"W  c #750B3A",
"Q  c #7B0A3A",
"!  c #681336",
"~  c #751338",
"^  c #493937",
"/  c #533635",
"(  c #752B2E",
")  c #37413E",
"_  c #4C413D",
"`  c #6C403B",
"'  c #373D40",
"]  c #602C47",
"[  c #3C4647",
"{  c #47484A",
"}  c #4B4E4F",
"|  c #4C5455",
" . c #555657",
".. c #724A4B",
"X. c #774D57",
"o. c #675456",
"O. c #64545B",
"+. c #6B555C",
"@. c #745458",
"#. c #4C625D",
"$. c #6F5863",
"%. c #5B6465",
"&. c #666969",
"*. c #696D70",
"=. c #6B7575",
"-. c #777B7C",
";. c #840301",
":. c #880806",
">. c #980908",
",. c #901509",
"<. c #870A18",
"1. c #980C19",
"2. c #86151A",
"3. c #991719",
"4. c #AA0C08",
"5. c #BB0D07",
"6. c #A8150A",
"7. c #BA140C",
"8. c #A90A1A",
"9. c #BB0C18",
"0. c #A81519",
"q. c #B41214",
"w. c #BA1214",
"e. c #B4131A",
"r. c #BD131B",
"t. c #B91B18",
"y. c #902317",
"u. c #B02618",
"i. c #870829",
"p. c #950726",
"a. c #891725",
"s. c #971A27",
"d. c #830635",
"f. c #830935",
"g. c #82053A",
"h. c #870839",
"j. c #8D1D31",
"k. c #AD0D24",
"l. c #A91727",
"z. c #B51624",
"x. c #9A2229",
"c. c #963332",
"v. c #B0342D",
"b. c #CC0C07",
"n. c #CD0E0D",
"m. c #D70D06",
"M. c #D30D0C",
"N. c #DB0D0C",
"B. c #C81705",
"V. c #C5120D",
"C. c #CB110D",
"Z. c #D3120C",
"A. c #D81209",
"S. c #CC0E13",
"D. c #C60C18",
"F. c #D20E12",
"G. c #DA0A15",
"H. c #C51213",
"J. c #CA1111",
"K. c #C51619",
"L. c #D61312",
"P. c #E61009",
"I. c #D12C18",
"U. c #EA2D15",
"Y. c #E72B19",
"T. c #E73A17",
"R. c #C4172A",
"E. c #D13027",
"W. c #F03A28",
"Q. c #91423B",
"!. c #A64238",
"~. c #EC4219",
"^. c #F05018",
"/. c #EC6C1A",
"(. c #DE4F25",
"). c #EF4A2E",
"_. c #F74428",
"`. c #F95527",
"'. c #F66D2B",
"]. c #8C3B40",
"[. c #874647",
"{. c #8A4A4C",
"}. c #9C5554",
"|. c #8D7274",
" X c #B56F70",
".X c #D1524E",
"XX c #F2564D",
"oX c #DF605C",
"OX c #CB6B6A",
"+X c #C87A7A",
"@X c #ED726C",
"#X c #7D817D",
"$X c #F98C2F",
"%X c #F3B735",
"&X c #FAC136",
"*X c #FFAF48",
"=X c #FF8E60",
"-X c #FFD550",
";X c #FDEE52",
":X c #777F81",
">X c #8C7881",
",X c #B57D83",
"<X c #C57C82",
"1X c #7C8583",
"2X c #878989",
"3X c #94898D",
"4X c #918E91",
"5X c #8A9595",
"6X c #949B9B",
"7X c #B9878D",
"8X c #B98C95",
"9X c #A49396",
"0X c #B5929A",
"qX c #999EA2",
"wX c #AE99A8",
"eX c #B399A4",
"rX c #99A4A4",
"tX c #9AA4A5",
"yX c #A5AAAB",
"uX c #B0AEAC",
"iX c #A5AEB0",
"pX c #ABB5B5",
"aX c #B6BABA",
"sX c #C48589",
"dX c #C6A9A4",
"fX c #CAC1BF",
"gX c #B5BFC1",
"hX c #B9C4C3",
"jX c #C6C5C6",
"kX c #CDCDCD",
"lX c #D8CBC9",
"zX c #CFD3D1",
"xX c #D5D5D4",
"cX c #DCD7D6",
"vX c #DBDBDB",
"bX c #E6DBDC",
"nX c #F3D9D5",
"mX c #E1DEE1",
"MX c #FFDFE0",
"NX c #E0E3E0",
"BX c #E4E4E4",
"VX c #E7E9E8",
"CX c #EBEBEB",
"ZX c #F8EAEA",
"AX c #F3F1EE",
"SX c #F5F5F5",
"DX c #FDF5F4",
"FX c #F6FAF5",
"GX c #FCFBF5",
"HX c #FCF6F9",
"JX c #F7FCFB",
"KX c #FBFBFB",
/* pixels */
"HXHXFXHXJXHXJXFXJXHXHXFXJXSXJXHXHXJXSXHXHXSXHXHXSXJXHXSXCXvXvXxXBXBXSXHXKXKXKXHXKXKXHXKXKXHXSXBXvXxXvXxXBXVXSXSXSXSXHXFXFXHXHXJXHXJXSXHXHXSXJXSXFXHXSX",
"FXFXHXJXSXHXHXSXJXHXFXSXHXHXJXSXHXFXFXJXHXJXJXFXJXSXCXvXxXCXSXKXKXKXKXKXKXKXKXKXKXKXKXKXKXKXKXKXKXKXHXSXBXvXxXvXCXSXFXHXHXJXSXHXHXJXFXJXJXFXHXHXJXHXJX",
"SXHXHXJXSXJXFXSXSXHXSXJXJXHXJXHXJXSXHXJXSXHXHXSXSXBXxXVXKXKXKXKXKXKXKXKXKXKXKXKXKXKXKXKXKXKXKXKXKXKXKXKXKXKXKXCXvXvXVXCXJXSXFXJXHXSXHXJXJXJXHXJXJXHXHX",
"FXJXHXSXHXHXJXJXHXJXJXHXSXJXSXHXHXJXSXSXJXJXSXCXxXBXKXKXKXKXKXKXKXKXKXKXKXKXKXKXKXKXKXKXKXKXKXKXKXKXKXKXKXKXKXKXKXHXNXxXVXSXSXHXJXJXSXHXSXHXHXSXHXJXSX",
"JXHXHXHXSXJXHXHXHXJXJXHXHXFXJXHXJXHXHXHXHXSXCXxXBXKXKXKXKXKXKXKXKXKXKXKXKXKXGXKXGXKXKXKXKXKXKXKXKXKXKXKXKXKXKXKXKXKXKXSXxXmXSXHXSXHXJXFXSXHXHXHXSXFXJX",
"JXHXJXFXSXHXJXSXJXFXSXJXJXSXSXHXHXFXSXJXSXBXvXSXKXKXKXKXKXKXKXKXGXAX9X_ _ _ _ / / _ / ^ ^ { >XaXDXKXGXGXKXKXKXKXKXKXKXKXKXvXxXCXHXJXHXSXJXJXSXJXHXJXFX",
"SXHXHXHXJXSXFXHXSXJXHXSXSXHXJXJXHXHXFXSXBXvXKXKXKXKXKXKXKXKXKXKXqX8 + @ @ > , , , , , > > , > > + _ lXGXGXKXKXKXKXKXKXKXKXKXVXxXVXSXHXJXJXHXHXFXHXHXJX",
"FXJXSXJXHXJXJXHXHXHXHXJXFXJXHXHXJXFXSXCXxXSXKXKXKXKXKXKXKXKXjX^ + < > , , 2 2 2 3 3 3 f 3 f l g 2 2 , 9 |.MXAXGXKXKXKXKXKXKXKXVXvXVXSXFXSXHXFXSXJXSXSX",
"JXHXSXHXJXFXHXHXHXSXJXHXHXHXJXSXFXSXCXxXVXKXKXKXKXKXKXDXZXy O @ > , 2 4 f 3 3 f g f g j k k m M j g f f 4 , ..nXHXKXKXKXKXKXKXKXSXcXVXHXFXJXHXJXJXFXHX",
"SXHXJXHXHXSXJXJXHXJXFXSXJXSXFXJXAXHXvXvXKXKXKXKXKXGXGXKXe > , 1 2 g V 6.V.7.q.5.5.B.5.B.5.b.5.5.;.M m g 3 3 2 b lXDXKXDXKXKXKXKXKXVXvXCXFXHXSXJXHXHXJX",
"FXJXFXJXHXSXHXSXSXJXHXHXJXHXJXHXFXVXvXKXKXKXKXKXKXGXDXi # $ @ f N l.K.F.F.F.F.C.n.n.n.M.L.L.N.L.K.6.;.m k l g h 2 |.DXDXKXKXKXKXKXKXvXBXSXHXJXHXHXSXFX",
"HXHXSXJXHXJXHXJXJXHXSXJXHXHXJXHXSXxXHXKXKXKXKXKXFXGXuX@ @ > , C e.F.G.N.M.N.N.F.F.F.M.M.N.N.N.N.N.M.C.q.;.M k g f , |.DXKXKXKXKXKXKXFXxXCXHXJXHXHXJXHX",
"SXSXJXHXJXSXHXFXHXFXJXFXSXFXJXSXCXvXKXKXKXKXKXHXDXKX_ . 1 3 D w.V.S.F.n.C.b.m.Z.n.M.M.A.A.m.A.m.P.P.P.P.H.:.M j x g 2 3XGXKXKXKXKXKXKXBXxXAXSXHXJXHXSX",
"JXHXHXJXHXJXSXJXJXHXHXSXSXSXCXVXxXvXKXKXKXJXHXJXHXlXX X + m l.G.n.C.n.b.N.N.M.N.N.N.N.m.m.A.A.A.A.P.P.P.Z.7.3.M k k g 5 nXGXKXKXKXKXKXKXNXxXSXJXHXJXFX",
"SXHXSXFXHXSXHXHXHXSXHXSXVXvXvXzXCXKXKXKXKXKXHXSXDXi   X + n j.z.z.K.M.G.m.G.F.M.M.F.L.K.7.4.q.4.4.B.A.B.B.7.6.V M k j f {.ZXKXKXKXKXKXKXJXmXmXSXJXSXJX",
"HXHXJXJXHXJXFXJXJXSXCXvXmXSXHXKXKXKXKXKXKXKXHXKXcX8 e - - 8 5 4 N t.F.N.n.H.9.>.>.;.;.V V B k N :.>.I.B.5.4.6.:.N m m l x MXDXKXKXKXKXKXKXHXxXVXSXHXHX",
"JXSXHXJXSXJXSXAXSXBXxXCXKXKXKXKXKXKXKXKXKXKXKXSXwXw u w w w 0 5 2.t.M.G.z.N j f k m M B V :.;.M :.6.I.A.b.B.B.6.,.B B N h }.AXFXKXKXKXKXKXKXCXcXAXFXFX",
"HXJXJXSXHXSXJXCXvXxXCXKXKXKXKXKXKXKXKXHXKXKXKXKX*.O w & w w t 7 x.7.V.9.D 2 3 3 f l m A V ;.>.>.6.t.I.U.U.I.I.5.>.6.:.B l 2 ..bXKXKXKXKXKXKXKXvXNXSXHX",
"SXFXHXSXAXBXvXvXSXKXKXKXKXKXKXKXKXHXKXFXJXVX2Xy y w u [ 5X*.a c 0.H.V.,., > > , 5 b ( {.}..X.X.X)._.~._.`._._.U.Y.I.0.N k l 4 5 lXKXKXKXKXKXKXGXzXCXHX",
"JXHXSXCXvXxXSXKXKXKXKXKXKXKXKXKXKXyX .NX .- w w w u p p ' qX| 9 l.J.t.m @ # , 8 $.eXeX8XsX<XOX.XW.W.W.`.`.`.`.~.W.)..X!.k j h , q DXGXKXKXKXKXKXBXmXAX",
"FXSXCXvXVXKXKXKXKXKXKXKXHXKXKXGX{ X X ; } 1X5X#X| t t [ qX1Xp z z.K.u.j @ < , ] $.9XwXwXeX7X<X<XXXY._.`.'.'.$X/.`.).XX@X XS 4 2 @ o.GXGXKXKXKXKXCXvXCX",
"SXSXvXVXKXKXKXKXKXKXKXKXFXKXKX= O X   & } 5XtXtXtXpX6XtXtXp | z z.K.0.g > @ 9 o.+.>XwXwX0X8X<X<XsXXXW.~.'.&X-X&X'._.XX@XOX+X( f 5 # fXGXKXKXKXKXHXvXVX",
"HXCXxXHXKXKXKXKXKXKXKXKXKXaXy y       X X ) pXiXpXiXiXpXd 2X%.h e.t.y.g > @ i o.o.|.eXeX0XsX+X+X@XXXW.^./.%X;X;X'.).).XXOXsX|.x 4 + _ GXKXKXKXKXKXxXVX",
"AXBXBXKXKXKXHXKXKXHXxX .- - ; : 0 : { { { qXpXiXpXpXtX' 2X:X%.5 a.r.t.f @ # q o.O.O.3XwX0X0X7X7X=XOXXXW./.$X;X;X=X'.~.W..XOXsXc.3 , # bXKXKXKXKXKXmXBX",
"CXmXAXKXKXKXKXKXkXy o : ) %.2X5X5X:Xu r | iXpXpXpXgX%.t p 2X .% ( z.l.f + # 9 +.$.O.$.9XwX0X8X7X<X+XoX).(./.%X;X*X^.~.W..X X X[.h , $ uXKXKXKXKXKXBXvX",
"CXxXHXJXKXKXKXKX .= i  .*.-.2X6XtXiXgXrX[ t rXpXgX=.' } a #Xt & # , z > + # 8 o.O.O.O.$.>X0X0X7X,X,XOX.XW.^.'.$X'./.W._.XX.X}.( h , @ uXKXKXKXKXKXVXvX",
"VXvXJXKXKXKXKXKXs 0 { %. .0 r ; ; %.aXaXpX#.a hX| *.=.[ d 0 r = * = @ @ @ . =  .O.$.+.+.$.X.|.>X,X X X.XE.W.~.^.(.~.U.Y.I.v.v.( f , @ dXKXKXKXKXKXVXvX",
"BXvXKXKXKXKXKXKX- y  .p & & O   & w d iXhX5Xt a #XtX=.[ s p ; % . 7 I D 2 + o o.O.O.+.O.$.X.X...[...Q.!.E.E.T.~.T.~.U.U.E.v.v.A l 2 > cXKXKXKXKXKXBXmX",
"BXxXKXKXKXKXKXBXX ) { = & X   o X X r { aXpXa %.iX5X#Xt [ &.) - & . h a.a.n @ %  .O.O.+.o.X.X.X...[.].c.v.v.I.T.Y.Y.Y.Y.I.u.3.B l 3 9 SXKXKXKXKXKXvXBX",
"NXCXKXKXKXKXKXjXO  .d ;     o       & t pXiXu :XiXrX0 1Xa a u 0 = o + U 8.k.<.+ X { X.X.o.o.+.O.X.[.{.].!.!.v.(.I.I.I.I.u.C ,.B l 5 @.DXKXKXKXKXKXvXVX",
"vXVXKXKXKXKXKXyX* %.) &             o t pXpXu %.hX) u #Xa r i ; %   . S k.k.l.n + O i o.+.o...@.X.X.{.!.Q.!.v.v.I.u.I.J.:.M m B l 9 ZXKXKXKXKXKXSXvXCX",
"vXVXKXKXKXKXKX2X0 *. .- w     X     w | gXqXt =.a iX) t = { y - #   . A 8.e.e.q.D + * # 8 / ......{.[.[.Q.Q.y.y.,.:.>.t.:.m k f ` nXGXKXKXKXKXKXNXNXAX",
"BXVXKXKXKXKXKX2XO i =.' w u X   w u t rXpX5Xt [ 6XtX0 ; ; ) w = # X + A 8.q.9.D.D , @ 1 < , 4 < 5 h v x l j m C D M V 4.:.m l f dXZXKXAXJXKXKXKXxXCXSX",
"BXvXKXKXKXKXKXKXVX&.w :X*.a p d u a 6XpXgX%.u 6X6Xy # . X t 0 = o   4 2.q.7.9.k.S + . # + > < < 2 4 4 h f g k M C N V >.1.m j 2 eXDXGXKXKXJXKXAXxXCXFX",
"VXvXHXKXKXKXKXKXKXCXw %.qXtXiXiXiXpXiXiX%.w :X5X8 H J c 4 . + O . + l l.t.7.H.x.f @ > , , , 2 2 2 3 g j g m V :.4.6.t.H.0.V j , eXKXKXKXKXKXKXxXBXHXHX",
"AXvXSXKXKXKXKXKXKXjX- :XqXrX=.1XiXpXiX:Xw *.tX%.9 J Z P U v 2 X . @ x e.q.0.r.U 3 x a.<.M k j f j k B V >.q.w.J.P.L.A.N.4.V k , 9XKXKXKXKXKXKXkXCXFXFX",
"SXBXxXKXKXKXKXKXKX4X: ' w ; w t w { 6X#.t 5X{ % b A i.<.U a.B   X + Z 0.w.D.l.< g 0.K.C.V.7.t.H.V.V.C.Z.M.M.m.A.A.Z.m.S.>.Z l 3 |.KXKXKXKXKXKXkXCXJXFX",
"SXCXzXHXKXKXKXKXKX2X: ' u w a a e w w w u { w - e I a.p.<.j.Z + . . v q.7.0.x 3 a.t.C.A.V.H.J.S.V.S.C.C.Z.A.A.m.L.Z.M.n.:.k l 3 $.JXKXKXKXKXKXkXCXSXHX",
"HXAXxXVXKXKXKXKXKX*.: *.; t p p u u | w ; w } : $ 7 v A U I 3 < J > j t.7.3.> V z.H.m.b.C.J.S.M.S.S.n.M.n.M.Z.Z.L.L.M.D.<.j l f ` HXKXKXKXKXKXxXVXSXHX",
"FXSXBXVXKXKXKXKXKX{ r *.&.& r u u ' 1X[ w %.%.- $ H 4 , @ 2 l 8.l.S @ A R.U > r.V.C.C.C.V.K.S.M.n.n.C.C.C.C.n.C.N.Z.F.D.<.g f 4 9 CXKXKXKXKXKXmXVXSXFX",
"JXSXmXVXJXKXKXKXKX6Xo w } } - - w :X5Xy s =. .+ v j.j.a.s.s.l.r.9.l.5 > l 5 2 H.H.n.V.V.H.H.C.C.C.J.Z.C.C.C.Z.C.L.F.S.9.A f 4 3 8 bXKXKXKXKXKXBXmXSXHX",
"HXSXmXBXKXKXKXKXKXCX: o % - e p u p 9 7 J n l n D p.8.e.4.q.r.6.H.z.x @ v x ,.D.H.V.V.V.D.H.C.C.C.n.J.J.S.F.J.S.L.J.D.8.U f 2 2 @ cXKXKXKXKXKXBXBXSXHX",
"HXSXVXvXKXKXKXKXKXKX2X  % % % e % $ H L A i.<.k.8.3.e.4.w.7.q.q.w.2.> f z.D.B.H.S.S.V.S.S.H.C.b.V.V.J.n.M.J.F.M.L.K.H.8.U 4 2 1 8 bXKXKXKXKXKXBXBXSXJX",
"SXFXAXxXKXKXKXKXKXKXxX* $ 7 c 7 6 $ 7 n D i.1.1.3.0.e.w.9.9.9.9.a.2 + . 3.w.J.V.H.V.S.V.H.C.V.V.J.n.S.n.n.C.C.M.b.L.r.p.P 3 > > e CXKXKXKXKXKXvXBXSXFX",
"HXFXSXvXSXKXKXKXKXKXNX= $ 6 6 c G c > @ 7 n U j.j.s.s.x.x.x.a.x 3 h H > s.D.H.J.V.V.H.S.V.H.S.H.H.H.J.S.n.J.C.J.n.R.8.p.P 2 , @ ^ AXSXKXKXKXKXzXVXSXJX",
"FXHXCXvXBXKXKXKXKXKXvX# 6 6 F c G L J h 2 > @ > > , 2 , > > > > g j.h j z.L.7.C.V.V.V.H.S.V.V.H.J.J.J.C.n.C.C.J.r.9.p.i.U , > +  .KXKXKXKXKXKXzXVXHXHX",
"HXFXSXBXBXKXKXKXKXKXxXo # 7 8 + c Z A i.a.a.2.i.a.<.1.1.1.0.l.u.l.x.> B R.V.5.J.n.V.C.n.V.V.n.C.V.n.M.n.Z.C.J.D.l.8.p.i.L , @ + &.KXKXHXKXKXKXxXCXHXFX",
"HXJXSXVXvXKXKXKXKXKXHX .. $ c 1 + n A 1.8.1.3.3.0.0.q.t.w.r.K.L.t.S @ x l.z.H.r.r.9.w.H.H.S.V.n.V.H.C.V.D.K.z.8.p.i.i.R v > + o 4XKXKXKXKXKXSXxXCXHXJX",
"HXSXSXCXzXJXKXKXKXKXKXCX8 # G F @ > J a.1.3.1.8.e.e.q.w.q.7.q.3.l , h ! Y p.p.p.p.k.z.z.z.K.r.H.r.r.r.R.e.k.p.p.i.d.h.R v @ +   uXKXKXKXKXKXVXxXSXHXHX",
"FXHXKXSXxXSXKXKXKXKXKXKX2XO > F L l > , v a.l.l.l.s.l.s.a.v , > + 6 ! E d.Q R R R d.d.i.p.i.p.i.p.i.i.i.i.i.f.d.d.h.f.P 4 .   O vXKXKXKXKXKXSXvXAXSXFX",
"JXHXKXSXNXBXKXKXKXKXKXKXjX    1 P i.U f @ @ > , > > > , , 3 l b + 7 ! g.E T R T R f.E d.d.d.f.i.Y d.Y R d.d.d.d.d.h.i.P , + . - BXKXKXKXKXKXVXBXSXJXFX",
"HXFXJXSXCXxXHXKXKXKXKXKXCX  X   f U i.a.a.S S D C S C y.y.l.0.1 7 ! E E Q T g.g.g.g.h.d.d.R R R R d.R d.h.d.d.d.h.i.h.P , . . { KXKXKXKXKXKXxXVXSXFXHX",
"HXJXSXJXSXvXVXKXKXKXKXKXKX} . + @ h a.1.k.9.9.9.e.9.D.G.9.y.f 6 J T Y Q W E Y T Q Y E R h.f.R d.f.d.h.d.d.d.E Y h.f.R L @ .   -.KXKXKXKXKXKXvXCXHXJXSX",
"SXHXHXJXSXVXmXKXKXKXKXKXKXzX      , I s.k.k.k.t.w.w.w.z.a.2 . K T Q E W T T R ! ! ! ! ~ T Q R Y R R R R R Q T Y d.f.R F +     yXKXKXKXKXKXKXkXVXHXHXJX",
"JXSXFXFXHXVXkXKXKXKXKXKXGXKX} .   . . + @ , 4 l x x l 4 , 7 K W E g.Q T Y T G < @ + < 1 6 7 c F c F F c c v v P h.Y ~ 7 . X   jXKXKXKXKXKXHXvXCXSXSXJX",
"HXJXHXSXJXSXvXVXKXKXKXKXSXGXFX#Xo .         . + .   + c ~ E E E g.E W T g.E F           .   .   + .   . @ 7 L Y f.Y P 1     X vXKXKXKXKXKXVXNXCXSXHXHX",
"HXHXSXJXHXJXBXvXKXKXKXKXKXKXKXKXNXs O X o       o o # ! g.E T Q W Q E W Q W 9             o   . . + @ 7 G T R Y g.f.F .     u SXKXKXKXKXKXBXBXSXJXSXHX",
"SXJXFXHXJXSXHXxXSXKXKXKXKXKXKXKXKXKXKXHXKXKXSX .  o + ! g.E W Q W Q Q Q E T 7   o   | yXyX4X  . + 6 J ~ T R Y d.h.Q c . o   &.JXKXKXKXKXKXxXVXHXJXHXHX",
"JXHXJXSXHXSXSXVXxXSXKXKXKXKXKXKXHXKXKXKXKXKXKX%.o . # K g.g.W E W Q E W E W 6 o     *.KXSXVX  # . 7 ~ R d.d.h.d.h.Q c .     iXHXKXKXKXKXKXxXCXSXHXHXJX",
"HXJXHXHXJXFXSXHXBXvXVXHXKXKXKXKXKXKXKXKXKXKXKX#X  o $ K E g.W g.Q E E W E W % o     &.JXKXlX. . . c R d.g.d.R R Q Q 7       vXKXKXKXKXKXKXvXCXSXJXSXJX",
"SXHXHXSXJXHXHXJXSXCXvXxXSXKXKXKXKXKXKXKXKXKXKX2X    . K E g.W g.W E E W Y T 6       &.KXKXkX.   . G R h.f.W W R f.Q 7       VXJXKXKXKXKXSXxXSXHXHXFXHX",
"FXJXHXJXFXSXSXJXHXSXSXCXvXxXBXSXKXKXKXKXKXKXKX4X    o G E g.W W W E E W Y W 6       *.HXKXSX. + . F T f.g.T Q g.Q g.7   . = CXKXKXKXKXKXVXvXSXJXJXHXJX",
"SXHXJXSXHXJXFXJXHXJXFXJXSXCXCXvXkXHXKXKXKXKXKXaX  o o G g.g.W W W Q Q W E Q 6       aXKXKXKX=   . F Q h.R T f.h.Q ~ 7     -.JXJXKXKXKXKXxXBXHXJXSXJXHX",
"JXHXJXFXHXHXJXSXHXHXHXFXFXHXSXCXxXKXKXKXKXKXKXxX  o o 7 ! W E W W W T d.h.! 7     o zXKXKXKX4X  . < K P R R R P ~ K < . X zXJXKXKXKXKXKXkXVXHXSXJXFXSX",
"HXSXJXSXFXHXHXJXSXJXHXFXHXFXJXSXxXCXKXKXKXKXKXCXX   . 7 ! E h.h.E E Y Y T K 6   X o BXHXKXKXSXo o + < 7 7 7 7 7 6 # .   p JXKXKXKXKXKXHXxXVXFXHXHXSXFX",
"HXJXHXSXJXHXFXSXHXJXJXSXHXJXSXSXvXCXKXKXKXKXKXCX    . 6 G ! Y g.T W T ! F @       &.HXSXKXKXSXjX    O .           X X = KXKXKXKXKXKXKXBXNXSXHXFXJXSXFX",
"FXHXSXJXSXHXJXHXSXHXSXHXHXHXJXSXvXSXKXKXKXKXKXHX=     . $ 1 F K K J H 1 <   X     jXKXKXKXKXKXKX2X    o         o     kXKXKXKXKXKXKXKXvXVXSXJXHXJXHXHX",
"JXHXJXHXJXJXSXHXJXHXJXHXSXJXSXSXVXxXKXKXKXKXKXKXvXo             . . .   o       aXKXKXKXKXKXKXKXKXZXcXcXcXcXcXcXcXbXKXKXKXKXKXKXKXKXCXvXSXSXFXHXSXHXJX",
"HXJXHXJXFXHXSXJXHXSXJXJXHXSXFXAXSXxXKXKXKXKXKXKXKXVX0     X X           X   i BXKXKXKXKXKXKXKXKXKXKXKXDXGXKXGXKXKXKXKXKXKXKXKXKXKXSXxXVXSXSXJXHXJXHXSX",
"SXSXHXFXJXHXHXHXJXSXHXFXJXJXJXJXSXvXSXKXKXKXKXKXHXKXKXxX-.8 O   . o     : 4XHXKXKXKXKXKXKXKXKXKXKXGXKXKXKXGXGXGXKXKXKXKXKXKXKXJXHXvXNXSXHXSXJXSXHXJXJX",
"JXHXJXHXSXHXJXSXHXHXJXHXHXHXJXHXSXVXxXSXKXKXKXKXKXKXKXKXKXKXKXKXKXKXKXSXKXKXKXKXKXKXKXKXKXKXKXKXKXKXKXKXKXKXKXKXKXKXKXKXKXKXKXSXxXBXSXSXJXHXFXHXHXSXSX",
"SXJXSXHXJXHXJXFXJXFXSXHXJXSXSXHXSXSXvXvXKXKXKXKXKXKXKXKXKXKXKXKXKXKXKXKXKXKXKXKXKXKXKXKXKXKXKXKXKXKXKXKXKXKXKXKXKXKXKXKXKXKXxXxXVXAXHXHXHXSXJXJXHXJXFX",
"FXHXSXHXJXHXHXFXJXHXSXJXJXHXJXJXFXHXCXNXvXSXKXKXKXKXKXKXKXKXKXKXKXKXKXKXKXKXKXKXKXKXHXJXvXkXzXxXmXVXVXKXKXKXKXKXKXSXBXvXzXvXVXSXSXJXSXHXHXSXJXHXSXSXFX",
"JXJXHXJXHXSXHXSXJXHXSXHXSXHXSXHXFXFXHXSXBXvXvXCXKXKXKXKXKXKXKXKXKXKXKXKXKXKXKXKXKXSXmXvXmXCXSXAXVXBXxXVXVXBXVXVXBXvXBXCXAXSXHXFXJXHXJXHXHXJXHXJXJXHXJX",
"JXFXHXSXHXJXSXJXJXSXJXHXJXHXFXHXJXHXHXSXSXSXCXvXxXvXSXSXKXKXKXKXKXKXKXKXKXKXKXCXNXcXmXVXSXJXHXFXSXSXAXVXNXmXbXBXBXSXSXSXHXHXFXSXSXJXSXHXSXFXJXHXJXHXHX"
};
