/* XPM */
static char *result[] = {
/* columns rows colors chars-per-pixel */
"75 75 245 2 ",
"   c #020202",
".  c #0A0304",
"X  c #030A05",
"o  c #0B0905",
"O  c #03040A",
"+  c #0C0409",
"@  c #040A0A",
"#  c #0B0B0B",
"$  c #140304",
"%  c #13040B",
"&  c #1B0709",
"*  c #120C0A",
"=  c #17130D",
"-  c #050B13",
";  c #180913",
":  c #1C0B15",
">  c #0A1414",
",  c #081319",
"<  c #191815",
"1  c #210403",
"2  c #2C0D0D",
"3  c #320C0A",
"4  c #29150E",
"5  c #32120D",
"6  c #260815",
"7  c #230E1A",
"8  c #2A0C1C",
"9  c #350D14",
"0  c #211C14",
"q  c #28161B",
"w  c #3C1519",
"e  c #2B241B",
"r  c #34291A",
"t  c #1B1F23",
"y  c #370D26",
"u  c #2A1323",
"i  c #361727",
"p  c #13282A",
"a  c #1E2A34",
"s  c #123638",
"d  c #362825",
"f  c #3B3428",
"g  c #3E3429",
"h  c #283537",
"j  c #510E0E",
"k  c #4A0D18",
"l  c #47171A",
"z  c #56161A",
"x  c #44231E",
"c  c #4A162B",
"v  c #471C33",
"b  c #6B1E23",
"n  c #5A2728",
"m  c #473B2C",
"M  c #49273A",
"N  c #4C3130",
"B  c #64242B",
"V  c #792D32",
"C  c #4E412D",
"Z  c #4A433A",
"A  c #574A39",
"S  c #63523B",
"D  c #263F46",
"F  c #5B2844",
"G  c #5D3448",
"H  c #632C49",
"J  c #6B2D4D",
"K  c #792C4E",
"L  c #65334E",
"P  c #732D54",
"I  c #6C3252",
"U  c #693855",
"Y  c #743354",
"T  c #7D3356",
"R  c #7C355B",
"E  c #743858",
"W  c #763B5A",
"Q  c #7C3A5D",
"!  c #7D3667",
"~  c #7D3B62",
"^  c #7D3969",
"/  c #28454B",
"(  c #364648",
")  c #3A4D54",
"_  c #3B575B",
"`  c #3D5C65",
"'  c #3C6465",
"]  c #5A5245",
"[  c #43575A",
"{  c #6D4C4F",
"}  c #665A4B",
"|  c #76425C",
" . c #716350",
".. c #7C6D52",
"X. c #776A5A",
"o. c #415D62",
"O. c #475A64",
"+. c #7C4763",
"@. c #446364",
"#. c #476469",
"$. c #48626A",
"%. c #4B6A73",
"&. c #586B72",
"*. c #7D7366",
"=. c #8D2D35",
"-. c #AD2B38",
";. c #A8353D",
":. c #B73B3D",
">. c #C93F36",
",. c #C23D3D",
"<. c #D23B3E",
"1. c #9E413E",
"2. c #AE413F",
"3. c #8C354A",
"4. c #8B3655",
"5. c #84345E",
"6. c #8A355E",
"7. c #83395F",
"8. c #8A395E",
"9. c #9D3B55",
"0. c #95395A",
"q. c #AA3B48",
"w. c #BB3E44",
"e. c #B73C48",
"r. c #A63C55",
"t. c #B53851",
"y. c #853562",
"u. c #8B3663",
"i. c #853A63",
"p. c #8B3A63",
"a. c #863569",
"s. c #8E376C",
"d. c #833A6A",
"f. c #8B3B6A",
"g. c #933565",
"h. c #923A65",
"j. c #923C6D",
"k. c #C33D44",
"l. c #C43D4A",
"z. c #CA3B49",
"x. c #D33B48",
"c. c #C93D52",
"v. c #D43D53",
"b. c #974451",
"n. c #AC4149",
"m. c #BC4345",
"M. c #BE4249",
"N. c #B8484A",
"B. c #A94456",
"V. c #B84453",
"C. c #816F50",
"Z. c #87765B",
"A. c #894268",
"S. c #934770",
"D. c #887865",
"F. c #917D68",
"G. c #C34246",
"H. c #C14249",
"J. c #CA444C",
"K. c #C6494A",
"L. c #D3444B",
"P. c #C44251",
"I. c #C94755",
"U. c #D04F58",
"Y. c #CD5163",
"T. c #99846B",
"R. c #958A6E",
"E. c #9B8875",
"W. c #A79378",
"Q. c #AC947A",
"!. c #B7A17D",
"~. c #4F7582",
"^. c #6A838D",
"/. c #7498A1",
"(. c #7EA4AF",
"). c #AB9780",
"_. c #B59B83",
"`. c #BAA487",
"'. c #BCAA94",
"]. c #84ADB5",
"[. c #8BAEB6",
"{. c #87ACBB",
"}. c #CAAB83",
"|. c #C5AB8B",
" X c #CBAC8B",
".X c #D2AE88",
"XX c #CEB186",
"oX c #CEB38C",
"OX c #D4B385",
"+X c #DAB586",
"@X c #DAB984",
"#X c #D5B58C",
"$X c #D9B78D",
"%X c #D6B98D",
"&X c #DAB98E",
"*X c #C8AF91",
"=X c #CCB395",
"-X c #D3B692",
";X c #D6BA92",
":X c #DABA91",
">X c #D8B896",
",X c #DDBE9A",
"<X c #E1BA8C",
"1X c #E1BE94",
"2X c #E1BE9B",
"3X c #C9BAAB",
"4X c #DABFA1",
"5X c #DDC195",
"6X c #D7C19D",
"7X c #DCC19B",
"8X c #E2C195",
"9X c #E3C29B",
"0X c #E8C99D",
"qX c #DBC4A5",
"wX c #E2C4A1",
"eX c #E3C9A2",
"rX c #E9CBA6",
"tX c #E9D0A9",
"yX c #EFD3AE",
"uX c #89BAC7",
"iX c #94BCC7",
"pX c #92BDCD",
"aX c #93BED1",
"sX c #A0BECF",
"dX c #8EC1CC",
"fX c #94C2CE",
"gX c #9AC2CE",
"hX c #8DC4D4",
"jX c #95C3D3",
"kX c #9AC4D3",
"lX c #98C8D8",
"zX c #A4C9D7",
"xX c #ADCFD6",
"cX c #ACCEE1",
"vX c #A8D4E2",
"bX c #B2E6E6",
"nX c #C4D8E3",
"mX c #D1EDF1",
"MX c #D3F5F6",
"NX c #E9ECF0",
"BX c #F5EEF8",
"VX c #E9F3F9",
"CX c #F5F5F7",
"ZX c #F4F5FA",
"AX c #F9F3FC",
/* pixels */
":X:X:X:X:X:X:X:X:X:X:X:X:X&X:X:X:X:X:X:X:X:X:X:X:X:X:X:X:X:X:X:X:X:X:X:X:X:X:X:X:X&X:X&X:X:X:X:X:X:X:X:X:X:X:X:X:X:X:X:X:X:X:X:X:X:X:X:X:X:X:X:X:X:X:X",
":X:X:X:X:X:X:X:X:X:X:X:X:X:X:X:X:X:X:X:X-X$X&X:X:X:X$X:X&X&X:X;X;X$X:X:X&X5X&X8X1X2X2X:X5X:X:X>X&X&X1X:X:X:X:X:X-X:X:X:X&X:X:X:X:X:X&X:X:X:X:X:X;X:X:X",
":X&X:X:X:X&X:X:X:X:X:X:X:X:X:X:X:X:X:X:X&X:X:X:X:X:X:X:X}.5X:X#X#X:X5X:X,X>X X X=X XoX|.oX}.2X5X8X&X+X+X&X,X,X;X-X:X:X:X:X:X:X:X:X:X:X:X:X:X:X&X:X:X&X",
":X:X:X:X:X:X:X:X:X:X&X:X:X:X:X:X:X:X&X&X:X:X:X:X:X-X;X$X5X;X5X&X0X|.Q.`.E.e   o o . X . @ + + '.Q.=X0X&X&X@X@X&X:X1X:X:X$X:X:X:X:X:X:X:X:X:X:X:X:X:X:X",
":X:X:X:X:X:X:X:X:X:X:X:X:X:X:X:X:X:X&X:X:X-X:X:X%X&X+X5X>X*XZ.Z...Z         @ O   . O       @     r F._.7X5X:X:X+X+X<X:X;X:X:X:X:X:X:X:X:X:X:X:X:X:X:X",
":X:X:X:X:X:X:X:X&X:X:X:X:X&X:X:X:X:X:X:X:X$X$X&X&X+X8X X] f @   O   O @     X             @   O @   O e m ).=X5X0XOX+X5X;X>X:X:X:X:X:X:X:X:X:X:X:X:X:X",
":X:X:X:X&X:X:X:X:X:X:X:X:X:X:X:X:X:X:X:X:X$X:X:X8XqXQ.o     O   O     X       6 V b B n 1         # O   > O 4 R.6X:X&X&X;X;X:X:X:X:X:X:X;X:X:X&X:X:X&X",
":X:X:X:X&X$X&X&X:X>X>X:X&X:X:X&X:X:X;X:X#X:X1X>X XF.< X O . @       X V 1.;.:.w.L.J.J.J.;.;.;.=.    o . . X O e D.wX5X:XoX:X%X#X:X:X:X;X$X:X:X:X:X:X:X",
"&X-X&X:X;X%X:X1X&X<XOX&X&X$X%X&X&X$X:X&X1X2X XF.q =   . :   + 5 =.U.l.H.H.e.N.q.N.N.M.e.m.w.H.q.Y.V o     . O O * } 7X7X#X:X5X5X;X#X%X;X7X&X:X:X:X:X:X",
":X$X:X:X;X%X:X9X$X0X&X-X-X-X=X-X=X-X$X.X X=X3X  # O   %   & 3.P.N.n.m.w.M.l.I.c.M.M.H.M.l.m.H.l.V.M.;.V <   .       m =X9X$X#X%X;X:X5X;X;X:X:X:X:X:X:X",
":X:X&X&X<XyX:XQ.Q.Q.S g f f g g f f m m m g g #     O     M.l.m.:.J.z.G.J.m.:.m.:.m.m.w.m.w.:.J.w.,.<.x.-.3 O +   O # m  X0XoX&X5X-X-X;X5X:X:X&X:X&X:X",
":X&X#X<X+XT.A = = < o       O O   O O   @ ; @ O       l v.m.N.G.J.m.I.H.:.J.L.L.I.I.I.K.K.P.I.J.H.K.G.J.Y.V.z     @ o 0 *.qX5X;X;X:X:X%X#X:X:X:X:X:X:X",
":X#X1X2X .O   O                                     B I.x.2.m.l.J.w.;.=.n x l w k k k k k k k k x w l l 4 z l @ O #        .}.#X9X:X#X$X,X:X:X:X:X&X,X",
"#X$X9XW.&   O O     .   7 i k k z k j j & O O O   3 q.M.m.G.,.L.9.l & * o         X         X                 * . . *   + + = ]  .wXrX$X$X>X$X:X>X&X&X",
"2X$X4XC   @ O   5 V =.=.2.U.K.G.K.U.V.Y.&   & @   =.c.e.K.w.M.;.5     X     * O . O     O O                 X         X X     .   m m  X2X:X:X$X:X&X&X",
"$X$X-Xr         =.I.I.K.K.x.,.2.m.e.L.j o   .   @ -.H.k.2.M.t.&   X     .   # [ D / D s t p s p p s s p p s >         O     .   O   . < W.:X&X:X:X,X:X",
"<XrXS     + X x K.J.w.t.l.c.c.c.J.x.=.* .       =.v.N.m.:.Y.q.%     X   a h / bXvXzXxXmXMXmXmXMXMXMXMXmXMXMXgX#.#.%.#.' %.  # # O O O   g $X:X:X&X:X:X",
"OXyXm   .   $ z m.G.m.G.l.l.w.q.N.I.l   X $ X z e.G.e.m.J.;.5 . . .   ( [ &.fXuXaXsXnXZXAXAXAXAXZXAXBXZXBXBXCXVXVXVXVXVXVX[.[.&.    O   g #X:X:X:X#X:X",
"$XwX}   o   l n.k.G.k.G.l.t.0.d.^ P 8   X   & =.J.m.z.w.z.B.=       > _ @.%.gXjXhXjXbXNXCXCXAXAXAXCXZXZXCXBXBXNXCXCXNXCXBXNXvX^.  . .   g #X&X:X:X:X#X",
".XwX .      l e.z.G.m.S.6.i.A.5.S.M O .   - z ,.J.H.m.L.M.9 X +     [ $.o.~.pXlXjXaXkXzXvXvXzXcXcXvXvXxXnXVXCXBXCXVXCXZXNXxXzX^.    .   g #X:X&X$X:X:X",
"<XrX}   $   w r.B.r.0.4.6.d.i.S.7.u   . . O B H.l.M.l.H.e.9         ( $._ %.xXdXhXjXdXjXpXpXpXaXfXfXhXdXiXgXzXzXzXzXgXlXfXpXjXzX&.  .   g #X:X:X:X:X&X",
"8XW.<   $ O u i.f.Y a.i.p.f.~ ~ M       O u 3.J.H.t.l.N.e.2 .     p [ $._ @./.lXlXlXkXjXjXjXkXlXjXjXlXlXfXdXdXhXjXhXjXhXhXhXpX[.)       g &X:X&X$X,X:X",
"9X..  X     8 Y i.! s.7.i.y.f.I $   O   ; L 9.G.H.M.H.m.l.3 .     > [ o.@._ %.zXuXjXlXkXjXhXkXaXjXjXkXjXfXjXkXkXjXkXkXkXjXfXzX/.p       g #X:X&X:X,X&X",
"0XC.o   X O v 6.p.i.u.p.~ a.j.I     O . i p.r.,.m.V.K.k.k.n o . O   a ) $.) %.].vXlXaXuXjXjXjXaXkXkXjXjXjXjXkXgXgXaXgXkXgXpXuX^.h       m #X:X-X$X:X&X",
"rX... @   u R g.u.Q i.8.Q u.j.J     . * | s.t.G.2.N.m.<.L.b.& $       ) [ O.[ %.~.(.zXlXjXaXlXjXfXfXfXfXjXjXjXjXjXjXjXjXjXkX(.o.a   . . g $X:X:X&X:X:X",
"0X..  O   : T u.i.i.u.u.^ i.h.E       ; U r.c.m.G.G.H.m.z.n.r o O . X   [ #.$.o.[ o.$./.{.].].{.{.{.{.{.{.{.].[.[.[.].[.(.' [ h   .     g $X$X:X:X:X:X",
"eX..X O   7 T h.~ i.p.h.~ ~ p.F       ; U g.P.m.m.w.H.G.J.N.B.%   . .   p h [ #.` #.` #.$.O.O.o.@.o.` o.@.' ` ` ` @._ ) O.) <   O O o o g $X;X:X:X:X&X",
"eX... @   : T p.Q p.p.p.Q A.R 6       ; I 0.V.G.K.M.k.G.m.w.e.V         .   t [ ) $.[ [ ` _ O.o.@.[ o.o.o.[ [ #.` _ $.&.( #   O O O @ m _.%X;X&X:X:X:X",
"eX..  @   : T h.~ p.p.8.7.i.Y         i d.h.B.e.G.m.H.H.m.J.J.n.w   o           t ( [ #.@.' @.O.$.O.$.$.O.$.$.@.( ( h       O       *.`.2X$X:X:X&X&X:X",
"eX... @   7 T h.~ u.u.8.7.p.Y     . . U j.u.B.M.l.H.N.K.m.:.m.w.K.n   o     .       . > > > > , , , , , , , > > @         X   o   F.>X$X1X:X:X:X:X-X:X",
"eX..X O   : T u.~ y.p.p.p.A.I     . o W s.y.0.n.H.J.w.m.J.G.N.J.z.P.B.B $   X X     O     . .                 O       .   O     X.qX,X:X&X:X:X:X:X$X:X",
"eX... O   7 5.u.i.7.p.p.u.7.H       % L s.s.! 0.H.k.M.M.G.m.m.w.m.k.K.K.3.n & .                             . . O @   o q n   o   Z |.>X&X:X:X:X:X:X:X",
"0X... @   7 5.u.A.5.u.7.p.Q 6       + L u.s.d.b.H.k.m.M.M.G.G.M.H.w.w.l.P.P.n.3.. 2 2 2 2 2 2 2 2 2 2 2 2 2 2 5 5 2 l 3.J.e.  O #   `.9X#X&X:X:X:X:X:X",
"wX..O @   7 T h.Q 5.p.d.5.Q .     O + F h.f.7.4.V.H.H.l.l.M.M.H.H.H.H.H.z.l.l.z.P.P.P.P.c.P.P.P.P.c.P.H.P.P.H.H.l.l.H.K.G.1.        !.-X:X&X:X:X:X:X:X",
"eX..  @   7 T 8.A.7.p.p.7.W O       M Q A.5.d.p.9.M.M.m.m.M.H.M.H.w.w.e.m.m.m.K.G.m.m.m.m.m.m.H.G.m.H.m.G.m.k.G.J.:.m.K.<.-.    >   `.2X$X:X:X:X:X:X:X",
"0X..  O   7 5.u.~ 5.p.7.i.W .     . I p.0.5.f.d.y.B.G.H.l.m.H.M.G.l.J.K.m.e.w.M.H.m.m.m.m.m.m.m.m.m.m.M.m.m.M.e.V.N.N.2.k.q.  O     _.8X1X&X&X:X:X:X&X",
"!.C O     ; T u.i.7.7.i.6.7..   X   c I 5.u.d.i.y.0.t.N.G.G.k.M.P.k.w.G.m.H.H.l.G.G.M.H.H.H.G.G.H.H.H.H.G.l.K.G.z.z.H.m.e.q.    O   _.5X:X:X:X:X:X:X:X",
"Z.@ @     7 W h.7.^ i.i.h.R O   .   @ L i.s.d.d.y.y.0.B.M.k.,.H.M.M.H.M.H.m.M.G.H.M.w.H.H.w.M.M.H.M.H.w.M.m.M.H.k.H.m.K.L.;.    O   !.5X>X&X:X:X:X:X&X",
"F.* @ O   ; Q g.5.A.7.d.h.R i O     + L p.u.f.^ i.y.y.9.V.M.G.k.k.M.H.H.M.G.H.M.k.M.G.M.H.M.l.m.m.G.M.G.H.m.V.P.G.G.:.:.k.;.    O   !.1X:X&X:X:X:X:X:X",
"Z.* @     ; R h.5.A.5.p.5.A.|       O F p.u.p.i.i.d.! u.9.q.H.H.G.M.H.H.w.H.M.G.M.H.M.H.M.k.M.G.H.M.H.M.m.l.k.,.:.K.M.r.r.3.    O   !.1X>X:X:X;X:X:X:X",
"Q.d       < E s.u.~ u.p.a.5.P         7 P 6.8.y.i.d.a.a.u.0.r.n.M.m.H.G.G.M.H.H.H.M.G.M.M.k.M.H.G.M.H.H.M.l.>.G.m.r.g.5.I %     O O !.%X-X&X:X:X:X:X:X",
"tXD.+       v 6.A.~ p.5.i.u.y.M     @ % J S.y.7.i.8.8.p.^ i.7.0.r.G.k.M.H.m.m.H.m.l.G.H.M.M.H.M.w.M.H.H.M.H.w.N.B.8.s.+.{       O   `.@X>X:X:X:X:X:X:X",
"tX..  ,     8 J ~ ~ d.A.Q y.f.U   X   o 8 I S.5.y.p.i.i.d.i.i.i.p.u.9.V.G.G.G.M.M.M.M.M.m.m.M.H.H.M.M.e.k.>.M.r.g.s.^ S..         *X0X#X;X:X:X:X:X:X:X",
"$X).e O .   O . $ W 8.5.f.f.f.Y y       7 W u.s.y.i.i.u.i.u.i.8.i.~ p.9.t.m.H.H.2.,.G.M.H.M.H.M.H.H.G.m.e.B.0.8.5.s.f.c %   O @   T.1X&X5X:X:X:X:X&X:X",
"%XeX..  X X   +   & 8 H Y I T S.G       7 Q 6.u.i.i.i.i.i.p.p.i.d.i.i.y.8.9.q.M.l.J.H.K.l.m.k.M.H.k.G.t.0.i.+.! A.T Y $ O       *.>X:X+X&X:X:X:X:X:X:X",
"8X%X6XE.    * $ O @ O . . % 8 M i       % M p.u.Q i.i.i.p.7.y.i.p.4.7.i.^ a.6.6.h.0.9.r.V.t.P.k.M.r.0.i.i.y.a.s.U ; . o   O     Q.;X,X9X.X:X:X:X:X:X:X",
"@X@X&X,X_.D.e       . X X         X       7 U A.d.p.8.i.i.i.p.i.8.4.4.i.d.d.d.d.^ ^ a.8.0.0.9.r.r.8.d.^ ^ 8.p.J :   @     O   F.:X9XoX:X1X&X:X:X$X:X:X",
":X5X#X;X;X;X>XQ.N =       X . . o         . 8 Y a.u.i.i.i.u.i.y.d.^ d.i.8.p.u.i.y.p.p.d.! d.! ^ ! d.p.p.y.i.F # X   X $ * < *.-X<X&X-X:X:X:X:X:X:X:X:X",
":X:X:X:X&X:XOX,XyX!. ...4 o * o   } e   +     i A.j.p.p.u.7.i.u.u.i.i.i.i.i.i.y.u.8.d.y.7.d.p.A.i.g.g.8.+.i       > O = Z.0X0X&X#X:X1X$X-X&X:X:X:X:X:X",
":X:X:X:X5X%X;X>X:X,XwXeX|._.`.`.|.qX*.> .     $ F 7.p.g.8.d.Q 5.u.7.u.p.p.i.p.p.8.5.d.u.f.i.H 8 y M E v ;   @ O X   q '.6X5X$X#X&X>X:X&X:X:X:X:X:X:X:X",
":X:X:X:X:X:X:X;X>X$X#X&X&X&X&X:X#X+XE.e     X   q L A.u.5.s.A.Q p.i.y.i.y.i.p.7.i.A.p.u.p.L :     O #       O = * r -X,X#X#X$X:X:X&X&X&X:X:X:X:X:X:X:X",
":X:X:X;X%X:X5X;X:X2X>X%X5X%XOX5XoXqX]   .         6 F i.u.u.i.7.7.i.p.i.i.p.i.i.5.A.d.g.g.L ;           .   O   d qX:X&X#X5X:X:X:X:X:X:X:X:X:X:X:X:X:X",
":X:X:X:X;X%X;X5X$X&X5X;X5X&X5X%XyX*.      O         % L A.u.y.p.7.i.i.i.p.i.i.p.6.i.^ 8.h.H ; X   . .           < D.%X@X%X>X&X&X$X:X>X:X$X:X:X:X:X:X:X",
":X:X:X:X;X;X%X:X:X&X&X;X%X&X:X:XW.r     O . % . O @   y i.u.u.u.5.p.i.p.i.y.p.y.0.y.Q p.h.J :     o i F d .       = W.0X:X:X>X1X&X:X:X:X-X:X:X:X:X:X:X",
":X:X:X&X:X&X:X:X:X:X:X#X:X%X&XwXF.  . X   8 G   X X     | 5.8.j.i.i.i.u.7.p.p.i.i.h.7.i.j.P &   + + H S.! 9 O     e E.0XOX:X:X&X:X:X:X:X:X:X:X:X$X:X:X",
":X:X:X:X:X:X:X:X:X:X:X:X%X8X#XeXT.      * v i.i         M R 6.f.~ p.i.i.p.i.i.d.^ u.5.~ j.J ;   . $ F g.a.H O     < W.0X#X,X:X:X:X:X:X:X&X:X&X:X:X:X:X",
":X:X:X:X:X:X:X:X:X:X:X&X9X#X$XqXD.      : | 7.W         + Q 5.i.~ u.i.p.y.i.7.p.d.p.7.~ j.J ; . O % H s.u.T .   O < W.0X@X:X:X:X:X:X:X:X:X:X:X:X:X:X:X",
":X:X%X:X:X:X:X:X:X:X:X:X-X$X:X0XT.  O     i 7.R 6     O   | i.f.i.i.i.i.i.p.y.i.d.u.8.i.j.J &   . + F f.S.Y     O e W.0X@X:X:X:X:X&X:X:X&X:X:X:X:X:X:X",
":X:X:X:X&X:X:X:X:X:X:X:X;X9X}.wXF.O       O M A.G         | p.y.d.i.7.p.y.i.p.i.i.u.8.y.j.J :   . $ F f.P i     O 0 E.0X#X:X;X:X:X:X:X:X:X:X:X:X:X:X:X",
":X:X:X:X:X:X:X:X:X:X:X-X:X#X:X:X4X]   O     . & *     O   Q i.i.y.p.p.i.p.p.i.i.d.u.i.d.f.F % O   % F R y O   O O = E.0X%X:X:X:X:X:X:X:X:X:X:X:X:X&X:X",
":X:X:X:X:X:X:X:X:X:X:X%X5X%X;X-XqX!.q # O O o           y y.i.d.6.i.p.i.i.i.i.u.s.y.f.A.I 6   O             @ @   C =X:X$X&X:X:X&X:X:X:X:X:X:X:X:X:X:X",
":X:X:X:X:X:X:X&X:X:X:X-X:X;X;X5XoXrX,Xm X   O   O       +.8.d.y.u.i.i.i.7.p.i.i.y.y.y.u.J 6   O       O O O   $  .qX;X2X5X&X:X:X:X:X:X:X&X-X:X:X:X:X:X",
":X:X:X&X:X:X:X:X:X:X:X:X-X,X;X%X:XXX$X7X .O O   .       A.5.p.d.p.p.i.u.i.p.p.i.y.f.6.A.E 7   @       O     * E.;X%X+X1X X,X&X:X:X:X:X:X:X:X:X:X:X:X:X",
":X:X:X:X:X:X:X:X:X:X:X;X:X#X;X#X&X5X@X9X=XW.W.D.        E u.p.f.5.i.p.7.i.y.p.7.5.6.6.7.M       * A f * 0 R.'.;X:X8XOX:X2X$X:X:X:X:X:X:X:X:X&X:X:X:X:X",
":X:X:X:X:X:X:X:X:X:X:XOX5X#X:X7X:X%XXX;X:X9X9X`.        Q u.d.i.8.i.i.i.p.i.p.a.p.h.i.G ;   + o * Z.qX|.oX5X5XOX9X-X1X1X#X&X:X:X:X:X:X:X:X&X:X:X&X:X:X",
":X:X:X:X:X:X:X&X:X:X:X$X;X:X:X%X;X:X:X;X%X+X<X_.        +.7.p.d.a.u.u.p.u.u.u.u.s.p.| i   X     C `.,X2X:X:X&X:X&X>X>X$X5X$X:X:X:X:X:X:X:X:X:X:X:X:X:X",
":X:X&X:X:X;X:X:X:X:X&X:X:X:X:X:X:X:X2X:XoX8X:X`.  O   . < : i ~ A.7.Q Q ~ 7.Q ~ y.i.M @ X       ..tX#X<X&X:X:X:X:X:X:X:X:X:X:X:X:X:X:X:X:X:X:X:X:X:X:X",
":X:X:X:X:X:X:X:X:X:X:X:X:X:X:X:X:X:X:X;X:X&X:X`.Z   .           y K K K K K K K { 6   O   O - F.eXoX>X&X&X:X:X:X:X:X:X:X:X&X:X:X&X:X:X:X:X:X:X:X:X:X:X",
":X:X:X:X:X:X:X:X:X:X:X:X:X:X:X&X:X&X$X:X7X&XOX,XW.  @ O O .   @                 . O     X     eX$X$X<X&X&X:X2X:X:X:X:X&X:X:X:X:X:X:X:X:X:X:X:X:X:X:X:X",
":X:X:X:X&X:X:X:X:X:X:X:X:X:X:X:X:X:X:X:X;X&X1X;X>XE.Z N o     . .                         m qX:X}.&X2X#X,X&X&X:X:X:X:X:X:X:X:X:X:X:X:X:X:X&X:X:X:X:X:X",
":X:X:X:X:X:X:X:X:X:X:X:X:X:X:X:X:X:X$X:XoX9X$X@X>X-X9XwXF.E.*.                          D.;X@X$X:X:X-X&X,X#X:X:X:X:X:X:X:X:X&X:X:X:X:X:X:X:X:X:X:X&X:X",
":X&X:X:X&X:X:X:X:X:X&X:X:X:X:X:X:X:X&X:X:X:X&X&X>X>X:X:X1X>X;XoX X#X#X#X#X#X.X-X#X#X#XoX:X:X:X&X:X:X:X:X&X:X:X:X:X:X:X&X:X:X:X:X&X:X:X&X:X:X:X:X:X:X:X",
":X:X:X:X:X:X:X$X:X:X:X:X:X:X:X:X:X:X:X:X:X:X:X:X:X:X:X:X&X:X:X:X&X&X:X:X#X:X:X$X&X-X$X#X&X-X$X:X:X:X:X:X:X:X:X:X:X:X:X:X:X:X:X:X:X:X:X:X:X:X:X:X&X:X:X",
":X:X:X:X:X:X:X:X:X:X:X:X:X:X:X:X:X:X:X:X:X:X:X&X:X:X:X:X:X:X:X:X:X:X:X:X:X:X&X:X&X$X:X:X:X:X:X:X:X:X:X:X:X:X&X:X:X:X:X:X:X:X:X:X:X:X:X-X:X:X:X:X:X:X:X",
":X:X:X:X:X:X&X:X:X:X:X:X&X:X:X-X:X:X:X:X&X:X:X:X:X:X:X:X:X:X:X:X:X:X:X:X:X:X:X:X:X-X&X:X:X:X&X:X:X:X:X:X:X:X:X:X&X:X:X:X:X:X:X:X:X:X:X&X:X:X:X:X:X:X:X"
};
