/* XPM */
static char *result[] = {
/* columns rows colors chars-per-pixel */
"75 75 81 1 ",
"  c black",
". c #010000",
"X c #000100",
"o c #000001",
"O c #010101",
"+ c #020202",
"@ c #030202",
"# c gray1",
"$ c #040404",
"% c #040405",
"& c gray2",
"* c #060606",
"= c #070706",
"- c #070707",
"; c gray3",
": c #090909",
"> c #0B0B0B",
", c #0C0C0C",
"< c #111111",
"1 c gray8",
"2 c gray9",
"3 c gray10",
"4 c #1B1B1B",
"5 c #1D1D1D",
"6 c #202020",
"7 c #282828",
"8 c #2D2D2D",
"9 c gray18",
"0 c #313131",
"q c #373737",
"w c gray23",
"e c #464646",
"r c #484848",
"t c gray33",
"y c gray34",
"u c gray43",
"i c #7B7B7B",
"p c #848484",
"a c gray52",
"s c gray56",
"d c gray59",
"f c gray63",
"g c #A7A7A7",
"h c gray66",
"j c #C1C1C1",
"k c #C3C3C3",
"l c #C5C5C5",
"z c #C6C6C6",
"x c #CACACA",
"c c #CBCBCB",
"v c gray80",
"b c #CDCDCD",
"n c #CECECE",
"m c #CFCFCE",
"M c #CFCECF",
"N c #CECFCF",
"B c gray81",
"V c #D0D0D0",
"C c gray82",
"Z c #D2D2D2",
"A c LightGray",
"S c gray83",
"D c #D5D5D5",
"F c #D7D7D7",
"G c #DDDDDD",
"H c #DFDFDF",
"J c #E2E2E2",
"K c #EAEAEA",
"L c #F1F1F1",
"P c gray97",
"I c #F8F8F8",
"U c #F8F9F8",
"Y c #F9F9F9",
"T c gray98",
"R c gray99",
"E c #FEFEFE",
"W c #FFFFFE",
"Q c #FFFEFF",
"! c #FEFFFF",
"~ c white",
"^ c None",
/* pixels */
"^^^^^^^^^^^^^^^^^^^^^^^^^^^^^^^^^^^^^^^^^^^^^^^^^^^^^^^^^^^^^^^^^^^^^^^^^^^",
"^^^^^^^^^^^^^^^^^^^^^^^^^^^^^^^^^^^^^^^^^^^^^^^^^^^^^^^^^^^^^^^^^^^^^^^^^^^",
"^^^^^^^^^^^^^^^^^^^^^^^^^^^^^^^^^^^^^^^^^^^^^^^^^^^^^^^^^^^^^^^^^^^^^^^^^^^",
"^^^^^^^^^^^^^^^^^^^^^^^^^^^^^^^^^^^^^^^^^^^^^^^^^^^^^^^^^^^^^^^^^^^^^^^^^^^",
"^^^^^^^^^^^^^^^^^^^^^^^^^^^^^^^^^^^^^^^^^^^^^^^^^^^^^^^^^^^^^^^^^^^^^^^^^^^",
"^^^^^^^^^^^^^^^^^^^^^^^^^^^^^^^^^^^^^^^^^^^^^^^^^^^^^^^^^^^^^^^^^^^^^^^^^^^",
"^^^^^^^^^^^^^^^^^^^^^^^^^^^^^^^^^^^^^^^^^^^^^^^^^^^^^^^^^^^^^^^^^^^^^^^^^^^",
"^^^^^^^^^^^^^^^^^^^^^^^^^^^^^^^^^^^^^^^^^^^^^^^^^^^^^^^^^^^^^^^^^^^^^^^^^^^",
"^^^^^^^^^^^^^^^^^^^^^^^^^^^^^^^^^^^^^^^^^^^^^^^^^^^^^^^^^^^^^^^^^^^^^^^^^^^",
"^^^^^^^^^^^^^^^^^^^^^^^^^^^^^^^^^^^^^^^^^^^^^^^^^^^^^^^^^^^^^^^^^^^^^^^^^^^",
"^^^^^^^^^^^^^^^^^^^^^^^^^^^^^^^^^^^^^^^^^^^^^^^^^^^^^^^^^^^^^^^^^^^^^^^^^^^",
"^^^^^^^^^^^^^^^^^^^^^^^^^^^^^^^^^^^^^^^^^^^^^^^^^^^^^^^^^^^^^^^^^^^^^^^^^^^",
"^^^^^^^^^^^^^^^^^^^^^^^^^^^^^^^^^^^^^^^^^^^^^^^^^^^^^^^^^^^^^^^^^^^^^^^^^^^",
"^^^^^^^^^^^^^^^^^^^^^^^^^^^^^^^^^^^^^^^^^^^^^^^^^^^^^^^^^^^^^^^^^^^^^^^^^^^",
"^^^^^^^^^^^^^^^^^^^^^^^^^^^^^^^^^^^^^^^^^^^^^^^^^^^^^^^^^^^^^^^^^^^^^^^^^^^",
"^^^^^^^^^^^^^^^^^^^^^^^^^^^^^^^^   ^^^^^^   +^^^^^^^^^^^^^^^^^^^^^^^^^^^^^^",
"^^^^^^^^^^^^^^^^^^^^^^^^^^^^^^     o+^       ^^^^^^^^^^^^^^^^^^^^^^^^^^^^^^",
"^^^^^^^^^^^^^^^^^^^^^^^^^^^^^  ~~~~J.  #~~~~ O^^^^^^^^^^^^^^^^^^^^^^^^^^^^^",
"^^^^^^^^^^^^^^^^^^^^^^^^^^^^3 Y~~~~~  E~~~~~ @^^^^^^^^^^^^^^^^^^^^^^^^^^^^^",
"^^^^^^^^^^^^^^^^^^^^^^^^^^^^ +~~~~~~OO~~~~~~ ^^^^^^^^^^^^^^^^^^^^^^^^^^^^^^",
"^^^^^^^^^^^^^^^^^^^^^^^^^^^^  ~~~~~~~R~~~~~- ^^^^^^^^^^^^^^^^^^^^^^^^^^^^^^",
"^^^^^^^^^^^^^^^^^^^^^^^^^^^^9 ~~~~~~~~~~~~$X^^^^^^^^^^^^^^^^^^^^^^^^^^^^^^^",
"^^^^^^^^^^^^^^^^^^^^^^^^^^^^^$ Y~~~~~~~~~& &^^^^^^^^^^^^^^^^^^^^^^^^^^^^^^^",
"^^^^^^^^^^^^^^^^^^^^^^^^^^^^^^   #~~~~~~+ #^^^^^^^^^^^^^^^^^^^^^^^^^^^^^^^^",
"^^^^^^^^^^^^^^^^^^^^^^^^^^^^^^^^#+Q~~~~z -^^^^^^^^^^^7^^^^^^^^^^^^^^^^^^^^^",
"^^^^^^^^^^^^^^^^^^^^^^^^^^^^^^^^#+~~~~~&+^^^^^^^^^^       X-^^^^^^^^^^^^^^^",
"^^^^^^^^^^^^^^^^^^^^^^^^^^^^^^^^- ~~~~~  ^^^^^^^^^ &vBBk+&   ^^^^^^^^^^^^^^",
"^^^^^^^^^^^^^^^^^^^^%^^^^^^^^^^^  ~~~~~ &^^^^^^^^^ wBBBBBBBn -^^^^^^^^^^^^^",
"^^^^^^^^^^^^^^^^^^$    ;^^^^^^^^oOQ~~~~  ^^^^^^  O ABBBBBBBB# ^^^^^^^^^^^^^",
"^^^^^^^^^^^^^^^^^^ UEE-  ^^^^^O   E~~~~ :^^^^      5BBBMBBMmh ^^^^^^^^^^^^^",
"^^^^^^^^^^^^^^^^^  ~~~~~  O^0O OW  8O:~+X>   .,LBB= OBBBBBBBV ^^^^^^^^^^^^^",
"^^^^^^^^^^^^^^^^^  ~~~~~!u    $~~~:o      -*~~~BBBB$ BBBBBBBb ^^^^^^^^^^^^^",
"^^^^^^^^^^^^^^^^^  H~~~~!~~I~~~~~~~~~RI#E~~~~~~BBBBV nBBBBBBB ^^^^^^^^^^^^^",
"^^^^^^^^^^^^^^^^^  B~~~~!~~~~~~~~~~~~~~~~~~~~~~BBBBB nBBBBBBB ^^^^^^^^^^^^^",
"^^^^^^^^^^^^^^^^^  BE~~~~~~~~~~~~~~~~~~~~~~~~~GBBBBB pBBBBBBB ^^^^^^^^^^^^^",
"^^^^^^^^^^^^^^^^^  BB~~~~~~~~~~~~~~~~~~~~~~~~~BmBBmB $BBBBBBB ^^^^^^^^^^^^^",
"^^^^^^^^^^^^^^^^^  BB~~W~~~~~~~~~~~~~~~~~~~~~~BBBBBBX6BBBBBBB ^^^^^^^^^^^^^",
"^^^^^^^^^^^^^^^^^  BBP~~~Q~~~~~~~~~~~Q~~~~!~~nBBBBBB sBBBBBBB ^^^^^^^^^^^^^",
"^^^^^^^^^^^^^^^^^  BBB~~~~~!~~~~~~~~~~~~~~~~~BBBBBBB CBBBBBBV ^^^^^^^^^^^^^",
"^^^^^^^^^^^^^^^^^ .BmBD~!~W~~~~~~~~~~~~~~~!~BBBBBBBB VBBBBBBn ^^^^^^^^^^^^^",
"^^^^^^^^^^^^^^^^^  BBBBE~~~~~~~~~~~~~~~~~~~nBBBBBBBN BBBBNBBj ^^^^^^^^^^^^^",
"^^^^^^^^^^^^^^^^^$ BBBBB!~~~~~~~~~~~~~~~~~nBBBBBBBBF BBBBBBB# ^^^^^^^^^^^^^",
"^^^^^^^^^^^^^^^^^^ BBBBBBB~~~~~~~~~~~Q~~TBBBBBBBBBBC BBBBBBB  ^^^^^^^^^^^^^",
"^^^^^^^^^^^^^^^^^^ BBBBBBBBB~~~~~~~~~~KnBBBBBBBBBBBd BBBBBBB ^^^^^^^^^^^^^^",
"^^^^^^^^^^^^^^^^^^ MmBBBBBBBBBBBBBBBBBBBBBBBBBBBBBBO BBBBBB  ^^^^^^^^^^^^^^",
"^^^^^^^^^^^^^^^^^^.ZBBBBBBBBBBBBBBBBBMBBBBBBBBMBBBB  mBBBBB$$^^^^^^^^^^^^^^",
"^^^^^^^^^^^^^^^^^^ yBBBBBBBBBBBBBBBBBBBBBmBBBBBBBBB  BBBBNS ^^^^^^^^^^^^^^^",
"^^^^^^^^^^^^^^^^^^*+BBBBBBBBBBBBmBBmBMBBBBBBBBBBBBB  BBBBB  ^^^^^^^^^^^^^^^",
"^^^^^^^^^^^^^^^^^^+ mNBBBB kBBBBBNBBBFBBBBBBBBBBBBB  +#ql  ^^^^^^^^^^^^^^^^",
"^^^^^^^^^^^^^^^^^^^ SBBBBB+  xABBv#   BBBBBBBBBBBBB.      ^^^^^^^^^^^^^^^^^",
"^^^^^^^^^^^^^^^^^^^ eBBBBBBi o      rXBBBBBBBNBmBBB ^^^^^^^^^^^^^^^^^^^^^^^",
"^^^^^^^^^^^^^^^^^^^ OBBBBBBNBnt 1^^^^XBBBBBBBBBBBBB ^^^^^^^^^^^^^^^^^^^^^^^",
"^^^^^^^^^^^^^^^^^^^^ BBBBBBBBBC ^^^^^ BBBBBBBBBBBBB ^^^^^^^^^^^^^^^^^^^^^^^",
"^^^^^^^^^^^^^^^^^^^^ DBBBBBBBBn ^^^^^ BBBBBBBBBBBBB ^^^^^^^^^^^^^^^^^^^^^^^",
"^^^^^^^^^^^^^^^^^^^^ OBBBBBBBBN ^^^^^ BBBBBBBBBBBBB ^^^^^^^^^^^^^^^^^^^^^^^",
"^^^^^^^^^^^^^^^^^^^^2 BBBBBBBBz ^^^^^ fBBBBBBBBBBBC ^^^^^^^^^^^^^^^^^^^^^^^",
"^^^^^^^^^^^^^^^^^^^^^ >BBBBBBB+ ^^^^^ OBBBBBBBBBBBg ^^^^^^^^^^^^^^^^^^^^^^^",
"^^^^^^^^^^^^^^^^^^^^^  BBBBBBBO+^^^^^ &BBBBBBBBBNB$ ^^^^^^^^^^^^^^^^^^^^^^^",
"^^^^^^^^^^^^^^^^^^^^^^  BBBBBc ^^^^^^  BBBBMBBBBBB$O^^^^^^^^^^^^^^^^^^^^^^^",
"^^^^^^^^^^^^^^^^^^^^^^^ aBBNV& ^^^^^^^ 6BBBBBBBmBB <^^^^^^^^^^^^^^^^^^^^^^^",
"^^^^^^^^^^^^^^^^^^^^^^^*      ^^^^^^^^   -VBBBBBB  ^^^^^^^^^^^^^^^^^^^^^^^^",
"^^^^^^^^^^^^^^^^^^^^^^^^^   ;^^^^^^^^^^^          ^^^^^^^^^^^^^^^^^^^^^^^^^",
"^^^^^^^^^^^^^^^^^^^^^^^^^^^^^^^^^^^^^^^^^^^-o   4^^^^^^^^^^^^^^^^^^^^^^^^^^",
"^^^^^^^^^^^^^^^^^^^^^^^^^^^^^^^^^^^^^^^^^^^^^^^^^^^^^^^^^^^^^^^^^^^^^^^^^^^",
"^^^^^^^^^^^^^^^^^^^^^^^^^^^^^^^^^^^^^^^^^^^^^^^^^^^^^^^^^^^^^^^^^^^^^^^^^^^",
"^^^^^^^^^^^^^^^^^^^^^^^^^^^^^^^^^^^^^^^^^^^^^^^^^^^^^^^^^^^^^^^^^^^^^^^^^^^",
"^^^^^^^^^^^^^^^^^^^^^^^^^^^^^^^^^^^^^^^^^^^^^^^^^^^^^^^^^^^^^^^^^^^^^^^^^^^",
"^^^^^^^^^^^^^^^^^^^^^^^^^^^^^^^^^^^^^^^^^^^^^^^^^^^^^^^^^^^^^^^^^^^^^^^^^^^",
"^^^^^^^^^^^^^^^^^^^^^^^^^^^^^^^^^^^^^^^^^^^^^^^^^^^^^^^^^^^^^^^^^^^^^^^^^^^",
"^^^^^^^^^^^^^^^^^^^^^^^^^^^^^^^^^^^^^^^^^^^^^^^^^^^^^^^^^^^^^^^^^^^^^^^^^^^",
"^^^^^^^^^^^^^^^^^^^^^^^^^^^^^^^^^^^^^^^^^^^^^^^^^^^^^^^^^^^^^^^^^^^^^^^^^^^",
"^^^^^^^^^^^^^^^^^^^^^^^^^^^^^^^^^^^^^^^^^^^^^^^^^^^^^^^^^^^^^^^^^^^^^^^^^^^",
"^^^^^^^^^^^^^^^^^^^^^^^^^^^^^^^^^^^^^^^^^^^^^^^^^^^^^^^^^^^^^^^^^^^^^^^^^^^",
"^^^^^^^^^^^^^^^^^^^^^^^^^^^^^^^^^^^^^^^^^^^^^^^^^^^^^^^^^^^^^^^^^^^^^^^^^^^",
"^^^^^^^^^^^^^^^^^^^^^^^^^^^^^^^^^^^^^^^^^^^^^^^^^^^^^^^^^^^^^^^^^^^^^^^^^^^"
};
