/* XPM */
static char *result[] = {
/* columns rows colors chars-per-pixel */
"70 75 209 2 ",
"   c #020103",
".  c #03050B",
"X  c #06090D",
"o  c #0B0B0C",
"O  c #080707",
"+  c #0C100E",
"@  c #050612",
"#  c #070A12",
"$  c #0A0D13",
"%  c #0A0D19",
"&  c #070D18",
"*  c #0C1216",
"=  c #071119",
"-  c #0B121A",
";  c #0F191F",
":  c #121415",
">  c #121419",
",  c #16181B",
"<  c #1B1C1C",
"1  c #161A24",
"2  c #1A1C22",
"3  c #161A29",
"4  c #1B1D2A",
"5  c #1D2222",
"6  c #1E232A",
"7  c #17222C",
"8  c #1D2934",
"9  c #1A2035",
"0  c #252425",
"q  c #2A2527",
"w  c #22262B",
"e  c #26292A",
"r  c #2E2E2E",
"t  c #302D2D",
"y  c #222837",
"u  c #2F2E32",
"i  c #212738",
"p  c #232938",
"a  c #262A39",
"s  c #312F32",
"d  c #343435",
"f  c #34353C",
"g  c #35383F",
"h  c #3C3B3C",
"j  c #393937",
"k  c #40403F",
"l  c #2F3442",
"z  c #2D3C45",
"x  c #313443",
"c  c #353A43",
"v  c #3A3A42",
"b  c #3E434A",
"n  c #314551",
"m  c #3F505F",
"M  c #444345",
"N  c #484A4B",
"B  c #4C4E53",
"V  c #434E53",
"C  c #4B595F",
"Z  c #44555D",
"A  c #505154",
"S  c #4A5C63",
"D  c #475F6C",
"F  c #4A5F6D",
"G  c #435261",
"H  c #515F66",
"J  c #4A5E70",
"K  c #46626C",
"L  c #4A616C",
"P  c #516069",
"I  c #476674",
"U  c #496572",
"Y  c #4D6B77",
"T  c #4C6C7A",
"R  c #526A75",
"E  c #646B7F",
"W  c #5F6A85",
"Q  c #527988",
"!  c #616B85",
"~  c #717889",
"^  c #6F7694",
"/  c #6E7B93",
"(  c #6F7B98",
")  c #707793",
"_  c #727A93",
"`  c #71799C",
"'  c #7786A4",
"]  c #7C87A3",
"[  c #7D89A3",
"{  c #7786A9",
"}  c #7C8CAD",
"|  c #7C8BB1",
" . c #7E94BD",
".. c #7F97BA",
"X. c #7E93C3",
"o. c #828CA3",
"O. c #899EAC",
"+. c #959CA6",
"@. c #8696B6",
"#. c #8B96B4",
"$. c #8395BE",
"%. c #8996BA",
"&. c #8398BC",
"*. c #8C9ABD",
"=. c #8C98B5",
"-. c #929EBD",
";. c #8CA3AC",
":. c #9CA2A7",
">. c #9BA3AC",
",. c #89A5B1",
"<. c #94A3BF",
"1. c #98A6BF",
"2. c #A1A6AE",
"3. c #AAAAAA",
"4. c #A2A3A5",
"5. c #A1A7B1",
"6. c #AAACB2",
"7. c #A4ADB7",
"8. c #AEB5BC",
"9. c #A7B0B5",
"0. c #B5B5B5",
"q. c #B1B6BE",
"w. c #BCBCBB",
"e. c #B5B9BB",
"r. c #C1C0BE",
"t. c #8395C1",
"y. c #8398C1",
"u. c #8B9BC0",
"i. c #8795C4",
"p. c #95A4C4",
"a. c #9BABCA",
"s. c #99A4C0",
"d. c #96BBCE",
"f. c #9BBCCC",
"g. c #9CBED0",
"h. c #A1AFC6",
"j. c #A7BFCB",
"k. c #AEB6C1",
"l. c #B1B6C1",
"z. c #B4BAC2",
"x. c #BCBDC1",
"c. c #A1BED3",
"v. c #9EC2CF",
"b. c #9BC4D5",
"n. c #97C5DA",
"m. c #9AC5D9",
"M. c #9AC8DD",
"N. c #9FC8D7",
"B. c #A4C4CC",
"V. c #ACC1CF",
"C. c #A3C3D3",
"Z. c #A2C5D9",
"A. c #ACCED9",
"S. c #BED7DF",
"D. c #BCD8DF",
"F. c #B1D3DE",
"G. c #BDCEEC",
"H. c #BFD7E3",
"J. c #B5D5E2",
"K. c #C3C3C3",
"L. c #C7CACD",
"P. c #C5CCD4",
"I. c #C9CFD7",
"U. c #C7CEDA",
"Y. c #C9CFDA",
"T. c #CBD1D6",
"R. c #CAD2DB",
"E. c #D2D2D2",
"W. c #D9DBD9",
"Q. c #D4D8DC",
"!. c #C2CDE6",
"~. c #C4DBE4",
"^. c #CDDBE5",
"/. c #C2D0E9",
"(. c #C8D7EB",
"). c #D3D7E1",
"_. c #D3DBE4",
"`. c #D8DDE5",
"'. c #D5DFED",
"]. c #D9DEEB",
"[. c #CCDCF3",
"{. c #CEDDF8",
"}. c #C7D7F0",
"|. c #D4DFF1",
" X c #D7DFF5",
".X c #CDE1EA",
"XX c #CAE2E7",
"oX c #D4E0EE",
"OX c #DBE2ED",
"+X c #D3E9EF",
"@X c #D4E1F1",
"#X c #DDE4F1",
"$X c #DEEAF4",
"%X c #D3E1F9",
"&X c #D9E6F8",
"*X c #E5E5E6",
"=X c #E9E6E7",
"-X c #E6E9E7",
";X c #E9E9E6",
":X c #EAEAEA",
">X c #E8E7EA",
",X c #E0E7F4",
"<X c #EEEEF4",
"1X c #F0EFF3",
"2X c #F3F3F4",
"3X c #F8F9F6",
"4X c #F6FEFE",
"5X c #FFFFFE",
"6X c #F7F6F9",
/* pixels */
"5X5X5X5X5X5X5X5X5X5X5X5X5X5X5X5X5X5X5X5X5X5X5X5X5X5X5X5X3XK.: o + + o o + + + o o o o + t 5X3X5X5X5X5X5X5X5X5X5X5X5X5X5X5X5X5X5X5X5X5X5X5X5X",
"5X5X5X5X5X5X5X5X5X5X5X5X5X5X5X5X5X5X5X5X5X5X5X5X5X5X5X5X5XK.o                           0 5X5X5X5X5X5X5X5X5X5X5X5X5X5X5X5X5X5X5X5X5X5X5X5X5X",
"5X5X5X5X5X5X5X5X5X5X5X5X5X5X5X5X5X5X5X5X5X5X5X5X5X5X5X5X5XK.O                           5 5X5X5X5X5X5X5X5X5X5X5X5X5X5X5X5X5X5X5X5X5X5X5X5X5X",
"5X5X5X5X5X5X5X5X5X5X5X5X5X5X5X5X5X5X5X5X5X5X5X5X5X5X5X5X5XK.O                           0 5X5X5X5X5X5X5X5X5X5X3X5X5X5X5X5X5X5X5X5X5X5X5X5X5X",
"5X5X5X5X5X5X5X5X5X5X5X5X5X5X5X5X5X5X5X3X2X2X2X2X2X2X2X2X2Xw.* X o @ X X X X $ X X @ o $ e 2X2X2X6X2X2X2X2X2X3X5X5X5X5X5X5X5X5X5X5X5X5X5X5X5X",
"5X5X5X5X5X5X5X5X5X5X5X5X5X5X5X5X5X5X5XK., < , < , , < < < M R.R.R.Y.R.U.Y.Y.Y.Y.U.U.R.Y.z.< < < , < < < < < N 6X5X5X5X5X5X5X5X5X5X5X5X5X5X5X",
"5X5X5X5X5X5X5X5X5X5X5X5X5X5X5X5X5X5X5Xr.                  g `.].'.'.].'.'.'.].].'.'.'.'.L.                  h 5X5X5X5X5X5X5X5X5X5X5X5X5X5X5X",
"5X5X5X5X5X5X5X5X5X5X5X5X5X5X5X5X5X5X5Xw.                O f ].'.@X X XoX X@X@X X@X|.oXoXL..                 j 3X3X5X5X5X5X5X5X5X5X5X5X5X5X5X",
"5X5X5X5X5X5X5X5X5X5X5X5X5X5X5X5X3X5X5Xr.                  g OX|.|.@X@X@XoX@X@X@X@X@X@X|.V.                  j 5X5X5X5X5X5X5X5X5X5X5X5X5X5X5X",
"5X5X5X5X5X5X5X5X5X5X5X5X5X5X6X:X:X:X-X0.: : : - > > : > > b '.oX'.'.'.|. X'.'.'.|.'.'.'.P.; , : : - : > > > M >X>X>X=X1X5X5X5X5X5X5X5X5X5X5X",
"5X5X5X5X5X5X5X5X5X5X5X5X5X5X0.0 < < , N Q.T.I.I.U.I.U.I.U.^..X'.].'.'.'.'.].oX].'.oX'.'.'.U.U.I.I.I.U.I.I.I.5.2 2 2 < N 3X5X5X5X5X5X5X5X5X5X",
"5X5X5X5X5X5X5X5X5X5X5X5X5X5X0.O       g #X.XoXoX'.'.'.|.'.'.|.oXoXoXoXoXoX'.]. X'.|.'. XoXoXoXoX'.'.'.[.'.].8..     O d 6X5X5X5X5X5X5X5X5X5X",
"5X5X5X5X5X5X5X5X5X5X5X5X5X5X0.o       g #XoX@X@X X'.|.|.|.'.|.'.oXoXoXoXoX'.'.oXoX@XoX#X|.@X@X@XoX@X@X%X@XOX8.        d 3X5X5X5X5X5X5X5X5X5X",
"5X5X5X5X5X5X5X5X5X5X5X5X5X5X0.O       c $XoXoX@X'.|.|.'.|.@X@XoX'.oXoXoXoX@XoXoX.XoXoXoX'.oXoX|.oXoXoX'.oX].8.        j 3X5X5X5X5X5X5X5X5X5X",
"5X5X5X5X5X5X5X5X5X5X5X5X5X5X0.o       g ,XoXoX.XoX|.|.'.|.'.|.oXoXoX'.@XoX@XoXoX_._.^._._.'._._._.'.^.'._._.0.        j :X1X:X2X2X3X5X5X5X5X",
"5X5X5X5X5X5X5X5X5X5X5X5X5X5X0.O       g ,XoX@XoX@X'.|.|.|.'.|.oXoXoX@XoX@XoXoX7.6 < 2 1 1 1 1 1 1 2 , 1 < < ,         o < 5 < < N :X3X5X5X5X",
"5X5X5X5X5X5X5X5X5X5X5X5X5X5X0.o       c #XoX@XoXoX X'.@X|.|.|.oXoXoXoXoXoX@X#X2.o                           O         O         r *X5X5X5X5X",
"5X5X5X5X5X5X5X5X5X5X5X5X5X5X0.O       g ,X'.@XoX@X'.'.'.'.'.'.@X'.oX@X X#X@X@X2.o                             .                 r =X5X5X5X5X",
"5X5X5X5X5X5X5X5X5X5X5X5X5X5X0.O       g ,XoX@X@X@XoXoXoXoXoX@X'. XoX_.'.'.'.].>.$                                               s =X3X5X6X5X",
"5X5X5X5X6X:X:X:X:X:X:X:X:X:X3.O       g ,XoX@XoXoX@X'.oXoXoX'.@XoXoX'.R.R.R.T.;., - = - * $ $ - $ - $ $ $ : $ $ $ $ - % * $ - - c W.:X:X>X:X",
"5X5X5X5X3.                            g ,XoX@X@XoXoXoXoX'.oX'.@X'.OX8.X   . . g j.C.C.C.b.B.B.B.B.B.C.C.c.C.C.C.C.B.B.B.B.B.B.C.;.: O     q ",
"5X5X5X3X3.                            g ,XoX X+X@XoXoX'.oXoXoX@XoXoX8.        n f.N.m.C.b.N.A.H.H.R.H.~.~./.H./.H.H.H.S.S.A.b.b.;.*     . 0 ",
"5X5X5X5X3.                            c ,XoXoXoXoXoX'.@XoXoXoX@XoXoX8..       z g.m.m.m.Z.C.~.4X4X4X5X3X3X4X4X5X4X5X5X3X4X.Xb.C.,.*       0 ",
"5X5X5X3X3.                            c ,XoX@XoX@XoXoX@X.X'.oXoXXXoX8.. .     z g.m.m.m.n.n.~.4X3X5X5X4X5X5X5X3X3X5X3X5X4XXXN.n.,.-       w ",
":X:X:X1X4.: o + : $ + : * * o         g ,XoX@X+XOXoXoXoX'.].).^.W.W.9.- - - - n v.n.b.M.m.b.~.4X5X5X5X5X5X5X5X5X5X5X3X5X3XXXC.n.,.*       0 ",
"o O o o A OX`.`.`.].].`._.].:.o       g ,XoX@X@X'.oXoXoX].l.& @ O o y V.C.j.j.C.n.M.m.b.m.C.~.4X3X5X3X4X3X4X4X4X4X3X5X4X4X.Xc.m.,.*     . 0 ",
"      O B #X].oX]. X]. X].].+.X       c ,XoX@XoXoXoXoX@X].k.@ .     y C.m.m.b.b.n.M.n.n.m.n.F.+X+X+XoX+X+X+X%X+X+X+X+X+XoXJ.m.M.,.*       0 ",
"        B #X#XoX'.'. X'.oX].>.X       g ,XoX@X@XoXoXoX@X'.k..       8 Z.m.n.b.n.M.M.M.b.m.m.v.v.v.v.v.v.b.b.c.g.b.b.C.v.b.b.m.b.;.-     . 0 ",
"        B #XoXoX'. X@X@XoXoX:.O       c #X'.oXoX@X@X@X@X'.q..       8 b.m.n.N.m.n.m.m.b.b.b.n.N.b.b.b.M.m.m.m.m.m.m.m.b.N.n.n.b.,.*     . 0 ",
"        V &X%X%X%X%X%X%X@X+X>.X       g ,XoX X+X@X@X@XoXoXk..       y C.b.Z.Z.Z.b.m.b.Z.b.b.n.b.b.n.b.n.m.m.m.m.m.m.m.m.n.n.n.b.,.*     . 0 ",
"        c *.*.u.*.u.u.*.*.=.! @       c ,XoX@XoXoX@X@X@XoXe..       > R Y Y R Y T W T T Q b.n.n.m.m.b.n.M.M.g.m.g.m.N.b.N.n.n.b.,.*       0 ",
"O       f t.$.$.t.t.t.$.$.$.! X       c ,X'.@X@XoXOX X@XoXe.O       - F K K K L F U K K T N.b.m.m.M.b.n.g.M.M.M.m.m.b.n.n.n.b.b.;.-     . 0 ",
"        l u.t.t.t.$.$.t.$.$.W @       g ,XoX@X@XoX].oX[.'.q.O       ; S L K K K F J J K T b.b.n.m.m.m.M.n.n.n.n.n.N.m.n.m.m.m.n.,.>       0 ",
"      . l y. .t.t.t.t.$.$.$.W @       c ,XoX@XoXOXoXoX@X'.8.O       * P L P K L L J U D T N.m.n.m.m.m.m.n.n.N.n.N.n.n.m.n.N.b.b.,.$       0 ",
"        l $.$.t.t.t.t.t.t.$.! .       c ,XoXoXoX X'.'.oX'.k.4 < : , 6 C C C Z S F J D U T f.d.d.d.d.d.d.v.d.d.v.d.d.d.d.d.d.d.d.O.:     . 0 ",
"        x t.t.y.$.t.t.t.$.$.! .       g ,XoX X+X@X'..X'.oXoX^.).Q.).9.$ X X + 7 F D J D L U I I I U U U I I K U I I I I I U I U G o       0 ",
"        l $.t.t.t.t.t.t.t.$.! @       g ,XoXoXoXoX XoXoXoX'.oX'.OXoX8.X       1 S J F K F L L K U K L K K K K K K K L L U U K U G @       0 ",
"O       l u.$.t.t.t.t.t.$.$.! .       f ,X+XoXoXoXoXoXoXoX X'.@X'.oXl.. .   O 1 S L K K L L L L L F L L L L K K L L L L D J D F Z @   O   0 ",
"        x $.$.i.t.t.t.t.t.$.! .       f $X[.[.oXoXoXoXoX X'.'. X].].q.X   O   1 S L K K L L L L L L L K L L L K L L L L F F F F V # O     0 ",
"        x $.$.t.t.t.t.$.t.$.! @       c &X[.[.[.|.oXoXoX'.'. X'.].].z.> > * : y C S S S S C P S S S C S C P C S S S C H C C S S V , > : : d ",
"        l y.$.y.t.t.$.i.$.@.! .       i -.&.*.%.h.@XoX|.'.'.@X'.oX'.].U.T.T.T.+.$ # # X @ $ X @ @ o @ $ $ @ X $ X # @ $ X # # $ d T.*X*X*X*X",
"        l y.t.y.t.t.y.i.t.$.! @     . i *.$.t.y.a.@X@X'. XoX'.|.'.oXoXoX.XoX+X2.$                 O                             r >X3X5X5X5X",
"        x $.t.t.t.y.y.$.t.$.! .       i %.t.X.X.a.@X|.'.oX].].'.'.oXoXoXoXoX@X>.X                                               t ;X5X4X5X5X",
"O       x t.$.y.t.t.t.i.t.$.! .       8 %.X.X.X.a. X[.|.'.oX].oX|.'.oX'.oX#X@X>.X                                   .           t ;X5X5X5X5X",
"      . l %.t.t.t.t.t.t.t.$.! @     . 8 *.t.X.$.p.[.[.(.(.^._.oX'.oX'.oX].OXoX7.6 5 5 < 2 2 2 2 2 1 < < < < 2 2 2 2 4 ,         r >X5X5X5X5X",
"        l $.t.i.t.y.$.t.$.$.! .       y *.t.t.$.$.@.$.$.@.1.#X].].'.]. X X'.|.oX#X#XOXOX#X#X#X#X,X,X#X,X#X#X#X#X#XOX].z.X       r :X5X5X5X5X",
"        x y...t.t.t.t.t.t.$.! .       i =.X.X.y.y.t.i.i.t.p.{.oXoXoX'.@X|.|.|.@XoXoXoX].oX'. X'.|.'.'. X|.|.'.'.oXoX.Xq.O       r :X5X5X5X5X",
"        x y.t.t.t.t.y.t.$.$.! .       y *.t.t.y.$.$.t.t.i.p.%X@XoXoX'.@X'.|.@X@X@XoXoX.XoXoXoXoX'.'.'.'.oXoXoXoXoXoXoXk.O       r :X5X5X5X5X",
"        x $.$.y.t.t.t.i.$.$.! .       i *.$.t.t.$.&.X. ...<.@XoX'.@X@XoX'.oX'.oXoXoXoXoXoXoXoX.XoXoXoX.XoX.XoX'.'.[.|.k..       r >X5X5X5X5X",
"O       x $.$.y.t.t.y.i.$.$.! .       8 *.t.t.y.$.y.y.X.$.p.[.%X|.%X.X@X+X'.'.].oXoXoXoXoX|.oX'.oX|.oX.XoX|.@X X|.%X Xl..       r :X5X5X5X5X",
"        x i.$.t.t.$.t.$.t.$.! .       i *.t.t.y.y.y.y.X.$.$.*.@.$.%.<.oX'.'.'.@XoXoX.X|.oXoXoX|.@XoXoXOXOX|.!.#.&.@.@._ .       r :X5X5X5X5X",
"      . x y.$.t.t.t.i.$.t.$.! @     . i *.t.X.y.&.y.&.y.y.y.y.$.y.$.p.|.oX'.oXoXoX'.oXoXoXoXoXoX'.oX].].oX X!.@.@.$.t.`         r :X5X5X5X5X",
"        x y.$.t.X.i.i.i.t.$.! @     . i u.X.X.X.t.t.t.t.$.y.y.&.y.i.-.].].].oXoXoXoXoXoX'.'.oXoXoXoX'.'.oX X/.@.$. .i.` .       r :X5X5X5X5X",
"      O c *.$.$.X.X.i.i.$.$.! .       8 u.i.y.i.y.$.$.y.t.$.$.$.t.$.-. X X'.oX'.'.|.|.|.|.|.'.|.'.'.'. X X@X/.&.$. .t.` .       r :X5X5X5X5X",
"O     O f #.#.=.$.%.%.#.#.#.! .     . i u.y.X.i.$.y.y.t.t.t.$.$.t.t.p. X X%X|.{.{.|.[.[.{.|.{.|.[.|.{.|.|.{.G.&. . .t.^ .   .   r :X5X5X5X5X",
";X:X:X:X+.$ % % & & % % @ % $     .   8 *.y.i.y.$.y.y.$.$.y.$.$.t.i.$.%.*.$.u.*.*.*.*.*.%.u.u.u.u.u.u.u.*.&.*.$.$. .X.` .       r :X5X5X5X5X",
"5X5X5X5X3.O O             O           i u.t.X.i.t.$.$.t.t.t.$.&.X.X. . ...X.y.$.t.$.$.t.t.t.t.t.t.t.t.t.$.$.$.$.$. . .^ .       r >X5X5X5X5X",
"5X5X3X5X3.                            8 %.i.t.t.$.t.y.y.$.u.$.&.$.t. . . .X.$.X.$.$.t. .t.X.X.X. .$.i.t.t.t.t.t.$.$.X.` .   .   r :X5X5X5X5X",
"5X5X3X3X3.                            i *.i.X.y.$.y.y.$.t.t.$.$.t.X.X.@.t.$...X. .X.$.$. .t.X.$. .$.i.t.t.y.y.t.$.$.X.` .       r :X5X5X5X5X",
"5X5X5X5X0.< 5 5 2 5 < 0 < 0 :       . i *.t.X.i.$.t.t.$.t.$.$.i.i.i.$.' ] ] ' ' ' ' ' { ` { { ' ' { $.t.t.t.t.t.t. .t.`     .   r :X5X5X5X5X",
"5X5X5X5X3X:X2X:X2X:X1X1X2X1X3.O       i u.t.t.t.$.$.y.t.t.t.$.$.t.t./ @ @ $ @ @ @ $ @ @ @ % $ @ @ 9 *.y.t.t.t.t.y. .X.` .       r :X5X5X5X5X",
"5X5X5X5X5X5X5X5X5X5X5X5X5X5X0.O       8 u.t.X.i.y.t.y.$.t.y.y.$.y.$./ .       O       O           1 #.$.y.t.y.t.t...t.` .       r :X5X5X5X5X",
"5X5X5X5X5X5X5X5X5X5X5X5X5X5X0.O     . i *.t.X.t.$.$.t.$.$.$.$.X.i.i.` .                           3 *.$.y.y.t.t.t.&.X.` .   .   r :X5X5X5X5X",
"5X5X5X5X5X5X5X5X5X5X5X5X5X5X0.o       8 *.i.i.u.$.i.t.t.t. .$.$.t.$.) @ O O             O       . 3 #.$.y.y.y.y.y. .X.` .       r :X5X5X5X5X",
"5X5X5X5X5X5X5X5X5X5X5X5X5X5X0.O       y %.i.X.t.y.t.&.y.X.$.[ [ o.o.~ 4 5 < < < < < < < <         4 #.$.i.$.$.$.$.$.t.` .       r :X5X5X5X5X",
"5X5X5X5X5X5X5X5X5X5X5X5X5X5X0.o       8 u.i.t.t.%.$... .@./ - - $ $ d =X;X=X:X:X:X;X:X*XL.  .     3 #.t.u.t.t.i.$.$. .` O       r >X5X5X5X5X",
"5X5X5X5X5X5X5X5X5X5X5X5X5X5X0.O       i u.t.i.t.y.t...t.@.) .       d 3X5X3X5X5X5X5X5X3XW.. .   . 3 @.t.i.t.i.t.t.$.$.` .       r >X5X5X5X5X",
"5X5X5X5X5X5X5X5X5X5X5X5X5X5X0.o       i *.i.i.t.i.i.X.t.$.^ .       s 6X5X5X5X5X5X5X5X5XW.        4 #.y.$.i.t.t.$.$. .` .       r :X5X5X5X5X",
"5X5X5X5X5X5X5X5X5X5X5X5X3X5X0.o     O a #.@.t.$.&.$.$.X.$.) .       d 5X5X5X5X5X5X5X5X5XW.      . 3 #.$.$.$.$.$.$. .$.` O       r *X5X5X5X5X",
"5X5X5X5X5X5X5X5X5X5X5X5X5X5Xe.< < < 2 x o.} | | } } } | { ~ 5 < < < h 3X3X5X5X5X5X5X5X3XW., , < 2 a o.} | } | | } } | ^ < < < < k >X5X5X5X5X",
"5X5X5X5X5X5X5X5X5X5X5X5X5X5X6X3X2X6X2Xx.@ @ @ @ o @ @ @ $ v <X2X6X2X6X3X3X5X5X5X5X5X5X5X5X1X2X2X2XL.o @ @ @ @ @ @ @ @ v 2X2X3X2X6X5X5X5X5X5X",
"5X5X5X5X5X5X5X5X5X5X5X5X5X5X5X5X3X5X5Xx..   .           . v 6X5X3X5X5X5X5X5X5X5X5X5X5X5X5X5X5X5X3XE.O .           . . j 6X4X3X5X5X3X5X5X5X5X",
"5X5X5X5X5X5X5X5X5X5X5X5X5X5X5X5X5X5X5Xr.                  h 3X5X5X5X5X5X5X5X5X5X5X5X5X5X5X5X3X5X5XE.O                 j 3X5X3X5X5X5X5X5X5X5X",
"5X5X5X5X5X5X5X5X5X5X5X5X5X5X5X5X5X5X5Xr.                  h 3X5X5X5X5X5X5X5X5X5X5X5X5X5X5X5X5X5X3XE.O                 d 3X3X5X3X5X5X5X5X5X5X",
"5X5X5X5X5X5X5X5X5X5X5X5X5X5X5X5X5X5X5Xw.+ + o o o o : o o M 3X5X5X5X5X5X5X5X5X5X5X5X5X5X5X5X5X5X5XE.: o o + + + : o o k 3X5X5X5X5X5X5X5X5X5X"
};
